<svg width="24" height="25" viewBox="0 0 24 25" fill="#FF5252" xmlns="http://www.w3.org/2000/svg">
<path d="M13.4702 15.9698C13.3965 16.0385 13.3374 16.1213 13.2964 16.2133C13.2554 16.3053 13.2334 16.4046 13.2316 16.5053C13.2298 16.606 13.2483 16.7061 13.286 16.7994C13.3238 16.8928 13.3799 16.9777 13.4511 17.0489C13.5224 17.1201 13.6072 17.1762 13.7006 17.214C13.794 17.2517 13.894 17.2702 13.9947 17.2684C14.0954 17.2667 14.1947 17.2446 14.2867 17.2036C14.3787 17.1626 14.4615 17.1035 14.5302 17.0298L18.5302 13.0298C18.6706 12.8892 18.7495 12.6986 18.7495 12.4998C18.7495 12.3011 18.6706 12.1105 18.5302 11.9698L14.5302 7.96985C14.4615 7.89616 14.3787 7.83706 14.2867 7.79607C14.1947 7.75507 14.0954 7.73303 13.9947 7.73126C13.894 7.72948 13.794 7.748 13.7006 7.78572C13.6072 7.82344 13.5224 7.87959 13.4511 7.95081C13.3799 8.02203 13.3238 8.10686 13.286 8.20025C13.2483 8.29364 13.2298 8.39367 13.2316 8.49437C13.2334 8.59507 13.2554 8.69439 13.2964 8.78638C13.3374 8.87838 13.3965 8.96118 13.4702 9.02985L16.1902 11.7498H6.50017C6.30126 11.7498 6.11049 11.8289 5.96984 11.9695C5.82919 12.1102 5.75017 12.3009 5.75017 12.4998C5.75017 12.6988 5.82919 12.8895 5.96984 13.0302C6.11049 13.1708 6.30126 13.2498 6.50017 13.2498H16.1902L13.4702 15.9698Z" fill="#FF5252"/>
</svg>
