<svg width="24" height="25" viewBox="0 0 24 25" fill="none" xmlns="http://www.w3.org/2000/svg">
<path d="M13.4707 15.9698C13.397 16.0385 13.3379 16.1213 13.2969 16.2133C13.2559 16.3053 13.2338 16.4046 13.2321 16.5053C13.2303 16.606 13.2488 16.7061 13.2865 16.7994C13.3243 16.8928 13.3804 16.9777 13.4516 17.0489C13.5228 17.1201 13.6077 17.1762 13.7011 17.214C13.7945 17.2517 13.8945 17.2702 13.9952 17.2684C14.0959 17.2667 14.1952 17.2446 14.2872 17.2036C14.3792 17.1626 14.462 17.1035 14.5307 17.0298L18.5307 13.0298C18.6711 12.8892 18.75 12.6986 18.75 12.4998C18.75 12.3011 18.6711 12.1105 18.5307 11.9698L14.5307 7.96985C14.462 7.89616 14.3792 7.83706 14.2872 7.79607C14.1952 7.75507 14.0959 7.73303 13.9952 7.73126C13.8945 7.72948 13.7945 7.748 13.7011 7.78572C13.6077 7.82344 13.5228 7.87959 13.4516 7.95081C13.3804 8.02203 13.3243 8.10686 13.2865 8.20025C13.2488 8.29364 13.2303 8.39367 13.2321 8.49437C13.2338 8.59507 13.2559 8.69439 13.2969 8.78638C13.3379 8.87838 13.397 8.96118 13.4707 9.02985L16.1907 11.7498H6.50066C6.30175 11.7498 6.11098 11.8289 5.97033 11.9695C5.82968 12.1102 5.75066 12.3009 5.75066 12.4998C5.75066 12.6988 5.82968 12.8895 5.97033 13.0302C6.11098 13.1708 6.30175 13.2498 6.50066 13.2498H16.1907L13.4707 15.9698Z" fill="black"/>
</svg>
