<svg width="34" height="34" viewBox="0 0 34 34" fill="none" xmlns="http://www.w3.org/2000/svg">
<g clip-path="url(#clip0_8777_18520)">
<circle cx="17" cy="17" r="17" fill="white"/>
<path d="M17 5C14.6266 5 12.3066 5.70379 10.3332 7.02236C8.35977 8.34094 6.8217 10.2151 5.91345 12.4078C5.0052 14.6005 4.76756 17.0133 5.23058 19.3411C5.6936 21.6689 6.83649 23.8071 8.51472 25.4853C10.193 27.1635 12.3312 28.3064 14.6589 28.7694C16.9867 29.2324 19.3995 28.9948 21.5922 28.0866C23.7849 27.1783 25.6591 25.6402 26.9776 23.6668C28.2962 21.6935 29 19.3734 29 17C29 13.8174 27.7357 10.7652 25.4853 8.51472C23.2348 6.26428 20.1826 5 17 5ZM15 10.15C15 9.75444 15.1173 9.36776 15.3371 9.03886C15.5568 8.70996 15.8692 8.45362 16.2346 8.30224C16.6001 8.15087 17.0022 8.11126 17.3902 8.18843C17.7781 8.2656 18.1345 8.45608 18.4142 8.73579C18.6939 9.01549 18.8844 9.37186 18.9616 9.75982C19.0387 10.1478 18.9991 10.5499 18.8478 10.9154C18.6964 11.2808 18.44 11.5932 18.1111 11.8129C17.7822 12.0327 17.3956 12.15 17 12.15C16.7291 12.1636 16.4582 12.1219 16.2039 12.0274C15.9496 11.933 15.7171 11.7879 15.5207 11.6008C15.3243 11.4137 15.1679 11.1886 15.0612 10.9392C14.9545 10.6898 14.8997 10.4213 14.9 10.15H15ZM22 23C22 23.2652 21.8946 23.5196 21.7071 23.7071C21.5196 23.8946 21.2652 24 21 24H14C13.7348 24 13.4804 23.8946 13.2929 23.7071C13.1054 23.5196 13 23.2652 13 23C13 22.7348 13.1054 22.4804 13.2929 22.2929C13.4804 22.1054 13.7348 22 14 22H16V16H15C14.7348 16 14.4804 15.8946 14.2929 15.7071C14.1054 15.5196 14 15.2652 14 15C14 14.7348 14.1054 14.4804 14.2929 14.2929C14.4804 14.1054 14.7348 14 15 14H19V22H21C21.2652 22 21.5196 22.1054 21.7071 22.2929C21.8946 22.4804 22 22.7348 22 23Z" fill="#0095E9"/>
</g>
<defs>
<clipPath id="clip0_8777_18520">
<rect width="34" height="34" rx="10" fill="white"/>
</clipPath>
</defs>
</svg>
