<svg width="40" height="40" viewBox="0 0 40 40" fill="none" xmlns="http://www.w3.org/2000/svg">
<path d="M18.375 15.0605H36.25M3.75 18.3105L8.31138 13.1804C8.9212 12.4942 9.66948 11.9449 10.5069 11.5687C11.3444 11.1925 12.2521 10.9981 13.1701 10.998H13.5M3.75 32.123H12.6875L19.1875 27.248C19.1875 27.248 20.5037 26.3592 22.4375 24.8105C26.5 21.5605 22.4375 16.4158 18.375 19.123C15.0665 21.3282 11.875 23.1855 11.875 23.1855" stroke="black" stroke-width="1.5" stroke-linecap="round" stroke-linejoin="round"/>
<path d="M13.5 22.373V11.8105C13.5 10.9486 13.8424 10.1219 14.4519 9.51245C15.0614 8.90296 15.888 8.56055 16.75 8.56055H33C33.862 8.56055 34.6886 8.90296 35.2981 9.51245C35.9076 10.1219 36.25 10.9486 36.25 11.8105V21.5605C36.25 22.4225 35.9076 23.2492 35.2981 23.8586C34.6886 24.4681 33.862 24.8105 33 24.8105H22.4375" stroke="black" stroke-width="1.5"/>
</svg>
