<svg width="30" height="31" viewBox="0 0 30 31" fill="none" xmlns="http://www.w3.org/2000/svg">
<path d="M26.25 6.04858H18.75C18.0026 6.04914 17.2673 6.23782 16.6119 6.59724C15.9566 6.95665 15.4022 7.47525 15 8.10523C14.5978 7.47525 14.0434 6.95665 13.3881 6.59724C12.7327 6.23782 11.9974 6.04914 11.25 6.04858H3.75C3.31488 6.04858 2.89758 6.22144 2.5899 6.52911C2.28223 6.83679 2.10938 7.25409 2.10938 7.68921V22.6892C2.10938 23.1243 2.28223 23.5416 2.5899 23.8493C2.89758 24.157 3.31488 24.3298 3.75 24.3298H11.25C12.0581 24.3298 12.8331 24.6508 13.4045 25.2222C13.9759 25.7936 14.2969 26.5686 14.2969 27.3767C14.2969 27.5632 14.371 27.742 14.5028 27.8739C14.6347 28.0058 14.8135 28.0798 15 28.0798C15.1865 28.0798 15.3653 28.0058 15.4972 27.8739C15.629 27.742 15.7031 27.5632 15.7031 27.3767C15.7031 26.5686 16.0241 25.7936 16.5955 25.2222C17.1669 24.6508 17.9419 24.3298 18.75 24.3298H26.25C26.6851 24.3298 27.1024 24.157 27.4101 23.8493C27.7178 23.5416 27.8906 23.1243 27.8906 22.6892V7.68921C27.8906 7.25409 27.7178 6.83679 27.4101 6.52911C27.1024 6.22144 26.6851 6.04858 26.25 6.04858ZM11.25 22.9236H3.75C3.68784 22.9236 3.62823 22.8989 3.58427 22.8549C3.54032 22.811 3.51562 22.7514 3.51562 22.6892V7.68921C3.51562 7.62705 3.54032 7.56743 3.58427 7.52348C3.62823 7.47953 3.68784 7.45483 3.75 7.45483H11.25C12.0581 7.45483 12.8331 7.77584 13.4045 8.34724C13.9759 8.91864 14.2969 9.69363 14.2969 10.5017V24.1318C13.4727 23.3549 12.3826 22.9226 11.25 22.9236ZM26.4844 22.6892C26.4844 22.7514 26.4597 22.811 26.4157 22.8549C26.3718 22.8989 26.3122 22.9236 26.25 22.9236H18.75C17.6173 22.9231 16.5272 23.3558 15.7031 24.133V10.5017C15.7031 9.69363 16.0241 8.91864 16.5955 8.34724C17.1669 7.77584 17.9419 7.45483 18.75 7.45483H26.25C26.3122 7.45483 26.3718 7.47953 26.4157 7.52348C26.4597 7.56743 26.4844 7.62705 26.4844 7.68921V22.6892ZM24.1406 11.4392C24.1406 11.6257 24.0665 11.8045 23.9347 11.9364C23.8028 12.0683 23.624 12.1423 23.4375 12.1423H18.75C18.5635 12.1423 18.3847 12.0683 18.2528 11.9364C18.121 11.8045 18.0469 11.6257 18.0469 11.4392C18.0469 11.2527 18.121 11.0739 18.2528 10.942C18.3847 10.8102 18.5635 10.7361 18.75 10.7361H23.4375C23.624 10.7361 23.8028 10.8102 23.9347 10.942C24.0665 11.0739 24.1406 11.2527 24.1406 11.4392ZM24.1406 15.1892C24.1406 15.3757 24.0665 15.5545 23.9347 15.6864C23.8028 15.8183 23.624 15.8923 23.4375 15.8923H18.75C18.5635 15.8923 18.3847 15.8183 18.2528 15.6864C18.121 15.5545 18.0469 15.3757 18.0469 15.1892C18.0469 15.0027 18.121 14.8239 18.2528 14.692C18.3847 14.5602 18.5635 14.4861 18.75 14.4861H23.4375C23.624 14.4861 23.8028 14.5602 23.9347 14.692C24.0665 14.8239 24.1406 15.0027 24.1406 15.1892ZM24.1406 18.9392C24.1406 19.1257 24.0665 19.3045 23.9347 19.4364C23.8028 19.5683 23.624 19.6423 23.4375 19.6423H18.75C18.5635 19.6423 18.3847 19.5683 18.2528 19.4364C18.121 19.3045 18.0469 19.1257 18.0469 18.9392C18.0469 18.7527 18.121 18.5739 18.2528 18.442C18.3847 18.3102 18.5635 18.2361 18.75 18.2361H23.4375C23.624 18.2361 23.8028 18.3102 23.9347 18.442C24.0665 18.5739 24.1406 18.7527 24.1406 18.9392Z" fill="#E65100"/>
</svg>
