<svg width="30" height="31" viewBox="0 0 30 31" fill="none" xmlns="http://www.w3.org/2000/svg">
<path d="M21.5625 3.00171H8.4375C7.44294 3.00171 6.48911 3.3968 5.78585 4.10006C5.08259 4.80332 4.6875 5.75715 4.6875 6.75171V21.7517C4.6875 22.7463 5.08259 23.7001 5.78585 24.4034C6.48911 25.1066 7.44294 25.5017 8.4375 25.5017H9.375L7.6875 27.7517C7.61363 27.8502 7.55989 27.9623 7.52933 28.0815C7.49878 28.2008 7.49201 28.3249 7.50942 28.4468C7.52683 28.5687 7.56808 28.6859 7.63081 28.7919C7.69353 28.8978 7.77651 28.9903 7.875 29.0642C7.97349 29.1381 8.08557 29.1918 8.20483 29.2224C8.32409 29.2529 8.44821 29.2597 8.57008 29.2423C8.69196 29.2249 8.80921 29.1836 8.91515 29.1209C9.02109 29.0582 9.11363 28.9752 9.1875 28.8767L11.7188 25.5017H18.2812L20.8125 28.8767C20.9617 29.0756 21.1838 29.2071 21.4299 29.2423C21.6761 29.2775 21.9261 29.2134 22.125 29.0642C22.3239 28.915 22.4554 28.6929 22.4906 28.4468C22.5257 28.2007 22.4617 27.9506 22.3125 27.7517L20.625 25.5017H21.5625C22.5571 25.5017 23.5109 25.1066 24.2141 24.4034C24.9174 23.7001 25.3125 22.7463 25.3125 21.7517V6.75171C25.3125 5.75715 24.9174 4.80332 24.2141 4.10006C23.5109 3.3968 22.5571 3.00171 21.5625 3.00171ZM6.5625 14.2517V9.56421H14.0625V14.2517H6.5625ZM15.9375 9.56421H23.4375V14.2517H15.9375V9.56421ZM8.4375 4.87671H21.5625C22.0598 4.87671 22.5367 5.07425 22.8883 5.42588C23.24 5.77751 23.4375 6.25443 23.4375 6.75171V7.68921H6.5625V6.75171C6.5625 6.25443 6.76004 5.77751 7.11167 5.42588C7.46331 5.07425 7.94022 4.87671 8.4375 4.87671ZM21.5625 23.6267H8.4375C7.94022 23.6267 7.46331 23.4292 7.11167 23.0775C6.76004 22.7259 6.5625 22.249 6.5625 21.7517V16.1267H23.4375V21.7517C23.4375 22.249 23.24 22.7259 22.8883 23.0775C22.5367 23.4292 22.0598 23.6267 21.5625 23.6267ZM11.25 20.3455C11.25 20.6236 11.1675 20.8955 11.013 21.1267C10.8585 21.358 10.6389 21.5382 10.3819 21.6447C10.1249 21.7511 9.84219 21.7789 9.5694 21.7247C9.29662 21.6704 9.04605 21.5365 8.84938 21.3398C8.65271 21.1432 8.51878 20.8926 8.46452 20.6198C8.41026 20.347 8.43811 20.0643 8.54454 19.8073C8.65098 19.5504 8.83122 19.3307 9.06248 19.1762C9.29374 19.0217 9.56562 18.9392 9.84375 18.9392C10.2167 18.9392 10.5744 19.0874 10.8381 19.3511C11.1018 19.6148 11.25 19.9725 11.25 20.3455ZM21.5625 20.3455C21.5625 20.6236 21.48 20.8955 21.3255 21.1267C21.171 21.358 20.9514 21.5382 20.6944 21.6447C20.4374 21.7511 20.1547 21.7789 19.8819 21.7247C19.6091 21.6704 19.3585 21.5365 19.1619 21.3398C18.9652 21.1432 18.8313 20.8926 18.777 20.6198C18.7228 20.347 18.7506 20.0643 18.857 19.8073C18.9635 19.5504 19.1437 19.3307 19.375 19.1762C19.6062 19.0217 19.8781 18.9392 20.1562 18.9392C20.5292 18.9392 20.8869 19.0874 21.1506 19.3511C21.4143 19.6148 21.5625 19.9725 21.5625 20.3455Z" fill="#424242"/>
</svg>
