<svg width="22" height="22" viewBox="0 0 22 22" fill="none" xmlns="http://www.w3.org/2000/svg">
<g id="system-uicons:calendar-month">
<g id="Group">
<path id="Vector" d="M3.49146 7H19.4915M5.49146 3H17.4915C18.0219 3 18.5306 3.21071 18.9057 3.58579C19.2807 3.96086 19.4915 4.46957 19.4915 5V17C19.4915 17.5304 19.2807 18.0391 18.9057 18.4142C18.5306 18.7893 18.0219 19 17.4915 19H5.49146C4.96102 19 4.45231 18.7893 4.07724 18.4142C3.70217 18.0391 3.49146 17.5304 3.49146 17V5C3.49146 4.46957 3.70217 3.96086 4.07724 3.58579C4.45231 3.21071 4.96102 3 5.49146 3Z" stroke="#05050A" stroke-linecap="round" stroke-linejoin="round"/>
<g id="Group_2">
<path id="Vector_2" d="M11.4915 12C12.0437 12 12.4915 11.5523 12.4915 11C12.4915 10.4477 12.0437 10 11.4915 10C10.9392 10 10.4915 10.4477 10.4915 11C10.4915 11.5523 10.9392 12 11.4915 12Z" fill="#05050A"/>
<path id="Vector_3" d="M7.49146 12C8.04374 12 8.49146 11.5523 8.49146 11C8.49146 10.4477 8.04374 10 7.49146 10C6.93917 10 6.49146 10.4477 6.49146 11C6.49146 11.5523 6.93917 12 7.49146 12Z" fill="#05050A"/>
<path id="Vector_4" d="M15.4915 12C16.0437 12 16.4915 11.5523 16.4915 11C16.4915 10.4477 16.0437 10 15.4915 10C14.9392 10 14.4915 10.4477 14.4915 11C14.4915 11.5523 14.9392 12 15.4915 12Z" fill="#05050A"/>
<path id="Vector_5" d="M11.4915 16C12.0437 16 12.4915 15.5523 12.4915 15C12.4915 14.4477 12.0437 14 11.4915 14C10.9392 14 10.4915 14.4477 10.4915 15C10.4915 15.5523 10.9392 16 11.4915 16Z" fill="#05050A"/>
<path id="Vector_6" d="M7.49146 16C8.04374 16 8.49146 15.5523 8.49146 15C8.49146 14.4477 8.04374 14 7.49146 14C6.93917 14 6.49146 14.4477 6.49146 15C6.49146 15.5523 6.93917 16 7.49146 16Z" fill="#05050A"/>
<path id="Vector_7" d="M15.4915 16C16.0437 16 16.4915 15.5523 16.4915 15C16.4915 14.4477 16.0437 14 15.4915 14C14.9392 14 14.4915 14.4477 14.4915 15C14.4915 15.5523 14.9392 16 15.4915 16Z" fill="#05050A"/>
</g>
</g>
</g>
</svg>
