<svg width="34" height="34" viewBox="0 0 34 34" fill="none" xmlns="http://www.w3.org/2000/svg">
<g clip-path="url(#clip0_9273_24046)">
<path d="M28.8907 4.85117C28.1601 4.13705 27.367 3.4898 26.521 2.91715C23.0076 0.541574 18.7329 -0.434964 14.5363 0.179293C10.3397 0.793549 6.52439 2.95422 3.83951 6.23704C1.15462 9.51986 -0.205835 13.6876 0.025272 17.922C0.256379 22.1564 2.06236 26.1514 5.08858 29.1226L5.12207 29.1645L5.17232 29.2021C5.51564 29.537 5.86733 29.8594 6.23996 30.165C9.6299 32.9341 13.9574 34.2892 18.3215 33.9483C22.6857 33.6074 26.7502 31.5968 29.6689 28.3349C32.5876 25.073 34.1356 20.8113 33.9907 16.437C33.8457 12.0626 32.019 7.91271 28.8907 4.85117ZM16.9959 2.08411C19.9669 2.07823 22.8711 2.96495 25.3319 4.6293C25.7823 4.93882 26.2142 5.27428 26.6256 5.63398L5.85058 26.8872C3.94148 24.7396 2.69402 22.0859 2.25842 19.2459C1.82282 16.4058 2.21765 13.5003 3.39536 10.8794C4.57308 8.25851 6.48346 6.03387 8.89647 4.47342C11.3095 2.91296 14.1222 2.08322 16.9959 2.08411ZM16.9959 31.898C13.5525 31.8961 10.2156 30.7041 7.55044 28.524C7.47926 28.4696 7.41646 28.4068 7.34947 28.3482L28.1413 7.09496C30.0504 9.24257 31.2978 11.8962 31.7334 14.7363C32.169 17.5764 31.7742 20.4818 30.5965 23.1027C29.4188 25.7236 27.5084 27.9483 25.0954 29.5087C22.6824 31.0692 19.8697 31.8989 16.9959 31.898Z" fill="#FF5252"/>
</g>
<defs>
<clipPath id="clip0_9273_24046">
<rect width="34" height="34" fill="white"/>
</clipPath>
</defs>
</svg>
