<svg width="34" height="34" viewBox="0 0 34 34" fill="none" xmlns="http://www.w3.org/2000/svg">
<g clip-path="url(#clip0_9273_24222)">
<path d="M17 34C7.6 34 0 26.4 0 17C0 7.6 7.6 0 17 0C26.4 0 34 7.6 34 17C34 26.4 26.4 34 17 34ZM17 2C8.7 2 2 8.7 2 17C2 25.3 8.7 32 17 32C25.3 32 32 25.3 32 17C32 8.7 25.3 2 17 2Z" fill="#828282"/>
<path d="M24.2847 8.30273L25.6987 9.71773L9.71869 25.6977L8.30469 24.2837L24.2847 8.30273Z" fill="#828282"/>
<path d="M9.71869 8.30273L25.6987 24.2827L24.2847 25.6977L8.30469 9.71773L9.71869 8.30273Z" fill="#828282"/>
</g>
<defs>
<clipPath id="clip0_9273_24222">
<rect width="34" height="34" fill="white"/>
</clipPath>
</defs>
</svg>
