<svg width="34" height="34" viewBox="0 0 34 34" fill="none" xmlns="http://www.w3.org/2000/svg">
<g clip-path="url(#clip0_9273_23629)">
<path d="M17 0C7.61122 0 0 7.61122 0 17C0 26.3893 7.61122 34 17 34C26.3893 34 34 26.3893 34 17C34 7.61122 26.3893 0 17 0ZM17 31.9085C8.79803 31.9085 2.125 25.202 2.125 16.9999C2.125 8.79796 8.79803 2.12493 17 2.12493C25.202 2.12493 31.875 8.798 31.875 16.9999C31.875 25.2019 25.202 31.9085 17 31.9085ZM23.7846 10.7796L13.8103 20.8165L9.31862 16.3248C8.90372 15.9099 8.23115 15.9099 7.81572 16.3248C7.40081 16.7397 7.40081 17.4123 7.81572 17.8272L13.0746 23.0865C13.4895 23.5009 14.162 23.5009 14.5775 23.0865C14.6253 23.0387 14.6662 22.9866 14.7034 22.9325L25.288 12.2825C25.7024 11.8676 25.7024 11.195 25.288 10.7796C24.8726 10.3647 24.2 10.3647 23.7846 10.7796Z" fill="#64DD17"/>
</g>
<defs>
<clipPath id="clip0_9273_23629">
<rect width="34" height="34" fill="white"/>
</clipPath>
</defs>
</svg>
