<svg width="30" height="31" viewBox="0 0 30 31" fill="none" xmlns="http://www.w3.org/2000/svg">
<path d="M24.9985 10.189H4.99854C3.963 10.189 3.12354 11.0284 3.12354 12.064V24.564C3.12354 25.5995 3.963 26.439 4.99854 26.439H24.9985C26.0341 26.439 26.8735 25.5995 26.8735 24.564V12.064C26.8735 11.0284 26.0341 10.189 24.9985 10.189Z" stroke="#424242" stroke-width="2" stroke-linejoin="round"/>
<path d="M11.8735 5.18896H18.1235V2.68896H11.8735V5.18896ZM18.7485 5.81396V10.189H21.2485V5.81396H18.7485ZM11.2485 10.189V5.81396H8.74854V10.189H11.2485ZM18.1235 5.18896C18.2893 5.18896 18.4483 5.25481 18.5655 5.37202C18.6827 5.48923 18.7485 5.6482 18.7485 5.81396H21.2485C21.2485 4.98516 20.9193 4.19031 20.3332 3.60426C19.7472 3.0182 18.9523 2.68896 18.1235 2.68896V5.18896ZM11.8735 2.68896C11.0447 2.68896 10.2499 3.0182 9.66383 3.60426C9.07778 4.19031 8.74854 4.98516 8.74854 5.81396H11.2485C11.2485 5.6482 11.3144 5.48923 11.4316 5.37202C11.5488 5.25481 11.7078 5.18896 11.8735 5.18896V2.68896Z" fill="#424242"/>
<path d="M11.248 18.3141H18.748M14.998 14.5641V22.0641" stroke="#424242" stroke-width="2" stroke-linecap="round" stroke-linejoin="round"/>
</svg>
