<svg width="16" height="16" viewBox="0 0 16 16" fill="none" xmlns="http://www.w3.org/2000/svg">
<path fill-rule="evenodd" clip-rule="evenodd" d="M15.0292 7.76542L8.5332 4.98136V4.11742L9.06654 3.9467C9.37953 3.83611 9.65022 3.63088 9.84143 3.35943C10.0325 3.088 10.1345 2.76395 10.1332 2.43203V1.6C10.1332 1.17559 9.96464 0.768702 9.66464 0.468572C9.36452 0.16857 8.95762 0 8.53321 0H7.46654C7.04213 0 6.63524 0.16857 6.33511 0.468572C6.03511 0.768693 5.86654 1.17559 5.86654 1.6V2.13334H6.93321V1.6C6.93321 1.45857 6.9894 1.32286 7.0894 1.22286C7.1894 1.12286 7.32511 1.06667 7.46654 1.06667H8.53321C8.67464 1.06667 8.81036 1.12286 8.91035 1.22286C9.01035 1.32286 9.06654 1.45857 9.06654 1.6V2.43203C9.07262 2.54834 9.04047 2.66346 8.975 2.75965C8.90952 2.85596 8.81428 2.92822 8.70393 2.96537L7.82929 3.25334H7.82917C7.7275 3.28751 7.63845 3.35168 7.57369 3.43727C7.50905 3.52299 7.47167 3.62608 7.46655 3.73335V4.98132L0.965359 7.76538C0.678096 7.88943 0.433579 8.09501 0.262028 8.35668C0.0904777 8.61835 -0.000591397 8.92455 2.89011e-06 9.23738V10.1333C2.89011e-06 10.5577 0.168573 10.9646 0.468575 11.2648C0.768696 11.5648 1.17559 11.7333 1.60001 11.7333H3.73334V15.4667C3.73334 15.6081 3.78953 15.7438 3.88953 15.8438C3.98953 15.9438 4.12525 16 4.26668 16H9.60002C9.74145 16 9.87716 15.9438 9.97716 15.8438C10.0772 15.7438 10.1334 15.6081 10.1334 15.4667V13.8667H11.7334C11.8748 13.8667 12.0105 13.8105 12.1105 13.7105C12.2105 13.6105 12.2667 13.4748 12.2667 13.3333V11.7333H14.4C14.8244 11.7333 15.2313 11.5648 15.5315 11.2648C15.8315 10.9646 16 10.5577 16 10.1333V9.23738C16.0003 8.92381 15.9084 8.61725 15.7357 8.35559C15.5632 8.0938 15.3175 7.88857 15.0293 7.76535L15.0292 7.76542ZM9.06654 14.9334H4.79986V10.1334C4.79986 9.992 4.85606 9.85628 4.95606 9.75628C5.05605 9.65629 5.19177 9.60009 5.3332 9.60009H9.06654V14.9334ZM10.1332 12.8001V11.7334H11.1999V12.8001H10.1332ZM10.1332 10.6668V9.60009H10.6665C10.808 9.60009 10.9437 9.65629 11.0437 9.75628C11.1437 9.85628 11.1999 9.992 11.1999 10.1334V10.6668H10.1332ZM14.9332 10.1334C14.9332 10.2749 14.877 10.4106 14.777 10.5106C14.677 10.6106 14.5413 10.6668 14.3999 10.6668H12.2665V10.1334C12.2665 9.70902 12.098 9.30213 11.798 9.002C11.4978 8.702 11.091 8.53343 10.6665 8.53343H5.3332C4.90879 8.53343 4.5019 8.702 4.20177 9.002C3.90177 9.30212 3.7332 9.70902 3.7332 10.1334V10.6668H1.59986C1.45843 10.6668 1.32271 10.6106 1.22272 10.5106C1.12272 10.4106 1.06653 10.2749 1.06653 10.1334V9.23749C1.06617 9.13332 1.09629 9.03142 1.15307 8.94427C1.20998 8.85701 1.29117 8.78844 1.38653 8.74677L7.99987 5.91474L14.6077 8.74677C14.7042 8.7876 14.7864 8.85594 14.8443 8.9432C14.9021 9.03034 14.933 9.13272 14.9331 9.23748L14.9332 10.1334ZM5.59961 12.8001H8.26628V13.8668H5.59961V12.8001ZM8.26699 10.6667H6.66699V11.7334H8.26699V10.6667Z" fill="#212121"/>
</svg>
