<svg width="50" height="50" viewBox="0 0 50 50" fill="none" xmlns="http://www.w3.org/2000/svg">
<g clip-path="url(#clip0_1_2)">
<path d="M25 0C11.193 0 0 11.193 0 25C0 38.8078 11.193 50 25 50C38.8078 50 50 38.8078 50 25C50 11.193 38.8078 0 25 0ZM25 46.9242C12.9383 46.9242 3.125 37.0617 3.125 24.9999C3.125 12.9382 12.9383 3.1249 25 3.1249C37.0617 3.1249 46.875 12.9382 46.875 24.9999C46.875 37.0616 37.0617 46.9242 25 46.9242ZM33.8383 16.1617C33.2281 15.5516 32.2391 15.5516 31.6289 16.1617L25 22.7906L18.3711 16.1617C17.7609 15.5516 16.7719 15.5516 16.1609 16.1617C15.5508 16.7719 15.5508 17.7609 16.1609 18.3711L22.7898 25L16.1609 31.6289C15.5508 32.2383 15.5508 33.229 16.1609 33.8383C16.7711 34.4485 17.7602 34.4485 18.3711 33.8383L25 27.2094L31.6289 33.8383C32.2391 34.4485 33.2281 34.4485 33.8383 33.8383C34.4484 33.229 34.4484 32.2383 33.8383 31.6289L27.2094 25L33.8383 18.3711C34.4492 17.7602 34.4492 16.7711 33.8383 16.1617Z" fill="black"/>
</g>
<defs>
<clipPath id="clip0_1_2">
<rect width="50" height="50" fill="white"/>
</clipPath>
</defs>
</svg>
