<svg width="24" height="24" viewBox="0 0 24 24" fill="none" xmlns="http://www.w3.org/2000/svg">
<g id="mingcute:sale-fill" clip-path="url(#clip0_1_474)">
<g id="Group">
<path id="Vector" fill-rule="evenodd" clip-rule="evenodd" d="M9.40501 2.89695C10.1004 2.30439 10.9777 1.96774 11.891 1.943C12.8043 1.91825 13.6985 2.20691 14.425 2.76095L14.595 2.89695L14.971 3.21695C15.2447 3.45058 15.5764 3.60604 15.931 3.66695L16.109 3.68895L16.602 3.72895C17.5153 3.80182 18.3759 4.18599 19.0399 4.81723C19.7039 5.44847 20.1311 6.28853 20.25 7.19695L20.271 7.39695L20.311 7.89095C20.3393 8.24926 20.4637 8.59333 20.671 8.88695L20.781 9.02895L21.103 9.40495C21.6956 10.1004 22.0322 10.9777 22.057 11.8909C22.0817 12.8042 21.793 13.6985 21.239 14.4249L21.103 14.5949L20.782 14.9709C20.5484 15.2446 20.3929 15.5763 20.332 15.9309L20.31 16.1089L20.271 16.6019C20.1981 17.5152 19.814 18.3758 19.1827 19.0398C18.5515 19.7038 17.7114 20.131 16.803 20.2499L16.602 20.2709L16.109 20.3109C15.7507 20.3393 15.4066 20.4636 15.113 20.6709L14.971 20.7819L14.594 21.1019C13.8987 21.6947 13.0215 22.0315 12.1082 22.0564C11.1949 22.0813 10.3006 21.7929 9.57401 21.2389L9.40501 21.1029L9.02901 20.7819C8.75532 20.5483 8.42366 20.3929 8.06901 20.3319L7.89101 20.3109L7.39801 20.2709C6.48474 20.1981 5.62416 19.8139 4.96015 19.1827C4.29615 18.5514 3.86896 17.7114 3.75001 16.8029L3.72901 16.6029L3.68901 16.1089C3.66069 15.7506 3.53633 15.4066 3.32901 15.1129L3.21801 14.9709L2.89701 14.5939C2.30445 13.8985 1.9678 13.0212 1.94306 12.1079C1.91831 11.1947 2.20697 10.3004 2.76101 9.57395L2.89701 9.40495L3.21701 9.02895C3.45064 8.75526 3.6061 8.4236 3.66701 8.06895L3.68901 7.89095L3.72901 7.39795C3.80188 6.48468 4.18605 5.6241 4.81729 4.96009C5.44853 4.29608 6.28859 3.8689 7.19701 3.74995L7.39701 3.72895L7.89101 3.68895C8.24933 3.66063 8.59339 3.53627 8.88701 3.32895L9.02901 3.21795L9.40501 2.89695ZM14.5 12.9999C14.1022 12.9999 13.7207 13.158 13.4393 13.4393C13.158 13.7206 13 14.1021 13 14.4999C13 14.8978 13.158 15.2793 13.4393 15.5606C13.7207 15.8419 14.1022 15.9999 14.5 15.9999C14.8978 15.9999 15.2794 15.8419 15.5607 15.5606C15.842 15.2793 16 14.8978 16 14.4999C16 14.1021 15.842 13.7206 15.5607 13.4393C15.2794 13.158 14.8978 12.9999 14.5 12.9999ZM14.293 8.29295L8.29301 14.2929C8.1975 14.3852 8.12132 14.4955 8.06891 14.6175C8.0165 14.7395 7.98891 14.8708 7.98776 15.0035C7.9866 15.1363 8.01191 15.268 8.06219 15.3909C8.11247 15.5138 8.18672 15.6254 8.28061 15.7193C8.37451 15.8132 8.48616 15.8875 8.60905 15.9378C8.73195 15.988 8.86363 16.0134 8.99641 16.0122C9.12919 16.011 9.26041 15.9835 9.38241 15.931C9.50442 15.8786 9.61476 15.8025 9.70701 15.7069L15.707 9.70695C15.8892 9.51835 15.99 9.26574 15.9877 9.00355C15.9854 8.74135 15.8802 8.49054 15.6948 8.30513C15.5094 8.11972 15.2586 8.01455 14.9964 8.01227C14.7342 8.01 14.4816 8.11079 14.293 8.29295ZM9.50001 7.99995C9.10218 7.99995 8.72065 8.15798 8.43935 8.43929C8.15804 8.72059 8.00001 9.10212 8.00001 9.49995C8.00001 9.89777 8.15804 10.2793 8.43935 10.5606C8.72065 10.8419 9.10218 10.9999 9.50001 10.9999C9.89783 10.9999 10.2794 10.8419 10.5607 10.5606C10.842 10.2793 11 9.89777 11 9.49995C11 9.10212 10.842 8.72059 10.5607 8.43929C10.2794 8.15798 9.89783 7.99995 9.50001 7.99995Z" fill="#0095E9"/>
</g>
</g>
<defs>
<clipPath id="clip0_1_474">
<rect width="24" height="24" fill="white"/>
</clipPath>
</defs>
</svg>
