<svg width="28" height="20" viewBox="0 0 28 20" fill="none" xmlns="http://www.w3.org/2000/svg">
<g id="Group">
<g id="Group_2">
<g id="Group_3">
<path id="Vector" d="M4.22132 19.5H2.37449C2.27555 19.5 2.17662 19.4672 2.07768 19.369C2.01172 19.3034 1.94576 19.1724 1.94576 19.0741L2.14364 9.77069C0.956392 9.73793 0 8.62414 0 7.24828V3.02241C0 1.94138 0.593623 0.991379 1.45108 0.631034C1.58299 0.565517 1.71491 0.598276 1.81385 0.663793C1.91278 0.72931 1.97874 0.860345 1.97874 0.991379V5.34828H2.30853V0.893104C2.30853 0.663793 2.47343 0.5 2.70428 0.5H3.79259C4.02344 0.5 4.18834 0.663793 4.18834 0.893104V5.34828H4.51813V1.02414C4.51813 0.893104 4.58409 0.762069 4.68303 0.696552C4.78196 0.631035 4.94686 0.598276 5.04579 0.663793C5.90325 1.02414 6.49687 1.97414 6.49687 3.05517V7.28103C6.49687 8.6569 5.54048 9.77069 4.35323 9.80345L4.51813 19.1397C4.51813 19.2379 4.48515 19.3362 4.38621 19.4345C4.41919 19.4672 4.32026 19.5 4.22132 19.5ZM2.77024 18.681H3.79259L3.6277 9.34483C3.6277 9.24655 3.66067 9.14828 3.75961 9.05C3.82557 8.98448 3.92451 8.91897 4.05642 8.91897H4.41919C5.17771 8.91897 5.77133 8.13276 5.77133 7.18276V3.02241C5.77133 2.56379 5.63942 2.13793 5.37559 1.8431V5.77414C5.37559 6.00345 5.21069 6.16724 4.97984 6.16724H3.82557C3.59472 6.16724 3.42982 6.00345 3.42982 5.77414V1.31897H3.13301V5.77414C3.13301 6.00345 2.96811 6.16724 2.73726 6.16724H1.58299C1.35214 6.16724 1.18725 6.00345 1.18725 5.77414V1.8431C0.956393 2.17069 0.791497 2.59655 0.791497 3.02241V7.24828C0.791497 8.19828 1.4181 8.98448 2.14364 8.98448H2.50641C2.60535 8.98448 2.70428 9.01724 2.80322 9.11552C2.86918 9.18103 2.93514 9.31207 2.93514 9.41035L2.77024 18.681Z" fill="black"/>
</g>
<g id="Group_4">
<path id="Vector_2" d="M25.4275 19.5H23.5807C23.4818 19.5 23.3828 19.4672 23.2839 19.369C23.2179 19.3034 23.152 19.1724 23.152 19.0741L23.3169 9.50862C21.8988 8.88621 20.9424 7.11724 20.9424 5.11897C20.9424 2.56379 22.5254 0.5 24.4711 0.5C26.4169 0.5 27.9999 2.56379 27.9999 5.11897C27.9999 7.11724 27.0435 8.85345 25.6254 9.50862L25.7903 19.0741C25.7903 19.1724 25.7573 19.2707 25.6584 19.369C25.6254 19.4672 25.5265 19.5 25.4275 19.5ZM23.9765 18.681H24.9988L24.8339 9.24655C24.8339 9.08276 24.9328 8.91897 25.0977 8.85345C26.318 8.46034 27.2084 6.88793 27.2084 5.11897C27.2084 2.98965 25.9882 1.28621 24.4711 1.28621C22.9541 1.28621 21.7339 2.98965 21.7339 5.11897C21.7339 6.88793 22.6243 8.46034 23.8445 8.85345C24.0094 8.91897 24.1084 9.05 24.1084 9.24655L23.9765 18.681Z" fill="black"/>
</g>
</g>
<g id="Group_5">
<path id="Vector_3" d="M14.016 16.6496C10.3224 16.6496 7.32129 13.6686 7.32129 9.99961C7.32129 6.33064 10.3224 3.34961 14.016 3.34961C17.7097 3.34961 20.7108 6.33064 20.7108 9.99961C20.7108 13.6686 17.7097 16.6496 14.016 16.6496ZM14.016 4.13582C10.7511 4.13582 8.11279 6.75651 8.11279 9.99961C8.11279 13.2427 10.7511 15.8634 14.016 15.8634C17.281 15.8634 19.9193 13.2427 19.9193 9.99961C19.9193 6.75651 17.281 4.13582 14.016 4.13582Z" fill="black"/>
<path id="Vector_4" d="M14.0162 14.0616C11.7406 14.0616 9.92676 12.2272 9.92676 9.99957C9.92676 7.73922 11.7736 5.9375 14.0162 5.9375C16.2917 5.9375 18.1056 7.77198 18.1056 9.99957C18.1056 12.2599 16.2917 14.0616 14.0162 14.0616ZM14.0162 6.72371C12.2023 6.72371 10.7183 8.19785 10.7183 9.99957C10.7183 11.8013 12.2023 13.2754 14.0162 13.2754C15.83 13.2754 17.3141 11.8013 17.3141 9.99957C17.3141 8.19785 15.83 6.72371 14.0162 6.72371Z" fill="black"/>
</g>
</g>
</svg>
