<svg width="17" height="20" viewBox="0 0 17 20" fill="none" xmlns="http://www.w3.org/2000/svg">
<path id="Vector" d="M5.99072 3.00001C5.72551 3.00001 5.47115 3.10537 5.28362 3.2929C5.09608 3.48044 4.99072 3.73479 4.99072 4.00001C4.99072 4.26523 5.09608 4.51958 5.28362 4.70712C5.47115 4.89465 5.72551 5.00001 5.99072 5.00001C6.25594 5.00001 6.51029 4.89465 6.69783 4.70712C6.88537 4.51958 6.99072 4.26523 6.99072 4.00001C6.99072 3.73479 6.88537 3.48044 6.69783 3.2929C6.51029 3.10537 6.25594 3.00001 5.99072 3.00001ZM3.16072 3.00001C3.36732 2.41448 3.75046 1.90744 4.25732 1.5488C4.76418 1.19015 5.36981 0.997559 5.99072 0.997559C6.61164 0.997559 7.21726 1.19015 7.72412 1.5488C8.23098 1.90744 8.61412 2.41448 8.82072 3.00001H15.9907C16.2559 3.00001 16.5103 3.10537 16.6978 3.2929C16.8854 3.48044 16.9907 3.73479 16.9907 4.00001C16.9907 4.26523 16.8854 4.51958 16.6978 4.70712C16.5103 4.89465 16.2559 5.00001 15.9907 5.00001H8.82072C8.61412 5.58554 8.23098 6.09258 7.72412 6.45122C7.21726 6.80986 6.61164 7.00246 5.99072 7.00246C5.36981 7.00246 4.76418 6.80986 4.25732 6.45122C3.75046 6.09258 3.36732 5.58554 3.16072 5.00001H1.99072C1.72551 5.00001 1.47115 4.89465 1.28362 4.70712C1.09608 4.51958 0.990723 4.26523 0.990723 4.00001C0.990723 3.73479 1.09608 3.48044 1.28362 3.2929C1.47115 3.10537 1.72551 3.00001 1.99072 3.00001H3.16072ZM11.9907 9.00001C11.7255 9.00001 11.4712 9.10537 11.2836 9.2929C11.0961 9.48044 10.9907 9.73479 10.9907 10C10.9907 10.2652 11.0961 10.5196 11.2836 10.7071C11.4712 10.8947 11.7255 11 11.9907 11C12.2559 11 12.5103 10.8947 12.6978 10.7071C12.8854 10.5196 12.9907 10.2652 12.9907 10C12.9907 9.73479 12.8854 9.48044 12.6978 9.2929C12.5103 9.10537 12.2559 9.00001 11.9907 9.00001ZM9.16072 9.00001C9.36732 8.41448 9.75046 7.90744 10.2573 7.5488C10.7642 7.19015 11.3698 6.99756 11.9907 6.99756C12.6116 6.99756 13.2173 7.19015 13.7241 7.5488C14.231 7.90744 14.6141 8.41448 14.8207 9.00001H15.9907C16.2559 9.00001 16.5103 9.10537 16.6978 9.2929C16.8854 9.48044 16.9907 9.73479 16.9907 10C16.9907 10.2652 16.8854 10.5196 16.6978 10.7071C16.5103 10.8947 16.2559 11 15.9907 11H14.8207C14.6141 11.5855 14.231 12.0926 13.7241 12.4512C13.2173 12.8099 12.6116 13.0025 11.9907 13.0025C11.3698 13.0025 10.7642 12.8099 10.2573 12.4512C9.75046 12.0926 9.36732 11.5855 9.16072 11H1.99072C1.72551 11 1.47115 10.8947 1.28362 10.7071C1.09608 10.5196 0.990723 10.2652 0.990723 10C0.990723 9.73479 1.09608 9.48044 1.28362 9.2929C1.47115 9.10537 1.72551 9.00001 1.99072 9.00001H9.16072ZM5.99072 15C5.72551 15 5.47115 15.1054 5.28362 15.2929C5.09608 15.4804 4.99072 15.7348 4.99072 16C4.99072 16.2652 5.09608 16.5196 5.28362 16.7071C5.47115 16.8947 5.72551 17 5.99072 17C6.25594 17 6.51029 16.8947 6.69783 16.7071C6.88537 16.5196 6.99072 16.2652 6.99072 16C6.99072 15.7348 6.88537 15.4804 6.69783 15.2929C6.51029 15.1054 6.25594 15 5.99072 15ZM3.16072 15C3.36732 14.4145 3.75046 13.9074 4.25732 13.5488C4.76418 13.1902 5.36981 12.9976 5.99072 12.9976C6.61164 12.9976 7.21726 13.1902 7.72412 13.5488C8.23098 13.9074 8.61412 14.4145 8.82072 15H15.9907C16.2559 15 16.5103 15.1054 16.6978 15.2929C16.8854 15.4804 16.9907 15.7348 16.9907 16C16.9907 16.2652 16.8854 16.5196 16.6978 16.7071C16.5103 16.8947 16.2559 17 15.9907 17H8.82072C8.61412 17.5855 8.23098 18.0926 7.72412 18.4512C7.21726 18.8099 6.61164 19.0025 5.99072 19.0025C5.36981 19.0025 4.76418 18.8099 4.25732 18.4512C3.75046 18.0926 3.36732 17.5855 3.16072 17H1.99072C1.72551 17 1.47115 16.8947 1.28362 16.7071C1.09608 16.5196 0.990723 16.2652 0.990723 16C0.990723 15.7348 1.09608 15.4804 1.28362 15.2929C1.47115 15.1054 1.72551 15 1.99072 15H3.16072Z" fill="#212121"/>
</svg>
