<svg width="14" height="14" viewBox="0 0 14 14" fill="none" xmlns="http://www.w3.org/2000/svg">
<path d="M7.00002 6.70841C6.61325 6.70841 6.24231 6.55477 5.96882 6.28128C5.69533 6.00779 5.54169 5.63686 5.54169 5.25008C5.54169 4.86331 5.69533 4.49237 5.96882 4.21888C6.24231 3.94539 6.61325 3.79175 7.00002 3.79175C7.38679 3.79175 7.75773 3.94539 8.03122 4.21888C8.30471 4.49237 8.45835 4.86331 8.45835 5.25008C8.45835 5.44159 8.42063 5.63123 8.34734 5.80816C8.27406 5.98509 8.16664 6.14586 8.03122 6.28128C7.8958 6.4167 7.73503 6.52412 7.5581 6.59741C7.38117 6.67069 7.19153 6.70841 7.00002 6.70841ZM7.00002 1.16675C5.91705 1.16675 4.87844 1.59696 4.11267 2.36273C3.34689 3.1285 2.91669 4.16711 2.91669 5.25008C2.91669 8.31258 7.00002 12.8334 7.00002 12.8334C7.00002 12.8334 11.0834 8.31258 11.0834 5.25008C11.0834 4.16711 10.6531 3.1285 9.88737 2.36273C9.1216 1.59696 8.08299 1.16675 7.00002 1.16675Z" fill="#304FFE"/>
</svg>
