<svg width="31" height="32" viewBox="0 0 31 32" fill="none" xmlns="http://www.w3.org/2000/svg">
<path d="M15.5 6.3125H17.6145V8.42704H15.5V6.3125Z" fill="#757575"/>
<path d="M0.96875 30.5312H30.0312V1.46875H0.96875V30.5312ZM2.90625 3.40625H28.0938V28.5938H2.90625V3.40625Z" fill="#757575"/>
<path d="M17.2739 22.2385C17.1774 22.4034 17.0395 22.5402 16.8738 22.6354C16.7081 22.7306 16.5205 22.7809 16.3294 22.7813C16.1594 22.7813 15.9918 22.7417 15.8398 22.6656C15.6878 22.5895 15.5557 22.479 15.4539 22.3429C15.352 22.2069 15.2833 22.0489 15.2532 21.8816C15.2231 21.7143 15.2324 21.5423 15.2803 21.3793L17.44 14.0363C17.6573 13.2991 17.5835 12.5067 17.2339 11.8223C16.8843 11.1379 16.2855 10.6136 15.5609 10.3576C14.8363 10.1015 14.0411 10.1331 13.3391 10.4459C12.6371 10.7586 12.0818 11.3288 11.7876 12.0388L11.0781 13.7482L12.8677 14.4909L13.5772 12.7814C13.6813 12.5293 13.8781 12.3268 14.1272 12.2156C14.3762 12.1045 14.6584 12.0932 14.9156 12.1841C15.1727 12.2749 15.3851 12.4611 15.509 12.7041C15.6329 12.947 15.6588 13.2283 15.5813 13.4898L13.4216 20.8327C13.2887 21.2847 13.2629 21.7614 13.3464 22.225C13.4299 22.6887 13.6203 23.1265 13.9025 23.5037C14.1847 23.8809 14.551 24.1872 14.9722 24.3981C15.3935 24.6091 15.8581 24.7189 16.3292 24.719C16.8589 24.718 17.3792 24.5786 17.8385 24.3146C18.2978 24.0507 18.6802 23.6714 18.9478 23.2142L19.8621 21.6452L18.1882 20.6695L17.2739 22.2385Z" fill="#757575"/>
</svg>
