<svg width="16" height="16" viewBox="0 0 16 16" fill="none" xmlns="http://www.w3.org/2000/svg">
<path d="M13.5135 10.3433L13.9835 7.62334C14.0111 7.46392 14.0035 7.30039 13.9613 7.14421C13.9191 6.98802 13.8433 6.84294 13.7391 6.71912C13.635 6.5953 13.5051 6.49573 13.3584 6.42736C13.2118 6.359 13.052 6.3235 12.8902 6.32334H9.43619C9.35558 6.32336 9.27593 6.30582 9.20278 6.27196C9.12963 6.2381 9.06473 6.18872 9.01258 6.12725C8.96044 6.06578 8.9223 5.99369 8.90082 5.916C8.87934 5.8383 8.87503 5.75687 8.88819 5.67734L9.33019 2.98067C9.40207 2.54262 9.38163 2.09437 9.27019 1.66467C9.17752 1.30934 8.90352 1.02334 8.54219 0.907339L8.44552 0.876005C8.22686 0.806005 7.98885 0.822673 7.78285 0.921339C7.6722 0.973833 7.57432 1.04982 7.49603 1.144C7.41774 1.23818 7.36092 1.34829 7.32952 1.46667L7.01219 2.68934C6.91117 3.07843 6.76437 3.45416 6.57486 3.80867C6.29819 4.32667 5.87019 4.74201 5.42485 5.12534L4.46552 5.95201C4.33235 6.06694 4.22835 6.21184 4.16206 6.37478C4.09576 6.53773 4.06908 6.71408 4.08419 6.88934L4.62552 13.1513C4.64938 13.4283 4.77622 13.6862 4.98098 13.8742C5.18575 14.0622 5.45356 14.1665 5.73152 14.1667H8.83019C11.1515 14.1667 13.1322 12.5493 13.5135 10.3433Z" fill="black"/>
<path fill-rule="evenodd" clip-rule="evenodd" d="M1.97872 5.82334C2.10756 5.8177 2.23359 5.86207 2.33049 5.94717C2.42739 6.03227 2.48766 6.15152 2.49872 6.28L3.14539 13.7707C3.15634 13.8822 3.14444 13.9948 3.11041 14.1016C3.07639 14.2084 3.02095 14.3072 2.94748 14.3918C2.87401 14.4765 2.78406 14.5452 2.68312 14.594C2.58218 14.6427 2.47237 14.6703 2.36039 14.6752C2.24841 14.68 2.13661 14.662 2.03183 14.6222C1.92706 14.5824 1.83149 14.5216 1.75097 14.4437C1.67045 14.3657 1.60668 14.2721 1.56354 14.1687C1.52039 14.0652 1.49879 13.9541 1.50005 13.842V6.32267C1.49993 6.19368 1.54967 6.06963 1.63888 5.97645C1.72808 5.88327 1.84984 5.82884 1.97872 5.82334Z" fill="black"/>
</svg>
