<svg width="34" height="34" viewBox="0 0 34 34" fill="none" xmlns="http://www.w3.org/2000/svg">
<path d="M0.5 17C0.5 7.88866 7.88866 0.5 17 0.5C25.9441 0.5 33.2281 7.61988 33.4926 16.5H30.2414C30.1487 14.0549 29.3805 11.6796 28.0172 9.63979C26.5613 7.46126 24.492 5.76337 22.0711 4.7608C19.6502 3.75823 16.9864 3.496 14.4165 4.00728C11.8466 4.51856 9.48601 5.78038 7.63319 7.63319C5.78038 9.48601 4.51856 11.8466 4.00728 14.4165C3.496 16.9864 3.75823 19.6502 4.7608 22.0711C5.76337 24.492 7.46126 26.5613 9.63979 28.0172C11.6796 29.3805 14.0549 30.1487 16.5 30.2414V33.4926C7.61988 33.2281 0.5 25.9441 0.5 17Z" fill="#F9A825" stroke="white"/>
</svg>
