<svg width="34" height="34" viewBox="0 0 34 34" fill="none" xmlns="http://www.w3.org/2000/svg">
<g clip-path="url(#clip0_9273_24397)">
<path d="M18.701 0H1.10006C0.808307 0 0.528502 0.115899 0.3222 0.3222C0.115899 0.528502 0 0.808307 0 1.10006V24.2013C0 24.4931 0.115899 24.7729 0.3222 24.9792C0.528502 25.1855 0.808307 25.3014 1.10006 25.3014H11.0061L12.6221 27.4564C12.8888 27.8116 13.2343 28.0999 13.6315 28.2987C14.0287 28.4974 14.4666 28.6011 14.9108 28.6016H17.7709L19.0195 31.9348C19.1381 32.2488 19.3496 32.5191 19.6259 32.7098C19.9021 32.9005 20.23 33.0023 20.5656 33.0018H29.0735C29.3902 33.0025 29.7009 32.9158 29.9715 32.7514C30.2422 32.5869 30.4622 32.351 30.6074 32.0696C30.7527 31.7882 30.8175 31.4722 30.7949 31.1563C30.7722 30.8404 30.6628 30.5369 30.4788 30.2792L25.6655 23.5138C25.4082 23.1106 25.2387 22.6579 25.1677 22.1849L24.3817 17.0938C24.3112 16.6285 24.1299 16.1869 23.8532 15.8061C23.5765 15.4254 23.2124 15.1166 22.7916 14.9058L19.8011 13.4081V1.10006C19.8011 0.808307 19.6852 0.528502 19.4789 0.3222C19.2726 0.115899 18.9928 0 18.701 0ZM1.10006 1.10006H18.701V12.8619C18.4623 12.745 18.2029 12.6763 17.9376 12.6596C17.6723 12.643 17.4063 12.6787 17.1549 12.7649C16.647 12.9388 16.2291 13.3074 15.993 13.7895C15.7569 14.2717 15.7219 14.8278 15.8959 15.3357C16.0699 15.8436 16.4385 16.2615 16.9206 16.4976L18.706 17.3909L18.701 24.2013H1.10006V1.10006ZM23.2943 17.2616L24.0798 22.3527C24.1753 22.9859 24.4042 23.5917 24.7514 24.1298L29.5812 30.9183C29.6476 31.0114 29.6871 31.1211 29.6953 31.2351C29.7035 31.3492 29.6801 31.4634 29.6276 31.565C29.5751 31.6667 29.4956 31.7519 29.3979 31.8113C29.3001 31.8707 29.1879 31.902 29.0735 31.9018H20.5656C20.453 31.9017 20.3431 31.8675 20.2503 31.8037C20.1575 31.7398 20.0862 31.6494 20.0459 31.5442L18.6658 27.859C18.6266 27.7541 18.5563 27.6637 18.4643 27.5998C18.3723 27.5359 18.263 27.5016 18.151 27.5015H14.9113C14.6382 27.5015 14.3689 27.4379 14.1246 27.3158C13.8803 27.1937 13.6677 27.0165 13.5038 26.798L12.3806 25.3014H18.701C18.9928 25.3014 19.2726 25.1855 19.4789 24.9792C19.6852 24.7729 19.8011 24.4931 19.8011 24.2013L19.8055 17.9414L21.2015 18.6416C21.266 18.6741 21.3364 18.6936 21.4085 18.6989C21.4806 18.7042 21.553 18.6953 21.6217 18.6726C21.6903 18.65 21.7538 18.614 21.8086 18.5668C21.8633 18.5195 21.9082 18.462 21.9407 18.3974C21.9732 18.3328 21.9927 18.2625 21.998 18.1904C22.0033 18.1183 21.9944 18.0459 21.9717 17.9772C21.949 17.9086 21.9131 17.8451 21.8658 17.7903C21.8186 17.7356 21.7611 17.6907 21.6965 17.6582L17.4118 15.5131C17.1923 15.403 17.0255 15.2103 16.9482 14.9772C16.9099 14.8619 16.8947 14.7401 16.9034 14.6188C16.9122 14.4976 16.9447 14.3792 16.9992 14.2705C17.0537 14.1619 17.1291 14.065 17.221 13.9855C17.313 13.9059 17.4197 13.8453 17.5351 13.8069C17.7681 13.7296 18.0223 13.748 18.2418 13.858L22.301 15.8882C22.5645 16.0208 22.7922 16.2148 22.9651 16.4538C23.1379 16.6928 23.2509 16.9699 23.2943 17.2616Z" fill="#FF5252"/>
<path d="M15.9515 17.5996H3.85081C3.70493 17.5996 3.56503 17.6576 3.46188 17.7607C3.35873 17.8639 3.30078 18.0038 3.30078 18.1496C3.30078 18.2955 3.35873 18.4354 3.46188 18.5386C3.56503 18.6417 3.70493 18.6997 3.85081 18.6997H15.9515C16.0974 18.6997 16.2373 18.6417 16.3404 18.5386C16.4436 18.4354 16.5015 18.2955 16.5015 18.1496C16.5015 18.0038 16.4436 17.8639 16.3404 17.7607C16.2373 17.6576 16.0974 17.5996 15.9515 17.5996Z" fill="#FF5252"/>
<path d="M11.5512 20.9023H3.85081C3.70493 20.9023 3.56503 20.9603 3.46188 21.0634C3.35873 21.1666 3.30078 21.3065 3.30078 21.4524C3.30078 21.5983 3.35873 21.7382 3.46188 21.8413C3.56503 21.9445 3.70493 22.0024 3.85081 22.0024H11.5512C11.6971 22.0024 11.837 21.9445 11.9402 21.8413C12.0433 21.7382 12.1013 21.5983 12.1013 21.4524C12.1013 21.3065 12.0433 21.1666 11.9402 21.0634C11.837 20.9603 11.6971 20.9023 11.5512 20.9023Z" fill="#FF5252"/>
<path d="M10.3594 10.3921C11.3249 10.3921 12.2509 10.0027 12.9337 9.30959C13.6164 8.61644 14 7.67633 14 6.69607C14 5.71581 13.6164 4.7757 12.9337 4.08255C12.2509 3.38941 11.3249 3 10.3594 3H5V4.1179H6.37445V9.27424H5V10.3921H6.37445V11.9258H5V13.0437H6.37445V15H7.47558V13.0437H10.7809V11.9258H7.47558V10.3921H10.3594ZM7.47558 4.1179H10.3594C11.0329 4.1179 11.6788 4.38953 12.1551 4.87303C12.6313 5.35653 12.8989 6.0123 12.8989 6.69607C12.8989 7.37984 12.6313 8.03561 12.1551 8.51911C11.6788 9.00261 11.0329 9.27424 10.3594 9.27424H7.47558V4.1179Z" fill="#FF5252"/>
</g>
<defs>
<clipPath id="clip0_9273_24397">
<rect width="34" height="34" fill="white"/>
</clipPath>
</defs>
</svg>
