<svg width="88" height="21" viewBox="0 0 88 21" fill="none" xmlns="http://www.w3.org/2000/svg">
<g clip-path="url(#clip0_478_3)">
<path d="M26.8327 5.73406H28.783V7.43537C28.8977 7.18332 29.0507 6.94388 29.2419 6.71704C29.4331 6.4776 29.6498 6.26966 29.892 6.09323C30.147 5.91679 30.421 5.77817 30.7142 5.67735C31.0074 5.57653 31.3196 5.52612 31.6511 5.52612C32.4924 5.52612 33.1489 5.70255 33.6205 6.05542C34.0922 6.40828 34.4172 6.86826 34.5957 7.43537C34.8889 6.86826 35.2968 6.40828 35.8194 6.05542C36.3548 5.70255 36.973 5.52612 37.6742 5.52612C38.7321 5.52612 39.5479 5.83488 40.1215 6.45239C40.6952 7.0699 40.982 8.02765 40.982 9.32568V15.7529H38.8787V9.79833C38.8787 8.9035 38.7066 8.27343 38.3624 7.90795C38.031 7.52988 37.5785 7.34085 37.0049 7.34085C36.3165 7.34085 35.8003 7.57398 35.4561 8.04025C35.1247 8.49393 34.959 9.07998 34.959 9.79833V15.7529H32.8557V9.79833C32.8557 8.9035 32.6836 8.27343 32.3395 7.90795C32.008 7.52988 31.5555 7.34085 30.9819 7.34085C30.2935 7.34085 29.7773 7.57398 29.4331 8.04025C29.1017 8.49393 28.936 9.07998 28.936 9.79833V15.7529H26.8327V5.73406Z" fill="white"/>
<path d="M47.9611 15.9608C47.26 15.9608 46.6035 15.8537 45.9916 15.6395C45.3925 15.4126 44.8699 15.0849 44.4238 14.6565C43.9776 14.228 43.6271 13.6987 43.3721 13.0686C43.1172 12.4259 42.9897 11.6823 42.9897 10.838V10.4599C42.9897 9.66595 43.1172 8.96657 43.3721 8.36163C43.6271 7.74415 43.9776 7.22743 44.4238 6.81156C44.8699 6.38308 45.3925 6.06172 45.9916 5.84748C46.6035 5.63325 47.26 5.52612 47.9611 5.52612C48.6622 5.52612 49.3123 5.63325 49.9114 5.84748C50.5232 6.06172 51.0522 6.38308 51.4984 6.81156C51.9446 7.22743 52.2951 7.74415 52.55 8.36163C52.805 8.96657 52.9325 9.66595 52.9325 10.4599V10.838C52.9325 11.6823 52.805 12.4259 52.55 13.0686C52.2951 13.6987 51.9446 14.228 51.4984 14.6565C51.0522 15.0849 50.5232 15.4126 49.9114 15.6395C49.3123 15.8537 48.6622 15.9608 47.9611 15.9608ZM47.9611 14.1461C48.3308 14.1461 48.6813 14.0831 49.0128 13.9571C49.3569 13.831 49.6564 13.6357 49.9114 13.371C50.1791 13.1064 50.3894 12.7661 50.5424 12.3503C50.7081 11.9344 50.791 11.4302 50.791 10.838V10.4599C50.791 9.91803 50.7081 9.45175 50.5424 9.06107C50.3894 8.6704 50.1791 8.34903 49.9114 8.09695C49.6564 7.84495 49.3569 7.65587 49.0128 7.52988C48.6813 7.40386 48.3308 7.34085 47.9611 7.34085C47.5914 7.34085 47.2345 7.40386 46.8903 7.52988C46.5589 7.65587 46.2593 7.84495 45.9916 8.09695C45.7367 8.34903 45.5264 8.6704 45.3607 9.06107C45.2077 9.45175 45.1312 9.91803 45.1312 10.4599V10.838C45.1312 11.4302 45.2077 11.9344 45.3607 12.3503C45.5264 12.7661 45.7367 13.1064 45.9916 13.371C46.2593 13.6357 46.5589 13.831 46.8903 13.9571C47.2345 14.0831 47.5914 14.1461 47.9611 14.1461Z" fill="white"/>
<path d="M58.8523 15.9608C58.1003 15.9608 57.4566 15.8789 56.9212 15.7151C56.3986 15.5512 55.9588 15.3307 55.6019 15.0534C55.2577 14.7762 54.99 14.4549 54.7988 14.0894C54.6203 13.7113 54.5056 13.3206 54.4546 12.9174H56.5579C56.6471 13.2702 56.8638 13.5664 57.208 13.8058C57.5521 14.0327 58.1003 14.1461 58.8523 14.1461C59.6937 14.1461 60.2864 14.0327 60.6306 13.8058C60.9748 13.579 61.1469 13.2828 61.1469 12.9174C61.1469 12.7536 61.1023 12.6023 61.0131 12.4637C60.9238 12.3125 60.7772 12.1801 60.5733 12.0667C60.382 11.9407 60.1208 11.8272 59.7893 11.7264C59.4579 11.6256 59.0436 11.5437 58.5465 11.4807C57.9728 11.405 57.4502 11.2979 56.9786 11.1593C56.5069 11.0081 56.1054 10.8128 55.7739 10.5733C55.4425 10.3339 55.1876 10.044 55.0091 9.70375C54.8307 9.36355 54.7415 8.95398 54.7415 8.47503C54.7415 8.07175 54.8243 7.69375 54.99 7.34085C55.1557 6.97539 55.4106 6.66033 55.7548 6.39568C56.099 6.13104 56.526 5.9231 57.0359 5.77187C57.5585 5.60804 58.1641 5.52612 58.8523 5.52612C59.5152 5.52612 60.0888 5.60804 60.5733 5.77187C61.0577 5.9357 61.4592 6.15623 61.7778 6.43349C62.1093 6.71073 62.3579 7.03839 62.5235 7.41647C62.702 7.78195 62.8167 8.16633 62.8677 8.5696H60.7645C60.6625 8.17893 60.4521 7.87645 60.1335 7.66218C59.8276 7.44797 59.4005 7.34085 58.8523 7.34085C58.1003 7.34085 57.5777 7.45427 57.2845 7.68108C56.9913 7.90795 56.8447 8.17263 56.8447 8.47503C56.8447 8.6515 56.883 8.809 56.9594 8.94767C57.0359 9.08627 57.1634 9.21228 57.3419 9.32568C57.5203 9.42655 57.7625 9.52105 58.0685 9.60925C58.3871 9.69745 58.7886 9.76682 59.2731 9.81722C59.8594 9.89282 60.3948 10.0062 60.8792 10.1574C61.3763 10.3087 61.7969 10.5103 62.1411 10.7624C62.498 11.0018 62.7721 11.3042 62.9633 11.6697C63.1546 12.0226 63.2501 12.4385 63.2501 12.9174C63.2501 13.3458 63.1546 13.7491 62.9633 14.1272C62.7849 14.4927 62.5108 14.814 62.1411 15.0912C61.7842 15.3559 61.3253 15.5701 60.7645 15.734C60.2163 15.8852 59.579 15.9608 58.8523 15.9608Z" fill="white"/>
<path d="M66.9795 15.9607C66.5461 15.9607 66.1828 15.8158 65.8895 15.526C65.5963 15.2362 65.4498 14.877 65.4498 14.4485C65.4498 14.0074 65.5963 13.6483 65.8895 13.371C66.1828 13.0811 66.5461 12.9362 66.9795 12.9362C67.4129 12.9362 67.7762 13.0811 68.0693 13.371C68.3625 13.6483 68.5091 14.0074 68.5091 14.4485C68.5091 14.877 68.3625 15.2362 68.0693 15.526C67.7762 15.8158 67.4129 15.9607 66.9795 15.9607Z" fill="white"/>
<path d="M71.2734 5.73406H73.2237V7.43537C73.4277 6.91867 73.759 6.4713 74.218 6.09323C74.6896 5.71516 75.2696 5.52612 75.9577 5.52612C76.2763 5.52612 76.5122 5.53872 76.6655 5.56393C76.8308 5.58914 76.9461 5.61434 77.0099 5.63955V7.52988C76.7929 7.46688 76.5957 7.42277 76.4166 7.39756C76.2384 7.35975 76.0214 7.34085 75.7667 7.34085C75.3461 7.34085 74.9828 7.41647 74.6769 7.56768C74.3837 7.70635 74.1414 7.89535 73.9503 8.13483C73.7591 8.36163 73.6125 8.6326 73.5105 8.94768C73.4213 9.25008 73.3767 9.56515 73.3767 9.89283V15.7529H71.2734V5.73406Z" fill="white"/>
<path d="M82.261 15.9607C81.0632 15.9607 80.1581 15.6205 79.5459 14.94C78.9337 14.2468 78.628 13.1946 78.628 11.7831V5.73401H80.7317V11.5941C80.7317 12.4384 80.9031 13.0748 81.2475 13.5033C81.6048 13.9318 82.1655 14.146 82.9301 14.146C83.3512 14.146 83.7077 14.0767 84.0013 13.9381C84.307 13.7994 84.5559 13.6104 84.747 13.371C84.9382 13.1316 85.0778 12.8606 85.1673 12.5581C85.2697 12.243 85.3206 11.9217 85.3206 11.5941V5.73401H87.4234V15.7528H85.473V14.0515C85.231 14.5682 84.8358 15.0156 84.2881 15.3936C83.7525 15.7717 83.0766 15.9607 82.261 15.9607Z" fill="white"/>
<path fill-rule="evenodd" clip-rule="evenodd" d="M2.65565 17.8532H6.37357V20.2023C6.37361 20.4307 6.41099 20.6417 6.58343 20.7938C6.91751 21.0884 7.45655 21.0659 7.75447 20.7356C7.75447 20.7356 8.50315 19.8267 8.92297 19.4285C10.203 18.1432 11.1984 17.8532 12.7471 17.8532H14.3405C15.788 17.8532 16.9961 16.9639 16.9961 15.5428V0.420076C16.9961 0.184405 16.8097 0 16.5712 0H0.424904C0.186511 0 0 0.184405 0 0.420076V15.5428C0 16.9639 1.2082 17.8532 2.65565 17.8532ZM2.12452 15.1227V2.10038H14.8716V15.1227C14.8716 15.5042 14.6472 15.7528 14.2343 15.7528H12.7471C10.9287 15.7528 9.56795 16.3196 8.17937 17.5381V15.7528H2.76188C2.34896 15.7528 2.12452 15.5042 2.12452 15.1227Z" fill="white"/>
</g>
<defs>
<clipPath id="clip0_478_3">
<rect width="88" height="21" fill="white"/>
</clipPath>
</defs>
</svg>
