<svg width="18" height="17" viewBox="0 0 18 17" fill="none" xmlns="http://www.w3.org/2000/svg">
<g id="streamline:interface-favorite-heart-reward-social-rating-media-heart-it-like-favorite-love" clip-path="url(#clip0_203_128)">
<path id="Vector" d="M5.23439 0.831692L6.16356 0.552223C6.67257 0.398733 7.22003 0.435682 7.7038 0.656176C8.18757 0.876669 8.57459 1.26564 8.79264 1.75052L9.51082 3.34771C9.6983 3.76476 9.7505 4.23005 9.66011 4.67828C9.56973 5.12651 9.34128 5.5352 9.00682 5.847L7.81649 6.95612C7.78172 6.98852 7.75969 7.0323 7.75438 7.07953C7.71935 7.39563 7.93353 8.0111 8.42798 8.86702C8.78627 9.48886 9.11192 9.92598 9.3882 10.1704C9.58168 10.3416 9.68758 10.3782 9.73296 10.3655L11.3333 9.87582C11.7704 9.74213 12.2383 9.74856 12.6715 9.8942C13.1047 10.0398 13.4815 10.3174 13.749 10.6879L14.7682 12.102C15.0784 12.5319 15.2222 13.0598 15.1727 13.5877C15.1232 14.1156 14.8838 14.6076 14.4991 14.9723L13.7928 15.6412C13.4184 15.9957 12.9586 16.2473 12.4581 16.3713C11.9576 16.4953 11.4335 16.4877 10.9368 16.349C8.74407 15.7367 6.77823 13.8863 5.01702 10.836C3.25422 7.78179 2.63477 5.15112 3.20645 2.94323C3.33478 2.44667 3.58885 1.99153 3.94419 1.62169C4.29953 1.25185 4.74335 0.979773 5.23439 0.831692ZM5.57914 1.97584C5.28446 2.06447 5.01757 2.2275 4.8042 2.44924C4.59083 2.67098 4.43817 2.94394 4.36095 3.24181C3.88163 5.09857 4.43022 7.43066 6.0513 10.2389C7.67078 13.0431 9.41368 14.6833 11.2585 15.1993C11.5565 15.2824 11.8709 15.2869 12.1712 15.2124C12.4715 15.1379 12.7474 14.9869 12.9719 14.7741L13.6774 14.1053C13.8524 13.9395 13.9613 13.7158 13.9838 13.4758C14.0064 13.2358 13.9411 12.9958 13.8 12.8003L12.7808 11.387C12.6592 11.2184 12.4879 11.0921 12.2908 11.0258C12.0937 10.9596 11.8809 10.9567 11.6821 11.0176L10.0777 11.5088C9.14615 11.7859 8.30138 11.0367 7.3937 9.46418C6.78142 8.40522 6.49638 7.58512 6.56803 6.94736C6.60466 6.61614 6.75912 6.3104 7.00197 6.08268L8.1923 4.97356C8.34426 4.83176 8.44801 4.64593 8.48899 4.44216C8.52997 4.23839 8.50613 4.02691 8.42081 3.83738L7.70343 2.24018C7.6043 2.01978 7.42836 1.84298 7.20845 1.74277C6.98855 1.64256 6.73969 1.62578 6.50832 1.69558L5.57914 1.97584Z" fill="black"/>
</g>
<defs>
<clipPath id="clip0_203_128">
<rect width="18" height="16" fill="white" transform="translate(0 0.458984)"/>
</clipPath>
</defs>
</svg>
