<svg width="14" height="16" viewBox="0 0 14 16" fill="none" xmlns="http://www.w3.org/2000/svg">
<path id="Vector" d="M3.18966 15.5H4.98276V12.8529H10.3621V11.0882H4.98276V9.32353H9.01724C11.489 9.32353 13.5 7.34441 13.5 4.91176C13.5 2.47912 11.489 0.5 9.01724 0.5H4.08621C3.84843 0.5 3.62039 0.592962 3.45225 0.758435C3.28411 0.923909 3.18966 1.14834 3.18966 1.38235V7.55882H0.5V9.32353H3.18966V11.0882H0.5V12.8529H3.18966V15.5ZM4.98276 2.26471H9.01724C10.5001 2.26471 11.7069 3.45235 11.7069 4.91176C11.7069 6.37118 10.5001 7.55882 9.01724 7.55882H4.98276V2.26471Z" fill="#616161"/>
</svg>
