<svg width="34" height="34" viewBox="0 0 34 34" fill="none" xmlns="http://www.w3.org/2000/svg">
<path d="M26.8167 2.75439C26.4023 2.75439 26.0012 2.91643 25.7011 3.21658C23.1617 5.75596 20.9358 6.23674 17.7137 6.23674C16.7362 6.23674 15.6631 6.18893 14.5262 6.13846C13.6311 6.09861 12.7067 6.05877 11.708 6.03221C11.5327 6.02689 11.36 6.02689 11.19 6.02689C3.04328 6.02689 0.434839 10.9542 0.328589 11.1641C0.191352 11.4337 0.134202 11.7369 0.163901 12.038L1.9489 29.8216C1.97799 30.1111 2.08636 30.3871 2.26209 30.619C2.43783 30.851 2.67412 31.03 2.94499 31.1364C3.1279 31.2078 3.32242 31.2447 3.51874 31.2453C3.89859 31.2453 4.27312 31.1072 4.56796 30.8442C4.59453 30.8203 7.86968 28.0206 13.0998 28.0206C13.7692 28.0206 14.4519 28.0658 15.1292 28.1561C17.5916 28.4828 19.3872 28.6289 20.9597 28.6289C25.988 28.6289 29.7067 27.0086 33.3962 23.2155C33.5928 23.0125 33.7315 22.7606 33.7978 22.486C33.8642 22.2113 33.8557 21.9239 33.7734 21.6536L28.3255 3.87002C28.2455 3.60986 28.0999 3.37469 27.9026 3.18719C27.7053 2.99969 27.4631 2.86619 27.1992 2.79955C27.0717 2.77033 26.9442 2.75439 26.8167 2.75439Z" fill="white"/>
<mask id="mask0_6650_60832" style="mask-type:luminance" maskUnits="userSpaceOnUse" x="0" y="2" width="34" height="30">
<path d="M26.8167 2.75439C26.4023 2.75439 26.0012 2.91643 25.7011 3.21658C23.1617 5.75596 20.9358 6.23674 17.7137 6.23674C16.7362 6.23674 15.6631 6.18893 14.5262 6.13846C13.6311 6.09861 12.7067 6.05877 11.708 6.03221C11.5327 6.02689 11.36 6.02689 11.19 6.02689C3.04328 6.02689 0.434839 10.9542 0.328589 11.1641C0.191352 11.4337 0.134202 11.7369 0.163901 12.038L1.9489 29.8216C1.97799 30.1111 2.08636 30.3871 2.26209 30.619C2.43783 30.851 2.67412 31.03 2.94499 31.1364C3.1279 31.2078 3.32242 31.2447 3.51874 31.2453C3.89859 31.2453 4.27312 31.1072 4.56796 30.8442C4.59453 30.8203 7.86968 28.0206 13.0998 28.0206C13.7692 28.0206 14.4519 28.0658 15.1292 28.1561C17.5916 28.4828 19.3872 28.6289 20.9597 28.6289C25.988 28.6289 29.7067 27.0086 33.3962 23.2155C33.5928 23.0125 33.7315 22.7606 33.7978 22.486C33.8642 22.2113 33.8557 21.9239 33.7734 21.6536L28.3255 3.87002C28.2455 3.60986 28.0999 3.37469 27.9026 3.18719C27.7053 2.99969 27.4631 2.86619 27.1992 2.79955C27.0717 2.77033 26.9442 2.75439 26.8167 2.75439Z" fill="white"/>
</mask>
<g mask="url(#mask0_6650_60832)">
<path d="M15.9667 29.4046C23.035 29.9545 27.803 31.2454 34.4197 23.6406L31.9334 13.6318C26.0047 20.2937 22.2806 20.307 14.2402 19.5128C7.4375 18.8407 2.71734 23.2182 0.996094 24.7562L2.11969 34.6295C4.91406 32.3053 9.11625 28.8707 15.9667 29.4046Z" fill="#E74600"/>
</g>
<mask id="mask1_6650_60832" style="mask-type:luminance" maskUnits="userSpaceOnUse" x="0" y="2" width="34" height="30">
<path d="M26.8167 2.75439C26.4023 2.75439 26.0012 2.91643 25.7011 3.21658C23.1617 5.75596 20.9358 6.23674 17.7137 6.23674C16.7362 6.23674 15.6631 6.18893 14.5262 6.13846C13.6311 6.09861 12.7067 6.05877 11.708 6.03221C11.5327 6.02689 11.36 6.02689 11.19 6.02689C3.04328 6.02689 0.434839 10.9542 0.328589 11.1641C0.191352 11.4337 0.134202 11.7369 0.163901 12.038L1.9489 29.8216C1.97799 30.1111 2.08636 30.3871 2.26209 30.619C2.43783 30.851 2.67412 31.03 2.94499 31.1364C3.1279 31.2078 3.32242 31.2447 3.51874 31.2453C3.89859 31.2453 4.27312 31.1072 4.56796 30.8442C4.59453 30.8203 7.86968 28.0206 13.0998 28.0206C13.7692 28.0206 14.4519 28.0658 15.1292 28.1561C17.5916 28.4828 19.3872 28.6289 20.9597 28.6289C25.988 28.6289 29.7067 27.0086 33.3962 23.2155C33.5928 23.0125 33.7315 22.7606 33.7978 22.486C33.8642 22.2113 33.8557 21.9239 33.7734 21.6536L28.3255 3.87002C28.2455 3.60986 28.0999 3.37469 27.9026 3.18719C27.7053 2.99969 27.4631 2.86619 27.1992 2.79955C27.0717 2.77033 26.9442 2.75439 26.8167 2.75439Z" fill="white"/>
</mask>
<g mask="url(#mask1_6650_60832)">
<path d="M14.5024 20.5009C21.3688 21.0534 26.0013 22.3417 32.4321 14.7369L30.323 6.97266C24.5643 13.6345 20.9438 13.6478 13.1318 12.8509C6.52305 12.1763 1.93836 16.5564 0.267578 18.0917L1.05117 25.7205C3.7632 23.4016 7.84586 19.967 14.5024 20.5009Z" fill="#00538B"/>
</g>
</svg>
