<svg width="104" height="51" viewBox="0 0 104 51" fill="none" xmlns="http://www.w3.org/2000/svg">
<g clip-path="url(#clip0_5840_11560)">
<mask id="mask0_5840_11560" style="mask-type:luminance" maskUnits="userSpaceOnUse" x="0" y="0" width="104" height="51">
<path d="M104 0.435547H0V50.4355H104V0.435547Z" fill="white"/>
</mask>
<g mask="url(#mask0_5840_11560)">
<path d="M52.8905 33.1876C52.7471 33.3622 52.5622 33.4985 52.3524 33.5842C52.1292 33.677 51.8893 33.7241 51.6473 33.7225C51.4069 33.7271 51.1676 33.6864 50.9423 33.6027C50.7401 33.529 50.5566 33.4126 50.4042 33.2614C50.2467 33.1142 50.1233 32.9349 50.0423 32.7357C49.958 32.5149 49.917 32.28 49.9218 32.0439C49.9188 31.8199 49.9598 31.5975 50.0423 31.3891C50.1201 31.1926 50.2368 31.0138 50.3856 30.8633C50.5293 30.7102 50.703 30.5878 50.8959 30.5036C51.1033 30.4132 51.3282 30.3691 51.5546 30.3745C51.7959 30.371 52.0365 30.402 52.2689 30.4667C52.4772 30.5298 52.6678 30.6404 52.8256 30.7895L52.5566 31.2414C52.4303 31.1269 52.282 31.0391 52.1205 30.9832C51.962 30.9311 51.7957 30.9061 51.6288 30.9094C51.4885 30.9094 51.3497 30.9377 51.2206 30.9924C51.0835 31.0401 50.9596 31.1191 50.8588 31.223C50.7535 31.3245 50.6713 31.4471 50.6176 31.5827C50.5574 31.7292 50.5259 31.8857 50.5248 32.0439C50.5261 32.2081 50.5575 32.3706 50.6176 32.5235C50.6791 32.6595 50.7674 32.7818 50.8773 32.8832C50.9812 32.9812 51.1044 33.0566 51.2392 33.1046C51.3841 33.1604 51.5383 33.1886 51.6937 33.1876C51.8744 33.1928 52.0534 33.1516 52.2133 33.0677C52.3644 32.9962 52.4999 32.8959 52.6122 32.7725L52.8905 33.1876Z" fill="#1E1346"/>
<path d="M53.6328 33.6492V30.4395H54.208V32.8283L56.0728 30.4395H56.6387V33.6492H56.0728V31.2603L54.208 33.6492H53.6328Z" fill="#1E1346"/>
<path d="M60.4333 33.1877C60.2919 33.3644 60.1061 33.5012 59.8952 33.5844C59.6749 33.6769 59.4383 33.724 59.1993 33.7227C58.9586 33.7272 58.7196 33.6865 58.4941 33.6028C58.2893 33.5293 58.1026 33.4129 57.9468 33.2615C57.7953 33.1114 57.6754 32.9327 57.5943 32.7358C57.5068 32.5156 57.4627 32.2808 57.4644 32.044C57.4644 31.8194 57.5085 31.597 57.5943 31.3892C57.6688 31.1933 57.7824 31.0145 57.9283 30.8634C58.0754 30.7101 58.2521 30.5877 58.448 30.5037C58.6548 30.4124 58.8797 30.3684 59.1064 30.3746C59.3448 30.3711 59.5826 30.4022 59.8117 30.4669C60.022 30.5255 60.2136 30.6366 60.3685 30.7897L60.1085 31.2416C59.9805 31.1248 59.8286 31.0368 59.6632 30.9833C59.5078 30.9312 59.3448 30.9063 59.1806 30.9095C59.0375 30.9103 58.8955 30.9385 58.7635 30.9926C58.6297 31.0415 58.5087 31.1204 58.4107 31.2231C58.3028 31.3224 58.2201 31.4456 58.1695 31.5829C58.1051 31.728 58.0735 31.8854 58.0767 32.044C58.0734 32.2086 58.105 32.372 58.1695 32.5237C58.2311 32.6572 58.3159 32.779 58.42 32.8834C58.5274 32.9816 58.6536 33.0569 58.7909 33.1047C58.9329 33.1605 59.0842 33.1887 59.2361 33.1877C59.4202 33.1918 59.6013 33.1505 59.7655 33.0679C59.9162 32.9963 60.0518 32.8961 60.164 32.7727L60.4333 33.1877Z" fill="#1E1346"/>
<path d="M60.73 30.4395H63.6706V31.0113H62.4834V33.6492H61.9079V31.0113H60.73V30.4395Z" fill="#1E1346"/>
<path d="M66.9088 33.2985C66.7464 33.4466 66.5536 33.5569 66.3427 33.6214C66.1329 33.6872 65.9138 33.7214 65.6936 33.7228C65.4499 33.7274 65.2075 33.6867 64.979 33.603C64.7768 33.5293 64.5934 33.4128 64.4409 33.2617C64.2896 33.1115 64.1698 32.9328 64.0886 32.7359C64.0044 32.5152 63.963 32.2803 63.9682 32.0442C63.9665 31.8211 64.0044 31.5995 64.0792 31.3893C64.1505 31.1939 64.2609 31.0149 64.4041 30.8636C64.5496 30.7081 64.7266 30.5855 64.9235 30.5039C65.1467 30.4117 65.3868 30.3677 65.6287 30.3748C65.8279 30.3755 66.0254 30.4098 66.213 30.4762C66.3918 30.5467 66.5554 30.6499 66.6956 30.7806C66.8317 30.9111 66.9386 31.0681 67.0111 31.2417C67.0946 31.4305 67.1355 31.6351 67.1315 31.8413C67.1472 31.9699 67.1472 32.1 67.1315 32.2287H64.6547C64.6565 32.3633 64.6886 32.4959 64.7482 32.617C64.8072 32.7381 64.8925 32.8448 64.9977 32.9296C65.2168 33.1081 65.4943 33.2001 65.7771 33.1879C65.9734 33.1889 66.168 33.1545 66.352 33.0864C66.5028 33.0324 66.6442 32.9546 66.7698 32.8558L66.9088 33.2985ZM65.6007 30.9097C65.4727 30.8991 65.3442 30.9148 65.2232 30.9561C65.1017 30.9974 64.9901 31.0633 64.8955 31.1495C64.7161 31.3046 64.6027 31.5226 64.5805 31.7583H66.5378C66.532 31.5227 66.4356 31.2983 66.2685 31.131C66.0839 30.9729 65.8443 30.8934 65.6007 30.9097Z" fill="#1E1346"/>
<path d="M67.9106 30.4395H68.4301L69.6734 32.0259L70.8513 30.4395H71.3526V33.6492H70.7864V31.3065L69.664 32.8007H69.6453L68.4856 31.3065V33.6492H67.9106V30.4395Z" fill="#1E1346"/>
<path d="M72.4196 30.6607C72.5739 30.5702 72.7392 30.4989 72.911 30.4485C73.102 30.4002 73.2984 30.3754 73.4958 30.3747C73.6665 30.3595 73.8376 30.3821 73.9983 30.4412C74.159 30.5002 74.3039 30.5941 74.4237 30.716C74.6264 30.9971 74.7246 31.3394 74.7018 31.6845V33.6491H74.1637V33.234C74.0597 33.3693 73.9265 33.4796 73.774 33.5568C73.5771 33.6606 73.3568 33.7114 73.1342 33.7044C72.8666 33.7139 72.6066 33.6177 72.4103 33.4369C72.318 33.3399 72.2467 33.2252 72.2005 33.1C72.1544 32.9747 72.1345 32.8415 72.1415 32.7083C72.1363 32.5584 72.1684 32.4096 72.2338 32.2748C72.294 32.1509 72.3793 32.0409 72.4845 31.952C72.6025 31.8657 72.734 31.8002 72.8742 31.7583C73.0308 31.7131 73.1932 31.6913 73.3568 31.6937C73.4953 31.6813 73.6349 31.6813 73.774 31.6937C73.9154 31.7184 74.0486 31.7752 74.1637 31.8597C74.1742 31.7246 74.1742 31.589 74.1637 31.4539C74.1537 31.3402 74.1187 31.23 74.0614 31.1311C74.0059 31.0607 73.9323 31.0066 73.8482 30.9743C73.729 30.9213 73.5987 30.8961 73.4678 30.9005C73.2826 30.8913 73.0968 30.9163 72.9203 30.9743L72.5306 31.1403L72.4196 30.6607ZM73.3474 33.1879C73.528 33.1967 73.7068 33.1482 73.8575 33.0496C73.9773 32.9714 74.0865 32.8785 74.1824 32.7728V32.367C73.9685 32.2241 73.7161 32.15 73.4585 32.1549C73.3726 32.1458 73.2849 32.1458 73.199 32.1549C73.1202 32.1774 73.0448 32.2116 72.9764 32.2563C72.9133 32.2943 72.8619 32.3485 72.828 32.4131C72.7895 32.4873 72.7708 32.5697 72.7719 32.6529C72.769 32.7214 72.7807 32.7897 72.8058 32.8534C72.8315 32.9171 72.8707 32.9745 72.9203 33.0219C73.0395 33.1209 73.1926 33.1704 73.3474 33.1602" fill="#1E1346"/>
<path d="M80.1109 29.0369C80.0244 29.1516 79.9134 29.2461 79.786 29.3136C79.6627 29.3645 79.5354 29.4046 79.4057 29.4335L78.9698 29.5165C78.7951 29.5415 78.6257 29.5945 78.4685 29.6733C78.323 29.7328 78.1956 29.828 78.0975 29.95C77.9947 30.0607 77.9134 30.1887 77.8562 30.3282C77.7907 30.469 77.744 30.6179 77.7171 30.7709C77.6827 30.9194 77.661 31.0706 77.6523 31.2228C77.7025 31.1107 77.7715 31.0079 77.8562 30.9184C77.9479 30.8287 78.0507 30.7511 78.1623 30.6879C78.2739 30.6171 78.396 30.5641 78.524 30.5311C78.6537 30.494 78.7881 30.4754 78.9231 30.4757C79.1369 30.4708 79.3484 30.5117 79.5447 30.5957C79.7247 30.6671 79.8859 30.7773 80.018 30.9184C80.1518 31.0611 80.2534 31.2311 80.3148 31.4165C80.3913 31.6263 80.4293 31.8482 80.4264 32.0714C80.4252 32.2899 80.3808 32.5062 80.2961 32.7078C80.2219 32.9037 80.1079 33.0825 79.9625 33.2335C79.8111 33.3842 79.6312 33.5034 79.4337 33.584C79.2234 33.6775 78.9955 33.7247 78.7653 33.7223C78.5234 33.7265 78.2827 33.6794 78.0601 33.584C77.8538 33.4927 77.6704 33.3572 77.522 33.1874C77.3648 33.0046 77.248 32.7909 77.179 32.5602C77.0937 32.2887 77.0528 32.0053 77.0587 31.7209C77.061 31.4743 77.0762 31.228 77.1048 30.983C77.1317 30.7285 77.1878 30.4779 77.2719 30.2359C77.3607 30.0046 77.4822 29.7871 77.6336 29.5903C77.7995 29.3906 78.0133 29.2353 78.2552 29.1383C78.4165 29.0619 78.5889 29.0091 78.7653 28.9815L79.1737 28.9078C79.2882 28.8905 79.4004 28.8596 79.5079 28.8155C79.6189 28.7637 79.7147 28.6843 79.786 28.585L80.1109 29.0369ZM77.6891 31.8039C77.6879 31.9939 77.713 32.1832 77.7633 32.3665C77.8129 32.5194 77.8883 32.6629 77.9859 32.7908C78.0805 32.9029 78.1974 32.994 78.3294 33.0583C78.4685 33.1242 78.6204 33.1589 78.7747 33.1597C78.9213 33.1618 79.0668 33.1335 79.2018 33.0767C79.3268 33.0183 79.4401 32.937 79.5354 32.8369C79.6329 32.7416 79.706 32.6246 79.7486 32.4957C79.8059 32.3615 79.8345 32.2171 79.8322 32.0714C79.8421 31.789 79.7463 31.513 79.5634 31.2966C79.4693 31.1897 79.3519 31.1057 79.2199 31.0513C79.0878 30.9969 78.9453 30.9735 78.8027 30.983C78.6601 30.9819 78.5187 31.0069 78.3849 31.0568C78.2652 31.1015 78.1524 31.1636 78.0513 31.2412C77.9596 31.3135 77.8807 31.4009 77.8194 31.4996C77.7568 31.5918 77.7124 31.6951 77.6891 31.8039Z" fill="#1E1346"/>
<path d="M81.27 30.4395H81.8455V31.4079H82.3743C82.5852 31.4006 82.7961 31.4318 82.9959 31.5001C83.142 31.55 83.2752 31.632 83.3857 31.74C83.4815 31.8418 83.5516 31.9652 83.5896 32.0997C83.6346 32.2303 83.6562 32.3675 83.6544 32.5055C83.6533 32.65 83.6281 32.7933 83.5802 32.9298C83.5376 33.0643 83.4645 33.1874 83.367 33.2895C83.2489 33.4057 83.1064 33.4939 82.9492 33.5478C82.7441 33.6202 82.5268 33.6546 82.3094 33.6492H81.27V30.4395ZM81.8455 31.9429V33.1143H82.2627C82.4748 33.1354 82.688 33.0833 82.8657 32.9667C82.9264 32.9124 82.9738 32.8452 83.0041 32.7701C83.0345 32.695 83.0474 32.614 83.0421 32.5332C83.0485 32.4509 83.0357 32.3683 83.0053 32.2916C82.9749 32.2149 82.927 32.1461 82.8657 32.0904C82.6904 31.9759 82.4812 31.9239 82.272 31.9429H81.8455ZM84.2667 30.4395H84.8417V33.6492H84.2667V30.4395Z" fill="#1E1346"/>
<path d="M88.6181 33.1876C88.4768 33.3643 88.2915 33.5011 88.08 33.5842C87.8568 33.6777 87.6173 33.7248 87.3748 33.7226C87.1376 33.7273 86.9016 33.6866 86.679 33.6027C86.4733 33.5313 86.2863 33.4147 86.1321 33.2614C85.9802 33.1113 85.8604 32.9325 85.7792 32.7356C85.6915 32.5155 85.6477 32.2806 85.6495 32.0439C85.6506 31.8203 85.6915 31.5987 85.7698 31.389C85.8475 31.1926 85.9644 31.0138 86.1134 30.8633C86.2606 30.71 86.4371 30.5876 86.6328 30.5036C86.8367 30.4131 87.0587 30.369 87.2825 30.3745C87.5238 30.3703 87.7645 30.4014 87.9965 30.4667C88.2068 30.5254 88.3985 30.6365 88.5533 30.7895L88.2933 31.2415C88.1653 31.1247 88.0134 31.0366 87.8481 30.9832C87.6927 30.9311 87.5297 30.9062 87.3655 30.9094C87.2223 30.9094 87.0803 30.9376 86.9483 30.9925C86.8145 31.0413 86.6936 31.1202 86.596 31.223C86.4879 31.3222 86.4049 31.4455 86.3547 31.5827C86.2904 31.7279 86.2583 31.8853 86.2618 32.0439C86.2583 32.2085 86.2898 32.3719 86.3547 32.5235C86.416 32.6571 86.5008 32.7788 86.6048 32.8833C86.7123 32.9815 86.8385 33.0568 86.9763 33.1046C87.1177 33.1604 87.2691 33.1886 87.4216 33.1876C87.605 33.1916 87.7867 33.1504 87.9503 33.0677C88.1011 32.9962 88.2366 32.8959 88.3494 32.7726L88.6181 33.1876Z" fill="#1E1346"/>
<path d="M88.9146 30.4395H91.8464V31.0113H90.6679V33.6492H90.093V31.0113H88.9146V30.4395Z" fill="#1E1346"/>
<path d="M92.4775 30.439H93.0525V30.8172C93.1757 30.6769 93.3317 30.5691 93.507 30.5036C93.7086 30.4149 93.9271 30.3709 94.1474 30.3744C94.3606 30.3695 94.5727 30.4104 94.769 30.4943C94.9432 30.5749 95.1009 30.6876 95.2329 30.8263C95.3673 30.9759 95.4684 31.1519 95.5298 31.3429C95.6063 31.5527 95.6443 31.7745 95.6408 31.9977C95.6396 32.2304 95.5987 32.4611 95.5204 32.6803C95.4427 32.8823 95.3264 33.0672 95.1774 33.2245C95.0273 33.3809 94.8473 33.5062 94.6481 33.5934C94.4296 33.6792 94.197 33.7231 93.9616 33.7225C93.7933 33.7234 93.625 33.7048 93.4609 33.6672C93.316 33.6363 93.1775 33.5801 93.0525 33.5012V35.0784H92.4775V30.439ZM93.9803 30.9094C93.7927 30.9051 93.6075 30.9495 93.4422 31.0385C93.2897 31.112 93.1565 31.2192 93.0525 31.3521V32.9386C93.1804 33.0254 93.3212 33.0908 93.4702 33.1322C93.6122 33.1692 93.7588 33.1879 93.9061 33.1876C94.0685 33.1919 94.2303 33.1604 94.3793 33.0954C94.5096 33.0404 94.6265 32.9586 94.7223 32.8555C94.8251 32.7517 94.9011 32.6253 94.9455 32.4866C95.0033 32.3366 95.0314 32.1769 95.0285 32.0162C95.0267 31.8664 95.0051 31.7176 94.9636 31.5734C94.9198 31.4422 94.8473 31.3224 94.7503 31.223C94.665 31.1184 94.5529 31.0388 94.4255 30.9924C94.2847 30.9349 94.1328 30.9067 93.9803 30.9094Z" fill="#1E1346"/>
<path d="M96.4575 30.4395H97.0418V31.4079H97.5706C97.7821 31.4006 97.9924 31.4318 98.1922 31.5001C98.3389 31.55 98.4721 31.632 98.5819 31.74C98.6783 31.8418 98.7484 31.9652 98.7858 32.0997C98.8308 32.2303 98.853 32.3675 98.8513 32.5055C98.8495 32.65 98.8244 32.7933 98.7765 32.9298C98.735 33.0668 98.6585 33.1907 98.5539 33.2895C98.4411 33.4074 98.3009 33.4961 98.1461 33.5478C97.9404 33.6186 97.7236 33.653 97.5057 33.6492H96.4669L96.4575 30.4395ZM97.0324 31.9429V33.1143H97.4502C97.6623 33.1354 97.875 33.0833 98.0532 32.9667C98.1133 32.9124 98.1607 32.8452 98.1916 32.7701C98.222 32.695 98.2349 32.614 98.2296 32.5332C98.2354 32.4509 98.2232 32.3683 98.1928 32.2916C98.1618 32.2149 98.1145 32.1461 98.0532 32.0904C97.8779 31.9759 97.6681 31.9239 97.4595 31.9429H97.0324ZM99.4542 30.4395H100.029V33.6492H99.4542V30.4395Z" fill="#1E1346"/>
<path d="M102.775 31.989L104 33.6492H103.295L102.349 32.3487L101.393 33.6492H100.725L101.94 32.0167L100.799 30.4395H101.495L102.367 31.6477L103.258 30.4395H103.926L102.775 31.989Z" fill="#1E1346"/>
<path d="M52.4639 37.6062H50.7105V40.281H50.1353V37.0713H53.0391V40.281H52.4639V37.6062Z" fill="#1E1346"/>
<path d="M56.2861 37.6521H55.1543V38.187C55.1334 38.5609 55.0743 38.9318 54.978 39.2938C54.9277 39.5247 54.8332 39.7439 54.6997 39.9394C54.6085 40.0806 54.4757 40.1901 54.3193 40.2531C54.1697 40.3021 54.013 40.327 53.8555 40.3268V39.7734C53.9289 39.7891 54.0048 39.7891 54.0781 39.7734C54.1755 39.7153 54.2555 39.6326 54.31 39.5336C54.4039 39.3726 54.4727 39.1985 54.5142 39.0171C54.5931 38.7157 54.6366 38.4061 54.6441 38.0947L54.6997 37.0986H56.9449V40.3083H56.3696L56.2861 37.6521Z" fill="#1E1346"/>
<path d="M57.9094 37.3011C58.0608 37.2047 58.2269 37.1331 58.4012 37.089C58.5909 37.033 58.7878 37.0051 58.9859 37.006C59.1559 36.99 59.3283 37.0124 59.4884 37.0715C59.649 37.1305 59.7945 37.2248 59.9131 37.3473C60.1147 37.629 60.2129 37.9708 60.1918 38.3157V40.2803H59.6537V39.8744C59.5474 40.0073 59.4147 40.1172 59.264 40.1973C59.0665 40.2986 58.8457 40.3463 58.6236 40.3356C58.3608 40.3462 58.1042 40.2534 57.9094 40.0774C57.8111 39.9824 57.7351 39.867 57.687 39.7395C57.6389 39.6119 57.6198 39.4753 57.6311 39.3395C57.6261 39.1897 57.658 39.0409 57.7239 38.906C57.7839 38.7823 57.873 38.6747 57.9836 38.5924C58.0941 38.4981 58.2239 38.4288 58.364 38.3895C58.5237 38.3441 58.6897 38.3224 58.8556 38.3249C58.9929 38.3281 59.1296 38.3435 59.264 38.371C59.4031 38.3966 59.5357 38.4499 59.6537 38.5279C59.6636 38.3927 59.6636 38.2571 59.6537 38.122C59.6449 38.0092 59.6134 37.8994 59.5608 37.7992C59.5053 37.7136 59.4288 37.6437 59.3382 37.5963C59.2161 37.5402 59.0823 37.5149 58.9485 37.5225C58.782 37.5168 58.616 37.5386 58.4565 37.587C58.32 37.6328 58.1867 37.6883 58.0578 37.7531L57.9094 37.3011ZM58.8369 39.8191C59.0192 39.8247 59.1991 39.78 59.3569 39.69C59.4743 39.6091 59.5801 39.513 59.6724 39.4041V38.9982C59.4586 38.8552 59.2062 38.7812 58.9485 38.7861C58.8655 38.7727 58.7808 38.7727 58.6978 38.7861C58.6195 38.8056 58.5448 38.8367 58.4752 38.8783C58.4114 38.9217 58.3576 38.9784 58.3176 39.0444C58.2796 39.1152 58.2604 39.1946 58.262 39.2749C58.2581 39.3435 58.2695 39.412 58.2951 39.4758C58.3207 39.5395 58.3601 39.5969 58.4104 39.6438C58.5296 39.7428 58.6821 39.7924 58.8369 39.7822" fill="#1E1346"/>
<path d="M60.7764 37.0713H63.7176V37.6431H62.5298V40.281H61.9636V37.6431H60.7764V37.0713Z" fill="#1E1346"/>
<path d="M66.955 39.9392C66.7943 40.0822 66.6044 40.1892 66.3988 40.2528C66.189 40.3217 65.9699 40.356 65.749 40.3542C65.5054 40.3597 65.2629 40.319 65.0351 40.2343C64.8294 40.1663 64.6424 40.0528 64.4876 39.9023C64.3334 39.7524 64.2159 39.5694 64.1441 39.3673C64.0611 39.1494 64.0202 38.9178 64.0237 38.6848C64.0173 38.4622 64.0523 38.2403 64.1254 38.0299C64.1943 37.8307 64.3053 37.6484 64.4502 37.495C64.598 37.3425 64.7745 37.2203 64.9696 37.1353C65.1969 37.0459 65.44 37.002 65.6842 37.0061C65.8846 37.0054 66.0827 37.0429 66.2685 37.1168C66.4467 37.1783 66.6085 37.2792 66.7417 37.4119C66.8761 37.5441 66.983 37.7007 67.0572 37.8731C67.1402 38.0622 67.1811 38.2666 67.1782 38.4726C67.1934 38.6013 67.1934 38.7314 67.1782 38.86H64.6635C64.6687 38.9955 64.702 39.1285 64.761 39.2507C64.8201 39.3729 64.9036 39.4816 65.007 39.5703C65.229 39.7425 65.5048 39.8307 65.7864 39.8193C65.9822 39.8239 66.1773 39.7926 66.3614 39.7271C66.515 39.6743 66.6564 39.5929 66.7791 39.4872L66.955 39.9392ZM65.6561 37.5411C65.3967 37.5293 65.1414 37.6148 64.9422 37.7809C64.7681 37.9442 64.6565 38.1627 64.6267 38.3989H66.584C66.5851 38.2815 66.5623 38.1652 66.5156 38.0572C66.4695 37.9493 66.4011 37.8521 66.3152 37.7716C66.1341 37.6125 65.898 37.5297 65.6561 37.5411Z" fill="#1E1346"/>
<path d="M67.4565 37.0801H68.1798L69.2841 38.6204L68.1056 40.2806H67.4004L68.6437 38.6204L67.4565 37.0801ZM69.4325 37.0801H70.0074V40.2806H69.4325V37.0801ZM70.7962 38.6204L72.0576 40.2806H71.3436L70.1465 38.6204L71.2601 37.0801H71.9928L70.7962 38.6204Z" fill="#1E1346"/>
<path d="M75.2303 39.939C75.0679 40.0842 74.8745 40.1913 74.6648 40.2526C74.4556 40.3229 74.2359 40.3573 74.0151 40.3541C73.7743 40.36 73.5354 40.3192 73.3104 40.2341C73.1048 40.1662 72.9178 40.0526 72.763 39.9021C72.6087 39.7503 72.4889 39.568 72.4101 39.3672C72.3306 39.1484 72.2897 38.9174 72.2897 38.6847C72.2868 38.4615 72.3242 38.2395 72.4007 38.0298C72.4697 37.8306 72.5807 37.6483 72.7256 37.4948C72.8734 37.3424 73.0498 37.2202 73.245 37.1351C73.4694 37.0469 73.7089 37.003 73.9502 37.006C74.1506 37.0036 74.3493 37.0412 74.5345 37.1167C74.7144 37.1801 74.8792 37.2807 75.0171 37.4118C75.1515 37.5439 75.2584 37.7005 75.3326 37.873C75.4156 38.062 75.4565 38.2664 75.453 38.4725C75.4687 38.6012 75.4687 38.7312 75.453 38.8599H72.9207C72.9213 38.9961 72.9529 39.1305 73.0119 39.2533C73.0715 39.3761 73.1574 39.4843 73.2637 39.5701C73.4857 39.7423 73.7621 39.8305 74.0431 39.8191C74.2388 39.8231 74.434 39.7919 74.618 39.7269C74.7694 39.67 74.9107 39.589 75.0358 39.487L75.2303 39.939ZM73.9227 37.5409C73.6651 37.5287 73.4133 37.6145 73.2175 37.7808C73.0399 37.9415 72.9277 38.1614 72.902 38.3987H74.8593C74.8535 38.1632 74.7577 37.9387 74.5906 37.7715C74.4071 37.61 74.167 37.5271 73.9227 37.5409Z" fill="#1E1346"/>
<path d="M76.2324 40.29V37.0802H76.8079V39.4691L78.663 37.0802H79.2385V40.29H78.663V37.9011L76.8079 40.29H76.2324ZM77.2251 35.4385C77.2251 35.8166 77.4384 36.0011 77.7819 36.0011C78.1249 36.0011 78.2733 35.8166 78.3013 35.4385H78.8394C78.8447 35.5745 78.819 35.7099 78.7652 35.835C78.7167 35.9531 78.6443 36.0599 78.552 36.1487C78.4556 36.2402 78.3422 36.3123 78.2178 36.3608C78.0775 36.41 77.9303 36.4349 77.7819 36.4346C77.6212 36.4356 77.4611 36.4107 77.3086 36.3608C77.183 36.3148 77.0691 36.2425 76.9744 36.1487C76.8827 36.0599 76.8097 35.9531 76.7612 35.835C76.715 35.708 76.6928 35.5735 76.6963 35.4385H77.2251Z" fill="#1E1346"/>
<path d="M12.6451 25.4307L6.08599 29.1938L0 39.6808L24.8264 25.4307H12.6451Z" fill="#874691"/>
<path d="M31.3854 14.6855L24.8262 18.4487L18.7402 28.9357L43.5574 14.6855H31.3854Z" fill="#DA1844"/>
<path d="M24.8262 10.9225L18.7402 0.435547V21.9353V28.9358V50.4355L24.8262 39.9486V10.9225Z" fill="#F9B229"/>
<path d="M18.7402 0.435547L24.8262 10.9225L31.3854 14.6857H43.5574L18.7402 0.435547Z" fill="#F07F1A"/>
<path d="M18.7402 21.9355V50.4358L24.8262 39.9488V32.4133L18.7402 21.9355Z" fill="#72B22C"/>
<path d="M31.3854 36.1855L24.8262 39.9487L18.7402 50.4357L43.5574 36.1855H31.3854Z" fill="#00743E"/>
<path d="M0 11.1807V39.681L6.08599 29.194V21.6676L0 11.1807Z" fill="#5F5A94"/>
<path d="M18.7404 21.9351V21.9444L0 11.1807L6.08599 21.6676L31.3856 36.1853H43.5575L18.7404 21.9351Z" fill="#0D90CD"/>
<path d="M92.9784 12.7207V25.5504H88.4509V16.5392H84.0811V25.5504H79.5542V12.7207H92.9784Z" fill="#1E1346"/>
<path d="M77.3183 19.5466C77.3832 23.2359 74.359 25.92 70.0728 25.92C66.0092 25.92 62.5859 23.4758 62.5859 17.5266C62.5859 12.4722 65.8327 8.30327 70.629 8.22949H77.3183L75.1939 12.0296H71.1116C70.1008 11.9969 69.114 12.3367 68.3398 12.9836C67.5657 13.6305 67.0597 14.539 66.9183 15.5344C68.2072 14.4358 69.8595 13.8508 71.5568 13.8926C73.0701 13.9155 74.5167 14.5164 75.5959 15.5708C76.6756 16.6251 77.3054 18.0521 77.3557 19.5558M72.8282 19.8509C72.834 19.4963 72.7692 19.1439 72.6365 18.8146C72.5039 18.4852 72.3064 18.1855 72.0564 17.9329C71.8057 17.6804 71.5066 17.4801 71.177 17.3439C70.8481 17.2075 70.4946 17.138 70.1376 17.1393C69.7695 17.1304 69.4038 17.1959 69.062 17.3319C68.7202 17.4678 68.4099 17.6713 68.1499 17.93C67.8894 18.1887 67.6849 18.4973 67.5481 18.8371C67.4114 19.1768 67.3454 19.5405 67.3542 19.9063C67.3682 20.5993 67.6498 21.2604 68.14 21.753C68.6302 22.2457 69.2922 22.5322 69.9892 22.5534C70.3497 22.5632 70.7085 22.5014 71.0444 22.3716C71.3804 22.2419 71.6871 22.0467 71.9465 21.7976C72.2054 21.5484 72.4122 21.2504 72.5542 20.9209C72.6956 20.5914 72.7698 20.2371 72.7721 19.8786" fill="#1E1346"/>
<path d="M59.2558 21.1697C58.1855 21.8164 56.9554 22.1549 55.7027 22.1474C54.9069 22.1212 54.1521 21.7895 53.5969 21.222C53.0416 20.6546 52.729 19.8953 52.7247 19.1037C52.7291 18.3105 53.043 17.5499 53.6002 16.9822C54.1574 16.4145 54.9145 16.0838 55.712 16.0599C56.9625 16.0462 58.1914 16.3852 59.2558 17.0376L60.9443 14.0124C59.5199 12.9156 57.764 12.3305 55.9625 12.3521C51.5371 12.3521 48.4941 15.9308 48.4941 19.1037C48.4941 22.793 51.8711 25.9013 55.9161 25.9198C57.7348 25.9508 59.5094 25.3617 60.9443 24.2503L59.2558 21.1697Z" fill="#1E1346"/>
</g>
</g>
<defs>
<clipPath id="clip0_5840_11560">
<rect width="104" height="50" fill="white" transform="translate(0 0.435547)"/>
</clipPath>
</defs>
</svg>
