<svg width="18" height="18" viewBox="0 0 18 18" fill="none" xmlns="http://www.w3.org/2000/svg">
<g id="ic:round-search">
<path id="Vector" d="M12.5014 12H11.7114L11.4314 11.73C12.0564 11.0039 12.5131 10.1487 12.769 9.22559C13.0248 8.30243 13.0735 7.33413 12.9114 6.38998C12.4414 3.60998 10.1214 1.38997 7.32144 1.04997C6.33706 0.925441 5.33723 1.02775 4.39846 1.34906C3.4597 1.67038 2.60688 2.20219 1.90527 2.90381C1.20366 3.60542 0.671846 4.45824 0.350529 5.397C0.0292113 6.33576 -0.0730946 7.33559 0.0514397 8.31997C0.39144 11.12 2.61144 13.44 5.39144 13.91C6.33559 14.072 7.30389 14.0234 8.22705 13.7675C9.15021 13.5117 10.0054 13.0549 10.7314 12.43L11.0014 12.71V13.5L14.501 17.0005C14.911 17.4105 15.581 17.4105 15.991 17.0005C16.401 16.5905 16.401 15.9205 15.991 15.5105L12.5014 12ZM6.50144 12C4.01144 12 2.00144 9.98997 2.00144 7.49997C2.00144 5.00997 4.01144 2.99997 6.50144 2.99997C8.99144 2.99997 11.0014 5.00997 11.0014 7.49997C11.0014 9.98997 8.99144 12 6.50144 12Z" fill="black"/>
</g>
</svg>
