<svg width="20" height="20" viewBox="0 0 20 20" fill="none" xmlns="http://www.w3.org/2000/svg">
<path d="M8 10C8 10.663 7.73661 11.2989 7.26777 11.7678C6.79893 12.2366 6.16304 12.5 5.5 12.5C4.83696 12.5 4.20107 12.2366 3.73223 11.7678C3.26339 11.2989 3 10.663 3 10C3 9.33696 3.26339 8.70107 3.73223 8.23223C4.20107 7.76339 4.83696 7.5 5.5 7.5C6.16304 7.5 6.79893 7.76339 7.26777 8.23223C7.73661 8.70107 8 9.33696 8 10Z" stroke="#212121" stroke-width="1.5"/>
<path d="M13 4.5L8 8M13 15.5L8 12" stroke="#212121" stroke-width="1.5" stroke-linecap="round"/>
<path d="M18 16.5C18 17.163 17.7366 17.7989 17.2678 18.2678C16.7989 18.7366 16.163 19 15.5 19C14.837 19 14.2011 18.7366 13.7322 18.2678C13.2634 17.7989 13 17.163 13 16.5C13 15.837 13.2634 15.2011 13.7322 14.7322C14.2011 14.2634 14.837 14 15.5 14C16.163 14 16.7989 14.2634 17.2678 14.7322C17.7366 15.2011 18 15.837 18 16.5ZM18 3.5C18 4.16304 17.7366 4.79893 17.2678 5.26777C16.7989 5.73661 16.163 6 15.5 6C14.837 6 14.2011 5.73661 13.7322 5.26777C13.2634 4.79893 13 4.16304 13 3.5C13 2.83696 13.2634 2.20107 13.7322 1.73223C14.2011 1.26339 14.837 1 15.5 1C16.163 1 16.7989 1.26339 17.2678 1.73223C17.7366 2.20107 18 2.83696 18 3.5Z" stroke="#212121" stroke-width="1.5"/>
</svg>
