<svg width="34" height="34" viewBox="0 0 34 34" fill="none" xmlns="http://www.w3.org/2000/svg">
<path d="M17 25C18.6121 24.9981 20.1961 24.7041 21.5979 24.1465C22.9998 23.5889 24.1718 22.7867 25 21.818L23.0029 21C22.3797 21.7249 21.4994 22.3246 20.4476 22.741C19.3958 23.1573 18.2082 23.3761 17 23.3761C15.7918 23.3761 14.6042 23.1573 13.5524 22.741C12.5006 22.3246 11.6203 21.7249 10.9971 21L9 21.818C9.82822 22.7867 11.0002 23.5889 12.4021 24.1465C13.8039 24.7041 15.3879 24.9981 17 25Z" fill="#EF6C00"/>
<path d="M17 1C13.8355 1 10.7421 1.93838 8.11088 3.69649C5.4797 5.45459 3.42894 7.95345 2.21793 10.8771C1.00693 13.8007 0.690079 17.0177 1.30744 20.1214C1.92481 23.2251 3.44866 26.0761 5.6863 28.3137C7.92394 30.5513 10.7749 32.0752 13.8786 32.6926C16.9823 33.3099 20.1993 32.9931 23.1229 31.7821C26.0466 30.5711 28.5454 28.5203 30.3035 25.8891C32.0616 23.2579 33 20.1645 33 17C33 12.7565 31.3143 8.68687 28.3137 5.68629C25.3131 2.68571 21.2435 1 17 1ZM17 3.28571C19.6222 3.2898 22.1883 4.04558 24.3942 5.46348C26.6 6.88137 28.3531 8.90194 29.4457 11.2857H27.2857C27.2857 10.9826 27.1653 10.6919 26.951 10.4776C26.7367 10.2633 26.446 10.1429 26.1429 10.1429H7.85715C7.55404 10.1429 7.26335 10.2633 7.04903 10.4776C6.8347 10.6919 6.71429 10.9826 6.71429 11.2857H4.55429C5.64689 8.90194 7.39999 6.88137 9.60583 5.46348C11.8117 4.04558 14.3778 3.2898 17 3.28571ZM17 30.7143C13.3628 30.7143 9.87447 29.2694 7.30254 26.6975C4.73061 24.1255 3.28572 20.6373 3.28572 17C3.29106 15.8423 3.44469 14.6901 3.74286 13.5714H6.71429V15.8571C6.71429 16.4633 6.95511 17.0447 7.38376 17.4734C7.81242 17.902 8.3938 18.1429 9.00001 18.1429H12.7829C13.3291 18.1503 13.8599 17.962 14.2792 17.6119C14.6985 17.2617 14.9785 16.773 15.0686 16.2343L15.6629 12.4286H18.3371L18.9657 16.2343C19.0558 16.773 19.3358 17.2617 19.7551 17.6119C20.1744 17.962 20.7052 18.1503 21.2514 18.1429H25C25.6062 18.1429 26.1876 17.902 26.6162 17.4734C27.0449 17.0447 27.2857 16.4633 27.2857 15.8571V13.5714H30.2571C30.5553 14.6901 30.709 15.8423 30.7143 17C30.7143 20.6373 29.2694 24.1255 26.6975 26.6975C24.1255 29.2694 20.6373 30.7143 17 30.7143Z" fill="#EF6C00"/>
</svg>
