<svg width="20" height="20" viewBox="0 0 20 20" fill="none" xmlns="http://www.w3.org/2000/svg">
<path d="M10.0007 0.833496C4.95898 0.833496 0.833984 4.9585 0.833984 10.0002C0.833984 15.0418 4.95898 19.1668 10.0007 19.1668C15.0423 19.1668 19.1673 15.0418 19.1673 10.0002C19.1673 4.9585 15.0423 0.833496 10.0007 0.833496ZM7.09482 5.46266C7.99315 5.46266 8.71732 6.18683 8.71732 7.09433C8.71732 7.99266 7.99315 8.71683 7.09482 8.71683C6.18732 8.71683 5.46315 7.99266 5.46315 7.09433C5.46315 6.18683 6.18732 5.46266 7.09482 5.46266ZM12.9523 14.5835C12.054 14.5835 11.3298 13.8502 11.3298 12.9518C11.3298 12.0535 12.054 11.3293 12.9523 11.3293C13.8507 11.3293 14.584 12.0535 14.584 12.9518C14.584 13.8502 13.8507 14.5835 12.9523 14.5835ZM6.79232 14.611L5.41732 13.236L13.2365 5.41683L14.6115 6.79183L6.79232 14.611Z" fill="url(#paint0_linear_9661_27966)"/>
<defs>
<linearGradient id="paint0_linear_9661_27966" x1="10.0007" y1="0.833496" x2="10.0007" y2="19.1668" gradientUnits="userSpaceOnUse">
<stop stop-color="#FF5402"/>
<stop offset="1" stop-color="#FFB501"/>
</linearGradient>
</defs>
</svg>
