<svg xmlns="http://www.w3.org/2000/svg" width="50" height="51" viewBox="0 0 50 51" fill="none">
<path d="M24.313 13.792C22.5335 13.792 18.1315 13.9779 15.79 16.209C14.1042 17.7893 13.4485 20.2063 13.3549 23.0881C13.1676 27.6433 14.1978 30.5251 15.8837 32.0124C16.2583 32.2913 17.1949 33.035 18.9744 33.5928V35.9168C18.9744 35.9168 18.9744 36.8464 19.5364 37.0324C19.63 37.0324 19.7237 37.1253 19.8173 37.1253C20.3793 37.1253 20.8476 36.4746 21.5032 35.8239C22.0652 35.1731 22.5335 34.7083 22.8144 34.2435H24.8749C26.6544 34.2435 31.0564 34.0576 33.3979 31.8265C35.0837 30.1532 35.7393 27.7362 35.7393 24.6685C35.833 24.2037 35.833 23.6459 35.833 23.0881C35.7393 19.6486 34.7091 17.3245 33.3042 16.0231C32.7423 15.5583 30.3071 13.792 25.0622 13.792H24.313ZM24.1257 15.5583H24.9686C29.9325 15.5583 31.8057 17.1386 31.993 17.3245C33.1169 18.2541 33.7725 20.2993 33.8662 22.9952V23.367C33.9598 23.9248 33.9598 24.3896 33.9598 24.6685C33.8662 27.4573 33.3042 29.3166 32.1803 30.5251C30.2135 32.2913 26.0925 32.3843 24.9686 32.3843H23.1891L21.6905 34.0576L20.7539 35.0802L20.5666 35.3591C20.3793 35.545 20.0983 35.9168 19.911 36.0098V31.8265C18.0378 31.3617 17.2886 30.711 17.1012 30.5251C15.79 29.4095 15.0407 26.7136 15.2281 23.0881V22.1585C15.4154 19.9275 15.9773 18.4401 16.9139 17.4175C18.8808 15.6512 23.0017 15.5583 24.1257 15.5583ZM24.032 17.6034C23.5637 17.6034 23.5637 18.2541 24.032 18.2541C27.4974 18.2541 30.4945 20.5782 30.4945 24.9474C30.4945 25.4122 31.1501 25.4122 31.1501 24.9474C31.1501 20.2063 27.9657 17.5105 24.032 17.6034ZM20.3203 18.4633C20.1081 18.4381 19.8943 18.4961 19.7246 18.6251C18.788 19.0899 17.8505 20.0213 18.1315 21.0439C18.1315 21.0439 18.3188 21.8796 19.3491 23.6459C19.911 24.4826 20.3793 25.2263 20.8476 25.784C21.3159 26.4348 22.0652 27.1784 22.8144 27.7362C24.313 28.9447 26.6544 30.1532 27.6847 30.4321C28.6213 30.711 29.6515 29.7814 30.1198 28.8518C30.3071 28.4799 30.2135 28.0151 29.8388 27.7362C29.2769 27.1784 28.3403 26.5277 27.6847 26.1559C27.2164 25.877 26.6544 26.0629 26.4671 26.3418L25.9988 26.8996C25.8115 27.1784 25.3432 27.1784 25.3432 27.1784C22.2525 26.3418 21.4095 23.1811 21.4095 23.1811C21.4095 23.1811 21.4095 22.8093 21.6905 22.5304L22.2525 22.0656C22.5335 21.8796 22.7208 21.3219 22.4398 20.8571C22.2525 20.5782 21.9715 20.0204 21.6905 19.7415C21.4095 19.3697 20.8476 18.719 20.8476 18.719C20.7055 18.5777 20.5199 18.4877 20.3203 18.4633ZM24.6876 19.4626C24.2193 19.3697 24.1257 20.1134 24.5939 20.1134C27.2164 20.2993 28.7149 22.0656 28.6213 24.2966C28.5276 24.7614 29.2769 24.7614 29.2769 24.2966C29.3705 21.6937 27.6847 19.5556 24.6876 19.4626ZM24.9686 21.2289C24.5003 21.136 24.5003 21.8796 24.9686 21.8796C26.0925 21.8796 26.6544 22.5304 26.6544 23.6459C26.7481 24.1107 27.4037 24.1107 27.4037 23.6459C27.3101 22.1585 26.4671 21.2289 24.9686 21.2289Z" fill="#212121"/>
</svg>