<svg xmlns="http://www.w3.org/2000/svg" width="50" height="51" viewBox="0 0 50 51" fill="none">
<path fill-rule="evenodd" clip-rule="evenodd" d="M36.9115 19.0007C37.0969 18.4132 36.9115 17.9861 36.0912 17.9861H33.3636C32.6755 17.9861 32.3578 18.36 32.1724 18.76C32.1724 18.76 30.7693 22.1767 28.8099 24.3918C28.1745 25.0324 27.8834 25.246 27.5391 25.246C27.3537 25.246 27.1151 25.0324 27.1151 24.4454V18.973C27.1151 18.2793 26.9037 17.959 26.3209 17.959H22.0313C21.6073 17.959 21.3427 18.2793 21.3427 18.5996C21.3427 19.2668 22.3224 19.4272 22.4281 21.2954V25.3548C22.4281 26.2355 22.2719 26.3965 21.925 26.3965C20.9984 26.3965 18.7479 22.9533 17.3979 19.0298C17.1354 18.2527 16.8688 17.959 16.1802 17.959H13.4266C12.6323 17.959 12.5 18.3324 12.5 18.7329C12.5 19.4538 13.4266 23.0835 16.8156 27.8876C19.0662 31.1689 22.2698 32.9324 25.1557 32.9324C26.9037 32.9324 27.1151 32.5319 27.1151 31.8647V29.3824C27.1151 28.5819 27.274 28.4486 27.8302 28.4486C28.2271 28.4486 28.9422 28.6616 30.5573 30.2366C32.4104 32.1048 32.7282 32.959 33.761 32.959H36.4881C37.2823 32.959 37.6532 32.5585 37.4412 31.7845C37.2032 31.0105 36.3026 29.8897 35.1375 28.5553C34.5021 27.8085 33.549 26.9809 33.2578 26.5803C32.861 26.0465 32.9667 25.8329 33.2578 25.3527C33.2313 25.3527 36.5677 20.6017 36.9115 18.9986" fill="#212121"/>
</svg>