<svg width="16" height="17" viewBox="0 0 16 17" fill="none" xmlns="http://www.w3.org/2000/svg">
<g clip-path="url(#clip0_5358_3063)">
<path d="M0.34123 8.40428C0.340855 9.74859 0.694855 11.0612 1.36798 12.2182L0.276855 16.1712L4.35386 15.1104C5.4815 15.7196 6.74494 16.0387 8.02886 16.0388H8.03223C12.2707 16.0388 15.7209 12.6166 15.7227 8.41029C15.7235 6.37203 14.9242 4.45538 13.4721 3.01339C12.0202 1.57153 10.0893 0.777053 8.03192 0.776123C3.79298 0.776123 0.343043 4.19814 0.341293 8.40428" fill="url(#paint0_linear_5358_3063)"/>
<path d="M0.066875 8.40177C0.0664375 9.79445 0.433125 11.154 1.13025 12.3524L0 16.4471L4.22319 15.3484C5.38681 15.9779 6.69694 16.3098 8.03006 16.3103H8.0335C12.424 16.3103 15.9981 12.765 16 8.40809C16.0007 6.29659 15.1727 4.31104 13.6687 2.8174C12.1646 1.32394 10.1646 0.500868 8.0335 0.5C3.64225 0.5 0.068625 4.04481 0.066875 8.40177ZM2.58188 12.146L2.42419 11.8976C1.76131 10.8518 1.41144 9.64326 1.41194 8.40226C1.41338 4.78087 4.38363 1.83457 8.036 1.83457C9.80475 1.83532 11.467 2.51947 12.7172 3.76078C13.9674 5.0022 14.6554 6.65243 14.6549 8.4076C14.6533 12.029 11.683 14.9757 8.0335 14.9757H8.03088C6.84256 14.975 5.67712 14.6584 4.66075 14.06L4.41888 13.9177L1.91275 14.5696L2.58188 12.146V12.146Z" fill="url(#paint1_linear_5358_3063)"/>
<path d="M6.04223 5.09831C5.8931 4.76944 5.73616 4.7628 5.59435 4.75704C5.47823 4.75208 5.34548 4.75245 5.21285 4.75245C5.0801 4.75245 4.86441 4.802 4.6821 4.99952C4.4996 5.19722 3.98535 5.67499 3.98535 6.64671C3.98535 7.61849 4.69866 8.5576 4.7981 8.6895C4.89766 8.82116 6.17516 10.8791 8.19841 11.6708C9.87991 12.3287 10.2221 12.1978 10.587 12.1649C10.952 12.132 11.7648 11.6872 11.9306 11.226C12.0965 10.7649 12.0965 10.3696 12.0468 10.287C11.997 10.2047 11.8643 10.1552 11.6652 10.0565C11.4661 9.95772 10.4875 9.47989 10.305 9.41397C10.1225 9.34811 9.98985 9.31524 9.8571 9.51301C9.72435 9.71046 9.34316 10.1552 9.22698 10.287C9.11091 10.419 8.99473 10.4354 8.79573 10.3366C8.59654 10.2375 7.95548 10.0292 7.19491 9.35642C6.60316 8.83288 6.20366 8.18637 6.08754 7.9886C5.97141 7.79115 6.0751 7.68411 6.17491 7.58569C6.26435 7.49719 6.37404 7.35505 6.47366 7.23977C6.57291 7.12442 6.60604 7.04212 6.67241 6.9104C6.73885 6.77856 6.7056 6.66321 6.65591 6.56442C6.60604 6.46563 6.21923 5.48882 6.04223 5.09831Z" fill="white"/>
</g>
<defs>
<linearGradient id="paint0_linear_5358_3063" x1="772.568" y1="1540.28" x2="772.568" y2="0.776123" gradientUnits="userSpaceOnUse">
<stop stop-color="#1FAF38"/>
<stop offset="1" stop-color="#60D669"/>
</linearGradient>
<linearGradient id="paint1_linear_5358_3063" x1="800" y1="1595.21" x2="800" y2="0.5" gradientUnits="userSpaceOnUse">
<stop stop-color="#F9F9F9"/>
<stop offset="1" stop-color="white"/>
</linearGradient>
<clipPath id="clip0_5358_3063">
<rect width="16" height="16" fill="white" transform="translate(0 0.5)"/>
</clipPath>
</defs>
</svg>
