<svg width="85" height="26" viewBox="0 0 85 26" fill="none" xmlns="http://www.w3.org/2000/svg">
<g id="ya 1" clip-path="url(#clip0_1_422)">
<path id="Name" d="M81.0443 21.9862C82.7092 21.9862 83.8886 21.6849 84.7673 21.0359V18.0926C83.8655 18.7183 82.7786 19.1123 81.2524 19.1123C78.6856 19.1123 77.6219 17.1192 77.6219 13.9672C77.6219 10.6531 78.9168 8.9612 81.2755 8.9612C82.663 8.9612 84.0273 9.4479 84.7442 9.91142V6.85217C83.9811 6.435 82.663 6.13371 80.8593 6.13371C76.2575 6.13371 73.8757 9.4479 73.8757 14.0831C73.8988 19.1587 76.2344 21.9862 81.0443 21.9862ZM58.5442 20.642V17.6986C57.4342 18.4634 55.538 19.1355 53.8037 19.1355C51.1675 19.1355 50.1732 17.884 50.0113 15.3346H58.7061V13.4342C58.7061 8.12686 56.3705 6.13371 52.7862 6.13371C48.3926 6.13371 46.3114 9.49425 46.3114 14.1063C46.3114 19.4136 48.9244 21.9862 53.5031 21.9862C55.7924 21.9862 57.4805 21.3604 58.5442 20.642ZM25.5457 6.41183V12.4376H20.7358V6.41183H17.1284V21.6849H20.7358V15.3114H25.5457V21.6849H29.1531V6.41183H25.5457ZM45.4095 18.811H43.8139V6.41183H33.3155V7.70969C33.3155 11.441 33.0842 16.2617 31.8124 18.811H30.6561V25.1613H33.9861V21.6849H42.0565V25.1613H45.3864V18.811H45.4095ZM70.0371 21.6849H74.1301L68.349 13.4574L73.4363 6.41183H69.8058L64.7184 13.4574V6.41183H61.111V21.6849H64.7184V14.1758L70.0371 21.6849ZM52.6937 8.9612C54.4743 8.9612 55.0293 10.4445 55.0293 12.3681V12.6694H50.0113C50.1038 10.2359 50.9825 8.9612 52.6937 8.9612ZM40.2065 18.811H35.1192C36.1135 16.5166 36.391 12.3449 36.391 9.70283V9.23931H40.2065V18.811Z" fill="#4F4F4F"/>
<path id="Glyph" d="M14.1227 21.6852H10.4459V3.44562H8.80405C5.79787 3.44562 4.22541 4.95206 4.22541 7.20014C4.22541 9.74952 5.31226 10.9315 7.55533 12.4379L9.40528 13.6895L4.08666 21.6852H0.132385L4.91914 14.547C2.16734 12.577 0.617998 10.6534 0.617998 7.40873C0.617998 3.35291 3.43918 0.594955 8.78092 0.594955H14.0995V21.6852H14.1227Z" fill="#4F4F4F"/>
</g>
<defs>
<clipPath id="clip0_1_422">
<rect width="84.8667" height="24.5667" fill="white" transform="translate(0.132812 0.594971)"/>
</clipPath>
</defs>
</svg>
