<svg width="32" height="33" viewBox="0 0 32 33" fill="none" xmlns="http://www.w3.org/2000/svg">
<path fill-rule="evenodd" clip-rule="evenodd" d="M32 16.5003C32 25.3358 24.8358 32.5 15.9997 32.5C7.1642 32.5 0 25.3358 0 16.5003C0 7.6642 7.1642 0.5 15.9997 0.5C24.8358 0.5 32 7.6642 32 16.5003Z" fill="#FB3F1C"/>
<path fill-rule="evenodd" clip-rule="evenodd" d="M18.4857 26.3142H21.9863V6.32446H16.9133C11.8095 6.32446 9.13112 8.93785 9.13112 12.7976C9.1288 15.8409 10.62 17.7093 13.2206 19.5533L8.65997 26.3142H12.442L17.5173 18.7398L15.7499 17.566C13.6187 16.1293 12.5748 15.0129 12.5748 12.5916C12.5748 10.4627 14.0742 9.02662 16.926 9.02662H18.4857V26.3142Z" fill="white"/>
</svg>
