<svg width="20" height="20" viewBox="0 0 20 20" fill="none" xmlns="http://www.w3.org/2000/svg">
<g clip-path="url(#clip0_8568_5882)">
<path d="M8.7513 4.79297C8.91706 4.79297 9.07603 4.85882 9.19324 4.97603C9.31045 5.09324 9.3763 5.25221 9.3763 5.41797V8.1263H12.0846C12.2504 8.1263 12.4094 8.19215 12.5266 8.30936C12.6438 8.42657 12.7096 8.58554 12.7096 8.7513C12.7096 8.91706 12.6438 9.07603 12.5266 9.19324C12.4094 9.31045 12.2504 9.3763 12.0846 9.3763H9.3763V12.0846C9.3763 12.2504 9.31045 12.4094 9.19324 12.5266C9.07603 12.6438 8.91706 12.7096 8.7513 12.7096C8.58554 12.7096 8.42657 12.6438 8.30936 12.5266C8.19215 12.4094 8.1263 12.2504 8.1263 12.0846V9.3763H5.41797C5.25221 9.3763 5.09324 9.31045 4.97603 9.19324C4.85882 9.07603 4.79297 8.91706 4.79297 8.7513C4.79297 8.58554 4.85882 8.42657 4.97603 8.30936C5.09324 8.19215 5.25221 8.1263 5.41797 8.1263H8.1263V5.41797C8.1263 5.25221 8.19215 5.09324 8.30936 4.97603C8.42657 4.85882 8.58554 4.79297 8.7513 4.79297Z" fill="black"/>
<path d="M0 8.75098C0 3.91848 3.9175 0.000976562 8.75 0.000976562C13.5825 0.000976562 17.5 3.91848 17.5 8.75098C17.5 10.9426 16.6942 12.9451 15.3633 14.4801L18.9833 18.101C19.1005 18.2181 19.1663 18.377 19.1663 18.5426C19.1663 18.7083 19.1005 18.8672 18.9833 18.9843C18.8662 19.1014 18.7073 19.1673 18.5417 19.1673C18.376 19.1673 18.2171 19.1014 18.1 18.9843L14.4792 15.3643C12.8901 16.745 10.8551 17.504 8.75 17.501C3.9175 17.501 0 13.5835 0 8.75098ZM8.75 1.25098C6.76088 1.25098 4.85322 2.04115 3.4467 3.44768C2.04018 4.8542 1.25 6.76185 1.25 8.75098C1.25 10.7401 2.04018 12.6478 3.4467 14.0543C4.85322 15.4608 6.76088 16.251 8.75 16.251C10.7391 16.251 12.6468 15.4608 14.0533 14.0543C15.4598 12.6478 16.25 10.7401 16.25 8.75098C16.25 6.76185 15.4598 4.8542 14.0533 3.44768C12.6468 2.04115 10.7391 1.25098 8.75 1.25098Z" fill="black"/>
</g>
<defs>
<clipPath id="clip0_8568_5882">
<rect width="20" height="20" fill="white" transform="translate(0 0.000976562)"/>
</clipPath>
</defs>
</svg>
