<svg width="16" height="16" viewBox="0 0 16 16" fill="none" xmlns="http://www.w3.org/2000/svg">
<g clip-path="url(#clip0_107_832)">
<rect width="16" height="16" fill="white"/>
<path d="M15.3174 5.17992L10.7425 4.55906L8.65371 0.434071C8.58792 0.303519 8.48717 0.193804 8.36268 0.11716C8.23819 0.0405164 8.09486 -4.45156e-05 7.94867 3.66627e-08C7.80154 0.00165745 7.6578 0.0444124 7.53369 0.123438C7.40957 0.202464 7.31002 0.314613 7.24627 0.447225L5.23375 4.61168L0.666798 5.31935C0.521502 5.34216 0.385471 5.40512 0.274051 5.50113C0.16263 5.59713 0.0802538 5.72236 0.0362132 5.86269C-0.00782734 6.00302 -0.0117795 6.15286 0.0248026 6.29531C0.0613846 6.43777 0.137045 6.56717 0.24325 6.66891L3.58165 9.86263L2.85031 14.4138C2.82695 14.5591 2.84466 14.7079 2.90144 14.8437C2.95821 14.9794 3.0518 15.0966 3.17163 15.1819C3.29146 15.2673 3.43276 15.3174 3.57959 15.3267C3.72641 15.336 3.87292 15.3041 4.00257 15.2346L8.07232 13.0458L12.1815 15.1504C12.3124 15.2174 12.4594 15.2465 12.606 15.2344C12.7525 15.2224 12.8928 15.1696 13.0109 15.0821C13.1291 14.9946 13.2205 14.8758 13.2747 14.7391C13.329 14.6024 13.344 14.4533 13.318 14.3086L12.4893 9.77844L15.7672 6.52159C15.8716 6.41781 15.9449 6.28691 15.9788 6.14367C16.0127 6.00044 16.0058 5.85057 15.9591 5.71101C15.9123 5.57146 15.8274 5.44776 15.714 5.35391C15.6006 5.26006 15.4632 5.19979 15.3174 5.17992ZM11.6501 9.12602C11.5594 9.21604 11.4918 9.32677 11.4533 9.44866C11.4149 9.57056 11.4065 9.69998 11.4291 9.8258L12.1842 13.985L8.42484 12.0461C8.31164 11.9867 8.1857 11.9556 8.05785 11.9556C7.92999 11.9556 7.80405 11.9867 7.69086 12.0461L3.96837 14.0665L4.64184 9.89419C4.66233 9.76771 4.65173 9.63815 4.61093 9.51668C4.57014 9.39522 4.50039 9.28552 4.4077 9.19705L1.35342 6.27693L5.53103 5.62977C5.65726 5.61011 5.77684 5.5601 5.87948 5.48404C5.98213 5.40797 6.06477 5.30812 6.12031 5.19307L7.96183 1.3864L9.86911 5.15887C9.92671 5.27295 10.0111 5.37133 10.1152 5.44557C10.2192 5.5198 10.3397 5.56767 10.4663 5.58505L14.6544 6.15329L11.6501 9.12602Z" fill="black"/>
</g>
<defs>
<clipPath id="clip0_107_832">
<rect width="16" height="16" fill="white"/>
</clipPath>
</defs>
</svg>
