<svg width="16" height="16" viewBox="0 0 16 16" fill="none" xmlns="http://www.w3.org/2000/svg">
<g clip-path="url(#clip0_95_334)">
<path fill-rule="evenodd" clip-rule="evenodd" d="M15.0942 1.17488C14.9639 1.29976 14.7903 1.3675 14.6112 1.36476L14.1042 1.35694C10.7232 1.35969 7.47806 2.70242 5.09034 5.09572C2.69994 7.48624 1.35675 10.7313 1.35675 14.112C1.35401 14.4893 1.37567 14.869 1.41651 15.2462C1.43829 15.4253 1.38663 15.6045 1.2727 15.7456C1.16152 15.8866 0.995922 15.9763 0.819613 15.9952C0.640446 16.0167 0.461512 15.9653 0.320205 15.8511C0.179135 15.74 0.0898524 15.5746 0.0679479 15.3981C0.0217566 14.9696 -0.00252933 14.5381 0.000208736 14.1067C0.000208736 10.3676 1.48709 6.77785 4.13243 4.13252C6.77803 1.48689 10.3705 0 14.1093 0H14.1203L14.6331 0.00821413C14.8146 0.0109509 14.9856 0.0869027 15.1103 0.214401C15.2355 0.344533 15.3032 0.518099 15.3005 0.697382C15.2978 0.879168 15.2219 1.05012 15.0942 1.17488ZM14.5891 5.84741C14.768 5.85539 14.9443 5.793 15.0773 5.6711C15.2104 5.5517 15.2891 5.38075 15.2998 5.20147C15.308 5.02254 15.2457 4.84612 15.1235 4.71324C15.004 4.58015 14.8358 4.49884 14.6543 4.49063C14.4723 4.48253 14.2904 4.47729 14.1089 4.47729C11.5556 4.47729 9.10262 5.49193 7.29815 7.29905C5.49127 9.10331 4.47639 11.5562 4.47639 14.1095C4.47639 14.5463 4.50615 14.983 4.56591 15.4172C4.59318 15.5936 4.68806 15.7564 4.83175 15.8649C4.97556 15.9708 5.15473 16.0196 5.33365 15.9923C5.51282 15.968 5.67282 15.8731 5.78137 15.7291C5.88994 15.5854 5.93601 15.4065 5.91173 15.2273C5.85732 14.8583 5.83316 14.4839 5.83316 14.1095C5.83316 11.9169 6.70397 9.80871 8.25599 8.25657C9.808 6.7073 11.9137 5.83362 14.1089 5.83362C14.2689 5.83362 14.4289 5.83898 14.5891 5.84731V5.84741ZM15.0506 10.1859C14.9123 10.2971 14.7334 10.3512 14.5542 10.335L14.5542 10.3351C14.4048 10.3188 14.2584 10.3108 14.1091 10.3108C13.1024 10.3108 12.1339 10.7124 11.4231 11.4233C10.7094 12.1369 10.3105 13.1028 10.3105 14.1095C10.3105 14.4566 10.3566 14.8011 10.4545 15.1351C10.5033 15.306 10.4814 15.4931 10.3947 15.6505C10.3078 15.8078 10.164 15.9246 9.99045 15.9734C9.81664 16.0222 9.63235 16.0033 9.47473 15.9164C9.31734 15.8297 9.20091 15.683 9.14913 15.5095C9.01901 15.0536 8.95389 14.5813 8.95389 14.1095C8.95389 12.7419 9.49664 11.4285 10.4651 10.4627C11.4312 9.49654 12.7443 8.95392 14.1091 8.95392C14.3045 8.95392 14.497 8.96487 14.6899 8.9838C14.8688 9.00273 15.0344 9.08963 15.1482 9.2307C15.2624 9.36903 15.3138 9.54832 15.2976 9.72724C15.2787 9.90641 15.1891 10.0718 15.0506 10.1859ZM13.8083 13.0152C14.6318 13.0152 15.3005 13.6841 15.3005 14.5077C15.3005 15.3312 14.6318 16 13.8083 16C12.9846 16 12.3158 15.3312 12.3158 14.5077C12.3158 13.684 12.9846 13.0152 13.8083 13.0152Z" fill="#212121"/>
</g>
<defs>
<clipPath id="clip0_95_334">
<rect width="16" height="16" fill="white"/>
</clipPath>
</defs>
</svg>
