<svg width="16" height="16" viewBox="0 0 16 16" fill="none" xmlns="http://www.w3.org/2000/svg">
<path d="M13.7749 13.536C15.2114 12.0392 16.0028 10.0727 16.0028 7.99871C16.0028 7.63162 15.9767 7.26555 15.9264 6.91566C15.8023 5.9826 15.5145 5.08865 15.0736 4.25701C15.0735 4.25651 15.0731 4.25613 15.0727 4.25563C15.0666 4.24372 15.0618 4.23118 15.0553 4.21914C13.9101 2.08061 11.803 0.550094 9.42232 0.125978C9.41191 0.123971 9.40075 0.123469 9.39034 0.121463C9.38507 0.120961 9.38006 0.119833 9.37466 0.119456C8.49102 -0.0401958 7.502 -0.0394413 6.62587 0.119456C6.62374 0.119582 6.62185 0.120209 6.61972 0.120334C6.60806 0.122341 6.59564 0.123093 6.5841 0.125225C4.19987 0.550113 2.09283 2.08066 0.947621 4.21871C0.940974 4.23112 0.936083 4.24404 0.929436 4.25646C0.929436 4.25646 0.929436 4.25658 0.92931 4.25683C0.488595 5.08821 0.20067 5.98187 0.0771275 6.91057C0.0260858 7.26585 0 7.63169 0 7.99889C0 8.21535 0.00965676 8.43231 0.0290958 8.64376C0.0515448 8.89333 0.275533 9.07343 0.520956 9.05385C0.770151 9.03102 0.953741 8.8108 0.930946 8.56173C0.914266 8.3775 0.905738 8.18799 0.905738 7.99876C0.905738 7.91047 0.911632 7.8228 0.915144 7.73464L2.36054 6.68568L6.13971 7.76549L6.58418 9.13335L4.15153 12.3767H2.41946C2.24438 12.1549 2.08286 11.9256 1.93938 11.6888C1.80945 11.4752 1.53067 11.4067 1.31733 11.5367C1.1035 11.6665 1.03541 11.9447 1.16483 12.1587C1.46131 12.6474 1.81886 13.1105 2.2267 13.5345C2.88486 14.225 3.65441 14.785 4.51185 15.1986C4.51311 15.1995 4.51474 15.2004 4.51599 15.2011C4.51674 15.2012 4.51737 15.202 4.51837 15.2022C5.60596 15.7317 6.77782 16 8.00121 16C9.22459 16 10.3966 15.7317 11.4824 15.2031C11.4837 15.2026 11.4849 15.2018 11.4861 15.2011C11.4878 15.2004 11.4895 15.1994 11.4911 15.1986C12.3494 14.7843 13.1182 14.2248 13.7746 13.536L13.7749 13.536ZM11.839 13.2827H12.7315C12.3724 13.6061 11.9819 13.8902 11.563 14.1328L11.839 13.2827ZM13.5827 12.3768H11.8511L9.41841 9.13347L9.7579 8.08978L13.6575 6.69693L15.0875 7.73472C15.0908 7.82276 15.0967 7.91042 15.0967 7.99884C15.0967 9.60124 14.5633 11.1308 13.5825 12.3768L13.5827 12.3768ZM7.42542 8.79122L7.06936 7.696L8.0013 7.01889L8.9331 7.696L8.5773 8.79122H7.42542ZM14.933 6.50318L14.2129 5.98072L14.4889 5.13017C14.6842 5.57137 14.8327 6.02978 14.933 6.50321L14.933 6.50318ZM13.8897 4.04256L13.2985 5.86292L9.71359 7.1434L8.45383 6.22825V2.25742L9.94199 1.17722C11.5446 1.6346 12.9563 2.65896 13.8897 4.04253V4.04256ZM8.72262 0.943488L8.00123 1.46684L7.27985 0.943135C7.75415 0.894726 8.2454 0.894703 8.72262 0.943488ZM6.06034 1.17739L7.54825 2.25745L7.54838 6.22829L6.56312 6.94428L2.69566 5.83927L2.11262 4.04247C3.04568 2.6598 4.45621 1.63553 6.06034 1.17742L6.06034 1.17739ZM1.06951 6.50309C1.16971 6.03078 1.31795 5.57189 1.51346 5.13018L1.7895 5.98034L1.06951 6.50309ZM3.27113 13.2825H4.16344L4.43948 14.1327C4.02123 13.8901 3.63093 13.6063 3.27113 13.2825ZM5.56405 14.6624L4.96156 12.8068L7.29388 9.69709H8.70903L11.0408 12.8067L10.4385 14.6626C9.66306 14.9478 8.84661 15.0939 8.00107 15.0939C7.15631 15.0941 6.33986 14.9478 5.56405 14.6624Z" fill="#212121"/>
<path d="M1.38084 10.5472C1.27525 10.2847 1.18796 10.0087 1.11384 9.70372C1.0549 9.46067 0.810592 9.31268 0.566919 9.37037C0.323869 9.42931 0.174619 9.67425 0.233565 9.91729C0.318093 10.2656 0.418173 10.5821 0.540451 10.8853C0.611434 11.0619 0.781369 11.1693 0.960587 11.1693C1.0169 11.1693 1.07409 11.159 1.12964 11.1365C1.36178 11.0429 1.47414 10.7791 1.38084 10.5472Z" fill="#212121"/>
</svg>
