<svg width="16" height="16" viewBox="0 0 16 16" fill="none" xmlns="http://www.w3.org/2000/svg">
<path d="M15.8649 9.38564C15.8842 9.28908 15.9035 9.19252 15.9131 9.09596C15.9614 8.72903 16 8.3621 16 7.99517C16 7.94689 16 7.90827 16 7.86964C16 7.62824 15.9903 7.3965 15.9614 7.1551C15.9517 7.04888 15.9324 6.94267 15.9131 6.83645C15.8938 6.68196 15.8745 6.53712 15.8456 6.38262C15.8456 6.36331 15.8359 6.344 15.8263 6.32468C15.8263 6.30537 15.8263 6.2764 15.8166 6.25709C15.7973 6.16053 15.7587 6.07363 15.7394 5.97707C15.7008 5.83223 15.6622 5.67773 15.614 5.53289C15.5754 5.41702 15.5271 5.30115 15.4885 5.19493C15.4499 5.08871 15.421 4.9825 15.3727 4.88594C15.3534 4.84731 15.3341 4.80869 15.3148 4.76041C15.2955 4.72179 15.2859 4.68316 15.2666 4.64454C15.2376 4.57695 15.1894 4.50935 15.1604 4.43211C15.0929 4.29692 15.0253 4.17139 14.9578 4.03621C14.8999 3.92999 14.8323 3.82378 14.7648 3.71756C14.7262 3.64997 14.6876 3.57272 14.6393 3.51479C14.6007 3.45685 14.5621 3.40857 14.5235 3.36029C14.4849 3.31201 14.456 3.25407 14.4174 3.20579C14.3788 3.15751 14.3305 3.10923 14.2919 3.06095C14.2051 2.94508 14.1086 2.83887 14.0121 2.73265C13.9349 2.63609 13.848 2.54919 13.7708 2.46228C13.7322 2.42366 13.6936 2.37538 13.655 2.33675C13.5875 2.26916 13.5199 2.22088 13.4524 2.15329C13.3945 2.10501 13.3462 2.04707 13.2883 1.98914C13.2786 1.97948 13.2593 1.97948 13.2497 1.96982C12.9988 1.74774 12.7382 1.54496 12.468 1.3615C12.0338 1.07182 11.5802 0.82076 11.1074 0.62764C10.6248 0.424864 10.1134 0.270368 9.60193 0.164152C9.07117 0.057936 8.53076 0 7.99035 0C7.13148 0 6.29192 0.135184 5.4813 0.395896C4.69964 0.656608 3.96622 1.02354 3.30036 1.50634C3.12666 1.63186 2.97226 1.78636 2.8082 1.92155C2.7696 1.94086 2.731 1.96017 2.70205 1.98914C2.6345 2.04707 2.56695 2.12432 2.4994 2.19191C2.4222 2.25951 2.35464 2.3271 2.28709 2.40435C2.04584 2.6554 1.80458 2.91611 1.59228 3.19614C1.59228 3.19614 1.58263 3.20579 1.58263 3.21545C1.37033 3.50513 1.17732 3.81412 1.00362 4.13277C0.955368 4.21967 0.907117 4.30658 0.868516 4.39348C0.820265 4.48039 0.772014 4.56729 0.733414 4.65419C0.646562 4.84731 0.569361 5.05009 0.492159 5.26252C0.472859 5.30115 0.453558 5.33977 0.443908 5.37839C0.443908 5.37839 0.443908 5.38805 0.443908 5.39771C0.347406 5.67773 0.260555 5.96741 0.193004 6.26675C0.164053 6.40193 0.154403 6.52746 0.125452 6.66264C0.125452 6.68195 0.106152 6.71092 0.106152 6.73024C0.106152 6.74955 0.106152 6.76886 0.106152 6.78817C0.0482509 7.19372 0 7.59928 0 8.00483C0 8.0338 0 8.06276 0 8.09173V8.11104C0 8.31382 0.0193004 8.5166 0.0386007 8.70972C0.0386007 8.76765 0.0386007 8.82559 0.0482509 8.89318C0.0772014 9.16355 0.125452 9.43392 0.183353 9.70428C0.183353 9.70428 0.183353 9.71394 0.183353 9.7236C0.183353 9.7236 0.183353 9.7236 0.183353 9.73325C0.193004 9.78153 0.212304 9.82981 0.221954 9.87809C0.270205 10.0905 0.328106 10.303 0.395657 10.5057C0.424608 10.5926 0.463209 10.6795 0.492159 10.7664C0.54041 10.9016 0.588661 11.0465 0.646562 11.172C0.656212 11.201 0.675513 11.2299 0.685163 11.2589C0.694813 11.2879 0.704463 11.3072 0.714113 11.3361C0.752714 11.4134 0.791315 11.481 0.829916 11.5582C0.897467 11.7031 0.974668 11.8383 1.05187 11.9831C1.10977 12.0797 1.16767 12.1762 1.23522 12.2728C1.28347 12.3597 1.33173 12.4466 1.38963 12.5238C1.41858 12.5721 1.45718 12.6107 1.49578 12.659C1.52473 12.6976 1.54403 12.7459 1.57298 12.7846C1.61158 12.8425 1.65983 12.8908 1.69843 12.939C1.79493 13.0549 1.89144 13.1804 1.98794 13.2963C2.06514 13.3832 2.14234 13.4605 2.21954 13.5474C2.26779 13.5957 2.31604 13.6536 2.36429 13.7019C2.4222 13.7598 2.48975 13.8081 2.54765 13.866C2.5959 13.9143 2.64415 13.9626 2.6924 14.0109C2.70205 14.0205 2.72135 14.0205 2.731 14.0302C2.99156 14.2523 3.26176 14.4744 3.54162 14.6578C3.96622 14.9475 4.41978 15.1889 4.89264 15.382C5.37515 15.5848 5.87696 15.7393 6.38842 15.8455C6.82268 15.9324 7.25694 15.9807 7.70084 16H7.9035C7.93245 16 7.9614 16 7.99035 16H8.1544C8.94572 15.9807 9.71773 15.8552 10.4608 15.6041C11.2328 15.353 11.9566 14.9861 12.6224 14.513C12.7479 14.4261 12.8154 14.2812 12.8444 14.1267C12.8637 14.1267 12.8733 14.1267 12.8926 14.1267C13.0374 14.1267 13.1725 14.0785 13.2786 13.9819C13.4041 13.8757 13.5199 13.7502 13.6357 13.6343C13.6454 13.6246 13.6647 13.615 13.684 13.6053C13.6936 13.5957 13.6936 13.5763 13.7033 13.5667C13.9542 13.3156 14.1858 13.0453 14.3981 12.7652C14.4463 12.6976 14.4849 12.6301 14.5332 12.5625C14.5332 12.5528 14.5525 12.5431 14.5621 12.5335C14.5911 12.4852 14.62 12.4369 14.649 12.3887C14.8034 12.1473 14.9481 11.9059 15.0832 11.6548C15.1218 11.5775 15.1604 11.51 15.199 11.4327C15.2183 11.3941 15.2376 11.3651 15.2569 11.3265C15.392 11.0465 15.4982 10.7471 15.5947 10.4575C15.5947 10.4381 15.614 10.4188 15.614 10.4092C15.6333 10.3609 15.6333 10.3126 15.6429 10.2643C15.7008 10.0809 15.7491 9.90706 15.7973 9.7236C15.8263 9.60772 15.8359 9.49185 15.8552 9.37598L15.8649 9.38564ZM7.99035 14.8413C6.48492 14.8413 5.0953 14.3392 3.96622 13.5088C4.18818 13.277 4.40048 13.0356 4.59349 12.7749C4.93124 12.3307 5.2111 11.8479 5.45235 11.3361C5.69361 10.8244 5.87696 10.2836 5.99276 9.7236C6.11821 9.15389 6.18577 8.56488 6.18577 7.98552V7.82136C6.18577 7.66687 6.11821 7.52203 6.01206 7.41581C5.90591 7.3096 5.76116 7.25166 5.60676 7.25166C5.4427 7.25166 5.29795 7.31925 5.1918 7.42547C5.08565 7.53168 5.02774 7.67652 5.02774 7.83102V7.98552C5.02774 9.78153 4.34258 11.4617 3.10736 12.7459C2.24849 11.8672 1.62123 10.7568 1.34138 9.51116C1.34138 9.4822 1.32207 9.44357 1.32207 9.41461C1.29312 9.26011 1.26417 9.10561 1.24487 8.94146C1.23522 8.86421 1.22557 8.79662 1.21592 8.71937C1.20627 8.59384 1.19662 8.45866 1.18697 8.33313C1.18697 8.21726 1.16767 8.10139 1.16767 7.98552C1.16767 7.18407 1.31242 6.40193 1.57298 5.67773C1.68878 5.35908 1.81423 5.05009 1.97829 4.76041C1.97829 4.76041 1.98794 4.7411 1.99759 4.73144C2.14234 4.46107 2.31604 4.20036 2.4994 3.94931C2.538 3.90103 2.56695 3.85275 2.5959 3.81412C2.75995 3.60169 2.93366 3.41823 3.11701 3.22511C3.75392 3.88171 4.25573 4.67351 4.58384 5.52323C4.67069 5.74532 4.88299 5.89016 5.12425 5.89016C5.20145 5.89016 5.269 5.88051 5.33655 5.85154C5.4813 5.7936 5.59711 5.68739 5.65501 5.54255C5.71291 5.39771 5.72256 5.24321 5.66466 5.09837C5.43305 4.4997 5.12425 3.92999 4.75754 3.39891C4.52593 3.06095 4.25573 2.76162 3.97587 2.46228C5.12425 1.62221 6.52352 1.13941 8.0193 1.13941C9.51508 1.13941 10.8951 1.6029 12.0531 2.46228C11.8311 2.69403 11.6188 2.93543 11.4258 3.19614C11.0881 3.64031 10.8082 4.12311 10.5669 4.63488C10.3257 5.14665 10.1423 5.68739 10.0265 6.24744C9.90108 6.81714 9.83353 7.3965 9.83353 7.98552V8.14967C9.83353 8.30416 9.90109 8.449 10.0072 8.55522C10.1134 8.66144 10.2581 8.71937 10.4125 8.71937C10.5766 8.71937 10.7214 8.65178 10.8275 8.54556C10.9337 8.43935 10.9916 8.29451 10.9916 8.14001V7.98552C10.9916 6.17984 11.6767 4.4997 12.9216 3.21545C13.0084 3.30235 13.0856 3.38926 13.1628 3.47616C13.2207 3.54375 13.2786 3.60169 13.3365 3.66928C13.4427 3.79481 13.5296 3.92999 13.6261 4.05552C13.6647 4.1038 13.6936 4.15208 13.7322 4.20036C13.8384 4.35486 13.9349 4.51901 14.0217 4.68316C14.0314 4.71213 14.0507 4.73144 14.07 4.76041C14.1665 4.95353 14.263 5.14665 14.3402 5.33977C14.3402 5.33977 14.3402 5.34943 14.3402 5.35908C14.6779 6.17984 14.8613 7.0682 14.8613 7.97586C14.8613 8.29451 14.8323 8.6035 14.7937 8.91249C14.7937 8.97043 14.7744 9.02836 14.7648 9.0863C14.7165 9.39529 14.649 9.70428 14.5525 10.0036C14.5525 10.0036 14.5525 10.0229 14.5525 10.0326C14.456 10.3319 14.3402 10.6313 14.2051 10.9209C14.1954 10.9499 14.1761 10.9789 14.1665 10.9982C14.0217 11.2879 13.8577 11.5582 13.684 11.8286C13.462 12.1473 13.2207 12.4562 12.9409 12.7459C12.304 12.0893 11.7925 11.2975 11.4644 10.4381C11.3776 10.2161 11.1653 10.0712 10.924 10.0712C10.8565 10.0712 10.7793 10.0809 10.7117 10.1098C10.5669 10.1678 10.4511 10.274 10.3932 10.4188C10.3257 10.554 10.3257 10.7182 10.3836 10.863C10.6152 11.4617 10.924 12.0314 11.2907 12.5625C11.532 12.9004 11.8022 13.2191 12.0917 13.5184C12.0627 13.5281 12.0338 13.5474 12.0048 13.557C10.8372 14.3874 9.46683 14.822 8.0386 14.822L7.99035 14.8413ZM5.3655 5.43633C5.33655 5.50392 5.27865 5.56186 5.20145 5.59083C5.1725 5.60048 5.1339 5.61014 5.0953 5.61014C5.1339 5.61014 5.16285 5.61014 5.20145 5.59083C5.27865 5.56186 5.3269 5.50392 5.3655 5.43633ZM5.88661 7.99517C5.88661 7.94689 5.88661 7.88896 5.88661 7.84068C5.88661 7.76343 5.85766 7.69584 5.79976 7.6379C5.74186 7.57996 5.67431 7.551 5.58745 7.551C5.66466 7.551 5.73221 7.57996 5.79011 7.6379C5.84801 7.69584 5.87696 7.76343 5.87696 7.84068C5.87696 7.88896 5.87696 7.94689 5.87696 7.99517H5.88661ZM5.4813 10.4575C5.39445 10.7182 5.2883 10.9692 5.18215 11.2203C4.96019 11.7031 4.68034 12.1762 4.36188 12.6011C4.68034 12.1666 4.96019 11.7031 5.18215 11.2203C5.29795 10.9692 5.39445 10.7182 5.4813 10.4575ZM3.29071 12.9487C3.73462 12.4949 4.11098 11.9928 4.41978 11.452C4.12063 11.9928 3.73462 12.4949 3.29071 12.9487ZM11.6285 3.38926C11.4644 3.60169 11.3197 3.83343 11.1846 4.05552C11.3197 3.82378 11.4741 3.60169 11.6285 3.38926C11.7925 3.17683 11.9566 2.97405 12.1399 2.77127C11.9566 2.96439 11.7829 3.17683 11.6285 3.38926ZM10.3932 8.43935C10.316 8.43935 10.2485 8.41038 10.1906 8.35244C10.2485 8.41038 10.3257 8.43935 10.4029 8.43935H10.3932ZM10.2774 6.32468C10.3932 5.7936 10.5766 5.27218 10.7986 4.77007C10.5669 5.26252 10.3932 5.78395 10.2774 6.32468ZM11.1556 10.5733C11.117 10.4575 11.0012 10.3899 10.8854 10.3899C11.0012 10.3899 11.117 10.4671 11.1556 10.5733C11.3486 11.0658 11.5899 11.5293 11.889 11.9734C11.5995 11.5389 11.3486 11.0658 11.1556 10.5733ZM3.76357 13.7212C3.86007 13.7888 3.94692 13.866 4.05308 13.9336C3.95657 13.866 3.86007 13.7888 3.76357 13.7212ZM7.99035 0.280024C8.51146 0.280024 9.04222 0.328304 9.54403 0.43452C10.0362 0.53108 10.5283 0.685576 10.9916 0.888352C11.2232 0.984913 11.4451 1.09113 11.6671 1.21666C11.889 1.34218 12.1013 1.46771 12.304 1.6029C12.1013 1.46771 11.889 1.33253 11.6671 1.21666C11.4451 1.10078 11.2232 0.984913 10.9916 0.888352C10.5283 0.695232 10.0362 0.540736 9.54403 0.43452C9.03257 0.328304 8.51146 0.280024 7.99035 0.280024ZM3.46441 1.73808C3.78287 1.50634 4.12063 1.2939 4.47768 1.1201C4.13028 1.30356 3.79252 1.50634 3.46441 1.73808C3.40651 1.78636 3.34861 1.8443 3.29071 1.88292C3.34861 1.83464 3.40651 1.7767 3.46441 1.73808ZM10.3739 15.3337C10.2774 15.3627 10.1809 15.3724 10.0941 15.4013C10.1906 15.3724 10.2871 15.3627 10.3739 15.3337ZM13.8191 13.0356C13.8963 12.9487 13.9638 12.8618 14.0314 12.7749C13.9638 12.8618 13.8866 12.9487 13.8191 13.0356Z" fill="#212121"/>
<path d="M10.6441 10.0036C10.7889 9.97465 10.924 9.88775 11.0108 9.76222C11.0977 9.63669 11.1266 9.48219 11.0977 9.3277C11.0398 9.05733 10.8082 8.85455 10.5283 8.85455C10.4897 8.85455 10.4511 8.85455 10.4125 8.86421C10.2581 8.89318 10.123 8.98008 10.0458 9.11526C9.95898 9.24079 9.93003 9.39529 9.95898 9.54978C10.0169 9.82015 10.2485 10.0229 10.5283 10.0229C10.5669 10.0229 10.6055 10.0229 10.6441 10.0133V10.0036ZM10.8178 9.37598C10.7889 9.24079 10.6731 9.14423 10.5283 9.14423C10.6634 9.14423 10.7889 9.24079 10.8178 9.37598Z" fill="#212121"/>
<path d="M5.45234 5.97705C5.45234 5.97705 5.37514 5.97705 5.34619 5.98671C5.19179 6.01568 5.06633 6.10258 4.97948 6.22811C4.89263 6.35364 4.86368 6.50813 4.89263 6.66263C4.95053 6.933 5.18214 7.13577 5.46199 7.13577C5.50059 7.13577 5.53919 7.13577 5.57779 7.12612C5.72255 7.09715 5.85765 7.01024 5.9445 6.88472C6.03135 6.75919 6.0603 6.60469 6.03135 6.4502C5.9831 6.17983 5.74185 5.97705 5.46199 5.97705H5.45234ZM5.51024 6.84609C5.51024 6.84609 5.47164 6.84609 5.45234 6.84609C5.47164 6.84609 5.49094 6.84609 5.51024 6.84609C5.58744 6.82678 5.655 6.78816 5.6936 6.72056C5.655 6.7785 5.58744 6.82678 5.51024 6.84609Z" fill="#212121"/>
</svg>
