<svg width="16" height="16" viewBox="0 0 16 16" fill="none" xmlns="http://www.w3.org/2000/svg">
<g clip-path="url(#clip0_2030_8)">
<rect width="16" height="16" fill="white"/>
<path d="M14.8754 7.17348C13.6874 6.56083 9.71889 4.53402 8.57406 3.9491V3.14551C8.57406 2.82664 8.31707 2.56795 7.99986 2.56795C7.61269 2.56795 7.29736 2.25097 7.29736 1.86134C7.29736 1.4719 7.61269 1.15492 7.99986 1.15492C8.38723 1.15492 8.70218 1.4719 8.70218 1.86134C8.70218 2.1804 8.95936 2.4389 9.27656 2.4389C9.59321 2.4389 9.84982 2.1804 9.84982 1.86134C9.84982 0.835104 9.02014 0 8.00005 0C6.97978 0 6.14953 0.835104 6.14953 1.86134C6.14953 2.68626 6.68546 3.3874 7.42586 3.63099V3.94891C6.28028 4.53383 2.31267 6.56045 1.12432 7.1731C0.28657 7.60518 -0.155004 8.50369 0.0496506 9.35822C0.242863 10.1626 0.940865 10.6826 1.82889 10.6826H2.49294V15.4223C2.49294 15.7411 2.74937 16 3.06695 16H12.9339C13.2505 16 13.5077 15.7411 13.5077 15.4223V10.6826H14.1716C15.0591 10.6826 15.7574 10.1628 15.9505 9.35822C16.1549 8.50406 15.713 7.60556 14.8754 7.17348ZM12.3593 14.8449H3.64077V9.43162H12.3595L12.3593 14.8449ZM14.8341 9.08728C14.7946 9.25181 14.6565 9.52766 14.1712 9.52766H13.5072V8.85407C13.5072 8.53538 13.2502 8.2767 12.9333 8.2767H3.06639C2.74899 8.2767 2.49238 8.5352 2.49238 8.85407V9.52766H1.82833C1.34342 9.52766 1.20517 9.25162 1.16559 9.08728C1.0975 8.80482 1.22093 8.42142 1.64768 8.20123C2.85273 7.57971 6.92763 5.49874 7.99949 4.95119C9.07135 5.49856 13.1464 7.57971 14.3509 8.20123C14.7788 8.42142 14.9019 8.80482 14.8341 9.08728Z" fill="black"/>
</g>
<defs>
<clipPath id="clip0_2030_8">
<rect width="16" height="16" fill="white"/>
</clipPath>
</defs>
</svg>
