<svg width="16" height="16" viewBox="0 0 16 16" fill="none" xmlns="http://www.w3.org/2000/svg">
<rect width="16" height="16" fill="white"/>
<path d="M4.90493 9.98078C4.67164 10.2453 4.54541 10.371 4.26578 10.371C3.98615 10.371 3.86471 10.2436 3.62663 9.98078C3.38855 9.71794 3.04181 9.32776 2.39947 9.32776C2.29352 9.32776 2.19192 9.37076 2.117 9.4473C2.04209 9.52384 2 9.62765 2 9.7359C2 9.84414 2.04209 9.94795 2.117 10.0245C2.19192 10.101 2.29352 10.144 2.39947 10.144C2.6759 10.144 2.80053 10.2714 3.03862 10.5342C3.2767 10.7971 3.62344 11.1872 4.26578 11.1872C4.90812 11.1872 5.24687 10.8068 5.49294 10.5342C5.73901 10.2616 5.85246 10.144 6.13209 10.144C6.41172 10.144 6.53316 10.2714 6.77124 10.5342C7.00932 10.7971 7.35606 11.1872 7.9984 11.1872C8.64075 11.1872 8.97949 10.8068 9.22557 10.5342C9.47164 10.2616 9.58509 10.144 9.86471 10.144C10.1443 10.144 10.2658 10.2714 10.5039 10.5342C10.7419 10.7971 11.0887 11.1872 11.731 11.1872C12.3734 11.1872 12.7121 10.8068 12.9582 10.5342C13.2043 10.2616 13.3177 10.144 13.5973 10.144C13.7033 10.144 13.8049 10.101 13.8798 10.0245C13.9547 9.94795 13.9968 9.84414 13.9968 9.7359C13.9968 9.62765 13.9547 9.52384 13.8798 9.4473C13.8049 9.37076 13.7033 9.32776 13.5973 9.32776C12.9582 9.32776 12.6162 9.70814 12.3702 9.98078C12.1241 10.2534 12.0107 10.371 11.731 10.371C11.4514 10.371 11.33 10.2436 11.0919 9.98078C10.8538 9.71794 10.5071 9.32776 9.86471 9.32776C9.22237 9.32776 8.88522 9.70814 8.63755 9.98078C8.38988 10.2534 8.27803 10.371 7.9984 10.371C7.71877 10.371 7.59734 10.2436 7.35925 9.98078C7.12117 9.71794 6.77443 9.32776 6.13209 9.32776C5.48975 9.32776 5.151 9.70325 4.90493 9.98078Z" fill="black"/>
<path d="M2.40273 12.5439C2.67916 12.5439 2.8038 12.6713 3.04188 12.9341C3.27996 13.197 3.6267 13.5871 4.26904 13.5871C4.91139 13.5871 5.25014 13.2068 5.49621 12.9341C5.74228 12.6615 5.85573 12.5439 6.13536 12.5439C6.41498 12.5439 6.53642 12.6713 6.7745 12.9341C7.01259 13.197 7.35932 13.5871 8.00167 13.5871C8.64401 13.5871 8.98276 13.2068 9.22883 12.9341C9.4749 12.6615 9.58835 12.5439 9.86798 12.5439C10.1476 12.5439 10.269 12.6713 10.5071 12.9341C10.7452 13.197 11.0919 13.5871 11.7343 13.5871C12.3766 13.5871 12.7154 13.2068 12.9615 12.9341C13.2075 12.6615 13.321 12.5439 13.6006 12.5439C13.7065 12.5439 13.8082 12.5009 13.8831 12.4244C13.958 12.3479 14.0001 12.244 14.0001 12.1358C14.0001 12.0276 13.958 11.9237 13.8831 11.8472C13.8082 11.7707 13.7065 11.7277 13.6006 11.7277C12.9615 11.7277 12.6195 12.108 12.3734 12.3807C12.1274 12.6533 12.0139 12.7709 11.7343 12.7709C11.4547 12.7709 11.3332 12.6435 11.0951 12.3807C10.8571 12.1178 10.5103 11.7277 9.86798 11.7277C9.22564 11.7277 8.88848 12.108 8.64081 12.3807C8.39315 12.6533 8.28129 12.7709 8.00167 12.7709C7.72204 12.7709 7.6006 12.6435 7.36252 12.3807C7.12444 12.1178 6.7777 11.7277 6.13536 11.7277C5.49301 11.7277 5.15586 12.108 4.90819 12.3807C4.66052 12.6533 4.54867 12.7709 4.26904 12.7709C3.98942 12.7709 3.86798 12.6435 3.6299 12.3807C3.39181 12.1178 3.04508 11.7277 2.40273 11.7277C2.29679 11.7277 2.19518 11.7707 2.12027 11.8472C2.04535 11.9237 2.00327 12.0276 2.00327 12.1358C2.00327 12.244 2.04535 12.3479 2.12027 12.4244C2.19518 12.5009 2.29679 12.5439 2.40273 12.5439Z" fill="black"/>
<path d="M2.40273 14.9502C2.67916 14.9502 2.8038 15.0776 3.04188 15.3404C3.27996 15.6033 3.6267 15.9934 4.26904 15.9934C4.91139 15.9934 5.25014 15.6131 5.49621 15.3404C5.74228 15.0678 5.85573 14.9502 6.13536 14.9502C6.41498 14.9502 6.53642 15.0776 6.7745 15.3404C7.01259 15.6033 7.35613 16 7.99528 16C8.63442 16 8.97637 15.6196 9.22244 15.347C9.46851 15.0743 9.58196 14.9568 9.86159 14.9568C10.1412 14.9568 10.2627 15.0841 10.5007 15.347C10.7388 15.6098 11.0856 16 11.7279 16C12.3702 16 12.709 15.6196 12.9551 15.347C13.2011 15.0743 13.3146 14.9568 13.5942 14.9568C13.7002 14.9568 13.8018 14.9138 13.8767 14.8372C13.9516 14.7607 13.9937 14.6569 13.9937 14.5486C13.9937 14.4404 13.9516 14.3366 13.8767 14.26C13.8018 14.1835 13.7002 14.1405 13.5942 14.1405C12.9551 14.1405 12.6131 14.5209 12.367 14.7935C12.121 15.0662 11.9899 15.1837 11.7199 15.1837C11.4499 15.1837 11.3188 15.0564 11.0808 14.7935C10.8427 14.5307 10.4959 14.1405 9.8536 14.1405C9.21125 14.1405 8.87251 14.5209 8.62643 14.7935C8.38036 15.0662 8.27011 15.1837 7.99528 15.1837C7.72044 15.1837 7.59421 15.0564 7.35613 14.7935C7.11805 14.5307 6.77131 14.1405 6.12896 14.1405C5.48662 14.1405 5.14787 14.5209 4.9018 14.7935C4.65573 15.0662 4.54548 15.1837 4.26904 15.1837C3.99261 15.1837 3.86798 15.0564 3.6299 14.7935C3.39181 14.5307 3.04508 14.1405 2.40273 14.1405C2.29679 14.1405 2.19518 14.1835 2.12027 14.26C2.04535 14.3366 2.00327 14.4404 2.00327 14.5486C2.00327 14.6569 2.04535 14.7607 2.12027 14.8372C2.19518 14.9138 2.29679 14.9568 2.40273 14.9568V14.9502Z" fill="black"/>
<path d="M6.83516 0.817282C6.93347 0.816805 7.0299 0.84476 7.11331 0.897916C7.19672 0.951072 7.26371 1.02726 7.30653 1.11767C7.35315 1.21488 7.43565 1.28918 7.53588 1.32423C7.63612 1.35929 7.74588 1.35223 7.84102 1.3046C7.93616 1.25697 8.00888 1.17268 8.04319 1.07027C8.0775 0.967857 8.07059 0.855714 8.02397 0.758511C7.89267 0.483848 7.67413 0.262761 7.40402 0.131332C7.13391 -9.78525e-05 6.82817 -0.0341106 6.5367 0.0348443C6.24524 0.103799 5.98525 0.27165 5.79917 0.511005C5.61309 0.75036 5.5119 1.04709 5.51212 1.35276V8.14253C5.51212 8.25078 5.55421 8.35459 5.62913 8.43113C5.70404 8.50767 5.80565 8.55067 5.91159 8.55067C6.01754 8.55067 6.11914 8.50767 6.19406 8.43113C6.26897 8.35459 6.31106 8.25078 6.31106 8.14253V7.40789H9.8823V8.14253C9.8823 8.25078 9.92438 8.35459 9.9993 8.43113C10.0742 8.50767 10.1758 8.55067 10.2818 8.55067C10.3877 8.55067 10.4893 8.50767 10.5642 8.43113C10.6391 8.35459 10.6812 8.25078 10.6812 8.14253V1.35276C10.6838 1.23387 10.725 1.11924 10.7984 1.02693C10.8717 0.934615 10.9731 0.869884 11.0865 0.84294C11.1998 0.815996 11.3187 0.828372 11.4244 0.878116C11.5302 0.92786 11.6167 1.01214 11.6703 1.11767C11.6934 1.1658 11.7255 1.20882 11.7649 1.24426C11.8042 1.2797 11.85 1.30688 11.8997 1.32423C11.9493 1.34159 12.0018 1.34879 12.0541 1.34542C12.1065 1.34205 12.1577 1.32818 12.2048 1.3046C12.2519 1.28102 12.294 1.24818 12.3287 1.20798C12.3634 1.16777 12.39 1.12098 12.407 1.07027C12.424 1.01956 12.431 0.965928 12.4277 0.912437C12.4244 0.858945 12.4108 0.806641 12.3878 0.758511C12.2546 0.487432 12.0361 0.269984 11.7673 0.141131C11.4986 0.0122791 11.1953 -0.0204891 10.9061 0.0480963C10.6169 0.116682 10.3587 0.282635 10.173 0.51927C9.98735 0.755905 9.88495 1.04947 9.8823 1.35276V2.56738H6.31106V1.35276C6.31106 1.21074 6.36628 1.07454 6.46456 0.97412C6.56285 0.873698 6.69616 0.817282 6.83516 0.817282ZM6.31106 6.59161V5.38842H9.8823V6.58508L6.31106 6.59161ZM9.8823 3.38365V4.57215H6.31106V3.38365H9.8823Z" fill="black"/>
</svg>
