<svg width="16" height="16" viewBox="0 0 16 16" fill="none" xmlns="http://www.w3.org/2000/svg">
<rect width="16" height="16" fill="white"/>
<path d="M14 1.18891C14 0.873588 13.8807 0.571185 13.6684 0.348222C13.4561 0.125259 13.1682 0 12.8679 0H3.13208C2.83184 0 2.54389 0.125259 2.33158 0.348222C2.11928 0.571185 2.00001 0.873588 2.00001 1.18891V1.74939C1.99933 1.93828 2.04152 2.12462 2.12308 2.29298C2.20464 2.46134 2.32323 2.60686 2.46901 2.7175V8.2544C2.46901 8.7499 2.65644 9.2251 2.99006 9.57547C3.32368 9.92585 3.77617 10.1227 4.24798 10.1227H7.51483V11.2097L4.66847 15.184C4.59126 15.2921 4.55811 15.428 4.57631 15.5618C4.59451 15.6956 4.66256 15.8163 4.7655 15.8974C4.8505 15.9615 4.95199 15.997 5.05661 15.9993C5.13261 16.0038 5.20841 15.9873 5.27649 15.9516C5.34458 15.9158 5.40258 15.862 5.44475 15.7955L7.51483 12.9081V14.6575C7.51483 14.7926 7.56594 14.9222 7.65693 15.0178C7.74792 15.1134 7.87132 15.167 8 15.167C8.12868 15.167 8.25208 15.1134 8.34307 15.0178C8.43406 14.9222 8.48517 14.7926 8.48517 14.6575V12.9081L10.5553 15.7955C10.6325 15.9036 10.7474 15.975 10.8748 15.9942C11.0022 16.0133 11.1316 15.9784 11.2345 15.8974C11.3374 15.8163 11.4055 15.6956 11.4237 15.5618C11.4419 15.428 11.4087 15.2921 11.3315 15.184L8.48517 11.2097V10.1227H11.752C12.2238 10.1227 12.6763 9.92585 13.0099 9.57547C13.3436 9.2251 13.531 8.7499 13.531 8.2544V2.7175C13.6768 2.60686 13.7954 2.46134 13.8769 2.29298C13.9585 2.12462 14.0007 1.93828 14 1.74939V1.18891ZM2.97036 1.18891C2.96776 1.16594 2.97015 1.14266 2.97736 1.12081C2.98457 1.09896 2.9964 1.07911 3.01197 1.06276C3.02754 1.04641 3.04644 1.03398 3.06724 1.02641C3.08805 1.01884 3.11022 1.01633 3.13208 1.01906H12.8679C12.8898 1.01633 12.912 1.01884 12.9328 1.02641C12.9536 1.03398 12.9725 1.04641 12.988 1.06276C13.0036 1.07911 13.0154 1.09896 13.0226 1.12081C13.0299 1.14266 13.0322 1.16594 13.0296 1.18891V1.74939C13.0296 1.79443 13.0126 1.83764 12.9823 1.86949C12.9519 1.90134 12.9108 1.91923 12.8679 1.91923H3.13208C3.08919 1.91923 3.04805 1.90134 3.01773 1.86949C2.9874 1.83764 2.97036 1.79443 2.97036 1.74939V1.18891ZM11.752 9.10362H4.24798C4.03352 9.10362 3.82785 9.01415 3.6762 8.85489C3.52455 8.69563 3.43936 8.47963 3.43936 8.2544V2.9383H12.5606V8.2544C12.5606 8.47963 12.4754 8.69563 12.3238 8.85489C12.1722 9.01415 11.9665 9.10362 11.752 9.10362Z" fill="black"/>
</svg>
