<svg width="16" height="16" viewBox="0 0 16 16" fill="none" xmlns="http://www.w3.org/2000/svg">
<rect width="16" height="16" fill="white"/>
<path d="M14.2857 1H1.71429C0.768952 1 0 1.76895 0 2.71429V10.7143C0 11.6596 0.768952 12.4286 1.71429 12.4286H4.84933L5.15067 14.2366C5.19638 14.5122 5.43467 14.7143 5.71429 14.7143H10.2857C10.5653 14.7143 10.8036 14.5122 10.8493 14.2366L11.1507 12.4286H14.2857C15.231 12.4286 16 11.6596 16 10.7143V2.71429C16 1.76895 15.231 1 14.2857 1ZM6.00762 12.4286H7.42857V13.5714H6.1981L6.00762 12.4286ZM5.2461 7.85714H7.42857V9H5.43657L5.2461 7.85714ZM10.7539 7.85714L10.5634 9H8.57143V7.85714H10.7539ZM10.1827 11.2857H8.57143V10.1429H10.3731L10.1827 11.2857ZM5.62686 10.1429H7.42857V11.2857H5.81733L5.62686 10.1429ZM9.8019 13.5714H8.57143V12.4286H9.99238L9.8019 13.5714ZM14.8571 10.7143C14.8571 11.0295 14.601 11.2857 14.2857 11.2857H11.3411L11.9126 7.85714H12.5714C12.8872 7.85714 13.1429 7.60133 13.1429 7.28571C13.1429 6.9701 12.8872 6.71429 12.5714 6.71429C10.595 6.71429 5.24724 6.71429 3.42857 6.71429C3.11276 6.71429 2.85714 6.9701 2.85714 7.28571C2.85714 7.60133 3.11276 7.85714 3.42857 7.85714H4.08743L4.65886 11.2857H1.71429C1.39905 11.2857 1.14286 11.0295 1.14286 10.7143V2.71429C1.14286 2.39924 1.39905 2.14286 1.71429 2.14286H14.2857C14.601 2.14286 14.8571 2.39924 14.8571 2.71429V10.7143Z" fill="black"/>
</svg>
