<svg width="16" height="16" viewBox="0 0 16 16" fill="none" xmlns="http://www.w3.org/2000/svg">
<rect width="16" height="16" fill="white"/>
<path d="M9.99939 3.4C9.99939 3.17909 10.1785 3 10.3994 3H12.7994C13.7648 3 14.3994 3.71389 14.3994 4.6C14.3994 5.48611 13.7648 6.2 12.7994 6.2C12.5785 6.2 12.3994 6.02091 12.3994 5.8C12.3994 5.57909 12.5785 5.4 12.7994 5.4C13.3006 5.4 13.5994 5.06389 13.5994 4.6C13.5994 4.13611 13.3006 3.8 12.7994 3.8H10.7994V5L10.7626 5.16764C10.694 5.30838 10.5574 5.4 10.3994 5.4H9.77418L10.0362 4.83236L9.99939 5V4.6H10.3994C10.6203 4.6 10.7994 4.77909 10.7994 5C10.7994 5.0629 10.7849 5.12242 10.759 5.17537L8.36256 10.3669C8.29717 10.5085 8.1554 10.5992 7.99939 10.5992H3.19939C2.89671 10.5992 2.70369 10.2761 2.84721 10.0096L5.64721 4.81034C5.71698 4.68079 5.85224 4.6 5.99939 4.6H9.99939V3.4ZM6.23829 5.4L3.86912 9.79924H7.74347L9.77418 5.4H6.23829Z" fill="black"/>
<path d="M3.2 13.4C1.43269 13.4 0 11.9673 0 10.2C0 8.43269 1.43269 7 3.2 7C4.96731 7 6.4 8.43269 6.4 10.2C6.4 11.9673 4.96731 13.4 3.2 13.4ZM3.2 12.6C4.52548 12.6 5.6 11.5255 5.6 10.2C5.6 8.87452 4.52548 7.8 3.2 7.8C1.87452 7.8 0.8 8.87452 0.8 10.2C0.8 11.5255 1.87452 12.6 3.2 12.6Z" fill="black"/>
<path d="M12.7996 13.4C11.0323 13.4 9.59961 11.9673 9.59961 10.2C9.59961 8.43269 11.0323 7 12.7996 7C14.5669 7 15.9996 8.43269 15.9996 10.2C15.9996 11.9673 14.5669 13.4 12.7996 13.4ZM12.7996 12.6C14.1251 12.6 15.1996 11.5255 15.1996 10.2C15.1996 8.87452 14.1251 7.8 12.7996 7.8C11.4741 7.8 10.3996 8.87452 10.3996 10.2C10.3996 11.5255 11.4741 12.6 12.7996 12.6Z" fill="black"/>
<path d="M8.37306 10.0564C8.45236 10.2626 8.3495 10.4941 8.14331 10.5734C7.93712 10.6527 7.70568 10.5498 7.62638 10.3436L5.62638 5.14361C5.54708 4.93742 5.64994 4.70599 5.85613 4.62668C6.06231 4.54738 6.29375 4.65024 6.37306 4.85643L8.37306 10.0564Z" fill="black"/>
<path d="M13.1633 10.0324C13.2559 10.233 13.1683 10.4706 12.9677 10.5632C12.7671 10.6558 12.5295 10.5682 12.4369 10.3676L10.0369 5.16762C9.94434 4.96704 10.0319 4.72939 10.2325 4.63681C10.4331 4.54424 10.6707 4.63179 10.7633 4.83237L13.1633 10.0324Z" fill="black"/>
<path d="M6.39961 5C6.39961 5.22091 6.22052 5.4 5.99961 5.4C5.7787 5.4 5.59961 5.22091 5.59961 5V3.4C5.59961 3.17909 5.7787 3 5.99961 3C6.22052 3 6.39961 3.17909 6.39961 3.4V5Z" fill="black"/>
<path d="M3.6 3.8C3.37909 3.8 3.2 3.62091 3.2 3.4C3.2 3.17909 3.37909 3 3.6 3H6.8C7.02091 3 7.2 3.17909 7.2 3.4C7.2 3.62091 7.02091 3.8 6.8 3.8H3.6Z" fill="black"/>
</svg>
