<svg width="16" height="16" viewBox="0 0 16 16" fill="none" xmlns="http://www.w3.org/2000/svg">
<g clip-path="url(#clip0_1_220)">
<rect width="16" height="16" fill="white"/>
<path d="M15.4286 0C15.277 0 15.1317 0.060151 15.0245 0.167221C14.9173 0.27429 14.8571 0.419508 14.8571 0.570927H1.14286C1.14286 0.419508 1.08265 0.27429 0.97549 0.167221C0.868326 0.060151 0.722981 0 0.571429 0C0.419876 0 0.274531 0.060151 0.167368 0.167221C0.0602039 0.27429 0 0.419508 0 0.570927V13.1313C0 13.2827 0.0602039 13.428 0.167368 13.535C0.274531 13.6421 0.419876 13.7022 0.571429 13.7022C0.722981 13.7022 0.868326 13.6421 0.97549 13.535C1.08265 13.428 1.14286 13.2827 1.14286 13.1313V8.5639H3.4C3.008 9.3473 2.82292 10.2178 2.86235 11.0928C2.90178 11.9677 3.1644 12.8181 3.62528 13.5631C4.08616 14.3082 4.72999 14.9231 5.49565 15.3496C6.26132 15.7761 7.12338 16 8 16C8.87662 16 9.73869 15.7761 10.5043 15.3496C11.27 14.9231 11.9138 14.3082 12.3747 13.5631C12.8356 12.8181 13.0982 11.9677 13.1377 11.0928C13.1771 10.2178 12.992 9.3473 12.6 8.5639H14.8571V13.1313C14.8571 13.2827 14.9173 13.428 15.0245 13.535C15.1317 13.6421 15.277 13.7022 15.4286 13.7022C15.5801 13.7022 15.7255 13.6421 15.8326 13.535C15.9398 13.428 16 13.2827 16 13.1313V0.570927C16 0.419508 15.9398 0.27429 15.8326 0.167221C15.7255 0.060151 15.5801 0 15.4286 0ZM11.5383 8.98981C10.5053 8.28991 9.25422 7.98584 8.01486 8.13342C8.10982 7.70471 8.23333 7.2828 8.38457 6.87053C9.04478 6.93525 9.67856 7.16277 10.229 7.53268C10.7795 7.90258 11.2294 8.40328 11.5383 8.98981ZM10.3091 10.7671C9.69682 10.4363 9.01097 10.2649 8.31486 10.2687C8.14988 9.97069 8.03173 9.64912 7.96457 9.31524C9.69771 8.85222 11.4766 10.2898 11.9954 10.758C11.996 10.7905 12 10.8173 12 10.8476C12 11.2618 11.9352 11.6735 11.808 12.0677C11.3735 11.5643 10.8687 11.1267 10.3091 10.7671ZM6.77543 8.89047C6.79468 9.58567 6.98884 10.2648 7.34 10.8653C7.16466 11.1576 6.94533 11.4213 6.68971 11.6469C5.424 10.3783 5.77543 8.12714 5.92343 7.44089C6.30248 7.20823 6.71799 7.04091 7.15257 6.94589C6.93453 7.57256 6.80753 8.22722 6.77543 8.8899V8.89047ZM4 10.8476C4.00029 10.0934 4.21576 9.35487 4.62114 8.71862C4.53138 9.96105 4.89313 11.1941 5.64 12.1916C5.22208 12.3236 4.7958 12.4275 4.364 12.5027C4.12474 11.9837 4.00058 11.4191 4 10.8476ZM5.04571 13.531C5.69621 13.4062 6.32546 13.1889 6.91429 12.8858C7.50685 12.5214 7.99812 12.0139 8.34286 11.41C8.68337 11.4156 9.02101 11.4734 9.344 11.5812C8.87486 13.3157 6.73771 14.1356 6.076 14.3491C5.68994 14.1348 5.34186 13.8583 5.04571 13.531ZM8 14.8441C7.94743 14.8441 7.896 14.8384 7.844 14.8361C8.96499 14.292 9.85215 13.3624 10.3429 12.2178C10.666 12.5132 10.9689 12.8298 11.2497 13.1656C10.881 13.6837 10.3937 14.1064 9.82846 14.3983C9.26321 14.6903 8.63632 14.8431 8 14.8441ZM11.8223 7.42205C11.3421 6.88335 10.7533 6.45224 10.0946 6.15704C9.4358 5.86184 8.72198 5.70923 8 5.70923C7.27802 5.70923 6.5642 5.86184 5.90544 6.15704C5.24668 6.45224 4.65788 6.88335 4.17771 7.42205H1.14286V1.71278H14.8571V7.42205H11.8223Z" fill="black"/>
</g>
<defs>
<clipPath id="clip0_1_220">
<rect width="16" height="16" fill="white"/>
</clipPath>
</defs>
</svg>
