<svg width="16" height="16" viewBox="0 0 16 16" fill="none" xmlns="http://www.w3.org/2000/svg">
<g clip-path="url(#clip0_1_222)">
<rect width="16" height="16" fill="white"/>
<path d="M7.5299 1.91833V0.470588C7.5299 0.21069 7.74059 0 8.00049 0C8.26039 0 8.47108 0.21069 8.47108 0.470588V1.91833C9.937 2.14468 11.0593 3.41187 11.0593 4.94118C11.0593 6.63052 9.68983 8 8.00049 8C6.31115 8 4.94167 6.63052 4.94167 4.94118C4.94167 3.41187 6.06398 2.14468 7.5299 1.91833ZM7.5299 5.41176V7.00635C7.68125 7.04069 7.83875 7.05882 8.00049 7.05882C8.16223 7.05882 8.31973 7.04069 8.47108 7.00635V5.41176H7.5299ZM7.5299 4.47059H8.47108V2.87601C8.31973 2.84166 8.16223 2.82353 8.00049 2.82353C7.83875 2.82353 7.68125 2.84166 7.5299 2.87601V4.47059ZM10.0657 5.41176H9.41226V6.5196C9.73377 6.23184 9.96683 5.8473 10.0657 5.41176ZM10.0657 4.47059C9.96683 4.03506 9.73377 3.65051 9.41226 3.36275V4.47059H10.0657ZM5.93532 5.41176C6.03415 5.8473 6.26722 6.23184 6.58873 6.5196V5.41176H5.93532ZM5.93532 4.47059H6.58873V3.36275C6.26722 3.65051 6.03415 4.03506 5.93532 4.47059ZM2.82402 9.41177H13.177C13.3669 9.41177 13.5383 9.526 13.6114 9.70136L15.9643 15.3484C16.0934 15.6584 15.8657 16 15.5299 16H0.471079C0.135277 16 -0.0924663 15.6584 0.0366881 15.3484L2.38963 9.70136C2.4627 9.526 2.63404 9.41177 2.82402 9.41177ZM6.73609 10.3529L6.34392 12.2353H9.65706L9.2649 10.3529H6.73609ZM5.7747 10.3529H3.13775L2.35343 12.2353H5.38254L5.7747 10.3529ZM5.75569 15.0588H10.2453L9.85313 13.1765H6.14785L5.75569 15.0588ZM4.79431 15.0588L5.18647 13.1765H1.96128L1.17696 15.0588H4.79431ZM10.2263 10.3529L10.6184 12.2353H13.6475L12.8632 10.3529H10.2263ZM11.2067 15.0588H14.824L14.0397 13.1765H10.8145L11.2067 15.0588ZM13.4123 6.35294H13.6475C13.9074 6.35294 14.1181 6.56363 14.1181 6.82353C14.1181 7.08343 13.9074 7.29412 13.6475 7.29412H13.4123V7.52941C13.4123 7.78931 13.2016 8 12.9417 8C12.6818 8 12.4711 7.78931 12.4711 7.52941V7.29412H12.2358C11.9759 7.29412 11.7652 7.08343 11.7652 6.82353C11.7652 6.56363 11.9759 6.35294 12.2358 6.35294H12.4711V6.11765C12.4711 5.85775 12.6818 5.64706 12.9417 5.64706C13.2016 5.64706 13.4123 5.85775 13.4123 6.11765V6.35294ZM14.3534 1.88235H14.5887C14.8486 1.88235 15.0593 2.09304 15.0593 2.35294C15.0593 2.61284 14.8486 2.82353 14.5887 2.82353H14.3534V3.05882C14.3534 3.31872 14.1427 3.52941 13.8828 3.52941C13.6229 3.52941 13.4123 3.31872 13.4123 3.05882V2.82353H13.177C12.9171 2.82353 12.7064 2.61284 12.7064 2.35294C12.7064 2.09304 12.9171 1.88235 13.177 1.88235H13.4123V1.64706C13.4123 1.38716 13.6229 1.17647 13.8828 1.17647C14.1427 1.17647 14.3534 1.38716 14.3534 1.64706V1.88235ZM3.29461 1.64706H3.5299C3.7898 1.64706 4.00049 1.85775 4.00049 2.11765C4.00049 2.37755 3.7898 2.58824 3.5299 2.58824H3.29461V2.82353C3.29461 3.08343 3.08392 3.29412 2.82402 3.29412C2.56412 3.29412 2.35343 3.08343 2.35343 2.82353V2.58824H2.11814C1.85824 2.58824 1.64755 2.37755 1.64755 2.11765C1.64755 1.85775 1.85824 1.64706 2.11814 1.64706H2.35343V1.41176C2.35343 1.15187 2.56412 0.941176 2.82402 0.941176C3.08392 0.941176 3.29461 1.15187 3.29461 1.41176V1.64706ZM2.58873 6.11765H2.82402C3.08392 6.11765 3.29461 6.32834 3.29461 6.58824C3.29461 6.84813 3.08392 7.05882 2.82402 7.05882H2.58873V7.29412C2.58873 7.55402 2.37804 7.76471 2.11814 7.76471C1.85824 7.76471 1.64755 7.55402 1.64755 7.29412V7.05882H1.41226C1.15236 7.05882 0.941667 6.84813 0.941667 6.58824C0.941667 6.32834 1.15236 6.11765 1.41226 6.11765H1.64755V5.88235C1.64755 5.62245 1.85824 5.41176 2.11814 5.41176C2.37804 5.41176 2.58873 5.62245 2.58873 5.88235V6.11765Z" fill="black"/>
</g>
<defs>
<clipPath id="clip0_1_222">
<rect width="16" height="16" fill="white"/>
</clipPath>
</defs>
</svg>
