<svg width="16" height="16" viewBox="0 0 16 16" fill="none" xmlns="http://www.w3.org/2000/svg">
<path d="M14.0653 14.5936C13.9546 14.5936 13.8457 14.5936 13.7349 14.5936C13.4379 14.5936 13.1409 14.5936 12.8439 14.5936C12.4027 14.5936 11.9616 14.5936 11.5222 14.5936C10.9879 14.5936 10.4537 14.5936 9.91938 14.5936C9.33237 14.5936 8.74537 14.5936 8.15836 14.5936C7.56783 14.5936 6.97555 14.5936 6.38503 14.5936C5.83845 14.5936 5.29186 14.5936 4.74527 14.5936C4.28481 14.5936 3.82258 14.5936 3.36211 14.5936C3.03522 14.5936 2.70832 14.5936 2.38318 14.5936C2.23731 14.5936 2.09319 14.5936 1.94732 14.5936C1.88581 14.5936 1.82605 14.59 1.7663 14.5813C1.82781 14.59 1.89108 14.5988 1.95259 14.6059C1.85066 14.59 1.75224 14.5637 1.65557 14.525C1.71181 14.5479 1.76805 14.5725 1.82429 14.5953C1.72412 14.5531 1.63097 14.4986 1.54309 14.4336C1.59055 14.4705 1.638 14.5074 1.68545 14.5443C1.59933 14.4776 1.52376 14.402 1.45697 14.3159C1.49388 14.3633 1.53079 14.4108 1.5677 14.4582C1.50267 14.3703 1.44819 14.2772 1.40601 14.177C1.42885 14.2333 1.45346 14.2895 1.47631 14.3457C1.43764 14.2491 1.41128 14.1507 1.39546 14.0487C1.40425 14.1102 1.41304 14.1735 1.42007 14.235C1.40073 14.0839 1.40776 13.9275 1.40776 13.7746C1.40776 13.4846 1.40776 13.1946 1.40776 12.9046C1.40776 12.4687 1.40776 12.0311 1.40776 11.5952C1.40776 11.0592 1.40776 10.5232 1.40776 9.98712C1.40776 9.39836 1.40776 8.80959 1.40776 8.22083C1.40776 7.62679 1.40776 7.03099 1.40776 6.43695C1.40776 5.88334 1.40776 5.32972 1.40776 4.77611C1.40776 4.31037 1.40776 3.84638 1.40776 3.38064C1.40776 3.05023 1.40776 2.71982 1.40776 2.39117C1.40776 2.24354 1.40776 2.09591 1.40776 1.94827C1.40776 1.88676 1.41128 1.82701 1.42007 1.76725C1.41128 1.82876 1.40249 1.89203 1.39546 1.95355C1.41128 1.85161 1.43764 1.75319 1.47631 1.65653C1.45346 1.71277 1.42885 1.76901 1.40601 1.82525C1.44819 1.72507 1.50267 1.63192 1.5677 1.54405C1.53079 1.5915 1.49388 1.63895 1.45697 1.68641C1.52376 1.60029 1.59933 1.52471 1.68545 1.45793C1.638 1.49484 1.59055 1.53175 1.54309 1.56865C1.63097 1.50362 1.72412 1.44914 1.82429 1.40696C1.76805 1.42981 1.71181 1.45441 1.65557 1.47726C1.75224 1.4386 1.85066 1.41223 1.95259 1.39642C1.89108 1.4052 1.82781 1.41399 1.7663 1.42102C1.91744 1.40169 2.07386 1.40872 2.22676 1.40872C2.51675 1.40872 2.80674 1.40872 3.09673 1.40872C3.53259 1.40872 3.97021 1.40872 4.40608 1.40872C4.94212 1.40872 5.47816 1.40872 6.0142 1.40872C6.60296 1.40872 7.19173 1.40872 7.78049 1.40872C8.37453 1.40872 8.97033 1.40872 9.56436 1.40872C10.118 1.40872 10.6716 1.40872 11.2252 1.40872C11.691 1.40872 12.1549 1.40872 12.6207 1.40872C12.9511 1.40872 13.2815 1.40872 13.6102 1.40872C13.7578 1.40872 13.9054 1.40872 14.053 1.40872C14.1146 1.40872 14.1743 1.41223 14.2341 1.42102C14.1726 1.41223 14.1093 1.40345 14.0478 1.39642C14.1497 1.41223 14.2481 1.4386 14.3448 1.47726C14.2885 1.45441 14.2323 1.42981 14.1761 1.40696C14.2762 1.44914 14.3694 1.50362 14.4573 1.56865C14.4098 1.53175 14.3624 1.49484 14.3149 1.45793C14.401 1.52471 14.4766 1.60029 14.5434 1.68641C14.5065 1.63895 14.4696 1.5915 14.4327 1.54405C14.4977 1.63192 14.5522 1.72507 14.5944 1.82525C14.5715 1.76901 14.5469 1.71277 14.5241 1.65653C14.5627 1.75319 14.5891 1.85161 14.6049 1.95355C14.5961 1.89203 14.5873 1.82876 14.5803 1.76725C14.5996 1.9184 14.5926 2.07482 14.5926 2.22772C14.5926 2.51771 14.5926 2.8077 14.5926 3.09769C14.5926 3.53355 14.5926 3.97117 14.5926 4.40703C14.5926 4.94307 14.5926 5.47911 14.5926 6.01515C14.5926 6.60392 14.5926 7.19268 14.5926 7.78145C14.5926 8.37549 14.5926 8.97128 14.5926 9.56532C14.5926 10.1189 14.5926 10.6726 14.5926 11.2262C14.5926 11.6919 14.5926 12.1559 14.5926 12.6216C14.5926 12.952 14.5926 13.2825 14.5926 13.6111C14.5926 13.7587 14.5926 13.9064 14.5926 14.054C14.5926 14.1155 14.5891 14.1753 14.5803 14.235C14.5891 14.1735 14.5979 14.1102 14.6049 14.0487C14.5891 14.1507 14.5627 14.2491 14.5241 14.3457C14.5469 14.2895 14.5715 14.2333 14.5944 14.177C14.5522 14.2772 14.4977 14.3703 14.4327 14.4582C14.4696 14.4108 14.5065 14.3633 14.5434 14.3159C14.4766 14.402 14.401 14.4776 14.3149 14.5443C14.3624 14.5074 14.4098 14.4705 14.4573 14.4336C14.3694 14.4986 14.2762 14.5531 14.1761 14.5953C14.2323 14.5725 14.2885 14.5479 14.3448 14.525C14.2481 14.5637 14.1497 14.59 14.0478 14.6059C14.1093 14.5971 14.1726 14.5883 14.2341 14.5813C14.1796 14.59 14.1233 14.5936 14.0653 14.5936C13.8843 14.5953 13.6963 14.6709 13.568 14.7992C13.4467 14.9204 13.3536 15.1208 13.3623 15.2966C13.3799 15.6744 13.6717 16.0031 14.0653 15.9996C14.7297 15.9925 15.3167 15.6568 15.6893 15.112C15.8984 14.8062 15.9986 14.4178 15.9986 14.0505C15.9986 13.8765 15.9986 13.7043 15.9986 13.5303C15.9986 13.1524 15.9986 12.7745 15.9986 12.3967C15.9986 11.8747 15.9986 11.3545 15.9986 10.8325C15.9986 10.2209 15.9986 9.60926 15.9986 8.99764C15.9986 8.35967 15.9986 7.71993 15.9986 7.08196C15.9986 6.46859 15.9986 5.85346 15.9986 5.24009C15.9986 4.71459 15.9986 4.18734 15.9986 3.66185C15.9986 3.27695 15.9986 2.89206 15.9986 2.50716C15.9986 2.32438 15.9986 2.1416 15.9986 1.95882C15.9986 1.61611 15.9142 1.27691 15.7438 0.97813C15.5873 0.700443 15.3571 0.473725 15.0917 0.299731C14.8158 0.118708 14.4994 0.0361049 14.1743 0.00798473C14.0232 -0.00607535 13.8667 0.00271221 13.7156 0.00271221C13.3817 0.00271221 13.0477 0.00271221 12.7138 0.00271221C12.2217 0.00271221 11.7314 0.00271221 11.2393 0.00271221C10.6435 0.00271221 10.0477 0.00271221 9.45188 0.00271221C8.81567 0.00271221 8.17769 0.00271221 7.54147 0.00271221C6.9158 0.00271221 6.29013 0.00271221 5.66445 0.00271221C5.11259 0.00271221 4.56074 0.00271221 4.00888 0.00271221C3.58356 0.00271221 3.16 0.00271221 2.73468 0.00271221C2.49742 0.00271221 2.26191 0.00271221 2.02465 0.00271221C1.9772 0.00271221 1.92974 0.000954677 1.88405 0.0044697C1.2285 0.0308323 0.634461 0.373547 0.284716 0.928919C0.0527253 1.298 0 1.71277 0 2.13457C0 2.42104 0 2.70752 0 2.99399C0 3.4527 0 3.91141 0 4.36836C0 4.94483 0 5.52129 0 6.09775C0 6.7287 0 7.3614 0 7.99235C0 8.62681 0 9.26127 0 9.89573C0 10.4704 0 11.0434 0 11.6181C0 12.0803 0 12.5408 0 13.003C0 13.2895 0 13.576 0 13.8642C0 14.2842 0.0509677 14.6955 0.279444 15.0646C0.623916 15.6217 1.20917 15.9591 1.8612 15.9978C1.91568 16.0013 1.97017 15.9996 2.02289 15.9996C2.2584 15.9996 2.49566 15.9996 2.73117 15.9996C3.15297 15.9996 3.57477 15.9996 3.99658 15.9996C4.55019 15.9996 5.10381 15.9996 5.65742 15.9996C6.27958 15.9996 6.9035 15.9996 7.52565 15.9996C8.16539 15.9996 8.80512 15.9996 9.44485 15.9996C10.0389 15.9996 10.6312 15.9996 11.2252 15.9996C11.7191 15.9996 12.2147 15.9996 12.7085 15.9996C13.0425 15.9996 13.3764 15.9996 13.7103 15.9996C13.8281 15.9996 13.9476 15.9996 14.0653 15.9996C14.4327 15.9996 14.7859 15.6762 14.7683 15.2966C14.7508 14.9152 14.459 14.5936 14.0653 14.5936Z" fill="black"/>
<path d="M4.43771 4.1188C4.43771 4.16801 4.43419 4.21546 4.42716 4.26291C4.43595 4.2014 4.44474 4.13813 4.45177 4.07662C4.43947 4.16274 4.41662 4.24358 4.38323 4.32443C4.40607 4.26819 4.43068 4.21195 4.45353 4.15571C4.41662 4.24007 4.37092 4.31915 4.31468 4.39297C4.35159 4.34552 4.3885 4.29806 4.42541 4.25061C4.37268 4.31564 4.31468 4.37539 4.2479 4.42812C4.29535 4.39121 4.3428 4.3543 4.39026 4.3174C4.31644 4.37364 4.23911 4.41933 4.15299 4.45624C4.20923 4.43339 4.26547 4.40879 4.32171 4.38594C4.24087 4.41757 4.16002 4.44042 4.07391 4.45448C4.13542 4.4457 4.19869 4.43691 4.2602 4.42988C4.16354 4.44218 4.06688 4.44218 3.97021 4.42988C4.03173 4.43866 4.095 4.44745 4.15651 4.45448C4.07039 4.44218 3.98954 4.41933 3.9087 4.38594C3.96494 4.40879 4.02118 4.43339 4.07742 4.45624C3.99306 4.41933 3.91397 4.37364 3.84016 4.3174C3.88761 4.3543 3.93506 4.39121 3.98251 4.42812C3.91749 4.37539 3.85773 4.3174 3.80501 4.25061C3.84191 4.29806 3.87882 4.34552 3.91573 4.39297C3.85949 4.31915 3.81379 4.24182 3.77689 4.15571C3.79973 4.21195 3.82434 4.26819 3.84719 4.32443C3.81555 4.24358 3.7927 4.16274 3.77864 4.07662C3.78743 4.13813 3.79622 4.2014 3.80325 4.26291C3.79095 4.16625 3.79095 4.06959 3.80325 3.97292C3.79446 4.03444 3.78567 4.09771 3.77864 4.15922C3.79095 4.0731 3.81379 3.99226 3.84719 3.91141C3.82434 3.96765 3.79973 4.02389 3.77689 4.08013C3.81379 3.99577 3.85949 3.91668 3.91573 3.84287C3.87882 3.89032 3.84191 3.93777 3.80501 3.98523C3.85773 3.9202 3.91573 3.86044 3.98251 3.80772C3.93506 3.84463 3.88761 3.88153 3.84016 3.91844C3.91397 3.8622 3.9913 3.81651 4.07742 3.7796C4.02118 3.80245 3.96494 3.82705 3.9087 3.8499C3.98954 3.81826 4.07039 3.79542 4.15651 3.78136C4.095 3.79014 4.03173 3.79893 3.97021 3.80596C4.06688 3.79366 4.16354 3.79366 4.2602 3.80596C4.19869 3.79717 4.13542 3.78839 4.07391 3.78136C4.16002 3.79366 4.24087 3.81651 4.32171 3.8499C4.26547 3.82705 4.20923 3.80245 4.15299 3.7796C4.23735 3.81651 4.31644 3.8622 4.39026 3.91844C4.3428 3.88153 4.29535 3.84463 4.2479 3.80772C4.31293 3.86044 4.37268 3.91844 4.42541 3.98523C4.3885 3.93777 4.35159 3.89032 4.31468 3.84287C4.37092 3.91668 4.41662 3.99402 4.45353 4.08013C4.43068 4.02389 4.40607 3.96765 4.38323 3.91141C4.41486 3.99226 4.43771 4.0731 4.45177 4.15922C4.44298 4.09771 4.43419 4.03444 4.42716 3.97292C4.43419 4.02214 4.43771 4.06959 4.43771 4.1188C4.43947 4.29982 4.51504 4.48612 4.64334 4.61617C4.76461 4.73744 4.96496 4.83059 5.14071 4.8218C5.51858 4.80423 5.84899 4.51248 5.84372 4.1188C5.8402 3.78663 5.74705 3.43513 5.55197 3.16271C5.32174 2.84285 5.03526 2.61964 4.66619 2.48431C4.34983 2.36832 3.97021 2.36656 3.64859 2.45795C3.34102 2.54583 3.03697 2.72685 2.82959 2.97466C2.69953 3.12932 2.60814 3.27168 2.53081 3.45622C2.45172 3.64427 2.41657 3.81651 2.39724 4.02214C2.36561 4.35255 2.46403 4.71635 2.63451 4.99931C2.79971 5.27524 3.05455 5.52656 3.34981 5.66013C3.5695 5.76031 3.74525 5.80601 3.98603 5.83413C4.15651 5.85346 4.32874 5.83237 4.49747 5.79898C4.67146 5.76558 4.84721 5.69177 5.00011 5.60038C5.1495 5.51075 5.29537 5.39651 5.40785 5.26118C5.68203 4.93253 5.8402 4.54939 5.84372 4.11704C5.84723 3.74972 5.51682 3.39646 5.14071 3.41404C4.75582 3.43337 4.44298 3.72512 4.43771 4.1188Z" fill="black"/>
<path d="M12.2024 11.8835C12.2024 11.9327 12.1989 11.9801 12.1919 12.0276C12.2006 11.9661 12.2094 11.9028 12.2165 11.8413C12.2042 11.9274 12.1813 12.0083 12.1479 12.0891C12.1708 12.0329 12.1954 11.9766 12.2182 11.9204C12.1813 12.0047 12.1356 12.0838 12.0794 12.1576C12.1163 12.1102 12.1532 12.0627 12.1901 12.0153C12.1374 12.0803 12.0794 12.1401 12.0126 12.1928C12.06 12.1559 12.1075 12.119 12.1549 12.0821C12.0811 12.1383 12.0038 12.184 11.9177 12.2209C11.9739 12.1981 12.0302 12.1735 12.0864 12.1506C12.0056 12.1823 11.9247 12.2051 11.8386 12.2192C11.9001 12.2104 11.9634 12.2016 12.0249 12.1946C11.9282 12.2069 11.8316 12.2069 11.7349 12.1946C11.7964 12.2033 11.8597 12.2121 11.9212 12.2192C11.8351 12.2069 11.7542 12.184 11.6734 12.1506C11.7296 12.1735 11.7859 12.1981 11.8421 12.2209C11.7577 12.184 11.6787 12.1383 11.6048 12.0821C11.6523 12.119 11.6998 12.1559 11.7472 12.1928C11.6822 12.1401 11.6224 12.0821 11.5697 12.0153C11.6066 12.0627 11.6435 12.1102 11.6804 12.1576C11.6242 12.0838 11.5785 12.0065 11.5416 11.9204C11.5644 11.9766 11.589 12.0329 11.6119 12.0891C11.5802 12.0083 11.5574 11.9274 11.5433 11.8413C11.5521 11.9028 11.5609 11.9661 11.5679 12.0276C11.5556 11.9309 11.5556 11.8343 11.5679 11.7376C11.5592 11.7991 11.5504 11.8624 11.5433 11.9239C11.5556 11.8378 11.5785 11.7569 11.6119 11.6761C11.589 11.7323 11.5644 11.7886 11.5416 11.8448C11.5785 11.7604 11.6242 11.6814 11.6804 11.6075C11.6435 11.655 11.6066 11.7025 11.5697 11.7499C11.6224 11.6849 11.6804 11.6251 11.7472 11.5724C11.6998 11.6093 11.6523 11.6462 11.6048 11.6831C11.6787 11.6269 11.756 11.5812 11.8421 11.5443C11.7859 11.5671 11.7296 11.5917 11.6734 11.6146C11.7542 11.5829 11.8351 11.5601 11.9212 11.546C11.8597 11.5548 11.7964 11.5636 11.7349 11.5706C11.8316 11.5583 11.9282 11.5583 12.0249 11.5706C11.9634 11.5619 11.9001 11.5531 11.8386 11.546C11.9247 11.5583 12.0056 11.5812 12.0864 11.6146C12.0302 11.5917 11.9739 11.5671 11.9177 11.5443C12.002 11.5812 12.0811 11.6269 12.1549 11.6831C12.1075 11.6462 12.06 11.6093 12.0126 11.5724C12.0776 11.6251 12.1374 11.6831 12.1901 11.7499C12.1532 11.7025 12.1163 11.655 12.0794 11.6075C12.1356 11.6814 12.1813 11.7587 12.2182 11.8448C12.1954 11.7886 12.1708 11.7323 12.1479 11.6761C12.1796 11.7569 12.2024 11.8378 12.2165 11.9239C12.2077 11.8624 12.1989 11.7991 12.1919 11.7376C12.1971 11.7868 12.2006 11.8343 12.2024 11.8835C12.2042 12.0645 12.2797 12.2508 12.408 12.3809C12.5293 12.5021 12.7297 12.5953 12.9054 12.5865C13.2833 12.5689 13.6137 12.2772 13.6084 11.8835C13.6049 11.5513 13.5117 11.1998 13.3167 10.9274C13.0864 10.6075 12.8 10.3843 12.4309 10.249C12.1145 10.133 11.7349 10.1312 11.4133 10.2226C11.1057 10.3105 10.8017 10.4915 10.5943 10.7393C10.4642 10.894 10.3728 11.0364 10.2955 11.2209C10.2164 11.4089 10.1813 11.5812 10.1619 11.7868C10.1303 12.1172 10.2287 12.481 10.3992 12.764C10.5644 13.0399 10.8192 13.2912 11.1145 13.4248C11.3342 13.525 11.5099 13.5707 11.7507 13.5988C11.9212 13.6181 12.0934 13.597 12.2622 13.5637C12.4361 13.5303 12.6119 13.4564 12.7648 13.3651C12.9142 13.2754 13.0601 13.1612 13.1725 13.0259C13.4467 12.6972 13.6049 12.3141 13.6084 11.8817C13.6119 11.5144 13.2815 11.1611 12.9054 11.1787C12.5205 11.198 12.2059 11.4898 12.2024 11.8835Z" fill="black"/>
<path d="M10.1574 4.11881C10.1609 4.45098 10.254 4.80248 10.4491 5.07489C10.6793 5.39476 10.9658 5.61796 11.3349 5.75329C11.6512 5.86929 12.0309 5.87105 12.3525 5.77966C12.6601 5.69178 12.9641 5.51076 13.1715 5.26295C13.3015 5.10829 13.3929 4.96593 13.4703 4.78139C13.5494 4.59334 13.5845 4.4211 13.6038 4.21547C13.6355 3.88506 13.5371 3.52126 13.3666 3.2383C13.2014 2.96237 12.9465 2.71104 12.6513 2.57747C12.4316 2.4773 12.2558 2.4316 12.0151 2.40348C11.8446 2.38415 11.6723 2.40524 11.5036 2.43863C11.3296 2.47202 11.1539 2.54584 11.001 2.63723C10.8516 2.72686 10.7057 2.8411 10.5932 2.97643C10.3208 3.30332 10.1626 3.68646 10.1574 4.11881C10.1539 4.48613 10.4843 4.83939 10.8604 4.82181C11.2453 4.80424 11.5581 4.51249 11.5634 4.11881C11.5634 4.0696 11.5669 4.02215 11.5739 3.97469C11.5651 4.03621 11.5563 4.09948 11.5493 4.16099C11.5616 4.07487 11.5845 3.99403 11.6179 3.91318C11.595 3.96942 11.5704 4.02566 11.5476 4.0819C11.5845 3.99754 11.6302 3.91845 11.6864 3.84464C11.6495 3.89209 11.6126 3.93954 11.5757 3.987C11.6284 3.92197 11.6864 3.86221 11.7532 3.80949C11.7057 3.84639 11.6583 3.8833 11.6108 3.92021C11.6846 3.86397 11.762 3.81827 11.8481 3.78137C11.7918 3.80421 11.7356 3.82882 11.6794 3.85167C11.7602 3.82003 11.8411 3.79718 11.9272 3.78312C11.8657 3.79191 11.8024 3.8007 11.7409 3.80773C11.8375 3.79543 11.9342 3.79543 12.0309 3.80773C11.9694 3.79894 11.9061 3.79015 11.8446 3.78312C11.9307 3.79543 12.0115 3.81827 12.0924 3.85167C12.0361 3.82882 11.9799 3.80421 11.9237 3.78137C12.008 3.81827 12.0871 3.86397 12.1609 3.92021C12.1135 3.8833 12.066 3.84639 12.0186 3.80949C12.0836 3.86221 12.1434 3.92021 12.1961 3.987C12.1592 3.93954 12.1223 3.89209 12.0854 3.84464C12.1416 3.91845 12.1873 3.99578 12.2242 4.0819C12.2013 4.02566 12.1767 3.96942 12.1539 3.91318C12.1855 3.99403 12.2084 4.07487 12.2224 4.16099C12.2137 4.09948 12.2049 4.03621 12.1978 3.97469C12.2101 4.07136 12.2101 4.16802 12.1978 4.26468C12.2066 4.20317 12.2154 4.1399 12.2224 4.07839C12.2101 4.1645 12.1873 4.24535 12.1539 4.32619C12.1767 4.26995 12.2013 4.21371 12.2242 4.15747C12.1873 4.24183 12.1416 4.32092 12.0854 4.39474C12.1223 4.34728 12.1592 4.29983 12.1961 4.25238C12.1434 4.31741 12.0854 4.37716 12.0186 4.42989C12.066 4.39298 12.1135 4.35607 12.1609 4.31916C12.0871 4.37541 12.0098 4.4211 11.9237 4.45801C11.9799 4.43516 12.0361 4.41056 12.0924 4.38771C12.0115 4.41934 11.9307 4.44219 11.8446 4.45625C11.9061 4.44746 11.9694 4.43868 12.0309 4.43165C11.9342 4.44395 11.8375 4.44395 11.7409 4.43165C11.8024 4.44043 11.8657 4.44922 11.9272 4.45625C11.8411 4.44395 11.7602 4.4211 11.6794 4.38771C11.7356 4.41056 11.7918 4.43516 11.8481 4.45801C11.7637 4.4211 11.6846 4.37541 11.6108 4.31916C11.6583 4.35607 11.7057 4.39298 11.7532 4.42989C11.6882 4.37716 11.6284 4.31917 11.5757 4.25238C11.6126 4.29983 11.6495 4.34728 11.6864 4.39474C11.6302 4.32092 11.5845 4.24359 11.5476 4.15747C11.5704 4.21371 11.595 4.26995 11.6179 4.32619C11.5862 4.24535 11.5634 4.1645 11.5493 4.07839C11.5581 4.1399 11.5669 4.20317 11.5739 4.26468C11.5669 4.21723 11.5651 4.16802 11.5634 4.12057C11.5616 3.93954 11.486 3.75325 11.3577 3.62319C11.2365 3.50192 11.0361 3.40878 10.8604 3.41756C10.4825 3.43338 10.1521 3.72513 10.1574 4.11881Z" fill="black"/>
<path d="M2.39266 11.8835C2.39618 12.2156 2.48933 12.5671 2.68441 12.8396C2.91464 13.1594 3.20112 13.3826 3.57019 13.518C3.88655 13.634 4.26617 13.6357 4.58779 13.5443C4.89536 13.4564 5.19941 13.2754 5.40679 13.0276C5.53685 12.873 5.62824 12.7306 5.70557 12.5461C5.78466 12.358 5.81981 12.1858 5.83914 11.9801C5.87077 11.6497 5.77235 11.2859 5.60188 11.003C5.43667 10.727 5.18183 10.4757 4.88657 10.3421C4.66688 10.242 4.49113 10.1963 4.25035 10.1681C4.07987 10.1488 3.90764 10.1699 3.73892 10.2033C3.56492 10.2367 3.38917 10.3105 3.23627 10.4019C3.08688 10.4915 2.94101 10.6058 2.82853 10.7411C2.55611 11.068 2.39794 11.4511 2.39266 11.8835C2.38915 12.2508 2.71956 12.6041 3.09567 12.5865C3.48056 12.5689 3.7934 12.2772 3.79867 11.8835C3.79867 11.8343 3.80219 11.7868 3.80922 11.7394C3.80043 11.8009 3.79164 11.8641 3.78461 11.9257C3.79691 11.8395 3.81976 11.7587 3.85315 11.6778C3.83031 11.7341 3.8057 11.7903 3.78285 11.8466C3.81976 11.7622 3.86546 11.6831 3.9217 11.6093C3.88479 11.6568 3.84788 11.7042 3.81097 11.7517C3.8637 11.6866 3.9217 11.6269 3.98848 11.5742C3.94103 11.6111 3.89358 11.648 3.84612 11.6849C3.91994 11.6286 3.99727 11.5829 4.08339 11.546C4.02715 11.5689 3.97091 11.5935 3.91467 11.6163C3.99551 11.5847 4.07636 11.5619 4.16248 11.5478C4.10096 11.5566 4.03769 11.5654 3.97618 11.5724C4.07284 11.5601 4.16951 11.5601 4.26617 11.5724C4.20466 11.5636 4.14138 11.5548 4.07987 11.5478C4.16599 11.5601 4.24684 11.5829 4.32768 11.6163C4.27144 11.5935 4.2152 11.5689 4.15896 11.546C4.24332 11.5829 4.32241 11.6286 4.39622 11.6849C4.34877 11.648 4.30132 11.6111 4.25387 11.5742C4.31889 11.6269 4.37865 11.6849 4.43137 11.7517C4.39447 11.7042 4.35756 11.6568 4.32065 11.6093C4.37689 11.6831 4.42259 11.7605 4.45949 11.8466C4.43665 11.7903 4.41204 11.7341 4.38919 11.6778C4.42083 11.7587 4.44368 11.8395 4.45774 11.9257C4.44895 11.8641 4.44016 11.8009 4.43313 11.7394C4.44543 11.836 4.44543 11.9327 4.43313 12.0294C4.44192 11.9678 4.45071 11.9046 4.45774 11.8431C4.44543 11.9292 4.42259 12.01 4.38919 12.0909C4.41204 12.0346 4.43665 11.9784 4.45949 11.9221C4.42259 12.0065 4.37689 12.0856 4.32065 12.1594C4.35756 12.112 4.39447 12.0645 4.43137 12.017C4.37865 12.0821 4.32065 12.1418 4.25387 12.1946C4.30132 12.1576 4.34877 12.1207 4.39622 12.0838C4.32241 12.1401 4.24508 12.1858 4.15896 12.2227C4.2152 12.1998 4.27144 12.1752 4.32768 12.1524C4.24684 12.184 4.16599 12.2069 4.07987 12.2209C4.14138 12.2121 4.20466 12.2033 4.26617 12.1963C4.16951 12.2086 4.07284 12.2086 3.97618 12.1963C4.03769 12.2051 4.10096 12.2139 4.16248 12.2209C4.07636 12.2086 3.99551 12.1858 3.91467 12.1524C3.97091 12.1752 4.02715 12.1998 4.08339 12.2227C3.99903 12.1858 3.91994 12.1401 3.84612 12.0838C3.89358 12.1207 3.94103 12.1576 3.98848 12.1946C3.92345 12.1418 3.8637 12.0838 3.81097 12.017C3.84788 12.0645 3.88479 12.112 3.9217 12.1594C3.86546 12.0856 3.81976 12.0083 3.78285 11.9221C3.8057 11.9784 3.83031 12.0346 3.85315 12.0909C3.82152 12.01 3.79867 11.9292 3.78461 11.8431C3.7934 11.9046 3.80219 11.9678 3.80922 12.0294C3.80219 11.9819 3.80043 11.9327 3.79867 11.8852C3.79691 11.7042 3.72134 11.5179 3.59304 11.3879C3.47177 11.2666 3.27142 11.1734 3.09567 11.1822C2.71956 11.1963 2.38915 11.4898 2.39266 11.8835Z" fill="black"/>
<path d="M6.27432 8.00114C6.27783 8.33331 6.37098 8.68481 6.56607 8.95722C6.7963 9.27709 7.08277 9.50029 7.45185 9.63562C7.7682 9.75162 8.14782 9.75337 8.46945 9.66198C8.77701 9.57411 9.08106 9.39308 9.28845 9.14528C9.4185 8.99061 9.50989 8.84826 9.58722 8.66372C9.66631 8.47566 9.70146 8.30343 9.7208 8.0978C9.75243 7.76739 9.65401 7.40358 9.48353 7.12062C9.31833 6.8447 9.06349 6.59337 8.76823 6.4598C8.54854 6.35962 8.37279 6.31393 8.13201 6.28581C7.96153 6.26648 7.78929 6.28757 7.62057 6.32096C7.44658 6.35435 7.27083 6.42817 7.11792 6.51956C6.96854 6.60919 6.82266 6.72343 6.71018 6.85876C6.43777 7.18565 6.27959 7.56879 6.27432 8.00114C6.2708 8.36846 6.60122 8.72172 6.97732 8.70414C7.36222 8.68657 7.67505 8.39482 7.68033 8.00114C7.68033 7.95193 7.68384 7.90447 7.69087 7.85702C7.68208 7.91853 7.6733 7.9818 7.66627 8.04332C7.67857 7.9572 7.70142 7.87635 7.73481 7.79551C7.71196 7.85175 7.68736 7.90799 7.66451 7.96423C7.70142 7.87987 7.74711 7.80078 7.80335 7.72697C7.76644 7.77442 7.72954 7.82187 7.69263 7.86932C7.74536 7.8043 7.80335 7.74454 7.87014 7.69182C7.82269 7.72872 7.77523 7.76563 7.72778 7.80254C7.8016 7.7463 7.87893 7.7006 7.96504 7.6637C7.9088 7.68654 7.85256 7.71115 7.79632 7.734C7.87717 7.70236 7.95801 7.67951 8.04413 7.66545C7.98262 7.67424 7.91935 7.68303 7.85784 7.69006C7.9545 7.67776 8.05116 7.67776 8.14783 7.69006C8.08631 7.68127 8.02304 7.67248 7.96153 7.66545C8.04765 7.67776 8.12849 7.7006 8.20934 7.734C8.1531 7.71115 8.09686 7.68654 8.04062 7.6637C8.12498 7.7006 8.20406 7.7463 8.27788 7.80254C8.23043 7.76563 8.18298 7.72872 8.13552 7.69182C8.20055 7.74454 8.26031 7.80254 8.31303 7.86932C8.27612 7.82187 8.23922 7.77442 8.20231 7.72697C8.25855 7.80078 8.30424 7.87811 8.34115 7.96423C8.3183 7.90799 8.2937 7.85175 8.27085 7.79551C8.30249 7.87635 8.32533 7.9572 8.33939 8.04332C8.33061 7.9818 8.32182 7.91853 8.31479 7.85702C8.32709 7.95368 8.32709 8.05035 8.31479 8.14701C8.32358 8.0855 8.33236 8.02223 8.33939 7.96071C8.32709 8.04683 8.30424 8.12768 8.27085 8.20852C8.2937 8.15228 8.3183 8.09604 8.34115 8.0398C8.30424 8.12416 8.25855 8.20325 8.20231 8.27707C8.23922 8.22961 8.27612 8.18216 8.31303 8.13471C8.26031 8.19974 8.20231 8.25949 8.13552 8.31222C8.18298 8.27531 8.23043 8.2384 8.27788 8.20149C8.20406 8.25773 8.12673 8.30343 8.04062 8.34034C8.09686 8.31749 8.1531 8.29288 8.20934 8.27004C8.12849 8.30167 8.04765 8.32452 7.96153 8.33858C8.02304 8.32979 8.08631 8.321 8.14783 8.31397C8.05116 8.32628 7.9545 8.32628 7.85784 8.31397C7.91935 8.32276 7.98262 8.33155 8.04413 8.33858C7.95801 8.32628 7.87717 8.30343 7.79632 8.27004C7.85256 8.29288 7.9088 8.31749 7.96504 8.34034C7.88068 8.30343 7.8016 8.25773 7.72778 8.20149C7.77523 8.2384 7.82269 8.27531 7.87014 8.31222C7.80511 8.25949 7.74536 8.20149 7.69263 8.13471C7.72954 8.18216 7.76644 8.22961 7.80335 8.27707C7.74711 8.20325 7.70142 8.12592 7.66451 8.0398C7.68736 8.09604 7.71196 8.15228 7.73481 8.20852C7.70317 8.12768 7.68033 8.04683 7.66627 7.96071C7.67505 8.02223 7.68384 8.0855 7.69087 8.14701C7.68384 8.09956 7.68208 8.05035 7.68033 8.00289C7.67857 7.82187 7.603 7.63557 7.4747 7.50552C7.35343 7.38425 7.15307 7.2911 6.97732 7.29989C6.60122 7.31571 6.2708 7.60746 6.27432 8.00114Z" fill="black"/>
</svg>
