<svg width="16" height="16" viewBox="0 0 16 16" fill="none" xmlns="http://www.w3.org/2000/svg">
<rect width="16" height="16" fill="white"/>
<path d="M13.9231 9.71429H11.7692C11.4836 9.71429 11.2097 9.8347 11.0077 10.049C10.8058 10.2633 10.6923 10.554 10.6923 10.8571V12.2171L9.70154 11.6914L10.1162 9.94857L10.9831 8.57143H14.4615C14.5589 8.57115 14.6545 8.54284 14.7379 8.48951C14.8214 8.43617 14.8896 8.35982 14.9354 8.26857C14.9786 8.17922 14.9989 8.07935 14.9942 7.97903C14.9894 7.8787 14.9599 7.78148 14.9085 7.69714L13.0777 4.77715C12.9315 4.53946 12.7319 4.34403 12.497 4.20839C12.262 4.07275 11.999 4.00114 11.7315 4H9.68L10.8754 1.45715C10.9205 1.36204 10.9898 1.28222 11.0755 1.22669C11.1611 1.17115 11.2597 1.14212 11.36 1.14286H12.8462C12.989 1.14286 13.1259 1.08266 13.2269 0.975493C13.3279 0.868329 13.3846 0.722984 13.3846 0.571432C13.3846 0.41988 13.3279 0.274534 13.2269 0.167371C13.1259 0.0602072 12.989 3.31167e-06 12.8462 3.31167e-06H11.36C11.0593 -0.00062383 10.7644 0.0878335 10.5085 0.255418C10.2526 0.423003 10.0459 0.663063 9.91154 0.948575L9.82 1.14286H6.18L6.08846 0.948575C5.95415 0.663063 5.7474 0.423003 5.4915 0.255418C5.2356 0.0878335 4.9407 -0.00062383 4.64 3.31167e-06H3.15385C3.01104 3.31167e-06 2.87408 0.0602072 2.7731 0.167371C2.67212 0.274534 2.61538 0.41988 2.61538 0.571432C2.61538 0.722984 2.67212 0.868329 2.7731 0.975493C2.87408 1.08266 3.01104 1.14286 3.15385 1.14286H4.64C4.74035 1.14212 4.8389 1.17115 4.92453 1.22669C5.01016 1.28222 5.07946 1.36204 5.12462 1.45715L6.32 4H4.26846C4.00197 3.9999 3.7396 4.06976 3.50472 4.20336C3.26985 4.33696 3.06976 4.53015 2.92231 4.76572L1.09154 7.68572C1.04428 7.77258 1.0194 7.87112 1.0194 7.97143C1.0194 8.07174 1.04428 8.17028 1.09154 8.25714C1.13367 8.34639 1.19711 8.42237 1.27552 8.47751C1.35393 8.53265 1.44459 8.56504 1.53846 8.57143H5.01692L5.88385 9.94857L6.29846 11.6914L5.30769 12.2171V10.8571C5.30769 10.554 5.19423 10.2633 4.99227 10.049C4.79031 9.8347 4.51639 9.71429 4.23077 9.71429H2.07692C1.79131 9.71429 1.51739 9.8347 1.31542 10.049C1.11346 10.2633 1 10.554 1 10.8571V14.8571C1 15.1602 1.11346 15.4509 1.31542 15.6653C1.51739 15.8796 1.79131 16 2.07692 16H4.23077C4.51639 16 4.79031 15.8796 4.99227 15.6653C5.19423 15.4509 5.30769 15.1602 5.30769 14.8571V13.4971L7.05231 12.5714H8.94769L10.6923 13.4971V14.8571C10.6923 15.1602 10.8058 15.4509 11.0077 15.6653C11.2097 15.8796 11.4836 16 11.7692 16H13.9231C14.2087 16 14.4826 15.8796 14.6846 15.6653C14.8865 15.4509 15 15.1602 15 14.8571V10.8571C15 10.554 14.8865 10.2633 14.6846 10.049C14.4826 9.8347 14.2087 9.71429 13.9231 9.71429ZM2.07692 14.8571V10.8571H4.23077V14.8571H2.07692ZM6.71846 2.28572H9.28154L8.47385 4H7.52615L6.71846 2.28572ZM5.30769 7.42857H2.54538L3.82154 5.4C3.87032 5.3214 3.93664 5.25679 4.0146 5.21193C4.09257 5.16707 4.17977 5.14335 4.26846 5.14286H11.7315C11.8202 5.14335 11.9074 5.16707 11.9854 5.21193C12.0634 5.25679 12.1297 5.3214 12.1785 5.4L13.4546 7.42857H10.6923C10.6036 7.42906 10.5164 7.45279 10.4384 7.49765C10.3605 7.54251 10.2942 7.60711 10.2454 7.68572L9.32462 9.14286H6.67538L5.75462 7.68572C5.70584 7.60711 5.63952 7.54251 5.56155 7.49765C5.48358 7.45279 5.39638 7.42906 5.30769 7.42857ZM7.34308 11.4286L7.07385 10.2857H8.92615L8.65692 11.4286H7.34308ZM11.7692 14.8571V10.8571H13.9231V14.8571H11.7692Z" fill="black"/>
</svg>
