<svg width="16" height="16" viewBox="0 0 16 16" fill="none" xmlns="http://www.w3.org/2000/svg">
<g clip-path="url(#clip0_1_239)">
<rect width="16" height="16" fill="white"/>
<path d="M8 0C2.68171 0 0.267619 2.35276 0.167429 2.45314C0.0601904 2.56019 0 2.70533 0 2.85714C0 7.15448 0 10.8701 0 15.4286C0 15.7444 0.25581 16 0.571429 16H15.4286C15.7442 16 16 15.7444 16 15.4286C16 12.8162 16 7.39276 16 2.85714C16 2.70533 15.9398 2.56019 15.8326 2.45314C15.7324 2.35276 13.3183 0 8 0ZM1.14286 4.57143H1.71429V5.71429H1.14286V4.57143ZM1.14286 6.85714H1.71429V8H1.14286V6.85714ZM1.14286 9.14286H1.71429V10.2857H1.14286V9.14286ZM1.14286 11.4286H1.71429V12.5714H1.14286V11.4286ZM5.14286 14.8571H1.14286V13.7143H5.14286V14.8571ZM4 6.28571H5.14286C5.45848 6.28571 5.71429 6.0301 5.71429 5.71429C5.71429 5.39848 5.45848 5.14286 5.14286 5.14286V4.57143H7.42857V5.14286C7.11295 5.14286 6.85714 5.39848 6.85714 5.71429C6.85714 6.0301 7.11295 6.28571 7.42857 6.28571H8.57143C8.88705 6.28571 9.14286 6.0301 9.14286 5.71429C9.14286 5.39848 8.88705 5.14286 8.57143 5.14286V4.57143H10.8571V5.14286C10.5415 5.14286 10.2857 5.39848 10.2857 5.71429C10.2857 6.0301 10.5415 6.28571 10.8571 6.28571H12C12.3156 6.28571 12.5714 6.0301 12.5714 5.71429C12.5714 5.39848 12.3156 5.14286 12 5.14286V4.57143H13.1429V12.5714H8.57143V10.0674L8.88724 10.2253C9.17295 10.3672 9.5141 10.2495 9.6539 9.96971C9.79505 9.68743 9.68076 9.34419 9.39829 9.20305L7.54438 8.27619C7.53029 8.08076 7.42533 7.89619 7.23695 7.80305C6.95238 7.66248 6.61086 7.77962 6.47124 8.0619L6.21791 8.5741C6.0781 8.85695 6.1939 9.19962 6.47676 9.33981C6.65505 9.42762 6.86514 9.41943 7.04267 9.30324L7.42857 9.496V12.5714H2.85714V4.57143H4V5.14286C3.68438 5.14286 3.42857 5.39848 3.42857 5.71429C3.42857 6.0301 3.68438 6.28571 4 6.28571ZM9.71429 14.8571H6.28571V13.7143H9.71429V14.8571ZM14.8571 14.8571H10.8571V13.7143H14.8571V14.8571ZM14.8571 12.5714H14.2857V11.4286H14.8571V12.5714ZM14.8571 10.2857H14.2857V9.14286H14.8571V10.2857ZM14.8571 8H14.2857V6.85714H14.8571V8ZM14.8571 5.71429H14.2857V4.57143H14.8571V5.71429ZM14.8571 3.42857H1.14286V3.11829C1.74076 2.64 3.93829 1.14286 8 1.14286C12.0617 1.14286 14.2592 2.64 14.8571 3.11829V3.42857Z" fill="black"/>
</g>
<defs>
<clipPath id="clip0_1_239">
<rect width="16" height="16" fill="white"/>
</clipPath>
</defs>
</svg>
