<svg width="16" height="16" viewBox="0 0 16 16" fill="none" xmlns="http://www.w3.org/2000/svg">
<rect width="16" height="16" fill="white"/>
<path d="M14.9062 3.84599H14.0938V3.07683C14.0938 2.79124 13.9785 2.51734 13.7734 2.3154C13.5683 2.11345 13.2901 2 13 2H3.8525C3.70886 1.99965 3.56657 2.02733 3.43387 2.08146C3.30116 2.13559 3.18068 2.21509 3.07938 2.31536L0.320316 5.03172C0.218472 5.13145 0.137724 5.25008 0.0827434 5.38073C0.0277627 5.51138 -0.000359507 5.65146 3.46937e-06 5.79288V7.99945C3.46937e-06 8.28504 0.115237 8.55894 0.320355 8.76088C0.525473 8.96282 0.803673 9.07627 1.09375 9.07627H1.86969V12.4415C1.86937 12.6819 1.95076 12.9155 2.10089 13.105C2.25102 13.2946 2.46126 13.4292 2.69813 13.4876L4.725 13.9863C4.79419 14.0033 4.8664 14.0045 4.93615 13.9899C5.00589 13.9752 5.07132 13.9451 5.12746 13.9018C5.1836 13.8586 5.22897 13.8032 5.26011 13.7401C5.29126 13.6769 5.30736 13.6076 5.30719 13.5374V11.2299H6.08844C6.37852 11.2299 6.65672 11.1165 6.86184 10.9145C7.06696 10.7126 7.18219 10.4387 7.18219 10.1531V9.07627H13C13.2901 9.07627 13.5683 8.96282 13.7734 8.76088C13.9785 8.55894 14.0938 8.28504 14.0938 7.99945V7.23029H14.9062C15.1963 7.23029 15.4745 7.11684 15.6796 6.9149C15.8848 6.71295 16 6.43906 16 6.15347V4.92281C16 4.63722 15.8848 4.36333 15.6796 4.16138C15.4745 3.95944 15.1963 3.84599 14.9062 3.84599ZM5.96875 2.923H11.2813V4.92281C11.2813 4.96361 11.2648 5.00274 11.2355 5.03159C11.2062 5.06044 11.1664 5.07664 11.125 5.07664H6.125C6.08356 5.07664 6.04382 5.06044 6.01452 5.03159C5.98521 5.00274 5.96875 4.96361 5.96875 4.92281V2.923ZM2.92563 12.591C2.89176 12.5827 2.86169 12.5635 2.84023 12.5364C2.81876 12.5093 2.80713 12.4759 2.80719 12.4415V9.07627H4.36969V12.9464L2.92563 12.591ZM6.24469 10.1531C6.24469 10.1939 6.22823 10.233 6.19893 10.2619C6.16962 10.2907 6.12988 10.3069 6.08844 10.3069H5.30719V9.07627H6.24469V10.1531ZM13.1563 7.99945C13.1563 8.04025 13.1398 8.07938 13.1105 8.10822C13.0812 8.13707 13.0414 8.15328 13 8.15328H1.09375C1.05231 8.15328 1.01257 8.13707 0.983268 8.10822C0.953965 8.07938 0.937503 8.04025 0.937503 7.99945V5.79288C0.937512 5.75216 0.953919 5.71311 0.983128 5.68428L3.74219 2.96822C3.7566 2.95384 3.77378 2.94244 3.79272 2.93467C3.81166 2.92691 3.83199 2.92294 3.8525 2.923H5.03125V4.92281C5.03125 5.2084 5.14649 5.4823 5.3516 5.68424C5.55672 5.88618 5.83492 5.99963 6.125 5.99963H11.125C11.4151 5.99963 11.6933 5.88618 11.8984 5.68424C12.1035 5.4823 12.2188 5.2084 12.2188 4.92281V2.923H13C13.0414 2.923 13.0812 2.9392 13.1105 2.96805C13.1398 2.9969 13.1563 3.03603 13.1563 3.07683V7.99945ZM15.0625 6.15347C15.0625 6.19426 15.046 6.23339 15.0167 6.26224C14.9874 6.29109 14.9477 6.3073 14.9062 6.3073H14.0938V4.76898H14.9062C14.9477 4.76898 14.9874 4.78519 15.0167 4.81403C15.046 4.84288 15.0625 4.88201 15.0625 4.92281V6.15347Z" fill="black"/>
</svg>
