<svg width="16" height="16" viewBox="0 0 16 16" fill="none" xmlns="http://www.w3.org/2000/svg">
<g clip-path="url(#clip0_1_244)">
<rect width="16" height="16" fill="white"/>
<path d="M10.8839 8.4009L11.2644 8.01423C11.9935 8.14269 12.7438 8.06797 13.4333 7.79823C14.1227 7.52849 14.7248 7.07414 15.1736 6.48487C15.6224 5.8956 15.9007 5.19413 15.978 4.45719C16.0552 3.72025 15.9285 2.97624 15.6117 2.30655C15.5725 2.22289 15.5138 2.14987 15.4406 2.09363C15.3673 2.03739 15.2817 1.99957 15.1908 1.98336C15.0995 1.96749 15.0057 1.9739 14.9173 2.00203C14.829 2.03016 14.7488 2.07918 14.6834 2.14496L13.1901 3.63392L12.3541 2.7971L13.8416 1.30814C13.9073 1.24271 13.9563 1.16238 13.9844 1.07398C14.0125 0.985569 14.0189 0.891683 14.0031 0.800275C13.9869 0.709309 13.9491 0.623565 13.8929 0.550252C13.8367 0.47694 13.7638 0.418203 13.6802 0.37898C13.0101 0.0659727 12.2669 -0.0567334 11.5319 0.0242586C10.7969 0.105251 10.0982 0.386827 9.51216 0.838246C8.92612 1.28967 8.47525 1.89357 8.20877 2.58404C7.9423 3.2745 7.87046 4.02497 8.0011 4.75352L6.80186 5.94815L3.58467 2.75093C3.68096 2.52147 3.71478 2.27056 3.68268 2.02376C3.65699 1.80009 3.58018 1.58535 3.45819 1.39619C3.33621 1.20703 3.17234 1.04854 2.97928 0.933012L1.92995 0.303955C1.81981 0.23794 1.69081 0.210607 1.56339 0.226288C1.43597 0.241969 1.31743 0.299767 1.22655 0.390522L0.407834 1.21003C0.317167 1.301 0.259424 1.41966 0.243758 1.5472C0.228093 1.67474 0.255399 1.80386 0.32135 1.91411L0.949798 2.96446C1.06522 3.1577 1.22355 3.32174 1.41253 3.44384C1.6015 3.56594 1.81604 3.64283 2.03949 3.66854C2.10086 3.67428 2.16262 3.67428 2.22399 3.66854C2.41151 3.6692 2.59743 3.63394 2.77172 3.56466L5.96008 6.75612L0.505849 12.2041C0.181938 12.5287 0 12.9688 0 13.4276C0 13.8864 0.181938 14.3264 0.505849 14.6511L1.34762 15.4937C1.67194 15.8179 2.11156 16 2.56993 16C3.02829 16 3.46791 15.8179 3.79223 15.4937L8.40469 10.8767L12.8038 15.2801C12.9622 15.4502 13.1531 15.5867 13.3653 15.6813C13.5775 15.7759 13.8065 15.8268 14.0388 15.8309C14.271 15.835 14.5017 15.7922 14.7171 15.7052C14.9324 15.6181 15.1281 15.4885 15.2923 15.3241C15.4566 15.1597 15.5861 14.9638 15.6731 14.7483C15.7601 14.5327 15.8028 14.3018 15.7987 14.0693C15.7946 13.8368 15.7437 13.6076 15.6492 13.3952C15.5547 13.1828 15.4184 12.9917 15.2484 12.8332L10.8839 8.4009ZM2.17787 2.52585C2.1291 2.51998 2.08236 2.50285 2.04134 2.47581C2.00032 2.44877 1.96613 2.41256 1.94148 2.37003L1.54365 1.70635L1.72239 1.52744L2.38543 1.92565C2.42791 1.95033 2.46408 1.98455 2.4911 2.02561C2.51811 2.06667 2.53523 2.11346 2.5411 2.16227C2.54715 2.21152 2.542 2.2615 2.52603 2.30847C2.51005 2.35545 2.48367 2.39819 2.44885 2.43352C2.41381 2.46872 2.37114 2.49537 2.32414 2.51139C2.27714 2.5274 2.22709 2.53235 2.17787 2.52585ZM2.97928 14.6453C2.92568 14.6994 2.86191 14.7423 2.79166 14.7716C2.7214 14.8009 2.64604 14.816 2.56993 14.816C2.49381 14.816 2.41845 14.8009 2.34819 14.7716C2.27794 14.7423 2.21417 14.6994 2.16057 14.6453L1.34762 13.8373C1.29358 13.7837 1.25069 13.7199 1.22142 13.6495C1.19215 13.5792 1.17708 13.5038 1.17708 13.4276C1.17708 13.3514 1.19215 13.276 1.22142 13.2056C1.25069 13.1353 1.29358 13.0715 1.34762 13.0178L7.18815 7.17741L9.01584 5.34795C9.09095 5.27453 9.14461 5.18198 9.17103 5.08028C9.19744 4.97857 9.19562 4.87158 9.16575 4.77084C9.05185 4.34391 9.03743 3.89651 9.12359 3.46312C9.20976 3.02974 9.39421 2.62195 9.66273 2.27121C9.93124 1.92046 10.2766 1.63613 10.6723 1.44013C11.068 1.24414 11.5033 1.14172 11.9448 1.14077C12.0791 1.13218 12.214 1.13218 12.3483 1.14077L11.1318 2.41043C11.0773 2.46388 11.034 2.52762 11.0043 2.59796C10.9746 2.66829 10.9592 2.74383 10.9588 2.82018C10.961 2.97241 11.0232 3.11761 11.1318 3.22416L12.7635 4.8574C12.8715 4.96489 13.0176 5.02523 13.1699 5.02523C13.3223 5.02523 13.4684 4.96489 13.5764 4.8574L14.7987 3.63969C14.8664 4.11202 14.8159 4.59377 14.6519 5.0418C14.4879 5.48984 14.2155 5.89018 13.859 6.20697C13.5025 6.52376 13.0731 6.74713 12.6093 6.85706C12.1454 6.967 11.6615 6.96008 11.201 6.83691C11.1003 6.80701 10.9935 6.80518 10.8919 6.83163C10.7902 6.85807 10.6978 6.91178 10.6244 6.98696L9.63276 7.99115L8.0011 9.62439L2.97928 14.6453ZM14.4412 14.4318C14.3876 14.4859 14.3239 14.5288 14.2536 14.5581C14.1834 14.5874 14.108 14.6025 14.0319 14.6025C13.9558 14.6025 13.8804 14.5874 13.8102 14.5581C13.7399 14.5288 13.6761 14.4859 13.6225 14.4318L9.2234 10.0284L10.0421 9.20886L14.4412 13.6123C14.4953 13.6659 14.5382 13.7297 14.5675 13.8001C14.5967 13.8704 14.6118 13.9458 14.6118 14.022C14.6118 14.0982 14.5967 14.1736 14.5675 14.244C14.5382 14.3143 14.4953 14.3781 14.4412 14.4318Z" fill="black"/>
</g>
<defs>
<clipPath id="clip0_1_244">
<rect width="16" height="16" fill="white"/>
</clipPath>
</defs>
</svg>
