<svg width="16" height="16" viewBox="0 0 16 16" fill="none" xmlns="http://www.w3.org/2000/svg">
<path d="M7.99973 0C4.22813 0 1.06791 2.61114 0.223428 6.12387L0.222533 6.1253L0.222712 6.12709C0.0784147 6.72809 0 7.35469 0 7.99991C0 9.93002 0.683712 11.7004 1.82198 13.0825L1.82216 13.0831L1.82269 13.0836C2.5329 13.9455 3.42071 14.6546 4.42918 15.1586L4.43616 15.1641L4.44135 15.1648C5.51338 15.6983 6.72093 16 7.99973 16C12.418 16 15.9998 12.4182 15.9998 7.99991C15.9998 3.58165 12.418 0 7.99973 0ZM13.3147 3.29216L12.7146 5.64335L10.5079 6.52077L8.44748 5.02391V2.7481L10.415 1.31855C11.5411 1.72673 12.5347 2.41259 13.3147 3.29216ZM5.58463 1.31855L7.55234 2.7481V5.02409L5.49189 6.52095L3.285 5.64335L2.68526 3.29199C3.46529 2.41259 4.45872 1.72673 5.58463 1.31855ZM0.901053 7.77362L2.95416 6.47512L5.24322 7.3853L6.01913 9.77355L4.38227 11.8336L1.95571 11.7287C1.28418 10.644 0.895145 9.36662 0.895145 7.99973C0.895145 7.924 0.898546 7.84881 0.901053 7.77362ZM5.73394 14.7319L5.08317 12.3904L6.75656 10.2841H9.24345L10.917 12.3902L10.2661 14.7319C9.5537 14.9724 8.79229 15.1047 7.99991 15.1047C7.20753 15.1047 6.44594 14.9722 5.73394 14.7319ZM14.0439 11.7289L11.6175 11.8335L9.98069 9.77355L10.7566 7.38548L13.0455 6.4753L15.0988 7.77416C15.1013 7.84917 15.1045 7.924 15.1045 7.99973C15.1047 9.3668 14.7156 10.6442 14.0439 11.7289Z" fill="black"/>
</svg>
