<svg width="16" height="16" viewBox="0 0 16 16" fill="none" xmlns="http://www.w3.org/2000/svg">
<rect width="16" height="16" fill="white"/>
<path d="M12.7932 9.59487C13.0513 9.59527 13.3061 9.5359 13.5375 9.42141C13.7689 9.30693 13.9707 9.14043 14.127 8.93496C14.2834 8.7295 14.39 8.49063 14.4386 8.23707C14.4873 7.98351 14.4766 7.72213 14.4073 7.47341C14.3381 7.22468 14.2122 6.99535 14.0396 6.80338C13.8669 6.61141 13.6522 6.462 13.4122 6.36686C13.1722 6.27171 12.9134 6.23341 12.6561 6.25495C12.3988 6.2765 12.15 6.3573 11.9292 6.49103L8.84935 3.41118C9.09382 2.90565 9.15139 2.32989 9.01185 1.78597C8.87231 1.24205 8.54468 0.765106 8.08704 0.439703C7.62939 0.114301 7.07131 -0.0385399 6.51173 0.00827789C5.95215 0.0550957 5.42722 0.298548 5.03002 0.695471L4.78043 0.945059C4.32584 0.609281 3.76594 0.447594 3.20233 0.489336C2.63872 0.531078 2.10874 0.773485 1.70858 1.17257L1.11789 1.76294C1.04241 1.83843 1 1.94081 1 2.04757C1 2.15432 1.04241 2.2567 1.11789 2.33219L2.47014 3.68444L2.39975 3.75484C2.01106 4.14352 1.7927 4.67069 1.7927 5.22037C1.7927 5.77005 2.01106 6.29721 2.39975 6.6859C2.78843 7.07458 3.31559 7.29294 3.86527 7.29294C4.41495 7.29294 4.94212 7.07458 5.3308 6.6859L5.4012 6.6155L6.75345 7.96839C6.82894 8.04388 6.93132 8.08628 7.03808 8.08628C7.14483 8.08628 7.24721 8.04388 7.3227 7.96839L7.91275 7.37834C8.3123 6.97846 8.55506 6.44845 8.59687 5.88471C8.63868 5.32097 8.47677 4.76095 8.14058 4.30649L8.37353 4.07355L11.3603 7.06028C11.2041 7.31878 11.1211 7.6148 11.1199 7.91679C11.1188 8.21878 11.1997 8.51542 11.3539 8.77507L7.08016 13.0478H4.27709C4.22423 13.0478 4.17189 13.0582 4.12305 13.0785C4.07421 13.0987 4.02983 13.1283 3.99245 13.1657C3.95508 13.2031 3.92542 13.2475 3.90519 13.2963C3.88497 13.3452 3.87455 13.3975 3.87455 13.4504V15.5975C3.87455 15.6503 3.88497 15.7027 3.90519 15.7515C3.92542 15.8003 3.95508 15.8447 3.99245 15.8821C4.02983 15.9195 4.07421 15.9491 4.12305 15.9694C4.17189 15.9896 4.22423 16 4.27709 16H12.4709C12.5777 16 12.6801 15.9576 12.7556 15.8821C12.8311 15.8066 12.8735 15.7042 12.8735 15.5975V13.4504C12.8735 13.3436 12.8311 13.2412 12.7556 13.1657C12.6801 13.0902 12.5777 13.0478 12.4709 13.0478H8.21866L11.919 9.34753C12.1818 9.50947 12.4845 9.59511 12.7932 9.59487ZM12.0687 15.1946H4.67931V13.8529H12.0684L12.0687 15.1946ZM13.661 7.92168C13.661 8.09331 13.6101 8.26109 13.5147 8.4038C13.4193 8.54651 13.2838 8.65774 13.1252 8.72342C12.9667 8.7891 12.7922 8.80628 12.6239 8.7728C12.4555 8.73932 12.3009 8.65667 12.1795 8.5353C12.0582 8.41394 11.9755 8.25931 11.942 8.09098C11.9085 7.92264 11.9257 7.74815 11.9914 7.58958C12.0571 7.43102 12.1683 7.29548 12.311 7.20013C12.4537 7.10477 12.6215 7.05388 12.7932 7.05388C13.0233 7.05413 13.2439 7.14569 13.4066 7.30845C13.5693 7.4712 13.6608 7.69187 13.661 7.922V7.92168ZM7.82092 1.266C8.11509 1.56084 8.2803 1.96033 8.2803 2.37683C8.2803 2.79332 8.11509 3.19281 7.82092 3.48765L7.58957 3.719L5.3676 1.49639L5.59895 1.26504C5.8938 0.970772 6.29336 0.8055 6.70993 0.8055C7.12651 0.8055 7.52607 0.970772 7.82092 1.26504V1.266ZM4.76155 6.11665C4.52199 6.34468 4.20278 6.47005 3.87206 6.46597C3.54134 6.4619 3.22531 6.32871 2.99144 6.09484C2.75757 5.86097 2.62438 5.54494 2.62031 5.21422C2.61624 4.88351 2.7416 4.5643 2.96964 4.32473L3.04003 4.25434L4.83195 6.04625L4.76155 6.11665ZM7.34382 6.80845L7.03824 7.11404L5.68502 5.7605L3.32386 3.39934L1.97321 2.04869L2.27879 1.7431C2.57045 1.45211 2.96562 1.28869 3.37762 1.28869C3.78961 1.28869 4.18478 1.45211 4.47644 1.7431L4.51516 1.78182L7.34478 4.61176C7.4891 4.75605 7.60358 4.92736 7.68168 5.11589C7.75979 5.30443 7.79999 5.50651 7.79999 5.71059C7.79999 5.91466 7.75979 6.11674 7.68168 6.30528C7.60358 6.49381 7.4891 6.66512 7.34478 6.80941L7.34382 6.80845Z" fill="black"/>
</svg>
