<svg width="16" height="16" viewBox="0 0 16 16" fill="none" xmlns="http://www.w3.org/2000/svg">
<g clip-path="url(#clip0_1_250)">
<rect width="16" height="16" fill="white"/>
<path d="M8.00009 8.27245C8.87814 8.27245 9.31716 7.82663 9.56106 7.47988C10.7318 5.69659 8.9757 1.28793 8.63423 0.44582C8.53667 0.198142 8.29277 0 8.00009 0C7.70741 0 7.4635 0.148607 7.36594 0.44582C7.02448 1.28793 5.26838 5.69659 6.43911 7.47988C6.68302 7.82663 7.12204 8.27245 8.00009 8.27245ZM8.00009 2.72446C8.48789 4.35913 8.82936 6.09288 8.43911 6.68731C8.39033 6.73684 8.34155 6.88545 8.00009 6.88545C7.65862 6.88545 7.60984 6.78638 7.56106 6.68731C7.17082 6.09288 7.51228 4.3096 8.00009 2.72446Z" fill="black"/>
<path d="M7.99995 11.8885C11.0243 11.8885 14.0487 10.9474 14.0487 9.16409C14.0487 8.22291 13.1707 7.43034 11.6097 6.93499C11.2682 6.83592 10.878 7.03406 10.7804 7.38081C10.6829 7.72756 10.878 8.12384 11.2195 8.22291C12.3414 8.56966 12.6829 8.96595 12.6829 9.11455C12.6829 9.51084 11.0243 10.452 7.99995 10.452C4.97556 10.452 3.31703 9.51084 3.31703 9.11455C3.31703 8.96595 3.70727 8.56966 4.78044 8.22291C5.1219 8.12384 5.36581 7.72756 5.21946 7.38081C5.1219 7.03406 4.73166 6.78638 4.3902 6.93499C2.82922 7.43034 1.95117 8.22291 1.95117 9.16409C1.95117 10.9969 4.97556 11.8885 7.99995 11.8885Z" fill="black"/>
<path d="M16 11.096C16 10.6997 15.6585 10.4025 15.2683 10.452C14.878 10.452 14.5854 10.7988 14.6341 11.195V11.2446C14.6341 13.1269 11.6098 14.6625 8 14.6625C4.39024 14.6625 1.36585 13.0774 1.36585 11.195C1.36585 10.8483 1.07317 10.5015 0.682927 10.5015C0.292683 10.5015 0 10.7988 0 11.195C0 13.9195 3.51219 16 8 16C12.4878 16 16 13.87 16 11.195C16 11.195 16 11.1455 16 11.096Z" fill="black"/>
</g>
<defs>
<clipPath id="clip0_1_250">
<rect width="16" height="16" fill="white"/>
</clipPath>
</defs>
</svg>
