<svg width="16" height="16" viewBox="0 0 16 16" fill="none" xmlns="http://www.w3.org/2000/svg">
<rect width="16" height="16" fill="white"/>
<path d="M12.55 0C12.4307 0 12.3162 0.0496118 12.2318 0.137921C12.1474 0.226231 12.1 0.346004 12.1 0.470892H8.5C8.5 0.346004 8.45259 0.226231 8.3682 0.137921C8.28381 0.0496118 8.16935 0 8.05 0C7.93065 0 7.81619 0.0496118 7.7318 0.137921C7.64741 0.226231 7.6 0.346004 7.6 0.470892V1.41268C7.6 1.53757 7.64741 1.65734 7.7318 1.74565C7.81619 1.83396 7.93065 1.88357 8.05 1.88357C8.16935 1.88357 8.28381 1.83396 8.3682 1.74565C8.45259 1.65734 8.5 1.53757 8.5 1.41268H9.85V9.55441C9.55754 9.46526 9.25461 9.4193 8.95 9.41785C8.19317 9.41877 7.46196 9.70481 6.89014 10.2236C6.31832 10.7424 5.94412 11.4594 5.836 12.2432H4.45C4.33065 12.2432 4.21619 12.2928 4.1318 12.3811C4.04741 12.4694 4 12.5892 4 12.7141C4 12.839 4.04741 12.9588 4.1318 13.0471C4.21619 13.1354 4.33065 13.185 4.45 13.185H5.836C5.91224 13.7256 6.11573 14.2379 6.42815 14.6758C6.74058 15.1137 7.15213 15.4634 7.62579 15.6935C8.09945 15.9236 8.62036 16.0269 9.14163 15.994C9.6629 15.9612 10.1682 15.7932 10.612 15.5053C11.0559 15.2173 11.4243 14.8184 11.6843 14.3445C11.9442 13.8705 12.0875 13.3364 12.1012 12.7901C12.1148 12.2438 11.9985 11.7026 11.7627 11.215C11.5268 10.7275 11.1788 10.3089 10.75 9.99704C10.754 9.96106 10.754 9.92472 10.75 9.88874V1.41268H12.1C12.1 1.53757 12.1474 1.65734 12.2318 1.74565C12.3162 1.83396 12.4307 1.88357 12.55 1.88357C12.6693 1.88357 12.7838 1.83396 12.8682 1.74565C12.9526 1.65734 13 1.53757 13 1.41268V0.470892C13 0.346004 12.9526 0.226231 12.8682 0.137921C12.7838 0.0496118 12.6693 0 12.55 0ZM11.2 12.7141C11.2006 13.298 10.9938 13.8613 10.6198 14.2946C10.2458 14.7279 9.73128 15.0003 9.17612 15.059C8.62097 15.1177 8.06478 14.9584 7.61554 14.6121C7.16629 14.2658 6.85603 13.7572 6.745 13.185H7.681C7.78715 13.4992 7.99603 13.764 8.27072 13.9326C8.5454 14.1012 8.86821 14.1628 9.18208 14.1064C9.49595 14.0501 9.78068 13.8794 9.98595 13.6246C10.1912 13.3699 10.3038 13.0473 10.3038 12.7141C10.3038 12.3808 10.1912 12.0583 9.98595 11.8035C9.78068 11.5488 9.49595 11.3781 9.18208 11.3218C8.86821 11.2654 8.5454 11.327 8.27072 11.4956C7.99603 11.6642 7.78715 11.929 7.681 12.2432H6.745C6.85603 11.671 7.16629 11.1624 7.61554 10.8161C8.06478 10.4698 8.62097 10.3105 9.17612 10.3692C9.73128 10.4279 10.2458 10.7003 10.6198 11.1336C10.9938 11.5669 11.2006 12.1302 11.2 12.7141ZM8.5 12.7141C8.5 12.621 8.52639 12.5299 8.57584 12.4525C8.62528 12.375 8.69557 12.3147 8.77779 12.279C8.86002 12.2434 8.9505 12.2341 9.03779 12.2522C9.12508 12.2704 9.20526 12.3153 9.2682 12.3811C9.33113 12.447 9.37399 12.5309 9.39135 12.6222C9.40872 12.7136 9.39981 12.8083 9.36575 12.8943C9.33169 12.9803 9.27401 13.0539 9.20001 13.1056C9.126 13.1574 9.039 13.185 8.95 13.185C8.83065 13.185 8.71619 13.1354 8.6318 13.0471C8.54741 12.9588 8.5 12.839 8.5 12.7141Z" fill="black"/>
</svg>
