<svg width="16" height="16" viewBox="0 0 16 16" fill="none" xmlns="http://www.w3.org/2000/svg">
<rect width="16" height="16" fill="white"/>
<path d="M15.9973 14.0873L15.3758 8.62729C15.3654 8.53701 15.322 8.45376 15.2539 8.39352C15.1858 8.33329 15.0979 8.30031 15.0071 8.30091H13.5651L12.4937 2.3043C12.4784 2.21805 12.4329 2.14007 12.3653 2.08432C12.2977 2.02857 12.2125 1.99869 12.1249 2.00004H4.56461C4.47702 1.99869 4.39181 2.02857 4.32424 2.08432C4.25666 2.14007 4.21114 2.21805 4.19582 2.3043L3.62419 5.56998H1.629C1.54034 5.56891 1.45425 5.59982 1.38652 5.65706C1.31879 5.71429 1.27395 5.79401 1.26021 5.88161L0.00446126 14.0726C-0.0038574 14.1255 -0.00051469 14.1797 0.0142557 14.2313C0.0290261 14.2829 0.0548688 14.3306 0.0899814 14.3711C0.125094 14.4117 0.168631 14.4441 0.217556 14.4661C0.266482 14.4881 0.319617 14.4992 0.373256 14.4985H15.634C15.6859 14.4984 15.7372 14.4874 15.7846 14.4661C15.8319 14.4448 15.8742 14.4137 15.9088 14.375C15.9429 14.3359 15.9684 14.2901 15.9837 14.2406C15.9989 14.191 16.0036 14.1388 15.9973 14.0873ZM10.6497 13.7609V10.6557C10.6497 9.95094 10.3698 9.27508 9.87147 8.77676C9.37315 8.27845 8.69729 7.9985 7.99257 7.9985C7.28784 7.9985 6.61198 8.27845 6.11366 8.77676C5.61535 9.27508 5.3354 9.95094 5.3354 10.6557V13.7609H0.808435L1.95539 6.30757H6.04901C6.14682 6.30757 6.24063 6.26872 6.30979 6.19955C6.37895 6.13039 6.41781 6.03659 6.41781 5.93878C6.41781 5.84097 6.37895 5.74716 6.30979 5.678C6.24063 5.60884 6.14682 5.56998 6.04901 5.56998H4.38944L4.89653 2.73763H11.8225L13.3475 11.2476C13.3628 11.3338 13.4083 11.4118 13.4759 11.4676C13.5435 11.5233 13.6287 11.5532 13.7163 11.5518C13.7377 11.5537 13.7593 11.5537 13.7808 11.5518C13.8285 11.5434 13.8741 11.5256 13.9149 11.4995C13.9558 11.4734 13.9911 11.4396 14.0188 11.3998C14.0466 11.3601 14.0662 11.3153 14.0766 11.268C14.087 11.2207 14.088 11.1717 14.0795 11.124L13.7107 9.04403H14.6844L15.2375 13.7665L10.6497 13.7609Z" fill="black"/>
</svg>
