<svg width="16" height="16" viewBox="0 0 16 16" fill="none" xmlns="http://www.w3.org/2000/svg">
<rect width="16" height="16" fill="white"/>
<path d="M15.5997 3.14142H0.400776C0.260884 3.14142 0.147461 3.25036 0.147461 3.38472V12.6153C0.147461 12.7496 0.260884 12.8586 0.400776 12.8586H15.5997C15.7396 12.8586 15.853 12.7496 15.853 12.6153V3.38472C15.853 3.25036 15.7396 3.14142 15.5997 3.14142ZM15.3464 9.99087C14.3133 9.87021 13.5098 9.02424 13.5098 8C13.5098 6.97576 14.3133 6.12978 15.3464 6.00913V9.99087ZM7.74703 9.99087C6.714 9.87021 5.9105 9.02424 5.9105 8C5.9105 6.97576 6.714 6.12978 7.74703 6.00913V9.99087ZM8.25366 6.00913C9.28657 6.12981 10.0899 6.97578 10.0899 8C10.0899 9.02422 9.28657 9.87018 8.25366 9.99087V6.00913ZM0.654091 6.0538C1.68712 6.17445 2.49062 7.02043 2.49062 8.04467C2.49062 9.06891 1.68712 9.91497 0.654091 10.0357V6.0538ZM0.654091 10.5262C1.9673 10.4035 2.99725 9.33766 2.99725 8.04467C2.99725 6.75179 1.9673 5.686 0.654091 5.56325V3.62802H7.74703V5.51858C6.43383 5.64134 5.40387 6.70712 5.40387 8C5.40387 9.29287 6.43383 10.3587 7.74703 10.4814V12.372H0.654091V10.5262ZM8.25366 12.372V10.4814C9.56673 10.3586 10.5966 9.29287 10.5966 8C10.5966 6.70712 9.56673 5.64135 8.25366 5.51858V3.62802H15.3464V5.51858C14.0331 5.64134 13.0032 6.70712 13.0032 8C13.0032 9.29287 14.0331 10.3587 15.3464 10.4814V12.372H8.25366Z" fill="black"/>
<path fill-rule="evenodd" clip-rule="evenodd" d="M0.400554 3H15.5994C15.8207 3 16 3.17226 16 3.38472V12.6153C16 12.8277 15.8207 13 15.5994 13H0.400554C0.179344 13 0 12.8277 0 12.6153V3.38472C0 3.17226 0.179344 3 0.400554 3ZM15.3461 9.99087V6.00913C15.2965 6.01493 15.2474 6.0224 15.1989 6.03148C14.2377 6.21148 13.5096 7.02497 13.5096 8C13.5096 8.97503 14.2377 9.78852 15.1989 9.96852C15.2474 9.9776 15.2965 9.98508 15.3461 9.99087ZM15.1989 9.82423V6.17577C14.3194 6.35359 13.6568 7.10365 13.6568 8C13.6568 8.89635 14.3194 9.64641 15.1989 9.82423ZM7.74681 9.99087V6.00913C7.69718 6.01493 7.64808 6.0224 7.59957 6.03148C6.63842 6.21148 5.91028 7.02497 5.91028 8C5.91028 8.97503 6.63842 9.78852 7.59957 9.96852C7.64808 9.9776 7.69718 9.98508 7.74681 9.99087ZM7.59957 9.82423V6.17577C6.72007 6.35359 6.05752 7.10365 6.05752 8C6.05752 8.89635 6.72007 9.64641 7.59957 9.82423ZM8.25344 6.00913V9.99087C8.30307 9.98507 8.35217 9.9776 8.40068 9.96851C9.3617 9.78848 10.0897 8.97501 10.0897 8C10.0897 7.02499 9.3617 6.21152 8.40068 6.03149C8.35217 6.0224 8.30307 6.01493 8.25344 6.00913ZM8.40068 6.17578V9.82422C9.28004 9.64637 9.94248 8.89634 9.94248 8C9.94248 7.10366 9.28004 6.35363 8.40068 6.17578ZM0.653869 6.0538V10.0357C0.7035 10.0299 0.752601 10.0224 0.801108 10.0133C1.76225 9.83327 2.4904 9.0197 2.4904 8.04467C2.4904 7.06964 1.76225 6.25615 0.801108 6.07615C0.752601 6.06706 0.7035 6.05959 0.653869 6.0538ZM0.801108 6.22044V9.86901C1.6806 9.69116 2.34316 8.94102 2.34316 8.04467C2.34316 7.14832 1.68061 6.39826 0.801108 6.22044ZM0.801108 10.6514V12.2306H7.59957V10.6066C6.27587 10.4198 5.25641 9.32254 5.25641 8C5.25641 6.67746 6.27587 5.58024 7.59957 5.39342V3.76945H0.801108V5.43809C2.12481 5.62491 3.14427 6.72213 3.14427 8.04467C3.14427 9.36732 2.12482 10.4645 0.801108 10.6514ZM7.74681 5.51859C6.4336 5.64134 5.40365 6.70713 5.40365 8C5.40365 9.29288 6.4336 10.3587 7.74681 10.4814V12.372H0.653869V10.5262C1.96707 10.4035 2.99703 9.33766 2.99703 8.04467C2.99703 6.75179 1.96707 5.68601 0.653869 5.56326V3.62803H7.74681V5.51859ZM8.40068 10.6066V12.2306H15.1989V10.6066C13.8752 10.4198 12.8557 9.32254 12.8557 8C12.8557 6.67746 13.8752 5.58024 15.1989 5.39342V3.76945H8.40068V5.39342C9.72425 5.58027 10.7436 6.67748 10.7436 8C10.7436 9.32253 9.72425 10.4197 8.40068 10.6066ZM8.25344 10.4814V12.372H15.3461V10.4814C14.0329 10.3587 13.003 9.29288 13.003 8C13.003 6.70713 14.0329 5.64134 15.3461 5.51859V3.62803H8.25344V5.51859C9.5665 5.64135 10.5964 6.70713 10.5964 8C10.5964 9.29288 9.5665 10.3586 8.25344 10.4814ZM0.400554 3.14142H15.5994C15.7393 3.14142 15.8528 3.25036 15.8528 3.38472V12.6153C15.8528 12.7496 15.7393 12.8586 15.5994 12.8586H0.400554C0.260662 12.8586 0.147239 12.7496 0.147239 12.6153V3.38472C0.147239 3.25036 0.260662 3.14142 0.400554 3.14142Z" fill="black"/>
</svg>
