<svg width="16" height="16" viewBox="0 0 16 16" fill="none" xmlns="http://www.w3.org/2000/svg">
<g clip-path="url(#clip0_1_268)">
<rect width="16" height="16" fill="white"/>
<path d="M0.0834789 9.03722C0.187654 9.20092 0.366241 9.30138 0.55971 9.30138H2.41999C2.5316 9.30138 2.6395 9.26789 2.72879 9.20837L3.70358 8.55727H5.2104V14.8524C5.02437 14.8673 4.84206 14.8822 4.65232 14.8822C4.34351 14.8822 4.09423 15.1315 4.09423 15.4403C4.09423 15.7491 4.34351 15.9984 4.65232 15.9984C5.02437 15.9984 5.38899 15.9649 5.74616 15.9128C5.7536 15.9128 5.76104 15.9165 5.76848 15.9165C5.83173 15.9165 5.89498 15.9016 5.95079 15.883C9.56345 15.2877 12.365 12.2704 12.6217 8.55727H12.6515V9.48741C12.6515 9.69204 12.7631 9.88179 12.9454 9.97852C13.0273 10.0232 13.1166 10.0455 13.2096 10.0455C13.3175 10.0455 13.4254 10.0157 13.5184 9.95248L15.7507 8.46426C15.907 8.36008 16 8.18521 16 7.99919C16 7.81316 15.907 7.63829 15.7507 7.53412L13.5184 6.0459C13.3472 5.93056 13.1277 5.9194 12.9454 6.01985C12.7631 6.11659 12.6515 6.30633 12.6515 6.51097V7.4411H12.6217C12.365 3.72799 9.56345 0.710625 5.95079 0.115337C5.89498 0.0967343 5.83173 0.0818521 5.76848 0.0818521C5.76104 0.0818521 5.7536 0.0818521 5.74616 0.0855727C5.38899 0.033485 5.02437 0 4.65232 0C4.34351 0 4.09423 0.249277 4.09423 0.558083C4.09423 0.866889 4.34351 1.11617 4.65232 1.11617C4.84206 1.11617 5.02437 1.13105 5.2104 1.14593V7.4411H3.70358L2.72879 6.79001C2.6395 6.73048 2.5316 6.69699 2.41999 6.69699H0.55971C0.366241 6.69699 0.187654 6.79745 0.0834789 6.96115C-0.016976 7.12486 -0.0281376 7.32949 0.0574351 7.50435L0.306712 7.99919L0.0574351 8.49402C-0.024417 8.66516 -0.016976 8.87352 0.0834789 9.03722ZM13.7677 7.99919V7.55272L14.4374 7.99919L13.7677 8.44565V7.99919ZM6.32656 1.33196C9.1393 2.03886 11.2675 4.47582 11.5056 7.4411H6.32656V1.33196ZM6.32656 8.55727H11.5056C11.2675 11.5263 9.1393 13.9595 6.32656 14.6664V8.55727ZM1.45636 7.81316H2.24884L2.5316 7.99919L2.25256 8.18521H1.45636C1.50101 8.06616 1.50101 7.93222 1.45636 7.81316Z" fill="black"/>
</g>
<defs>
<clipPath id="clip0_1_268">
<rect width="16" height="16" fill="white"/>
</clipPath>
</defs>
</svg>
