<svg width="16" height="16" viewBox="0 0 16 16" fill="none" xmlns="http://www.w3.org/2000/svg">
<g clip-path="url(#clip0_1_272)">
<rect width="16" height="16" fill="white"/>
<path fill-rule="evenodd" clip-rule="evenodd" d="M15.8684 13.8364C16.0373 13.625 16.0564 13.3329 15.8541 13.1302L14.5895 11.9498V6.1823H14.9948C15.1299 6.1823 15.2574 6.13627 15.3513 6.04222C15.445 5.94839 15.4901 5.82196 15.4901 5.68863C15.4901 5.5553 15.445 5.42888 15.3513 5.33505C15.2574 5.241 15.1299 5.19497 14.9948 5.19497H14.5895V3.49366C14.5895 3.36033 14.5444 3.23391 14.4507 3.14008C14.3568 3.04603 14.2294 3 14.0942 3H1.90624C1.7711 3 1.64365 3.04603 1.54976 3.14008C1.45608 3.23391 1.41092 3.36033 1.41092 3.49366V5.19497H1.00566C0.870507 5.19497 0.743061 5.241 0.649167 5.33505C0.555491 5.42888 0.510333 5.5553 0.510333 5.68863C0.510333 5.82196 0.555491 5.94839 0.649167 6.04222C0.743061 6.13627 0.870507 6.1823 1.00566 6.1823H1.41092V11.9798L0.15118 13.1554L0.146339 13.1603C-0.0487797 13.3557 -0.0487797 13.657 0.146339 13.8524C0.245184 13.9514 0.386237 14 0.495323 14C0.603464 14 0.743021 13.9522 0.841729 13.855L3.66163 11.2109L3.66615 11.2064C3.86127 11.011 3.86127 10.7097 3.66615 10.5143C3.47055 10.3184 3.16737 10.3175 2.97082 10.5117L2.40157 11.0438V6.1823H13.5989V11.0438L13.0296 10.5116C12.8331 10.3175 12.5299 10.3184 12.3343 10.5143C12.1392 10.7097 12.1391 11.0111 12.3342 11.2065L15.1586 13.8548C15.1995 13.8954 15.2481 13.9334 15.3087 13.9604C15.3715 13.9884 15.437 14 15.5051 14C15.5732 14 15.6388 13.9884 15.7015 13.9604C15.7634 13.9329 15.8127 13.8939 15.8541 13.8524L15.8617 13.8448L15.8684 13.8364ZM14.999 5.38797C14.9976 5.38796 14.9962 5.38795 14.9948 5.38795L14.3946 5.38795H14.995C14.9963 5.38795 14.9977 5.38796 14.999 5.38797ZM14.0985 3.19301C14.0971 3.19299 14.0956 3.19298 14.0942 3.19298H1.90624C1.72613 3.19298 1.60605 3.31325 1.60605 3.49366V5.38795H1.00566C0.825539 5.38795 0.70546 5.50823 0.70546 5.68863C0.70546 5.86769 0.823751 5.98751 1.00163 5.98929C0.823854 5.98743 0.705646 5.86763 0.705646 5.68864C0.705646 5.50823 0.825724 5.38795 1.00584 5.38795H1.60623V3.49367C1.60623 3.31326 1.72631 3.19298 1.90643 3.19298H14.0944C14.0958 3.19298 14.0971 3.19299 14.0985 3.19301ZM1.60605 5.98932H1.60623V12.0631L0.285371 13.2959C0.165293 13.4161 0.165293 13.5965 0.285371 13.7168C0.344911 13.7764 0.433972 13.8065 0.494003 13.807C0.43397 13.8066 0.344787 13.7765 0.285186 13.7168C0.165108 13.5965 0.165108 13.4161 0.285186 13.2959L1.60605 12.0631V5.98932ZM3.10703 10.6499C3.16756 10.5892 3.24335 10.5592 3.31902 10.5597C3.24341 10.5592 3.1677 10.5893 3.10721 10.6499L2.20663 11.4918V11.4916L3.10703 10.6499ZM13.794 11.4916V5.98931L13.7942 5.98932V11.4918L13.794 11.4916ZM12.6851 10.5597C12.6095 10.5592 12.5338 10.5893 12.4733 10.6499C12.3533 10.7701 12.3533 10.9505 12.4733 11.0708L15.2952 13.7168C15.3508 13.7726 15.4065 13.8025 15.4861 13.8065C15.4064 13.8025 15.3507 13.7726 15.295 13.7168L12.4731 11.0708C12.3531 10.9505 12.3531 10.7701 12.4731 10.6499C12.5337 10.5892 12.6095 10.5592 12.6851 10.5597ZM2.40157 5.19497V3.98733H13.5989V5.19497H2.40157ZM13.794 3.79434L13.7942 3.79435V5.38795H2.20663V5.38795H13.794V3.79434Z" fill="black"/>
</g>
<defs>
<clipPath id="clip0_1_272">
<rect width="16" height="16" fill="white"/>
</clipPath>
</defs>
</svg>
