<svg width="16" height="16" viewBox="0 0 16 16" fill="none" xmlns="http://www.w3.org/2000/svg">
<rect width="16" height="16" fill="white"/>
<path d="M13.56 7.99999C13.5599 6.61634 13.1628 5.26372 12.4186 4.113C11.6744 2.96227 10.6166 2.06506 9.37885 1.53468C8.14105 1.00431 6.77878 0.864564 5.46411 1.13311C4.14943 1.40165 2.94133 2.06643 1.99239 3.04347C1.04346 4.02052 0.396264 5.266 0.132557 6.6226C-0.131149 7.9792 0.000462249 9.38606 0.510768 10.6655C1.02107 11.9449 1.88718 13.0395 2.99969 13.8109C4.1122 14.5824 5.4212 14.9962 6.76135 15H12.6473C13.5365 15 14.3892 14.6353 15.018 13.9861C15.6468 13.337 16 12.4565 16 11.5385V9.98076H14.8824V11.5385C14.8824 12.1505 14.6469 12.7375 14.2278 13.1702C13.8086 13.603 13.2401 13.8462 12.6473 13.8462H10.4866C11.4283 13.2113 12.2023 12.3446 12.7388 11.324C13.2753 10.3035 13.5575 9.16117 13.56 7.99999ZM6.76135 13.8462C5.64224 13.8424 4.54931 13.4963 3.62058 12.8516C2.69186 12.2069 1.969 11.2925 1.54328 10.2239C1.11756 9.15535 1.00808 7.98049 1.22866 6.84772C1.44925 5.71494 1.99 4.67505 2.78264 3.85938C3.57528 3.0437 4.58425 2.48881 5.68213 2.26479C6.78002 2.04077 7.91758 2.15766 8.95116 2.6007C9.98475 3.04374 10.868 3.79307 11.4894 4.75404C12.1107 5.71502 12.4424 6.84455 12.4424 7.99999C12.4374 9.55225 11.8367 11.0392 10.7719 12.135C9.70701 13.2308 8.26483 13.8462 6.76135 13.8462Z" fill="black"/>
<path d="M6.76122 8.65383C7.11098 8.65383 7.39452 8.36109 7.39452 7.99998C7.39452 7.63887 7.11098 7.34613 6.76122 7.34613C6.41147 7.34613 6.12793 7.63887 6.12793 7.99998C6.12793 8.36109 6.41147 8.65383 6.76122 8.65383Z" fill="black"/>
<path d="M6.76162 6.55769C7.10791 6.55769 7.44642 6.45167 7.73435 6.25303C8.02228 6.0544 8.24669 5.77208 8.37921 5.44177C8.51173 5.11145 8.5464 4.74799 8.47884 4.39733C8.41129 4.04667 8.24453 3.72457 7.99967 3.47176C7.7548 3.21895 7.44283 3.04678 7.10319 2.97703C6.76356 2.90728 6.41152 2.94308 6.09159 3.0799C5.77165 3.21672 5.49821 3.44842 5.30582 3.74569C5.11343 4.04296 5.01074 4.39246 5.01074 4.74999C5.01074 5.22942 5.19521 5.68922 5.52356 6.02822C5.85191 6.36723 6.29725 6.55769 6.76162 6.55769ZM6.76162 4.09614C6.88687 4.09614 7.00931 4.13449 7.11345 4.20634C7.2176 4.27818 7.29877 4.3803 7.3467 4.49977C7.39464 4.61925 7.40718 4.75072 7.38274 4.87755C7.3583 5.00438 7.29799 5.12089 7.20942 5.21233C7.12085 5.30377 7.00801 5.36605 6.88516 5.39127C6.76232 5.4165 6.63498 5.40356 6.51926 5.35407C6.40354 5.30458 6.30464 5.22077 6.23505 5.11325C6.16546 5.00572 6.12832 4.87931 6.12832 4.74999C6.12832 4.57658 6.19504 4.41027 6.31381 4.28765C6.43257 4.16503 6.59366 4.09614 6.76162 4.09614Z" fill="black"/>
<path d="M6.76162 9.4423C6.41533 9.4423 6.07681 9.54832 5.78888 9.74695C5.50095 9.94558 5.27654 10.2279 5.14402 10.5582C5.0115 10.8885 4.97683 11.252 5.04439 11.6027C5.11194 11.9533 5.2787 12.2754 5.52356 12.5282C5.76843 12.781 6.0804 12.9532 6.42004 13.023C6.75967 13.0927 7.11172 13.0569 7.43165 12.9201C7.75158 12.7833 8.02502 12.5516 8.21741 12.2543C8.4098 11.957 8.51249 11.6075 8.51249 11.25C8.51249 11.0126 8.4672 10.7775 8.37921 10.5582C8.29122 10.3389 8.16225 10.1396 7.99967 9.97176C7.83709 9.8039 7.64407 9.67075 7.43165 9.5799C7.21922 9.48906 6.99154 9.4423 6.76162 9.4423ZM6.76162 11.9038C6.63636 11.9038 6.51392 11.8655 6.40978 11.7936C6.30563 11.7218 6.22446 11.6197 6.17653 11.5002C6.1286 11.3807 6.11605 11.2493 6.14049 11.1224C6.16493 10.9956 6.22524 10.8791 6.31381 10.7877C6.40238 10.6962 6.51522 10.6339 6.63807 10.6087C6.76091 10.5835 6.88825 10.5964 7.00397 10.6459C7.11969 10.6954 7.21859 10.7792 7.28818 10.8867C7.35777 10.9943 7.39491 11.1207 7.39491 11.25C7.39491 11.4234 7.32819 11.5897 7.20942 11.7123C7.09066 11.835 6.92958 11.9038 6.76162 11.9038Z" fill="black"/>
<path d="M9.90908 6.1923C9.56279 6.1923 9.22427 6.29831 8.93634 6.49695C8.64841 6.69558 8.424 6.9779 8.29148 7.30822C8.15896 7.63853 8.12429 8.002 8.19185 8.35265C8.2594 8.70331 8.42616 9.02541 8.67102 9.27822C8.91589 9.53104 9.22786 9.7032 9.5675 9.77295C9.90713 9.8427 10.2592 9.8069 10.5791 9.67008C10.899 9.53326 11.1725 9.30157 11.3649 9.00429C11.5573 8.70702 11.6599 8.35752 11.6599 7.99999C11.6599 7.52056 11.4755 7.06077 11.1471 6.72176C10.8188 6.38275 10.3734 6.1923 9.90908 6.1923ZM9.90908 8.65384C9.78382 8.65384 9.66138 8.61549 9.55724 8.54364C9.45309 8.4718 9.37192 8.36968 9.32399 8.25021C9.27606 8.13073 9.26351 7.99927 9.28795 7.87243C9.31239 7.7456 9.3727 7.62909 9.46127 7.53765C9.54984 7.44621 9.66268 7.38394 9.78553 7.35871C9.90837 7.33348 10.0357 7.34643 10.1514 7.39591C10.2671 7.4454 10.3661 7.52921 10.4356 7.63673C10.5052 7.74426 10.5424 7.87067 10.5424 7.99999C10.5424 8.1734 10.4756 8.33971 10.3569 8.46233C10.2381 8.58495 10.077 8.65384 9.90908 8.65384Z" fill="black"/>
<path d="M3.63173 6.1923C3.28544 6.1923 2.94693 6.29831 2.659 6.49695C2.37107 6.69558 2.14666 6.9779 2.01414 7.30822C1.88162 7.63853 1.84694 8.002 1.9145 8.35265C1.98206 8.70331 2.14881 9.02541 2.39368 9.27822C2.63854 9.53104 2.95052 9.7032 3.29015 9.77295C3.62979 9.8427 3.98183 9.8069 4.30176 9.67008C4.62169 9.53326 4.89514 9.30157 5.08753 9.00429C5.27992 8.70702 5.38261 8.35752 5.38261 7.99999C5.38261 7.52056 5.19814 7.06077 4.86979 6.72176C4.54143 6.38275 4.09609 6.1923 3.63173 6.1923ZM3.63173 8.65384C3.50648 8.65384 3.38404 8.61549 3.27989 8.54364C3.17575 8.4718 3.09458 8.36968 3.04665 8.25021C2.99871 8.13073 2.98617 7.99927 3.01061 7.87243C3.03504 7.7456 3.09536 7.62909 3.18393 7.53765C3.27249 7.44621 3.38534 7.38394 3.50818 7.35871C3.63103 7.33348 3.75836 7.34643 3.87408 7.39591C3.9898 7.4454 4.08871 7.52921 4.1583 7.63673C4.22789 7.74426 4.26503 7.87067 4.26503 7.99999C4.26503 8.1734 4.19831 8.33971 4.07954 8.46233C3.96077 8.58495 3.79969 8.65384 3.63173 8.65384Z" fill="black"/>
</svg>
