<svg width="16" height="16" viewBox="0 0 16 16" fill="none" xmlns="http://www.w3.org/2000/svg">
<rect width="16" height="16" fill="white"/>
<path d="M8 16C12.4103 16 16 12.8649 16 9.01003C15.9998 8.07202 15.7852 7.14653 15.3729 6.30465C15.7821 5.73575 16.0016 5.05162 16 4.35005C15.9968 3.65509 15.7792 2.97816 15.3772 2.41221C14.9751 1.84627 14.4082 1.41908 13.7544 1.18929C13.1006 0.959504 12.392 0.938397 11.7257 1.12887C11.0595 1.31934 10.4684 1.71205 10.0335 2.25306C8.69547 1.94288 7.30452 1.94288 5.96645 2.25306C5.40895 1.60797 4.62789 1.19955 3.78147 1.11052C2.93505 1.02149 2.08653 1.2585 1.40778 1.77355C0.729019 2.2886 0.270759 3.0432 0.125808 3.8845C-0.0191432 4.7258 0.160051 5.59093 0.627096 6.30465C0.214756 7.14653 0.000232459 8.07202 0 9.01003C0 12.8649 3.58968 16 8 16ZM2.09806 5.64449C1.92434 5.47693 1.78612 5.27592 1.69166 5.05349C1.59721 4.83107 1.54848 4.59182 1.54839 4.35005C1.5542 3.94941 1.69221 3.56199 1.94083 3.24839C2.18945 2.9348 2.53467 2.7127 2.92248 2.61684C3.3103 2.52099 3.71885 2.55677 4.08423 2.7186C4.44962 2.88043 4.75125 3.15918 4.94193 3.51126L5.23871 4.07304L5.84774 3.89182C7.25179 3.47015 8.7482 3.47015 10.1523 3.89182L10.7613 4.07304L11.0581 3.50867C11.1753 3.2695 11.3437 3.05923 11.5513 2.89284C11.7588 2.72644 12.0004 2.60802 12.2588 2.54601C12.5172 2.484 12.786 2.47994 13.0461 2.5341C13.3063 2.58826 13.5513 2.69932 13.7638 2.85936C13.9762 3.0194 14.1509 3.22448 14.2752 3.45999C14.3996 3.6955 14.4707 3.95563 14.4834 4.22186C14.4961 4.48808 14.4501 4.75384 14.3487 5.00019C14.2473 5.24654 14.093 5.46741 13.8968 5.64708L13.4581 6.07424L13.7677 6.59202C14.2112 7.3204 14.4477 8.15655 14.4516 9.01003C14.4516 12.008 11.5587 14.4467 8 14.4467C4.44129 14.4467 1.54839 12.008 1.54839 9.01003C1.5514 8.15993 1.78514 7.3267 2.22451 6.59979L2.53419 6.08201L2.09806 5.64449Z" fill="black"/>
<path d="M5.28994 9.01003C5.78878 9.01003 6.19317 8.60435 6.19317 8.10392C6.19317 7.60349 5.78878 7.19781 5.28994 7.19781C4.79111 7.19781 4.38672 7.60349 4.38672 8.10392C4.38672 8.60435 4.79111 9.01003 5.28994 9.01003Z" fill="black"/>
<path d="M10.7099 9.01003C11.2087 9.01003 11.6131 8.60435 11.6131 8.10392C11.6131 7.60349 11.2087 7.19781 10.7099 7.19781C10.211 7.19781 9.80664 7.60349 9.80664 8.10392C9.80664 8.60435 10.211 9.01003 10.7099 9.01003Z" fill="black"/>
<path d="M7.45251 12.4066C7.59767 12.5521 7.79444 12.6338 7.9996 12.6338C8.20476 12.6338 8.40154 12.5521 8.5467 12.4066L9.06283 11.8889C9.17096 11.7802 9.24459 11.6419 9.2744 11.4913C9.30422 11.3408 9.28889 11.1847 9.23035 11.0429C9.17181 10.9011 9.07268 10.7798 8.94549 10.6945C8.8183 10.6091 8.66875 10.5635 8.51573 10.5634H7.48347C7.33045 10.5635 7.1809 10.6091 7.05371 10.6945C6.92652 10.7798 6.8274 10.9011 6.76885 11.0429C6.71031 11.1847 6.69498 11.3408 6.7248 11.4913C6.75462 11.6419 6.82824 11.7802 6.93638 11.8889L7.45251 12.4066Z" fill="black"/>
</svg>
