<svg width="16" height="16" viewBox="0 0 16 16" fill="none" xmlns="http://www.w3.org/2000/svg">
<rect width="16" height="16" fill="white"/>
<path fill-rule="evenodd" clip-rule="evenodd" d="M1.24145 4.51909C0.90336 4.83882 0.761905 5.14629 0.761905 5.42857C0.761905 5.71086 0.90336 6.01832 1.24145 6.33806C1.58034 6.65855 2.09118 6.96472 2.754 7.22987C4.07754 7.75924 5.93211 8.09524 8 8.09524C10.0679 8.09524 11.9224 7.75924 13.246 7.22987C13.9088 6.96472 14.4197 6.65855 14.7586 6.33806C15.0966 6.01832 15.2381 5.71086 15.2381 5.42857C15.2381 5.14629 15.0966 4.83882 14.7586 4.51909C14.4197 4.19859 13.9088 3.89242 13.246 3.62728C11.9224 3.09787 10.0679 2.7619 8 2.7619C5.93211 2.7619 4.07754 3.09787 2.754 3.62728C2.09118 3.89242 1.58034 4.19859 1.24145 4.51909ZM2.47104 2.91987C3.90505 2.34627 5.86 2 8 2C10.14 2 12.0949 2.34627 13.529 2.91987C14.2449 3.20626 14.8498 3.55678 15.2821 3.96552C15.715 4.37501 16 4.86928 16 5.42857C16 5.98786 15.715 6.48213 15.2821 6.89163C14.8498 7.30034 14.2449 7.6509 13.529 7.9373C12.0949 8.51086 10.14 8.85714 8 8.85714C5.86 8.85714 3.90505 8.51086 2.47104 7.9373C1.75509 7.6509 1.15013 7.30034 0.717943 6.89163C0.284937 6.48213 0 5.98786 0 5.42857C0 4.86928 0.284937 4.37501 0.717943 3.96552C1.15013 3.55678 1.75509 3.20626 2.47104 2.91987Z" fill="black"/>
<path fill-rule="evenodd" clip-rule="evenodd" d="M3.34796 7.00829C3.12553 7.21865 3.04804 7.40585 3.04804 7.56189H2.28613C2.28613 7.12883 2.50712 6.75483 2.82445 6.45472C3.14098 6.15537 3.57857 5.90335 4.0877 5.69969C5.10808 5.29154 6.49162 5.04761 8.00042 5.04761C9.50922 5.04761 10.8928 5.29154 11.9131 5.69969C12.4223 5.90335 12.8598 6.15537 13.1764 6.45472C13.4938 6.75483 13.7147 7.12883 13.7147 7.56189H12.9528C12.9528 7.40585 12.8753 7.21865 12.6529 7.00829C12.4297 6.79718 12.0862 6.5895 11.6302 6.4071C10.7203 6.04314 9.43714 5.80951 8.00042 5.80951C6.56369 5.80951 5.28057 6.04314 4.37067 6.4071C3.91466 6.5895 3.57119 6.79718 3.34796 7.00829Z" fill="black"/>
<path fill-rule="evenodd" clip-rule="evenodd" d="M0.761905 5.42856V11.5238C0.761905 11.8061 0.90336 12.1136 1.24145 12.4333C1.58034 12.7538 2.09118 13.0599 2.754 13.3251C4.07754 13.8545 5.93211 14.1905 8 14.1905C10.0679 14.1905 11.9224 13.8545 13.246 13.3251C13.9088 13.0599 14.4197 12.7538 14.7586 12.4333C15.0966 12.1136 15.2381 11.8061 15.2381 11.5238V5.42856H16V11.5238C16 12.0831 15.715 12.5774 15.2821 12.9869C14.8498 13.3956 14.2449 13.7461 13.529 14.0325C12.0949 14.6061 10.14 14.9524 8 14.9524C5.86 14.9524 3.90505 14.6061 2.47104 14.0325C1.75509 13.7461 1.15013 13.3956 0.717943 12.9869C0.284937 12.5774 0 12.0831 0 11.5238V5.42856H0.761905Z" fill="black"/>
<path fill-rule="evenodd" clip-rule="evenodd" d="M4.95238 11.1429C4.95238 10.9325 5.12294 10.7619 5.33333 10.7619H10.6667C10.877 10.7619 11.0476 10.9325 11.0476 11.1429V14.1905H10.2857V11.5238H5.71429V14.1905H4.95238V11.1429Z" fill="black"/>
<path fill-rule="evenodd" clip-rule="evenodd" d="M7.61905 5.42857V2.38095H8.38095V5.42857H7.61905Z" fill="black"/>
<path fill-rule="evenodd" clip-rule="evenodd" d="M14.3646 4.17415L12.0789 6.45986L11.5402 5.92112L13.8259 3.63541L14.3646 4.17415Z" fill="black"/>
<path fill-rule="evenodd" clip-rule="evenodd" d="M1.63574 4.17415L3.92146 6.45986L4.46021 5.92112L2.17449 3.63541L1.63574 4.17415Z" fill="black"/>
</svg>
