<svg width="16" height="16" viewBox="0 0 16 16" fill="none" xmlns="http://www.w3.org/2000/svg">
<g clip-path="url(#clip0_1_291)">
<rect width="16" height="16" fill="white"/>
<path d="M2.99824 8.50128C2.44691 8.50128 1.9981 8.05272 1.9981 7.50114C1.9981 6.94957 2.44691 6.50101 2.99824 6.50101C3.54956 6.50101 3.99837 6.94957 3.99837 7.50114C3.99837 8.05272 3.54956 8.50128 2.99824 8.50128ZM4.49844 3.5006C3.94712 3.5006 3.4983 3.94916 3.4983 4.50073C3.4983 5.05231 3.94712 5.50087 4.49844 5.50087C5.04976 5.50087 5.49858 5.05231 5.49858 4.50073C5.49858 3.94916 5.04976 3.5006 4.49844 3.5006ZM4.49844 9.50141C3.94712 9.50141 3.4983 9.94997 3.4983 10.5015C3.4983 11.0531 3.94712 11.5017 4.49844 11.5017C5.04976 11.5017 5.49858 11.0531 5.49858 10.5015C5.49858 9.94997 5.04976 9.50141 4.49844 9.50141ZM16 11.0016C16 11.5532 15.5512 12.0018 14.9999 12.0018C14.454 12.0018 13.5357 11.5454 12.5698 10.8356C12.229 10.9449 11.8704 11.0016 11.4994 11.0016H9.92393C9.57488 11.0016 9.25684 11.1791 9.07381 11.4767C8.89079 11.7735 8.87453 12.1363 9.0308 12.4471C9.17232 12.7311 9.23383 12.9929 9.23383 13.2667C9.23383 14.2236 8.45548 15.0019 7.49885 15.0019C5.36956 15.0019 3.33328 14.0918 1.91159 12.5053C0.490396 10.9194 -0.189196 8.78557 0.0455857 6.65128C0.426387 3.20606 3.20376 0.428932 6.64848 0.0478808C11.1926 -0.456188 14.9996 3.08704 14.9996 7.50114C14.9996 7.87219 14.9426 8.23024 14.8336 8.57104C15.5437 9.53717 16 10.4558 16 11.0016ZM11.5426 9.99723C10.5673 9.11536 9.66589 8.04021 9.16432 6.97007C7.92441 6.8183 6.90077 5.85242 6.72074 4.59125L6.50346 3.07129C6.48146 2.91552 6.53372 2.75825 6.64498 2.64698C6.75575 2.53572 6.91102 2.48271 7.06929 2.50571L8.5895 2.72274C9.85067 2.90277 10.8163 3.92666 10.9681 5.16657C12.0382 5.66789 13.1134 6.56927 13.9952 7.54465C13.9955 7.53015 13.9995 7.51589 13.9995 7.50139C13.9995 3.91666 11.0831 1.00051 7.4986 1.00051C7.25731 1.00051 7.00878 1.01476 6.75875 1.04227C3.77484 1.37231 1.36927 3.77739 1.03972 6.76129C0.832693 8.64055 1.40702 10.4438 2.65619 11.8385C3.88836 13.2134 5.65335 14.002 7.49885 14.002C7.95291 14.002 8.2337 13.6205 8.2337 13.2669C8.2337 13.1494 8.20769 13.0379 8.15644 12.9354C7.82389 12.2733 7.85565 11.5462 8.22194 10.9519C8.58924 10.3568 9.22508 10.0015 9.92393 10.0015H11.4994C11.5139 10.0015 11.5281 9.99748 11.5426 9.99723ZM9.98168 5.31135C9.89442 4.50174 9.26884 3.82989 8.44823 3.71263L7.58836 3.58986L7.71138 4.44998C7.82839 5.27059 8.50023 5.89617 9.30959 5.98344L9.98168 5.31135ZM14.9999 11.0016C14.9999 10.3225 12.9126 7.20385 10.611 6.09645L10.0944 6.61277C11.2018 8.91458 14.321 11.0016 14.9999 11.0016Z" fill="black"/>
</g>
<defs>
<clipPath id="clip0_1_291">
<rect width="16" height="16" fill="white"/>
</clipPath>
</defs>
</svg>
