<svg width="16" height="16" viewBox="0 0 16 16" fill="none" xmlns="http://www.w3.org/2000/svg">
<rect width="16" height="16" fill="white"/>
<path d="M11.25 12.5C11.4948 12.7499 11.8089 12.9207 12.1517 12.9904C12.4945 13.0601 12.8503 13.0254 13.1733 12.8908C13.4962 12.7563 13.7714 12.528 13.9633 12.2356C14.1552 11.9431 14.2551 11.5998 14.25 11.25V1.75C14.25 1.28587 14.0656 0.840752 13.7374 0.512563C13.4092 0.184374 12.9641 0 12.5 0H5C4.53587 0 4.09075 0.184374 3.76256 0.512563C3.43437 0.840752 3.25 1.28587 3.25 1.75V9.25H2V10.25H2.25V14.375C2.25 14.806 2.4212 15.2193 2.72595 15.524C3.0307 15.8288 3.44402 16 3.875 16C4.30598 16 4.7193 15.8288 5.02405 15.524C5.3288 15.2193 5.5 14.806 5.5 14.375V10.25H5.75V9.25H4.25V1.75C4.25 1.55109 4.32902 1.36032 4.46967 1.21967C4.61032 1.07902 4.80109 1 5 1H12.5C12.6989 1 12.8897 1.07902 13.0303 1.21967C13.171 1.36032 13.25 1.55109 13.25 1.75V11.25C13.25 11.4489 13.171 11.6397 13.0303 11.7803C12.8897 11.921 12.6989 12 12.5 12C12.3011 12 12.1103 11.921 11.9697 11.7803C11.829 11.6397 11.75 11.4489 11.75 11.25V4.625C11.75 4.34594 11.695 4.06961 11.5882 3.8118C11.4815 3.55398 11.3249 3.31972 11.1276 3.1224C10.9303 2.92507 10.696 2.76855 10.4382 2.66176C10.1804 2.55496 9.90406 2.5 9.625 2.5C9.34594 2.5 9.06961 2.55496 8.8118 2.66176C8.55398 2.76855 8.31972 2.92507 8.1224 3.1224C7.92507 3.31972 7.76855 3.55398 7.66176 3.8118C7.55496 4.06961 7.5 4.34594 7.5 4.625V9.25H6.25V10.25H6.5V14.375C6.5 14.806 6.6712 15.2193 6.97595 15.524C7.2807 15.8288 7.69402 16 8.125 16C8.55598 16 8.9693 15.8288 9.27405 15.524C9.5788 15.2193 9.75 14.806 9.75 14.375V10.25H10V9.25H8.5V4.625C8.5 4.32663 8.61853 4.04048 8.8295 3.8295C9.04048 3.61853 9.32663 3.5 9.625 3.5C9.92337 3.5 10.2095 3.61853 10.4205 3.8295C10.6315 4.04048 10.75 4.32663 10.75 4.625V11.25C10.7467 11.481 10.7892 11.7105 10.875 11.925C10.9608 12.1395 11.0883 12.335 11.25 12.5ZM4.5 14.385C4.5 14.5508 4.43415 14.7097 4.31694 14.8269C4.19973 14.9442 4.04076 15.01 3.875 15.01C3.70924 15.01 3.55027 14.9442 3.43306 14.8269C3.31585 14.7097 3.25 14.5508 3.25 14.385V10.25H4.5V14.385ZM8.75 14.385C8.75 14.5508 8.68415 14.7097 8.56694 14.8269C8.44973 14.9442 8.29076 15.01 8.125 15.01C7.95924 15.01 7.80027 14.9442 7.68306 14.8269C7.56585 14.7097 7.5 14.5508 7.5 14.385V10.25H8.75V14.385Z" fill="black"/>
</svg>
