<svg width="16" height="16" viewBox="0 0 16 16" fill="none" xmlns="http://www.w3.org/2000/svg">
<g clip-path="url(#clip0_1_297)">
<rect width="16" height="16" fill="white"/>
<path d="M15.1729 0.83231C14.9102 0.568496 14.598 0.359174 14.2542 0.216348C13.9105 0.0735212 13.5419 0 13.1697 0C12.7975 0 12.429 0.0735212 12.0852 0.216348C11.7415 0.359174 11.4293 0.568496 11.1665 0.83231L9.83972 2.17411C9.80705 2.20725 9.77999 2.24548 9.75959 2.28731L1.06572 6.38582C0.866951 6.47871 0.685912 6.6056 0.530746 6.76077C0.279871 7.02009 0.1086 7.34597 0.0372531 7.69976C-0.0340942 8.05355 -0.00252293 8.42039 0.128221 8.75676C0.258965 9.09314 0.483393 9.38492 0.774881 9.59751C1.06637 9.81009 1.41268 9.93454 1.77273 9.9561C1.72267 10.2349 1.73444 10.5213 1.8072 10.7951C1.87997 11.0688 2.01196 11.3233 2.19384 11.5403C2.37572 11.7574 2.60304 11.9319 2.85972 12.0514C3.11641 12.1708 3.3962 12.2324 3.6793 12.2317C3.71465 12.2317 3.74764 12.2317 3.78299 12.2317C3.76788 12.4947 3.8067 12.758 3.89706 13.0055C3.98742 13.2529 4.12741 13.4792 4.30842 13.6705C4.48943 13.8618 4.70763 14.014 4.94961 14.1178C5.19159 14.2215 5.45223 14.2747 5.71549 14.2739C5.83082 14.273 5.94588 14.2627 6.05957 14.2433C6.08807 14.6568 6.25186 15.0493 6.52563 15.3604C6.7994 15.6714 7.16791 15.8836 7.57423 15.9641C7.98055 16.0446 8.40205 15.989 8.77362 15.8058C9.14519 15.6226 9.44614 15.3221 9.62997 14.9507L13.7283 6.24905C13.7679 6.22739 13.8044 6.20042 13.8367 6.16887L15.1706 4.83414C15.7012 4.30376 15.9996 3.58419 16 2.83371C16.0004 2.08323 15.7029 1.36331 15.1729 0.83231ZM11.8429 1.49967C12.2008 1.16889 12.6728 0.989586 13.1599 0.999365C13.6471 1.00914 14.1115 1.20724 14.4559 1.55213C14.8002 1.89702 14.9978 2.36191 15.0071 2.84935C15.0165 3.3368 14.8369 3.80893 14.506 4.16678L13.5067 5.169L12.1729 3.82484L10.839 2.49011L11.8429 1.49967ZM12.2011 7.28429C12.0739 7.17817 11.9466 7.06969 11.8217 6.95886L12.7031 5.69487L12.8704 5.86466L12.2011 7.28429ZM10.1555 11.6068C9.80672 11.3569 9.4485 11.0951 9.12092 10.8216L11.2773 7.73706C11.4446 7.88326 11.6143 8.02475 11.7816 8.16625L10.1555 11.6068ZM7.83652 4.22573C7.97556 4.39552 8.11932 4.56531 8.26544 4.73274L5.18288 6.89047C4.9095 6.54932 4.64869 6.20424 4.40045 5.85523L7.83652 4.22573ZM10.1367 3.14097L10.304 3.3084L9.04315 4.19036L8.71557 3.81069L10.1367 3.14097ZM12.022 5.02751L11.1147 6.33158C10.9827 6.20896 10.8531 6.09576 10.7258 5.95899L11.8429 4.83414L12.022 5.02751ZM11.1736 4.17621L10.0589 5.29398C9.93398 5.16428 9.80908 5.03458 9.68889 4.90489L10.9921 3.99463L11.1736 4.17621ZM8.90882 5.44962C9.06672 5.62177 9.22697 5.79156 9.39194 5.95899L6.71237 8.63081C6.39815 8.29752 6.0902 7.9603 5.78855 7.61915L8.90882 5.44962ZM10.0589 6.62871C10.2286 6.79379 10.3983 6.95414 10.5703 7.1145L8.3927 10.2249C8.04862 9.92466 7.71083 9.61574 7.37932 9.29817L10.0589 6.62871ZM0.926672 8.08607C0.927701 7.83976 1.02497 7.60363 1.19769 7.42814C1.27731 7.34952 1.3708 7.28635 1.47343 7.24184L3.54261 6.26555C3.8207 6.65937 4.11058 7.05083 4.41459 7.43285L2.58343 8.71334C2.54375 8.73977 2.50596 8.76893 2.47031 8.8006C2.33488 8.91288 2.17044 8.98448 1.99602 9.0071C1.8216 9.02972 1.64434 9.00243 1.48478 8.9284C1.32522 8.85437 1.18989 8.73662 1.09445 8.5888C0.999009 8.44098 0.947376 8.26912 0.945526 8.09314L0.926672 8.08607ZM2.85917 10.8664C2.71174 10.6479 2.65675 10.3799 2.70621 10.1209C2.75567 9.86198 2.90556 9.63316 3.12312 9.48447L5.00848 8.16153C5.33842 8.54591 5.68485 8.92558 6.04307 9.29817L4.21191 11.1352C3.99561 11.2747 3.73362 11.3246 3.48123 11.2744C3.22884 11.2243 3.00579 11.078 2.85917 10.8664ZM5.14752 13.1538C4.93532 13.0071 4.78874 12.7832 4.739 12.53C4.68926 12.2767 4.74028 12.014 4.88122 11.7978L6.71237 9.9561C7.08473 10.3169 7.46416 10.6636 7.85066 10.9937L6.52855 12.892C6.45469 12.9993 6.36041 13.091 6.2511 13.1617C6.14179 13.2325 6.0196 13.281 5.89153 13.3044C5.76347 13.3278 5.63204 13.3258 5.50477 13.2983C5.37751 13.2708 5.25691 13.2185 5.14988 13.1444L5.14752 13.1538ZM7.26856 14.8045C7.10395 14.6411 7.00639 14.422 6.99505 14.1903C6.98371 13.9586 7.05941 13.731 7.20728 13.5523C7.23792 13.5146 7.2662 13.4769 7.29448 13.4368L8.57888 11.6068C8.96302 11.9134 9.35188 12.2034 9.75723 12.4817L8.7792 14.5498C8.73224 14.6476 8.66931 14.7369 8.59302 14.814C8.41681 14.9892 8.17856 15.0878 7.93009 15.0883C7.68163 15.0887 7.44303 14.991 7.2662 14.8163L7.26856 14.8045Z" fill="black"/>
</g>
<defs>
<clipPath id="clip0_1_297">
<rect width="16" height="16" fill="white"/>
</clipPath>
</defs>
</svg>
