<svg width="16" height="16" viewBox="0 0 16 16" fill="none" xmlns="http://www.w3.org/2000/svg">
<g clip-path="url(#clip0_1_300)">
<rect width="16" height="16" fill="white"/>
<path d="M13.1613 0H2.83871C2.08584 0 1.3638 0.299077 0.831439 0.831439C0.299077 1.3638 0 2.08584 0 2.83871V13.1613C0 13.9142 0.299077 14.6362 0.831439 15.1686C1.3638 15.7009 2.08584 16 2.83871 16H13.1613C13.9142 16 14.6362 15.7009 15.1686 15.1686C15.7009 14.6362 16 13.9142 16 13.1613V2.83871C16 2.08584 15.7009 1.3638 15.1686 0.831439C14.6362 0.299077 13.9142 0 13.1613 0ZM14.4516 2.83871V7.22581H8.77419V1.54839H13.1613C13.5035 1.54839 13.8317 1.68433 14.0737 1.92631C14.3157 2.1683 14.4516 2.49649 14.4516 2.83871ZM2.83871 1.54839H7.22581V7.22581H1.54839V2.83871C1.54839 2.49649 1.68433 2.1683 1.92631 1.92631C2.1683 1.68433 2.49649 1.54839 2.83871 1.54839ZM1.54839 13.1613V8.77419H7.22581V14.4516H2.83871C2.49649 14.4516 2.1683 14.3157 1.92631 14.0737C1.68433 13.8317 1.54839 13.5035 1.54839 13.1613ZM13.1613 14.4516H8.77419V8.77419H14.4516V13.1613C14.4516 13.5035 14.3157 13.8317 14.0737 14.0737C13.8317 14.3157 13.5035 14.4516 13.1613 14.4516Z" fill="black"/>
<path d="M4.38747 5.1613C4.81505 5.1613 5.16167 4.81468 5.16167 4.38711C5.16167 3.95953 4.81505 3.61292 4.38747 3.61292C3.9599 3.61292 3.61328 3.95953 3.61328 4.38711C3.61328 4.81468 3.9599 5.1613 4.38747 5.1613Z" fill="black"/>
<path d="M11.6129 12.3871C12.0405 12.3871 12.3871 12.0405 12.3871 11.6129C12.3871 11.1853 12.0405 10.8387 11.6129 10.8387C11.1853 10.8387 10.8387 11.1853 10.8387 11.6129C10.8387 12.0405 11.1853 12.3871 11.6129 12.3871Z" fill="black"/>
</g>
<defs>
<clipPath id="clip0_1_300">
<rect width="16" height="16" fill="white"/>
</clipPath>
</defs>
</svg>
