<svg width="16" height="16" viewBox="0 0 16 16" fill="none" xmlns="http://www.w3.org/2000/svg">
<rect width="16" height="16" fill="white"/>
<path d="M5.41389 12.8027L3.24677 14.9762C3.14119 15.0807 3.08146 15.2229 3.08072 15.3714C3.07997 15.52 3.13827 15.6627 3.24279 15.7683C3.34731 15.8739 3.48949 15.9336 3.63805 15.9344C3.78661 15.9351 3.92938 15.8768 4.03496 15.7723L6.5285 13.2692C6.96835 13.4052 7.4216 13.4933 7.88036 13.5319V15.4427C7.88036 15.5905 7.93908 15.7323 8.04359 15.8368C8.14811 15.9413 8.28986 16 8.43766 16C8.58547 16 8.72722 15.9413 8.83174 15.8368C8.93625 15.7323 8.99497 15.5905 8.99497 15.4427V13.5319C9.4548 13.4935 9.90913 13.4054 10.35 13.2692L12.8436 15.7643C12.9491 15.8689 13.0919 15.9272 13.2405 15.9264C13.389 15.9257 13.5312 15.8659 13.6357 15.7604C13.7402 15.6548 13.7985 15.512 13.7978 15.3635C13.7971 15.2149 13.7373 15.0727 13.6317 14.9682L11.4646 12.8027C12.4963 12.2541 13.3594 11.4354 13.9616 10.4341C14.5637 9.43277 14.8823 8.28658 14.8833 7.11816C14.8833 6.97035 14.8246 6.8286 14.7201 6.72408C14.6155 6.61957 14.4738 6.56085 14.326 6.56085H11.006C11.2684 6.21788 11.4563 5.82385 11.5574 5.40404C11.6586 4.98422 11.6709 4.54789 11.5936 4.12304C11.4551 3.38421 10.9997 2.80621 10.5984 2.29667C10.5331 2.21387 10.4663 2.13744 10.4026 2.04668C10.0538 1.59129 9.66533 1.13748 9.32139 0.737814C9.15579 0.545146 9.00134 0.362031 8.86918 0.202801C8.80853 0.129235 8.73002 0.0724577 8.64117 0.0378991C8.55231 0.00334059 8.45607 -0.00784358 8.36165 0.00541614C8.26724 0.0186759 8.1778 0.055936 8.1019 0.113634C8.026 0.171331 7.96617 0.247536 7.92813 0.334962C7.90106 0.395469 7.86921 0.459161 7.83418 0.526038C7.58578 1.00373 7.1702 1.81739 7.82304 3.17562C7.86898 3.26936 7.92222 3.35933 7.98227 3.44472C8.08736 3.60395 8.12239 3.6565 8.11602 3.78707C8.11401 3.87224 8.08738 3.955 8.03934 4.02536C7.99131 4.09572 7.92392 4.15066 7.84533 4.18355C7.78282 4.21262 7.71326 4.22313 7.64495 4.21381C7.57664 4.2045 7.51244 4.17575 7.45999 4.131C7.22433 3.91923 7.20682 3.35874 7.41222 2.66768C7.45235 2.56249 7.45977 2.44764 7.43351 2.33816C7.40726 2.22868 7.34856 2.12968 7.26509 2.05413C7.18162 1.97858 7.07728 1.93 6.96574 1.91475C6.85419 1.8995 6.74064 1.91829 6.63996 1.96866C6.36927 2.10401 5.68458 2.89219 5.38364 3.85235C5.25394 4.24679 5.2075 4.66385 5.24724 5.07716C5.28698 5.49047 5.41204 5.89104 5.61452 6.25354C5.67784 6.36399 5.74804 6.47035 5.8247 6.572H2.5573C2.4095 6.572 2.26775 6.63071 2.16323 6.73523C2.05872 6.83974 2 6.9815 2 7.1293C2.0025 8.29535 2.32134 9.43887 2.92255 10.438C3.52376 11.4371 4.38479 12.2544 5.41389 12.8027ZM6.57945 5.69782C6.37604 5.33451 6.30194 4.91291 6.36927 4.50201C6.45526 4.67207 6.57185 4.82483 6.7132 4.95263C6.92128 5.1389 7.17816 5.26196 7.45371 5.30736C7.72926 5.35277 8.01204 5.31865 8.26888 5.20899C8.49007 5.11789 8.68724 4.97695 8.84504 4.79716C9.00284 4.61738 9.11701 4.40358 9.17864 4.17245C9.24028 3.94131 9.24773 3.69906 9.2004 3.46457C9.15308 3.23008 9.05226 3.00968 8.9058 2.82054C8.87799 2.78173 8.85247 2.74132 8.82937 2.69953C8.59849 2.22184 8.55868 1.88905 8.60486 1.61836C8.9058 1.96866 9.23222 2.3524 9.51884 2.73296C9.58571 2.82054 9.65418 2.90812 9.72424 2.99569C10.0777 3.44472 10.4105 3.86827 10.4997 4.338C10.573 4.74554 10.5173 5.16578 10.3405 5.54019C10.118 5.99696 9.74205 6.36104 9.2784 6.56881H7.55553C7.14864 6.38798 6.80887 6.08386 6.58423 5.69942L6.57945 5.69782ZM9.33572 7.67546H9.38508H9.4233H13.7352C13.6056 8.88769 13.0647 10.019 12.2025 10.8809C11.3403 11.7428 10.2088 12.2834 8.99656 12.4125V10.8855C8.99656 10.7377 8.93785 10.596 8.83333 10.4915C8.72882 10.3869 8.58706 10.3282 8.43926 10.3282C8.29145 10.3282 8.1497 10.3869 8.04518 10.4915C7.94067 10.596 7.88195 10.7377 7.88195 10.8855V12.4125C6.66968 12.2834 5.53824 11.7428 4.67603 10.8809C3.81382 10.019 3.27288 8.88769 3.14327 7.67546H9.33572Z" fill="black"/>
</svg>
