<svg width="16" height="16" viewBox="0 0 16 16" fill="none" xmlns="http://www.w3.org/2000/svg">
<rect width="16" height="16" fill="white"/>
<path d="M7.99974 3.52637C7.0837 3.52637 6.18823 3.798 5.42658 4.30693C4.66492 4.81585 4.07128 5.53921 3.72072 6.38552C3.37017 7.23183 3.27845 8.16308 3.45716 9.06152C3.63587 9.95996 4.07699 10.7852 4.72472 11.433C5.37246 12.0807 6.19773 12.5218 7.09617 12.7005C7.9946 12.8792 8.92586 12.7875 9.77217 12.437C10.6185 12.0864 11.3418 11.4928 11.8508 10.7311C12.3597 9.96945 12.6313 9.07398 12.6313 8.15794C12.6299 6.93002 12.1414 5.7528 11.2732 4.88452C10.4049 4.01625 9.22767 3.52782 7.99974 3.52637ZM7.99974 11.9474C7.25026 11.9474 6.5176 11.7252 5.89442 11.3088C5.27125 10.8924 4.78554 10.3005 4.49873 9.60811C4.21191 8.91568 4.13687 8.15374 4.28308 7.41865C4.4293 6.68357 4.79021 6.00835 5.32018 5.47838C5.85015 4.94842 6.52537 4.5875 7.26045 4.44129C7.99554 4.29507 8.75747 4.37011 9.44991 4.65693C10.1423 4.94374 10.7342 5.42945 11.1506 6.05263C11.567 6.6758 11.7892 7.40846 11.7892 8.15794C11.7881 9.16263 11.3885 10.1259 10.6781 10.8363C9.96765 11.5467 9.00443 11.9463 7.99974 11.9474Z" fill="black"/>
<path d="M15.5789 1.00005C14.9788 1.00078 14.3985 1.21515 13.942 1.60476C13.4855 1.99437 13.1826 2.53378 13.0876 3.12636C11.8852 1.90713 10.2847 1.16067 8.57786 1.02309C6.87103 0.885512 5.17161 1.36598 3.78948 2.37689V1.4211C3.78948 1.30943 3.74512 1.20233 3.66616 1.12337C3.5872 1.04441 3.4801 1.00005 3.36843 1.00005C3.25676 1.00005 3.14966 1.04441 3.0707 1.12337C2.99174 1.20233 2.94738 1.30943 2.94738 1.4211V4.15794H2.3158V1.4211C2.3158 1.30943 2.27144 1.20233 2.19248 1.12337C2.11351 1.04441 2.00642 1.00005 1.89475 1.00005C1.78308 1.00005 1.67598 1.04441 1.59702 1.12337C1.51805 1.20233 1.47369 1.30943 1.47369 1.4211V4.15794H0.842116V1.4211C0.842116 1.30943 0.797755 1.20233 0.718792 1.12337C0.639829 1.04441 0.532733 1.00005 0.421063 1.00005C0.309393 1.00005 0.202297 1.04441 0.123334 1.12337C0.0443717 1.20233 1.0858e-05 1.30943 1.0858e-05 1.4211V4.57899C-0.00104819 4.89011 0.0753802 5.19659 0.222398 5.47078C0.369416 5.74497 0.582396 5.97823 0.842116 6.14952V14.2632C0.842116 14.5424 0.953017 14.8101 1.15042 15.0075C1.34783 15.2049 1.61557 15.3158 1.89475 15.3158C2.17392 15.3158 2.44166 15.2049 2.63907 15.0075C2.83648 14.8101 2.94738 14.5424 2.94738 14.2632V13.2249C3.68973 13.9663 4.58616 14.5354 5.57307 14.8916C6.55997 15.2478 7.61317 15.3824 8.65795 15.286C9.70273 15.1895 10.7135 14.8644 11.6185 14.3335C12.5235 13.8027 13.3007 13.0792 13.8947 12.2144V14.2632C13.8947 14.5424 14.0056 14.8101 14.203 15.0075C14.4005 15.2049 14.6682 15.3158 14.9474 15.3158C15.2265 15.3158 15.4943 15.2049 15.6917 15.0075C15.8891 14.8101 16 14.5424 16 14.2632V1.4211C16 1.30943 15.9556 1.20233 15.8767 1.12337C15.7977 1.04441 15.6906 1.00005 15.5789 1.00005ZM2.10527 14.2632C2.10527 14.319 2.08309 14.3726 2.04361 14.4121C2.00413 14.4515 1.95058 14.4737 1.89475 14.4737C1.83891 14.4737 1.78536 14.4515 1.74588 14.4121C1.7064 14.3726 1.68422 14.319 1.68422 14.2632V5.90531C1.68403 5.82599 1.66145 5.74834 1.61906 5.6813C1.57667 5.61425 1.51621 5.56055 1.44464 5.52636C1.2155 5.4184 1.03286 5.23158 0.930116 5.00005H2.85938C2.75647 5.23126 2.57385 5.41776 2.34485 5.52552C2.27328 5.5597 2.21282 5.61341 2.17043 5.68046C2.12805 5.7475 2.10546 5.82515 2.10527 5.90447V14.2632ZM8.00001 14.4737C7.01946 14.4707 6.05295 14.2406 5.1763 13.8013C4.29966 13.362 3.53673 12.7256 2.94738 11.9419V6.14952C3.2071 5.97823 3.42008 5.74497 3.56709 5.47078C3.71411 5.19659 3.79054 4.89011 3.78948 4.57899V3.45773C4.94461 2.41655 6.4449 1.84089 8.00001 1.84215C8.98055 1.84513 9.94706 2.07529 10.8237 2.51456C11.7004 2.95383 12.4633 3.59027 13.0526 4.37394V8.67541C13.0527 8.87315 13.1313 9.06275 13.2712 9.20257C13.411 9.34239 13.6006 9.42098 13.7983 9.4211C13.8239 9.42121 13.8483 9.4314 13.8664 9.44946C13.8844 9.46752 13.8946 9.49198 13.8947 9.51752V10.4245C13.434 11.6144 12.6248 12.6375 11.5731 13.36C10.5213 14.0824 9.27599 14.4706 8.00001 14.4737ZM15.1579 14.2632C15.1579 14.319 15.1357 14.3726 15.0962 14.4121C15.0568 14.4515 15.0032 14.4737 14.9474 14.4737C14.8915 14.4737 14.838 14.4515 14.7985 14.4121C14.759 14.3726 14.7368 14.319 14.7368 14.2632V9.51752C14.7365 9.28539 14.6503 9.06159 14.4949 8.88924C14.3394 8.71689 14.1256 8.60817 13.8947 8.58404V3.52636C13.8952 3.15309 14.0194 2.7905 14.248 2.4954C14.4766 2.20031 14.7966 1.98936 15.1579 1.89563V14.2632Z" fill="black"/>
</svg>
