<svg width="16" height="16" viewBox="0 0 16 16" fill="none" xmlns="http://www.w3.org/2000/svg">
<g clip-path="url(#clip0_1_313)">
<rect width="16" height="16" fill="white"/>
<path d="M14.0535 16C13.5335 16 13.0445 15.7975 12.677 15.4295L11.159 13.8775C10.9245 13.6375 10.5965 13.5 10.261 13.5H5.7385C5.4025 13.5 5.0755 13.6375 4.8405 13.878L3.326 15.426C2.955 15.7975 2.4665 16 1.9465 16C0.873 16 0 15.127 0 14.0535C0.022 13.5295 0.0615 13.197 0.117 13.044L2.411 6.73547C2.6895 5.96897 3.4245 5.45447 4.24 5.45447H11.76C12.5755 5.45447 13.3105 5.96947 13.589 6.73547L15.883 13.0435C15.9945 13.402 16 13.948 16 14.0535C16 15.127 15.127 16 14.0535 16ZM5.739 12.5H10.2615C10.8645 12.5 11.4525 12.7475 11.8745 13.1785L13.3885 14.7265C13.5635 14.9015 13.801 15 14.054 15C14.5755 15 15 14.5755 15 14.0535C15 13.858 14.979 13.503 14.9355 13.363L12.6495 7.07747C12.514 6.70497 12.1565 6.45447 11.76 6.45447H4.24C3.8435 6.45447 3.486 6.70447 3.351 7.07747L1.057 13.3855C1.0395 13.4575 1.011 13.812 0.9995 14.075C1 14.5755 1.4245 15 1.9465 15C2.199 15 2.437 14.9015 2.6155 14.7225L4.126 13.1785C4.5475 12.7475 5.1355 12.5 5.739 12.5Z" fill="black"/>
<path d="M5.5 11.5C5.224 11.5 5 11.2765 5 11V8C5 7.724 5.224 7.5 5.5 7.5C5.776 7.5 6 7.724 6 8V11C6 11.2765 5.776 11.5 5.5 11.5Z" fill="black"/>
<path d="M7 10H4C3.724 10 3.5 9.7765 3.5 9.5C3.5 9.2235 3.724 9 4 9H7C7.276 9 7.5 9.2235 7.5 9.5C7.5 9.7765 7.276 10 7 10Z" fill="black"/>
<path d="M8 6.4545C7.724 6.4545 7.5 6.2305 7.5 5.9545V2.25C7.5 1.0095 8.5095 0 9.75 0C10.9905 0 12 1.0095 12 2.25C12 2.6635 12.3365 3 12.75 3H15.5C15.7765 3 16 3.224 16 3.5C16 3.776 15.7765 4 15.5 4H12.75C11.785 4 11 3.215 11 2.25C11 1.561 10.4395 1 9.75 1C9.0605 1 8.5 1.561 8.5 2.25V5.9545C8.5 6.2305 8.276 6.4545 8 6.4545Z" fill="black"/>
<path d="M10.5 8.49998C10.37 8.49998 10.2395 8.44498 10.145 8.35498C10.0545 8.25998 10 8.12998 10 7.99998C10 7.86998 10.0545 7.73998 10.145 7.64498C10.33 7.45998 10.67 7.45998 10.855 7.64498C10.945 7.73998 11 7.86998 11 7.99998C11 8.12998 10.945 8.25998 10.855 8.35498C10.76 8.44498 10.63 8.49998 10.5 8.49998Z" fill="black"/>
<path d="M12 9.49998C11.87 9.49998 11.7395 9.44497 11.645 9.35497C11.5545 9.25997 11.5 9.13498 11.5 8.99998C11.5 8.86448 11.5545 8.73948 11.645 8.64498C11.83 8.45998 12.165 8.45998 12.355 8.64498C12.445 8.73948 12.5 8.86448 12.5 8.99998C12.5 9.13498 12.445 9.25997 12.35 9.35497C12.26 9.44497 12.13 9.49998 12 9.49998Z" fill="black"/>
<path d="M9.5 9.99998C9.37 9.99998 9.2395 9.94497 9.145 9.85497C9.0545 9.75997 9 9.62998 9 9.49998C9 9.36998 9.0545 9.23948 9.145 9.14498C9.335 8.95998 9.665 8.95998 9.855 9.14498C9.945 9.23948 10 9.36998 10 9.49998C10 9.62998 9.945 9.75997 9.855 9.85497C9.76 9.94497 9.63 9.99998 9.5 9.99998Z" fill="black"/>
<path d="M11 11C10.87 11 10.7395 10.945 10.645 10.855C10.5545 10.76 10.5 10.63 10.5 10.5C10.5 10.37 10.5545 10.2395 10.645 10.145C10.835 9.95998 11.17 9.95998 11.355 10.145C11.445 10.2395 11.5 10.37 11.5 10.5C11.5 10.63 11.445 10.76 11.355 10.855C11.26 10.945 11.13 11 11 11Z" fill="black"/>
</g>
<defs>
<clipPath id="clip0_1_313">
<rect width="16" height="16" fill="white"/>
</clipPath>
</defs>
</svg>
