<svg width="16" height="16" viewBox="0 0 16 16" fill="none" xmlns="http://www.w3.org/2000/svg">
<g clip-path="url(#clip0_1_328)">
<rect width="16" height="16" fill="white"/>
<path fill-rule="evenodd" clip-rule="evenodd" d="M8.26667 12.2667C7.23627 12.2667 6.4 13.1029 6.4 14.1333C6.4 15.1637 7.23627 16 8.26667 16C9.29707 16 10.1333 15.1637 10.1333 14.1333C10.1333 13.1029 9.29707 12.2667 8.26667 12.2667ZM2.93333 12.2667C1.90293 12.2667 1.06667 13.1029 1.06667 14.1333C1.06667 15.1637 1.90293 16 2.93333 16C3.96373 16 4.8 15.1637 4.8 14.1333C4.8 13.1029 3.96373 12.2667 2.93333 12.2667ZM8.26667 13.3333C8.70827 13.3333 9.06667 13.6917 9.06667 14.1333C9.06667 14.5749 8.70827 14.9333 8.26667 14.9333C7.82507 14.9333 7.46667 14.5749 7.46667 14.1333C7.46667 13.6917 7.82507 13.3333 8.26667 13.3333ZM2.93333 13.3333C3.37493 13.3333 3.73333 13.6917 3.73333 14.1333C3.73333 14.5749 3.37493 14.9333 2.93333 14.9333C2.49173 14.9333 2.13333 14.5749 2.13333 14.1333C2.13333 13.6917 2.49173 13.3333 2.93333 13.3333ZM10.6667 6.4C10.6667 5.97547 10.4981 5.56853 10.1979 5.2688C9.89813 4.96853 9.4912 4.8 9.06667 4.8C7.21973 4.8 3.44693 4.8 1.6 4.8C1.17547 4.8 0.768532 4.96853 0.468799 5.2688C0.168532 5.56853 0 5.97547 0 6.4C0 7.3296 0 8.6704 0 9.6C0 10.0245 0.168532 10.4315 0.468799 10.7312C0.768532 11.0315 1.17547 11.2 1.6 11.2C3.44693 11.2 7.21973 11.2 9.06667 11.2C9.4912 11.2 9.89813 11.0315 10.1979 10.7312C10.4981 10.4315 10.6667 10.0245 10.6667 9.6V6.4ZM9.6 6.4V9.6C9.6 9.74133 9.544 9.87733 9.44373 9.97707C9.344 10.0773 9.208 10.1333 9.06667 10.1333H1.6C1.45867 10.1333 1.32267 10.0773 1.22293 9.97707C1.12267 9.87733 1.06667 9.74133 1.06667 9.6V6.4C1.06667 6.25867 1.12267 6.12267 1.22293 6.02293C1.32267 5.92267 1.45867 5.86667 1.6 5.86667H9.06667C9.208 5.86667 9.344 5.92267 9.44373 6.02293C9.544 6.12267 9.6 6.25867 9.6 6.4ZM13.6 6.13333C12.5696 6.13333 11.7333 6.9696 11.7333 8C11.7333 9.0304 12.5696 9.86667 13.6 9.86667C14.6304 9.86667 15.4667 9.0304 15.4667 8C15.4667 6.9696 14.6304 6.13333 13.6 6.13333ZM13.6 7.2C14.0416 7.2 14.4 7.5584 14.4 8C14.4 8.4416 14.0416 8.8 13.6 8.8C13.1584 8.8 12.8 8.4416 12.8 8C12.8 7.5584 13.1584 7.2 13.6 7.2ZM8.26667 0C7.23627 0 6.4 0.836267 6.4 1.86667C6.4 2.89707 7.23627 3.73333 8.26667 3.73333C9.29707 3.73333 10.1333 2.89707 10.1333 1.86667C10.1333 0.836267 9.29707 0 8.26667 0ZM2.93333 0C1.90293 0 1.06667 0.836267 1.06667 1.86667C1.06667 2.89707 1.90293 3.73333 2.93333 3.73333C3.96373 3.73333 4.8 2.89707 4.8 1.86667C4.8 0.836267 3.96373 0 2.93333 0ZM8.26667 1.06667C8.70827 1.06667 9.06667 1.42507 9.06667 1.86667C9.06667 2.30827 8.70827 2.66667 8.26667 2.66667C7.82507 2.66667 7.46667 2.30827 7.46667 1.86667C7.46667 1.42507 7.82507 1.06667 8.26667 1.06667ZM2.93333 1.06667C3.37493 1.06667 3.73333 1.42507 3.73333 1.86667C3.73333 2.30827 3.37493 2.66667 2.93333 2.66667C2.49173 2.66667 2.13333 2.30827 2.13333 1.86667C2.13333 1.42507 2.49173 1.06667 2.93333 1.06667Z" fill="black"/>
</g>
<defs>
<clipPath id="clip0_1_328">
<rect width="16" height="16" fill="white"/>
</clipPath>
</defs>
</svg>
