<svg width="16" height="16" viewBox="0 0 16 16" fill="none" xmlns="http://www.w3.org/2000/svg">
<rect width="16" height="16" fill="white"/>
<path fill-rule="evenodd" clip-rule="evenodd" d="M7.78975 1C4.92457 1 2.60193 3.32265 2.60193 6.18778C2.60193 9.05295 4.92457 11.3756 7.78975 11.3756C10.6548 11.3756 12.9775 9.05295 12.9775 6.18778C12.9775 3.32265 10.6548 1 7.78975 1ZM6.20952 2.30089C6.69722 2.10241 7.23067 1.99305 7.78975 1.99305C9.1639 1.99305 10.3837 2.65385 11.1489 3.67503L9.84418 4.42829C9.80972 4.38967 9.76864 4.3558 9.72137 4.32847L6.20952 2.30089ZM8.87617 4.9872L5.43018 2.99764C5.36033 2.95731 5.30397 2.90257 5.26272 2.83934C4.94774 3.07744 4.66731 3.35898 4.43059 3.67503L7.78975 5.61444L8.87617 4.9872ZM7.29314 6.4744L6.01753 5.73793V9.75293C6.01753 9.82991 6.00004 9.90273 5.96881 9.96775C6.37774 10.1651 6.8236 10.2981 7.29314 10.3534V6.4744ZM3.9333 4.53464L5.06046 5.18539C5.03729 5.24276 5.02447 5.30549 5.02447 5.37118V9.34213C4.14821 8.57331 3.59498 7.44514 3.59498 6.18778C3.59498 5.60077 3.71556 5.04194 3.9333 4.53464ZM8.28619 10.3534C10.167 10.1316 11.6667 8.66566 11.94 6.80118L8.46282 8.80868C8.40663 8.8411 8.34671 8.8613 8.28619 8.87013V10.3534ZM8.28619 7.76393L11.7609 5.75779C11.8227 5.72215 11.889 5.70127 11.9557 5.69405C11.908 5.2869 11.8019 4.89757 11.6461 4.53464L8.28619 6.47449V7.76393Z" fill="black"/>
<path d="M15.9608 13.0654C16.0674 12.8127 15.9491 12.5215 15.6964 12.4148C15.4439 12.3083 15.1528 12.4264 15.046 12.6788L15.0461 12.6788C15.0122 12.7595 14.9727 12.838 14.9328 12.9158C14.8563 13.0652 14.7468 13.2608 14.6133 13.4535C14.4777 13.649 14.3295 13.8234 14.1798 13.9445C14.0281 14.0672 13.9143 14.1041 13.8359 14.1041C13.7889 14.1041 13.7592 14.0966 13.7024 14.0242C13.6243 13.9247 13.5579 13.776 13.4597 13.5433L13.4491 13.5182C13.3658 13.3205 13.2523 13.0512 13.0836 12.836C12.8863 12.5844 12.5904 12.3757 12.1685 12.3757C11.7465 12.3757 11.4506 12.5844 11.2534 12.836C11.0847 13.0512 10.9713 13.3205 10.888 13.5182L10.8878 13.5184C10.8843 13.5268 10.8808 13.5352 10.8774 13.5433C10.7792 13.776 10.7127 13.9247 10.6346 14.0242C10.5779 14.0966 10.5481 14.1041 10.5011 14.1041C10.4541 14.1041 10.4243 14.0966 10.3676 14.0242C10.2895 13.9247 10.223 13.776 10.1249 13.5433C10.1214 13.5351 10.1178 13.5267 10.1143 13.5182C10.0309 13.3205 9.91743 13.0512 9.74878 12.836C9.55153 12.5844 9.25565 12.3757 8.83373 12.3757C8.41172 12.3757 8.11584 12.5844 7.91859 12.836C7.74994 13.0512 7.63646 13.3205 7.55311 13.5182L7.54259 13.5433C7.44439 13.776 7.37784 13.9247 7.29984 14.0242C7.24306 14.0966 7.21327 14.1041 7.16624 14.1041C7.11931 14.1041 7.08952 14.0966 7.03273 14.0242C6.95473 13.9247 6.88819 13.776 6.78999 13.5433L6.77938 13.5182C6.69611 13.3205 6.58263 13.0512 6.41399 12.836C6.21673 12.5844 5.92085 12.3757 5.49885 12.3757C5.07693 12.3757 4.78105 12.5844 4.58379 12.836C4.41514 13.0512 4.30158 13.3205 4.21832 13.5182L4.21696 13.5215C4.21382 13.5289 4.21076 13.5362 4.20771 13.5433C4.10959 13.776 4.04305 13.9247 3.96496 14.0242C3.90826 14.0966 3.87847 14.1041 3.83145 14.1041C3.78451 14.1041 3.75472 14.0966 3.69795 14.0242C3.61989 13.9247 3.55338 13.776 3.45521 13.5433L3.44461 13.5182C3.36132 13.3205 3.24784 13.0512 3.07914 12.836C2.88189 12.5844 2.58601 12.3757 2.16406 12.3757C1.77355 12.3757 1.44445 12.5549 1.19558 12.7563C0.944698 12.9593 0.734672 13.217 0.570639 13.4535C0.404587 13.6929 0.272995 13.9293 0.183433 14.1041C0.13232 14.2037 0.0842803 14.3049 0.0392109 14.4075C-0.0674279 14.6601 0.0509235 14.9514 0.303558 15.058C0.55604 15.1646 0.84709 15.0465 0.953899 14.7941C0.988418 14.7137 1.02724 14.6349 1.06717 14.557C1.14371 14.4077 1.25312 14.212 1.38668 14.0194C1.52227 13.8238 1.67049 13.6494 1.82017 13.5284C1.97186 13.4056 2.08564 13.3688 2.16406 13.3688C2.21104 13.3688 2.24081 13.3762 2.29759 13.4487C2.37565 13.5482 2.44215 13.6969 2.54032 13.9295C2.5438 13.9377 2.54734 13.9461 2.55093 13.9547C2.63422 14.1523 2.7477 14.4216 2.91639 14.6369C3.11364 14.8885 3.40952 15.0971 3.83145 15.0971C4.25345 15.0971 4.54933 14.8885 4.74659 14.6369C4.91524 14.4216 5.02872 14.1523 5.11198 13.9547C5.11563 13.9461 5.11911 13.9377 5.12259 13.9295C5.22079 13.6969 5.28733 13.5482 5.36534 13.4487C5.42212 13.3762 5.45191 13.3688 5.49885 13.3688C5.54587 13.3688 5.57566 13.3762 5.63244 13.4487C5.71044 13.5482 5.77699 13.6969 5.8751 13.9295L5.88571 13.9547C5.96906 14.1523 6.08254 14.4216 6.25119 14.6369C6.44844 14.8885 6.74432 15.0971 7.16624 15.0971C7.58825 15.0971 7.88413 14.8885 8.08138 14.6369C8.25003 14.4216 8.36351 14.1523 8.44686 13.9547C8.45043 13.9461 8.45399 13.9377 8.45747 13.9295C8.55559 13.6969 8.62213 13.5482 8.70013 13.4487C8.75692 13.3762 8.78671 13.3688 8.83373 13.3688C8.88066 13.3688 8.91046 13.3762 8.96724 13.4487C9.04524 13.5482 9.11178 13.6969 9.20999 13.9295L9.2206 13.9547C9.30386 14.1523 9.41734 14.4216 9.58599 14.6369C9.78324 14.8885 10.0791 15.0971 10.5011 15.0971C10.923 15.0971 11.2189 14.8885 11.4162 14.6369C11.5849 14.4216 11.6984 14.1523 11.7817 13.9547C11.7852 13.9461 11.7888 13.9377 11.7923 13.9295C11.8904 13.6969 11.9569 13.5482 12.035 13.4487C12.0917 13.3762 12.1215 13.3688 12.1685 13.3688C12.2155 13.3688 12.2453 13.3762 12.302 13.4487C12.3801 13.5482 12.4466 13.6969 12.5448 13.9295C12.5483 13.9377 12.5517 13.9461 12.5554 13.9547C12.6387 14.1523 12.7521 14.4216 12.9209 14.6369C13.1181 14.8885 13.414 15.0971 13.8359 15.0971C14.2264 15.0971 14.5555 14.9179 14.8044 14.7166C15.0553 14.5136 15.2653 14.2559 15.4293 14.0194C15.5954 13.7799 15.727 13.5436 15.8165 13.3688C15.8165 13.3688 15.9634 13.066 15.9608 13.0654Z" fill="black"/>
</svg>
