<svg width="16" height="16" viewBox="0 0 16 16" fill="none" xmlns="http://www.w3.org/2000/svg">
<g clip-path="url(#clip0_1_337)">
<rect width="16" height="16" fill="white"/>
<path d="M15.4729 0.195129H0.527435C0.439351 0.195129 0.354874 0.230121 0.292589 0.292406C0.230304 0.354691 0.195313 0.439168 0.195312 0.527252V15.4728C0.195313 15.5608 0.230304 15.6453 0.292589 15.7076C0.354874 15.7699 0.439351 15.8049 0.527435 15.8049H15.4729C15.561 15.8049 15.6455 15.7699 15.7078 15.7076C15.7701 15.6453 15.8051 15.5608 15.8051 15.4728V0.527252C15.8051 0.439168 15.7701 0.354691 15.7078 0.292406C15.6455 0.230121 15.561 0.195129 15.4729 0.195129ZM15.1408 5.17697H5.84139V0.859374H15.1408V5.17697ZM10.159 10.1588H5.84139V5.84121H10.159V10.1588ZM0.859557 0.859374H5.17715V10.1588H0.859557V0.859374ZM0.859557 10.823H10.159V15.1406H0.859557V10.823ZM15.1408 15.1406H10.8232V5.84121H15.1408V15.1406Z" fill="black"/>
<path fill-rule="evenodd" clip-rule="evenodd" d="M0.527244 0H15.4728C15.6126 0 15.7467 0.0555487 15.8456 0.154426C15.9445 0.253304 16 0.387411 16 0.527244V15.4728C16 15.6126 15.9445 15.7467 15.8456 15.8456C15.7467 15.9445 15.6126 16 15.4728 16H0.527244C0.387411 16 0.253304 15.9445 0.154426 15.8456C0.0555487 15.7467 0 15.6126 0 15.4728V0.527244C0 0.387411 0.0555488 0.253304 0.154426 0.154426C0.253304 0.0555488 0.387411 0 0.527244 0ZM6.03633 4.98184H14.9455V1.05449H6.03633V4.98184ZM6.03633 9.96367H9.96367V6.03633H6.03633V9.96367ZM4.98184 1.05449H1.05449V9.96367H4.98184V1.05449ZM9.96367 11.0182H1.05449V14.9455H9.96367V11.0182ZM11.0182 14.9455H14.9455V6.03633H11.0182V14.9455ZM0.527244 0.195122H15.4728C15.5608 0.195122 15.6453 0.230113 15.7076 0.292398C15.7699 0.354683 15.8049 0.43916 15.8049 0.527244V15.4728C15.8049 15.5608 15.7699 15.6453 15.7076 15.7076C15.6453 15.7699 15.5608 15.8049 15.4728 15.8049H0.527244C0.43916 15.8049 0.354683 15.7699 0.292398 15.7076C0.230113 15.6453 0.195122 15.5608 0.195122 15.4728V0.527244C0.195122 0.43916 0.230113 0.354683 0.292398 0.292398C0.354683 0.230113 0.43916 0.195122 0.527244 0.195122ZM15.1406 5.17696V0.859367H5.8412V5.17696H15.1406ZM10.1588 10.1588V5.8412H5.8412V10.1588H10.1588ZM0.859367 0.859367V10.1588H5.17696V0.859367H0.859367ZM0.859367 10.823V15.1406H10.1588V10.823H0.859367ZM15.1406 15.1406V5.8412H10.823V15.1406H15.1406Z" fill="black"/>
</g>
<defs>
<clipPath id="clip0_1_337">
<rect width="16" height="16" fill="white"/>
</clipPath>
</defs>
</svg>
