<svg width="16" height="16" viewBox="0 0 16 16" fill="none" xmlns="http://www.w3.org/2000/svg">
<g clip-path="url(#clip0_1_342)">
<rect width="16" height="16" fill="white"/>
<path d="M4.47134 8.70588H11.5302C11.6919 8.70588 11.8422 8.7889 11.9284 8.92574L15.9284 15.2787C16.1257 15.5921 15.9005 16 15.5302 16H0.471341C0.101022 16 -0.124192 15.5921 0.0731188 15.2787L4.07312 8.92574C4.15927 8.7889 4.30964 8.70588 4.47134 8.70588ZM3.39781 11.7647H7.53017V9.64706H4.73114L3.39781 11.7647ZM2.80521 12.7059L1.32374 15.0588H7.53017V12.7059H2.80521ZM12.6037 11.7647L11.2704 9.64706H8.47134V11.7647H12.6037ZM13.1963 12.7059H8.47134V15.0588H14.6778L13.1963 12.7059ZM0.941929 0H3.76546C4.28526 0 4.70664 0.421379 4.70664 0.941176V5.64706C4.70664 6.16686 4.28526 6.58824 3.76546 6.58824H0.941929C0.422132 6.58824 0.000752664 6.16686 0.000752664 5.64706V0.941176C0.000752664 0.421379 0.422132 0 0.941929 0ZM0.941929 0.941176V5.64706H3.76546V0.941176H0.941929ZM12.236 0H15.0596C15.5794 0 16.0008 0.421379 16.0008 0.941176V5.64706C16.0008 6.16686 15.5794 6.58824 15.0596 6.58824H12.236C11.7163 6.58824 11.2949 6.16686 11.2949 5.64706V0.941176C11.2949 0.421379 11.7163 0 12.236 0ZM12.236 0.941176V5.64706H15.0596V0.941176H12.236ZM2.35369 2.82353C2.0938 2.82353 1.88311 2.61284 1.88311 2.35294C1.88311 2.09304 2.0938 1.88235 2.35369 1.88235C2.61359 1.88235 2.82428 2.09304 2.82428 2.35294C2.82428 2.61284 2.61359 2.82353 2.35369 2.82353ZM2.35369 4.94118C1.96385 4.94118 1.64781 4.62514 1.64781 4.23529C1.64781 3.84545 1.96385 3.52941 2.35369 3.52941C2.74354 3.52941 3.05958 3.84545 3.05958 4.23529C3.05958 4.62514 2.74354 4.94118 2.35369 4.94118ZM13.6478 2.82353C13.3879 2.82353 13.1772 2.61284 13.1772 2.35294C13.1772 2.09304 13.3879 1.88235 13.6478 1.88235C13.9077 1.88235 14.1184 2.09304 14.1184 2.35294C14.1184 2.61284 13.9077 2.82353 13.6478 2.82353ZM13.6478 4.94118C13.258 4.94118 12.9419 4.62514 12.9419 4.23529C12.9419 3.84545 13.258 3.52941 13.6478 3.52941C14.0377 3.52941 14.3537 3.84545 14.3537 4.23529C14.3537 4.62514 14.0377 4.94118 13.6478 4.94118Z" fill="black"/>
</g>
<defs>
<clipPath id="clip0_1_342">
<rect width="16" height="16" fill="white"/>
</clipPath>
</defs>
</svg>
