<svg width="16" height="16" viewBox="0 0 16 16" fill="none" xmlns="http://www.w3.org/2000/svg">
<rect width="16" height="16" fill="white"/>
<path d="M13.3077 0H3.46154C2.10431 0 1 1.10431 1 2.46154C1 3.81877 2.10431 4.92308 3.46154 4.92308C4.60646 4.92308 5.57108 4.13754 5.84523 3.07692H5.92308V12.3077H4.69231C4.35262 12.3077 4.07692 12.5834 4.07692 12.9231V15.3846C4.07692 15.7243 4.35262 16 4.69231 16H12.0769C12.4166 16 12.6923 15.7243 12.6923 15.3846V12.9231C12.6923 12.5834 12.4166 12.3077 12.0769 12.3077H10.8462V3.07692H10.924C11.1982 4.13754 12.1628 4.92308 13.3077 4.92308C14.6649 4.92308 15.7692 3.81877 15.7692 2.46154C15.7692 1.10431 14.6649 0 13.3077 0ZM7.15385 3.07692H7.76923V12.3077H7.15385V3.07692ZM11.4615 14.7692H5.30769V13.5385H11.4615V14.7692ZM9.61539 12.3077H9V3.07692H9.61539V12.3077ZM13.3077 3.69231C12.6289 3.69231 12.0769 3.14031 12.0769 2.46154C12.0769 2.12185 11.8012 1.84615 11.4615 1.84615H5.30769C4.968 1.84615 4.69231 2.12185 4.69231 2.46154C4.69231 3.14031 4.14031 3.69231 3.46154 3.69231C2.78277 3.69231 2.23077 3.14031 2.23077 2.46154C2.23077 1.78277 2.78277 1.23077 3.46154 1.23077H13.3077C13.9865 1.23077 14.5385 1.78277 14.5385 2.46154C14.5385 3.14031 13.9865 3.69231 13.3077 3.69231Z" fill="black"/>
</svg>
