<svg width="16" height="16" viewBox="0 0 16 16" fill="none" xmlns="http://www.w3.org/2000/svg">
<g clip-path="url(#clip0_1_347)">
<rect width="16" height="16" fill="white"/>
<path d="M14.4763 3.04744H1.52374C1.11963 3.04744 0.732063 2.8869 0.44631 2.60115C0.160557 2.3154 2.28882e-05 1.92783 2.28882e-05 1.52372C2.28882e-05 1.1196 0.160557 0.73204 0.44631 0.446287C0.732063 0.160534 1.11963 0 1.52374 0H14.4763C14.8804 0 15.268 0.160534 15.5537 0.446287C15.8395 0.73204 16 1.1196 16 1.52372C16 1.92783 15.8395 2.3154 15.5537 2.60115C15.268 2.8869 14.8804 3.04744 14.4763 3.04744ZM1.52374 1.05474C1.39936 1.05474 1.28007 1.10415 1.19212 1.1921C1.10417 1.28005 1.05476 1.39934 1.05476 1.52372C1.05476 1.6481 1.10417 1.76739 1.19212 1.85534C1.28007 1.94329 1.39936 1.9927 1.52374 1.9927H14.4763C14.5379 1.9927 14.5989 1.98057 14.6558 1.957C14.7127 1.93343 14.7644 1.89889 14.8079 1.85534C14.8515 1.81179 14.886 1.76009 14.9096 1.70319C14.9332 1.64629 14.9453 1.58531 14.9453 1.52372C14.9453 1.46213 14.9332 1.40115 14.9096 1.34425C14.886 1.28735 14.8515 1.23565 14.8079 1.1921C14.7644 1.14855 14.7127 1.114 14.6558 1.09044C14.5989 1.06687 14.5379 1.05474 14.4763 1.05474H1.52374Z" fill="black"/>
<path d="M5.01096 16C3.77882 15.9996 2.58998 15.5455 1.67145 14.7242C0.752929 13.9029 0.169082 12.7721 0.0314024 11.5477C-0.106277 10.3233 0.211857 9.09102 0.925055 8.08627C1.63825 7.08153 2.69654 6.37468 3.89783 6.10069C4.03382 6.07094 4.17606 6.09614 4.29355 6.17081C4.41104 6.24547 4.49426 6.36354 4.52507 6.49929C4.55588 6.63505 4.53179 6.77748 4.45805 6.89555C4.38431 7.01362 4.26689 7.09775 4.13138 7.12962C3.40504 7.29501 2.74013 7.66206 2.21314 8.18856C1.68614 8.71505 1.31845 9.3796 1.15236 10.1058C0.986277 10.832 1.02854 11.5903 1.27428 12.2935C1.52003 12.9967 1.95928 13.6163 2.54151 14.081C3.12374 14.5457 3.82532 14.8366 4.56553 14.9202C5.30575 15.0039 6.05455 14.8769 6.72581 14.5539C7.39707 14.2309 7.96353 13.725 8.36004 13.0944C8.75654 12.4637 8.96698 11.734 8.96717 10.989C8.96276 10.0936 8.65676 9.22568 8.09856 8.52546C7.54036 7.82523 6.76251 7.33351 5.89054 7.12962C5.75503 7.09775 5.63761 7.01362 5.56386 6.89555C5.49012 6.77748 5.46603 6.63505 5.49684 6.49929C5.52766 6.36354 5.61087 6.24547 5.72836 6.17081C5.84585 6.09614 5.98809 6.07094 6.12408 6.10069C7.32537 6.37468 8.38366 7.08153 9.09686 8.08627C9.81006 9.09102 10.1282 10.3233 9.99051 11.5477C9.85283 12.7721 9.26898 13.9029 8.35046 14.7242C7.43194 15.5455 6.2431 15.9996 5.01096 16Z" fill="black"/>
<path d="M5.01134 14.0073C4.31572 14.0073 3.64147 13.767 3.10263 13.327C2.56379 12.8871 2.19344 12.2745 2.05423 11.593C1.91502 10.9114 2.01549 10.2027 2.33864 9.58672C2.66179 8.97071 3.1878 8.48523 3.82768 8.21239C3.89147 8.18456 3.96014 8.16964 4.02974 8.16847C4.09933 8.1673 4.16846 8.17992 4.23315 8.2056C4.29784 8.23127 4.35681 8.26949 4.40667 8.31806C4.45652 8.36664 4.49626 8.42459 4.52361 8.48859C4.55096 8.55259 4.56538 8.62138 4.56602 8.69097C4.56667 8.76057 4.55353 8.82961 4.52737 8.89411C4.50121 8.9586 4.46255 9.01729 4.41361 9.06677C4.36467 9.11626 4.30641 9.15557 4.24221 9.18244C3.82576 9.35974 3.48335 9.67546 3.27293 10.0762C3.06251 10.4769 2.99699 10.938 3.08746 11.3815C3.17794 11.825 3.41885 12.2236 3.76943 12.5099C4.12001 12.7962 4.55872 12.9525 5.01134 12.9525C5.46396 12.9525 5.90268 12.7962 6.25326 12.5099C6.60384 12.2236 6.84475 11.825 6.93522 11.3815C7.0257 10.938 6.96018 10.4769 6.74975 10.0762C6.53933 9.67546 6.19692 9.35974 5.78047 9.18244C5.71627 9.15557 5.65802 9.11626 5.60908 9.06677C5.56013 9.01729 5.52147 8.9586 5.49531 8.89411C5.46915 8.82961 5.45602 8.76057 5.45666 8.69097C5.45731 8.62138 5.47172 8.55259 5.49907 8.48859C5.52642 8.42459 5.56617 8.36664 5.61602 8.31806C5.66587 8.26949 5.72484 8.23127 5.78953 8.2056C5.85423 8.17992 5.92336 8.1673 5.99295 8.16847C6.06254 8.16964 6.13121 8.18456 6.19501 8.21239C6.83489 8.48523 7.36089 8.97071 7.68405 9.58672C8.0072 10.2027 8.10767 10.9114 7.96845 11.593C7.82924 12.2745 7.45889 12.8871 6.92006 13.327C6.38122 13.767 5.70696 14.0073 5.01134 14.0073Z" fill="black"/>
<path d="M5.01095 6.03647C4.94168 6.03649 4.8731 6.02287 4.8091 5.99637C4.74511 5.96988 4.68696 5.93104 4.63798 5.88206C4.58901 5.83308 4.55016 5.77494 4.52367 5.71094C4.49717 5.64695 4.48355 5.57836 4.48358 5.5091V2.52004C4.48358 2.38018 4.53914 2.24604 4.63804 2.14714C4.73694 2.04824 4.87108 1.99268 5.01095 1.99268C5.15081 1.99268 5.28495 2.04824 5.38385 2.14714C5.48275 2.24604 5.53831 2.38018 5.53831 2.52004V5.5091C5.53834 5.57836 5.52472 5.64695 5.49822 5.71094C5.47173 5.77494 5.43289 5.83308 5.38391 5.88206C5.33493 5.93104 5.27679 5.96988 5.21279 5.99637C5.1488 6.02287 5.08021 6.03649 5.01095 6.03647Z" fill="black"/>
<path d="M5.01095 10.0219C4.60697 10.0214 4.21968 9.86075 3.93403 9.57509C3.64837 9.28944 3.48769 8.90214 3.48723 8.49817V6.50547C3.48723 6.10135 3.64776 5.71379 3.93352 5.42804C4.21927 5.14228 4.60683 4.98175 5.01095 4.98175C5.41506 4.98175 5.80263 5.14228 6.08838 5.42804C6.37413 5.71379 6.53467 6.10135 6.53467 6.50547V8.49817C6.53421 8.90214 6.37352 9.28944 6.08787 9.57509C5.80222 9.86075 5.41492 10.0214 5.01095 10.0219ZM5.01095 6.03649C4.88661 6.03665 4.76742 6.08611 4.6795 6.17402C4.59158 6.26194 4.54212 6.38114 4.54197 6.50547V8.49817C4.54197 8.62255 4.59138 8.74184 4.67933 8.82979C4.76728 8.91774 4.88657 8.96715 5.01095 8.96715C5.13533 8.96715 5.25462 8.91774 5.34257 8.82979C5.43052 8.74184 5.47993 8.62255 5.47993 8.49817V6.50547C5.47977 6.38114 5.43031 6.26194 5.34239 6.17402C5.25448 6.08611 5.13528 6.03665 5.01095 6.03649Z" fill="black"/>
<path d="M8.00022 8.1737C7.89334 8.17374 7.78896 8.14131 7.70092 8.08069C7.61289 8.02007 7.54535 7.93414 7.50726 7.83427C7.46916 7.7344 7.46232 7.62532 7.48762 7.52147C7.51293 7.41762 7.56919 7.32392 7.64896 7.25277C8.28257 6.68877 9.04761 6.29283 9.87396 6.10124C10.0103 6.06968 10.1535 6.09358 10.2722 6.16766C10.391 6.24174 10.4754 6.35994 10.5069 6.49626C10.5385 6.63258 10.5146 6.77585 10.4405 6.89456C10.3664 7.01326 10.2482 7.09767 10.1119 7.12922C9.45806 7.2805 8.85273 7.59364 8.35148 8.03988C8.25493 8.12631 8.12981 8.17398 8.00022 8.1737Z" fill="black"/>
<path d="M10.9889 16C9.75494 16.0009 8.56436 15.5446 7.64718 14.719C7.59512 14.6729 7.55272 14.6168 7.52241 14.5542C7.49209 14.4916 7.47447 14.4236 7.47055 14.3541C7.46663 14.2847 7.47649 14.2151 7.49957 14.1495C7.52264 14.0839 7.55848 14.0234 7.60501 13.9717C7.65153 13.92 7.70784 13.878 7.77067 13.8481C7.8335 13.8182 7.90163 13.8011 7.97111 13.7976C8.0406 13.7942 8.11008 13.8046 8.17556 13.8281C8.24103 13.8516 8.30119 13.8879 8.35259 13.9348C8.92119 14.4448 9.6254 14.7792 10.38 14.8975C11.1347 15.0158 11.9074 14.9129 12.6048 14.6013C13.3022 14.2897 13.8944 13.7827 14.3097 13.1416C14.7251 12.5006 14.9458 11.7529 14.9451 10.989C14.9407 10.0935 14.6347 9.22567 14.0765 8.52545C13.5183 7.82522 12.7405 7.3335 11.8685 7.12961C11.8005 7.11473 11.7361 7.08654 11.679 7.04665C11.622 7.00676 11.5733 6.95596 11.536 6.8972C11.4987 6.83843 11.4733 6.77286 11.4614 6.70425C11.4496 6.63564 11.4514 6.56536 11.4668 6.49746C11.4822 6.42956 11.5109 6.36538 11.5512 6.30863C11.5916 6.25187 11.6427 6.20366 11.7018 6.16678C11.7608 6.12989 11.8266 6.10506 11.8953 6.09372C11.964 6.08237 12.0343 6.08474 12.1021 6.10068C13.3033 6.37467 14.3616 7.08152 15.0748 8.08626C15.788 9.09101 16.1062 10.3232 15.9685 11.5477C15.8308 12.7721 15.247 13.9029 14.3284 14.7242C13.4099 15.5454 12.2211 15.9996 10.9889 16Z" fill="black"/>
<path d="M9.16126 9.82268C9.0583 9.8227 8.95759 9.79258 8.87155 9.73604C8.78551 9.6795 8.71789 9.59902 8.67705 9.50451C8.63621 9.41 8.62393 9.3056 8.64172 9.20419C8.65951 9.10278 8.70659 9.0088 8.77716 8.93384C9.06628 8.62551 9.4159 8.38014 9.80415 8.21308C9.9326 8.15766 10.0778 8.15553 10.2078 8.20718C10.3378 8.25882 10.442 8.35999 10.4974 8.48844C10.5529 8.61689 10.555 8.7621 10.5033 8.89212C10.4517 9.02213 10.3505 9.12631 10.2221 9.18173C9.9662 9.29181 9.73582 9.45354 9.54535 9.65679C9.49609 9.70926 9.43658 9.75105 9.37051 9.77959C9.30445 9.80812 9.23322 9.82279 9.16126 9.82268Z" fill="black"/>
<path d="M10.9895 14.0073C10.573 14.0069 10.161 13.9203 9.77958 13.753C9.39813 13.5857 9.05543 13.3412 8.77304 13.035C8.67834 12.932 8.62841 12.7957 8.63425 12.6559C8.64009 12.5161 8.70121 12.3844 8.80418 12.2897C8.90714 12.195 9.04351 12.1451 9.18329 12.1509C9.32306 12.1567 9.45479 12.2179 9.5495 12.3208C9.74816 12.5359 9.99241 12.7037 10.2644 12.8121C10.5363 12.9206 10.8291 12.9668 11.1212 12.9474C11.4133 12.928 11.6974 12.8435 11.9526 12.7001C12.2078 12.5567 12.4278 12.3581 12.5963 12.1187C12.7648 11.8793 12.8776 11.6052 12.9265 11.3166C12.9754 11.0279 12.959 10.732 12.8787 10.4504C12.7984 10.1689 12.6562 9.90892 12.4624 9.6895C12.2685 9.47008 12.0281 9.29678 11.7587 9.18232C11.6945 9.15545 11.6362 9.11614 11.5873 9.06665C11.5383 9.01716 11.4997 8.95848 11.4735 8.89398C11.4473 8.82949 11.4342 8.76045 11.4348 8.69085C11.4355 8.62125 11.4499 8.55247 11.4773 8.48847C11.5046 8.42447 11.5443 8.36651 11.5942 8.31794C11.6441 8.26937 11.703 8.23115 11.7677 8.20547C11.8324 8.1798 11.9015 8.16718 11.9711 8.16835C12.0407 8.16951 12.1094 8.18444 12.1732 8.21227C12.8131 8.48507 13.3392 8.97055 13.6624 9.58658C13.9856 10.2026 14.0861 10.9114 13.9469 11.593C13.8077 12.2745 13.4373 12.8871 12.8984 13.3271C12.3595 13.767 11.6852 14.0073 10.9895 14.0073Z" fill="black"/>
<path d="M10.9886 10.0219C10.5846 10.0214 10.1973 9.86075 9.91164 9.57509C9.62599 9.28944 9.46531 8.90214 9.46484 8.49817V6.50547C9.46484 6.10135 9.62538 5.71379 9.91113 5.42804C10.1969 5.14228 10.5844 4.98175 10.9886 4.98175C11.3927 4.98175 11.7802 5.14228 12.066 5.42804C12.3517 5.71379 12.5123 6.10135 12.5123 6.50547V8.49817C12.5118 8.90214 12.3511 9.28944 12.0655 9.57509C11.7798 9.86075 11.3925 10.0214 10.9886 10.0219ZM10.9886 6.03649C10.8642 6.03665 10.745 6.08611 10.6571 6.17402C10.5692 6.26194 10.5197 6.38114 10.5196 6.50547V8.49817C10.5196 8.62255 10.569 8.74184 10.6569 8.82979C10.7449 8.91774 10.8642 8.96715 10.9886 8.96715C11.1129 8.96715 11.2322 8.91774 11.3202 8.82979C11.4081 8.74184 11.4575 8.62255 11.4575 8.49817V6.50547C11.4574 6.38114 11.4079 6.26194 11.32 6.17402C11.2321 6.08611 11.1129 6.03665 10.9886 6.03649Z" fill="black"/>
<path d="M10.989 6.03647C10.9198 6.03649 10.8512 6.02287 10.7872 5.99637C10.7232 5.96988 10.6651 5.93104 10.6161 5.88206C10.5671 5.83308 10.5283 5.77494 10.5018 5.71094C10.4753 5.64695 10.4617 5.57836 10.4617 5.5091V2.52004C10.4617 2.38018 10.5172 2.24604 10.6161 2.14714C10.715 2.04824 10.8492 1.99268 10.989 1.99268C11.1289 1.99268 11.2631 2.04824 11.362 2.14714C11.4609 2.24604 11.5164 2.38018 11.5164 2.52004V5.5091C11.5164 5.57836 11.5028 5.64695 11.4763 5.71094C11.4498 5.77494 11.411 5.83308 11.362 5.88206C11.313 5.93104 11.2549 5.96988 11.1909 5.99637C11.1269 6.02287 11.0583 6.03649 10.989 6.03647Z" fill="black"/>
</g>
<defs>
<clipPath id="clip0_1_347">
<rect width="16" height="16" fill="white"/>
</clipPath>
</defs>
</svg>
