<svg width="16" height="16" viewBox="0 0 16 16" fill="none" xmlns="http://www.w3.org/2000/svg">
<g clip-path="url(#clip0_2017_2)">
<rect width="16" height="16" fill="white"/>
<path d="M15.4667 3.15543H10.7573C10.8546 3.00055 10.9384 2.83762 11.008 2.6684C11.44 1.54985 11.1253 0.420602 10.288 0.0887841C9.45067 -0.243034 8.45867 0.383139 8.02667 1.50169L8 1.58197C8 1.58197 8 1.54985 8 1.50169C7.54133 0.383139 6.544 -0.237682 5.70667 0.0887841C4.86933 0.41525 4.56 1.54985 4.992 2.6684C5.06157 2.83762 5.14543 3.00055 5.24267 3.15543H0.533333C0.391885 3.15543 0.256229 3.21181 0.15621 3.31218C0.0561903 3.41255 0 3.54868 0 3.69062V6.90176C0 7.0437 0.0561903 7.17983 0.15621 7.2802C0.256229 7.38056 0.391885 7.43695 0.533333 7.43695H1.06667V15.4648C1.06667 15.6068 1.12286 15.7429 1.22288 15.8432C1.3229 15.9436 1.45855 16 1.6 16H14.4C14.5414 16 14.6771 15.9436 14.7771 15.8432C14.8771 15.7429 14.9333 15.6068 14.9333 15.4648V7.43695H15.4667C15.6081 7.43695 15.7438 7.38056 15.8438 7.2802C15.9438 7.17983 16 7.0437 16 6.90176V3.69062C16 3.54868 15.9438 3.41255 15.8438 3.31218C15.7438 3.21181 15.6081 3.15543 15.4667 3.15543ZM9.01867 1.89238C9.22667 1.35719 9.6 1.07353 9.824 1.07353C9.85031 1.06737 9.87769 1.06737 9.904 1.07353C10.1067 1.15381 10.2507 1.65689 10.0107 2.26166C9.77067 2.86642 9.33333 3.15543 9.12533 3.0805C8.91733 3.00557 8.77867 2.49714 9.01867 1.89238ZM6.096 1.08959C6.12231 1.08343 6.14969 1.08343 6.176 1.08959C6.4 1.08959 6.77333 1.36789 6.98133 1.90843C7.18933 2.44897 7.07733 3.01628 6.87467 3.09656C6.672 3.17683 6.224 2.90389 5.98933 2.29377C5.75467 1.68365 5.89333 1.16987 6.096 1.08959ZM1.06667 4.22581H7.46667V6.36657H1.06667V4.22581ZM2.13333 7.43695H7.46667V14.9296H2.13333V7.43695ZM13.8667 14.9296H8.53333V7.43695H13.8667V14.9296ZM14.9333 6.36657H8.53333V4.22581H14.9333V6.36657Z" fill="black"/>
</g>
<defs>
<clipPath id="clip0_2017_2">
<rect width="16" height="16" fill="white"/>
</clipPath>
</defs>
</svg>
