<svg width="16" height="16" viewBox="0 0 16 16" fill="none" xmlns="http://www.w3.org/2000/svg">
<rect width="16" height="16" fill="white"/>
<path d="M13.8636 9.63924C13.2475 7.78102 12.1119 6.94849 11.0363 6.14259C11.469 5.74162 11.7688 5.21799 11.8956 4.64185C12.0224 4.0657 11.97 3.46458 11.7456 2.91901C11.9281 2.75959 12.0736 2.56226 12.1719 2.34079C12.2703 2.11933 12.3191 1.87907 12.315 1.63679C12.3108 1.39451 12.2539 1.15605 12.1481 0.938056C12.0423 0.72006 11.8902 0.527783 11.7024 0.374648C11.5146 0.221514 11.2957 0.111212 11.0608 0.0514446C10.826 -0.00832311 10.581 -0.0161168 10.3428 0.0286077C10.1047 0.0733321 9.87913 0.169497 9.68199 0.310388C9.48484 0.45128 9.32083 0.633502 9.20139 0.844335C8.39604 0.631153 7.54909 0.631153 6.74374 0.844335C6.6243 0.633502 6.46028 0.45128 6.26314 0.310388C6.06599 0.169497 5.84047 0.0733321 5.60232 0.0286077C5.36417 -0.0161168 5.11913 -0.00832311 4.8843 0.0514446C4.64947 0.111212 4.43052 0.221514 4.24273 0.374648C4.05494 0.527783 3.90283 0.72006 3.79703 0.938056C3.69123 1.15605 3.63428 1.39451 3.63017 1.63679C3.62605 1.87907 3.67487 2.11933 3.7732 2.34079C3.87154 2.56226 4.01703 2.75959 4.19951 2.91901C3.97508 3.46458 3.92275 4.0657 4.04953 4.64185C4.1763 5.21799 4.47613 5.74162 4.90883 6.14259C4.11293 6.73869 3.55679 7.10833 2.93406 7.97417C0.69287 11.0546 3.00732 12.5698 4.43262 11.8038C4.4771 12.0174 4.53949 12.2268 4.61911 12.4299C4.32688 12.5279 4.07409 12.7176 3.8983 12.9708C3.72251 13.224 3.63311 13.5272 3.64338 13.8352C3.64338 15.5236 5.79798 16.6592 6.88027 15.5736C7.13639 15.3164 7.28824 14.9736 7.30653 14.6111C7.74751 14.6846 8.19761 14.6846 8.63859 14.6111C8.65465 14.9718 8.8042 15.3136 9.05819 15.5702C10.1671 16.6658 12.3017 15.497 12.3017 13.8352C12.3115 13.5273 12.2219 13.2244 12.0462 12.9713C11.8704 12.7182 11.6179 12.5284 11.326 12.4299C11.4056 12.2268 11.468 12.0174 11.5125 11.8038C12.8412 12.5165 14.3897 11.2577 13.8636 9.63924ZM10.6367 0.681158C10.826 0.680629 11.0117 0.733932 11.1719 0.834853C11.3321 0.935774 11.4604 1.08016 11.5417 1.25117C11.623 1.42219 11.6541 1.6128 11.6312 1.80078C11.6083 1.98877 11.5325 2.16638 11.4126 2.31293C11.01 1.76689 10.4699 1.33718 9.84743 1.06745C9.94084 0.947167 10.0605 0.849827 10.1973 0.782875C10.3341 0.715923 10.4844 0.681131 10.6367 0.681158ZM5.30845 0.681158C5.79132 0.681158 6.13099 1.05413 6.08104 1.07744C5.46462 1.34497 4.93026 1.77131 4.53252 2.31293C4.41259 2.16638 4.33678 1.98877 4.31392 1.80078C4.29106 1.6128 4.3221 1.42219 4.40343 1.25117C4.48475 1.08016 4.613 0.935774 4.77323 0.834853C4.93346 0.733932 5.11908 0.680629 5.30845 0.681158ZM4.9055 2.9723C6.32747 0.291531 11.3027 1.15071 11.3027 4.0113C11.3027 5.94944 8.78512 7.2149 6.6405 6.45229C4.99874 5.87618 4.18286 4.34431 4.9055 2.9723ZM2.71427 9.84571C3.07108 8.78224 3.74371 7.85287 4.64242 7.1816C5.51159 6.51557 5.425 6.57884 5.4583 6.60215C5.59244 6.69186 5.7314 6.77413 5.87457 6.84858C4.71568 7.87427 4.2095 9.56265 4.32273 11.0779C3.56012 11.7739 2.3313 11.0046 2.71427 9.84571ZM6.41072 15.1007C5.97115 15.5336 5.21853 15.3138 4.77562 14.8676C3.94642 14.0384 4.28276 12.8062 5.38504 13.0327C6.41072 13.2425 6.99683 14.5212 6.41072 15.1007ZM7.21329 13.9151C7.07799 13.4986 6.8271 13.129 6.48985 12.8496C6.15261 12.5701 5.7429 12.3922 5.30845 12.3367C4.5958 10.7782 5.04204 8.21394 6.59721 7.12498C7.49604 7.3981 8.45574 7.3981 9.35457 7.12498C10.5501 7.96085 11.0996 9.64923 10.9464 11.1511C10.9206 11.5626 10.8154 11.9651 10.6367 12.3367C10.2042 12.3937 9.79644 12.5709 9.45971 12.8482C9.12297 13.1255 8.87079 13.4917 8.73183 13.9052C8.23273 14.0217 7.71388 14.0251 7.21329 13.9151ZM11.6357 13.8352C11.6357 14.9442 10.1838 15.7534 9.5344 15.1007C9.20139 14.7677 9.20138 14.0317 9.77084 13.4689C10.5235 12.713 11.6357 12.9128 11.6357 13.8352ZM11.6357 11.0712C11.7489 9.546 11.2361 7.86094 10.0839 6.84192C10.2276 6.76843 10.3666 6.68613 10.5001 6.59549C10.5334 6.57218 10.4535 6.52556 11.316 7.17494C12.2137 7.84725 12.886 8.77626 13.2442 9.83905C13.6138 11.0046 12.3817 11.7739 11.6357 11.0712Z" fill="black"/>
<path d="M7.30652 6.00938H8.63858C8.7269 6.00938 8.81161 5.9743 8.87406 5.91185C8.93651 5.84939 8.9716 5.76469 8.9716 5.67637C8.9716 5.58805 8.93651 5.50334 8.87406 5.44089C8.81161 5.37844 8.7269 5.34335 8.63858 5.34335H8.30557V4.81386L8.54201 4.58075C8.58897 4.53417 8.621 4.47466 8.63401 4.40981C8.64702 4.34496 8.64043 4.2777 8.61506 4.21661C8.5897 4.15552 8.54671 4.10337 8.49159 4.0668C8.43647 4.03023 8.37171 4.01091 8.30557 4.0113H7.63954C7.57379 4.01163 7.50962 4.03141 7.4551 4.06815C7.40057 4.10489 7.35815 4.15695 7.33317 4.21777C7.22993 4.46087 7.41642 4.59074 7.63954 4.81386V5.34335H7.30652C7.2182 5.34335 7.1335 5.37844 7.07105 5.44089C7.0086 5.50334 6.97351 5.58805 6.97351 5.67637C6.97351 5.76469 7.0086 5.84939 7.07105 5.91185C7.1335 5.9743 7.2182 6.00938 7.30652 6.00938Z" fill="black"/>
<path fill-rule="evenodd" clip-rule="evenodd" d="M7.97254 8.67351C8.15646 8.67351 8.30555 8.8226 8.30555 9.00652V11.6706C8.30555 11.8546 8.15646 12.0036 7.97254 12.0036C7.78862 12.0036 7.63953 11.8546 7.63953 11.6706V9.00652C7.63953 8.8226 7.78862 8.67351 7.97254 8.67351Z" fill="black"/>
<path fill-rule="evenodd" clip-rule="evenodd" d="M6.3075 10.3386C6.3075 10.1547 6.45659 10.0056 6.64051 10.0056H9.30462C9.48854 10.0056 9.63764 10.1547 9.63764 10.3386C9.63764 10.5225 9.48854 10.6716 9.30462 10.6716H6.64051C6.45659 10.6716 6.3075 10.5225 6.3075 10.3386Z" fill="black"/>
</svg>
