<svg width="16" height="16" viewBox="0 0 16 16" fill="none" xmlns="http://www.w3.org/2000/svg">
<g clip-path="url(#clip0_2013_2)">
<rect width="16" height="16" fill="white"/>
<path d="M10.7153 9.36228C10.6909 9.26476 10.6179 9.216 10.5205 9.19162L8.91321 8.94781L8.207 7.48497C8.15829 7.41183 8.08523 7.33868 7.98783 7.33868C7.89042 7.33868 7.81736 7.38745 7.76866 7.48497L7.06244 8.94781L5.4552 9.19162C5.35779 9.216 5.28473 9.26476 5.26038 9.36228C5.23603 9.45981 5.26038 9.55733 5.33344 9.60609L6.50234 10.7276L6.23447 12.3367C6.21011 12.5318 6.40493 12.6781 6.59975 12.6049L8.03653 11.8491C9.54637 12.6293 9.44896 12.6293 9.59507 12.6293C9.78989 12.6293 9.8873 12.4586 9.81424 12.288L9.54637 10.7276L10.7153 9.60609C10.7153 9.55733 10.7396 9.45981 10.7153 9.36228ZM9.05932 10.4838C9.01062 10.5326 8.98626 10.6301 8.98626 10.7032L9.20543 11.9466L8.08523 11.3615C8.01218 11.3127 7.93912 11.3127 7.86606 11.3615L6.77022 11.9466L6.98939 10.7032C7.01374 10.6301 6.96503 10.5326 6.91633 10.4838L6.0153 9.60609L7.25726 9.43543C7.33032 9.43543 7.40337 9.36228 7.45208 9.31352L8.01218 8.19201L8.57228 9.31352C8.59663 9.38666 8.66969 9.43543 8.7671 9.43543L10.0091 9.60609L9.05932 10.4838Z" fill="black"/>
<path fill-rule="evenodd" clip-rule="evenodd" d="M10.5589 9.00008L10.5678 9.00233C10.7035 9.03629 10.8561 9.12078 10.9046 9.315C10.9239 9.39238 10.9227 9.46447 10.919 9.51635C10.9174 9.53904 10.9151 9.56044 10.9133 9.57607C10.9131 9.57823 10.9129 9.58027 10.9127 9.58219C10.9105 9.60182 10.9104 9.60633 10.9104 9.60608V9.68928L9.7562 10.7967L10.0031 12.235C10.0513 12.3651 10.0437 12.5078 9.97107 12.6252C9.89239 12.7525 9.75306 12.8244 9.59507 12.8244L9.59189 12.8244C9.55307 12.8244 9.50435 12.8245 9.43806 12.8014C9.38582 12.7832 9.32285 12.7506 9.23529 12.7039C9.19831 12.6841 9.15462 12.6606 9.1023 12.6323C8.90467 12.5256 8.58397 12.3524 8.03727 12.0692L6.67977 12.7833L6.66833 12.7876C6.3508 12.9068 5.99641 12.6685 6.04085 12.3125L6.04183 12.3047L6.29296 10.7971L5.20863 9.75674C5.05929 9.64541 5.03546 9.45759 5.07107 9.315C5.11957 9.12078 5.27213 9.03629 5.40782 9.00233L5.41679 9.00008L6.93145 8.77032L7.59407 7.39777C7.62998 7.32588 7.68084 7.26022 7.75165 7.21295C7.8237 7.16487 7.90493 7.14355 7.98782 7.14355C8.18892 7.14355 8.31289 7.29195 8.3694 7.37681L8.37686 7.38801L9.04419 8.77032L10.5589 9.00008ZM8.91321 8.9478L8.20699 7.48496C8.15829 7.41182 8.08523 7.33868 7.98782 7.33868C7.89041 7.33868 7.81736 7.38744 7.76865 7.48496L7.06244 8.9478L5.4552 9.19161C5.35779 9.21599 5.28473 9.26475 5.26038 9.36228C5.23603 9.4598 5.26038 9.55732 5.33343 9.60608L6.50234 10.7276L6.23447 12.3367C6.21011 12.5318 6.40493 12.6781 6.59975 12.6049L8.03653 11.8491C9.35637 12.5311 9.44802 12.6169 9.54779 12.6277C9.56215 12.6293 9.57668 12.6293 9.59507 12.6293C9.78989 12.6293 9.88729 12.4586 9.81424 12.288L9.54636 10.7276L10.7153 9.60608C10.7153 9.59239 10.7172 9.57486 10.7194 9.55456C10.7251 9.50256 10.7328 9.43242 10.7153 9.36228C10.6909 9.26475 10.6179 9.21599 10.5205 9.19161L8.91321 8.9478ZM8.92689 10.3405L9.57325 9.74315L8.75193 9.63029C8.59985 9.62528 8.45156 9.54484 8.39264 9.39053L8.01218 8.62872L7.6125 9.42901L7.59013 9.45141C7.58928 9.45225 7.58842 9.45312 7.58753 9.45401C7.56433 9.47726 7.52471 9.51695 7.47865 9.55049C7.43643 9.58123 7.36462 9.6252 7.27386 9.63009L6.43755 9.74501L7.05439 10.3459C7.09875 10.3903 7.13776 10.4503 7.1624 10.5144C7.18468 10.5724 7.20414 10.6578 7.17964 10.7479L7.03197 11.5857L7.76683 11.1933C7.8269 11.1552 7.89733 11.1298 7.97565 11.1298C8.0536 11.1298 8.12373 11.1549 8.18362 11.1927L8.94447 11.5902L8.79114 10.7203V10.7032C8.79114 10.6471 8.80017 10.5851 8.81802 10.527C8.83501 10.4717 8.86562 10.4016 8.92127 10.3459L8.92689 10.3405ZM9.20543 11.9466L8.08523 11.3615C8.01218 11.3127 7.93912 11.3127 7.86606 11.3615L6.77021 11.9466L6.98938 10.7032C7.01374 10.6301 6.96503 10.5326 6.91633 10.4838L6.0153 9.60608L7.25726 9.43542C7.33031 9.43542 7.40337 9.36228 7.45207 9.31352L8.01218 8.192L8.57228 9.31352C8.59663 9.38666 8.66968 9.43542 8.76709 9.43542L10.0091 9.60608L9.05932 10.4838C9.01062 10.5326 8.98626 10.6301 8.98626 10.7032L9.20543 11.9466Z" fill="black"/>
<path d="M15.537 0.195129C13.8567 0.195129 2.92257 0.195129 0.438644 0.195129C0.292531 0.195129 0.195122 0.292652 0.195122 0.438937V10.4107C0.195122 11.6541 0.195122 13.0438 0.195122 14.4822C0.195122 15.2137 0.779574 15.7988 1.51014 15.7988C1.94848 15.7988 2.36247 15.5794 2.63034 15.1893C2.87386 15.555 3.3122 15.7988 3.79925 15.7988C3.8723 15.7988 3.94536 15.7988 4.01842 15.7744C4.04277 15.7744 4.06712 15.7988 4.09147 15.7988C12.4686 15.7988 11.9085 15.8232 11.9816 15.7744C12.5417 15.8476 13.0774 15.6037 13.3697 15.1649C13.6132 15.555 14.0272 15.7744 14.4899 15.7744C15.2204 15.7744 15.8049 15.1893 15.8049 14.4578V12.7268V10.3863V0.438937C15.7805 0.292652 15.6831 0.195129 15.537 0.195129ZM12.5904 0.682744C12.6634 4.58366 13.2966 8.46019 14.4412 9.99618C11.9085 9.14285 9.96035 5.36384 9.76553 0.682744H12.5904ZM3.38526 0.682744H6.21011C6.03965 5.36384 4.06712 9.14285 1.53449 9.99618C2.67905 8.46019 3.3122 4.58366 3.38526 0.682744ZM0.682166 0.682744H2.89822C2.80081 5.94898 1.72931 9.60609 0.682166 10.1181V0.682744ZM1.51014 15.3112C1.04745 15.3112 0.682166 14.9455 0.682166 14.4822C0.682166 13.507 0.682166 11.6297 0.682166 10.7276C1.55884 11.1665 2.09459 13.3851 2.31376 14.3359C2.41117 14.8479 2.02154 15.3112 1.51014 15.3112ZM3.79925 15.3112C3.33655 15.3112 2.94692 14.9698 2.84951 14.531C2.63034 13.4095 2.192 11.7516 1.51014 10.8495C2.7034 11.264 3.79925 12.3123 4.65157 13.8971C4.9925 14.531 4.52981 15.3112 3.79925 15.3112ZM4.87074 15.3112C5.30908 14.8236 5.35779 14.1897 5.08991 13.6777C4.21323 12.0198 3.04433 10.8983 1.77801 10.4107C4.48111 9.43542 6.52669 5.51013 6.69716 0.682744H9.27849C9.44895 5.51013 11.4945 9.43542 14.1976 10.4107C12.9313 10.8739 11.7624 12.0198 10.8857 13.6777C10.6179 14.1897 10.6666 14.8236 11.1049 15.3112H4.87074ZM13.1261 14.531C12.9557 15.4087 11.7868 15.6037 11.3241 14.8479C11.1536 14.5554 11.1293 14.214 11.2997 13.9215C12.152 12.3367 13.2479 11.264 14.4412 10.8739C13.7836 11.7516 13.3453 13.4095 13.1261 14.531ZM15.2935 12.7512V14.4822C15.2935 15.6037 13.3453 15.7013 13.7349 13.9946C13.9298 13.0925 14.4655 11.1421 15.2935 10.7032V12.7512ZM15.2935 10.1181C14.2463 9.63047 13.1748 5.97336 13.0774 0.682744H15.2935V10.1181Z" fill="black"/>
<path fill-rule="evenodd" clip-rule="evenodd" d="M15.8049 0.438929V14.4578C15.8049 15.1893 15.2204 15.7744 14.4899 15.7744C14.0974 15.7744 13.7399 15.6165 13.4919 15.3305C13.4475 15.2793 13.4066 15.2241 13.3697 15.1649C13.3314 15.2224 13.2889 15.2765 13.2428 15.327C12.9366 15.6622 12.4683 15.838 11.9816 15.7744C11.9761 15.778 11.9742 15.7813 11.9718 15.7841C11.9424 15.8197 11.8448 15.7988 4.09147 15.7988C4.0793 15.7988 4.06712 15.7927 4.05494 15.7866C4.04277 15.7805 4.03059 15.7744 4.01842 15.7744C3.94536 15.7988 3.8723 15.7988 3.79925 15.7988C3.38715 15.7988 3.00993 15.6242 2.75607 15.349C2.70991 15.2989 2.66782 15.2455 2.63034 15.1893C2.59122 15.2462 2.54897 15.2996 2.50399 15.3491C2.24101 15.6388 1.88446 15.7988 1.51014 15.7988C0.779575 15.7988 0.195122 15.2136 0.195122 14.4822V0.438929C0.195122 0.292645 0.292531 0.195122 0.438644 0.195122H15.537C15.6831 0.195122 15.7805 0.292645 15.8049 0.438929ZM2.63021 15.5C2.33364 15.8162 1.93344 15.9939 1.51014 15.9939C0.671596 15.9939 0 15.3212 0 14.4822V0.438929C0 0.321515 0.0399379 0.208476 0.124038 0.124278C0.208158 0.0400591 0.321178 0 0.438644 0H15.537C15.656 0 15.7655 0.0408272 15.8498 0.119602C15.9324 0.196783 15.9795 0.299564 15.9973 0.406888L16 0.422799V14.4578C16 15.2968 15.3284 15.9695 14.4899 15.9695C14.0534 15.9695 13.6504 15.7969 13.3652 15.4818C13.0302 15.834 12.5377 16.0216 12.025 15.9755C12.0033 15.983 11.984 15.9862 11.972 15.9879C11.9524 15.9907 11.9302 15.9924 11.906 15.9936C11.811 15.9985 11.6059 16 11.1506 16C10.8583 16 10.4605 15.9994 9.91853 15.9985C9.61055 15.9981 9.25603 15.9975 8.84788 15.997C7.72128 15.9954 6.18566 15.9939 4.09147 15.9939C4.05528 15.9939 4.02591 15.9854 4.00745 15.9787C3.93074 15.994 3.85976 15.994 3.8074 15.9939L3.79925 15.9939C3.34229 15.9939 2.92072 15.8046 2.63021 15.5ZM10.8857 13.6777C11.7012 12.1355 12.7696 11.0363 13.934 10.5175C14.0214 10.4786 14.1093 10.443 14.1976 10.4106C14.1089 10.3786 14.0208 10.3434 13.9335 10.3051C11.3622 9.17659 9.44336 5.35157 9.27849 0.682736H6.69716C6.53221 5.35383 4.6116 9.1803 2.03845 10.3067C1.95236 10.3444 1.86553 10.3791 1.77801 10.4106C1.86467 10.444 1.95088 10.4804 2.03656 10.5196C3.20295 11.0543 4.27323 12.1332 5.08991 13.6777C5.32328 14.1237 5.31638 14.6623 5.02088 15.116C4.9772 15.1831 4.9272 15.2484 4.87074 15.3112H11.1049C11.0484 15.2484 10.9985 15.1831 10.9548 15.116C10.6593 14.6623 10.6524 14.1237 10.8857 13.6777ZM10.7273 15.116C10.4567 14.6256 10.4654 14.0601 10.7128 13.5872C11.506 12.0872 12.5451 10.9791 13.6994 10.412C12.4687 9.81621 11.4069 8.63335 10.6145 7.07991C9.75203 5.38916 9.19867 3.24166 9.09109 0.877858H6.88455C6.77698 3.24166 6.22362 5.38916 5.36113 7.07991C4.56732 8.63606 3.50325 9.82033 2.26978 10.4151C3.4246 10.9934 4.46629 12.0809 5.2624 13.5864C5.50983 14.0594 5.51895 14.6256 5.24838 15.116H10.7273ZM12.9346 14.4936C13.0453 13.9274 13.2115 13.2242 13.434 12.5499C13.5795 12.1086 13.7513 11.6729 13.9509 11.2942C13.0303 11.78 12.1728 12.71 11.4716 14.0139L11.4684 14.0198C11.3393 14.2414 11.3515 14.5062 11.4916 14.7479C11.8651 15.3547 12.7994 15.1901 12.9346 14.4936ZM11.3241 14.8479C11.1536 14.5554 11.1293 14.214 11.2997 13.9215C12.0755 12.479 13.053 11.4608 14.1222 10.9954C14.2276 10.9494 14.334 10.9089 14.4412 10.8739C14.3773 10.9592 14.3154 11.0518 14.2557 11.1506C13.7005 12.0687 13.324 13.5184 13.1261 14.531C12.9557 15.4087 11.7868 15.6037 11.3241 14.8479ZM13.9257 14.0358L13.9252 14.038C13.8351 14.4324 13.8871 14.6908 13.9815 14.8482C14.0745 15.0034 14.2239 15.0866 14.3897 15.1051C14.7358 15.1436 15.0984 14.9043 15.0984 14.4822V11.1106C15.0288 11.1876 14.9595 11.2787 14.8912 11.3828C14.7312 11.6267 14.5861 11.9269 14.458 12.2476C14.2018 12.8889 14.0219 13.5904 13.9257 14.0358ZM15.0984 10.838C15.1615 10.7841 15.2265 10.7387 15.2935 10.7032V14.4822C15.2935 15.6037 13.3453 15.7013 13.7349 13.9946C13.914 13.1655 14.3811 11.4507 15.0984 10.838ZM12.3993 0.877858H9.97008C10.0883 3.11381 10.6111 5.12597 11.4008 6.68678C12.0879 8.04503 12.9685 9.04584 13.9462 9.56894C13.5115 8.74678 13.172 7.58894 12.9222 6.26241C12.6195 4.65488 12.4437 2.77234 12.3993 0.877858ZM14.2535 9.71621C13.2274 8.0255 12.6593 4.36498 12.5904 0.682736H9.76553C9.76825 0.747954 9.7713 0.812996 9.77469 0.877858C10.0043 5.26958 11.7798 8.83348 14.1197 9.87088C14.2257 9.91788 14.3329 9.9597 14.4412 9.99617C14.377 9.91007 14.3144 9.81661 14.2535 9.71621ZM3.57631 0.877858C3.53196 2.77234 3.35617 4.65488 3.05344 6.26241C2.8036 7.58911 2.46407 8.74707 2.02931 9.56925C3.00883 9.04611 3.89436 8.04494 4.58414 6.68652C5.37671 5.12568 5.89957 3.11355 6.0066 0.877858H3.57631ZM6.20194 0.877858C5.99399 5.26969 4.19777 8.83366 1.8559 9.87095C1.74985 9.91792 1.64268 9.95972 1.53449 9.99617C1.59864 9.91008 1.66119 9.81664 1.72211 9.71626C2.74826 8.02557 3.3163 4.36501 3.38526 0.682736H6.21011C6.20774 0.747954 6.20501 0.812996 6.20194 0.877858ZM2.69897 0.877858H0.877288V9.7121C1.0064 9.56586 1.14323 9.35784 1.28206 9.08092C1.52277 8.60078 1.75369 7.94576 1.95709 7.13572C2.35332 5.55777 2.63979 3.41311 2.69897 0.877858ZM2.89415 0.877858C2.78178 5.71463 1.84566 9.15679 0.877288 9.98667C0.812313 10.0424 0.747192 10.0863 0.682166 10.1181V0.682736H2.89822C2.89701 0.748025 2.89565 0.813067 2.89415 0.877858ZM0.877288 14.4822C0.877288 14.8379 1.15543 15.116 1.51014 15.116C1.89845 15.116 2.19478 14.7658 2.12273 14.3759C2.0131 13.9004 1.82702 13.1212 1.56165 12.4078C1.42855 12.05 1.27782 11.7151 1.11043 11.4459C1.03343 11.322 0.955489 11.2163 0.877288 11.1297V14.4822ZM0.682166 14.4822C0.682166 14.9455 1.04745 15.3112 1.51014 15.3112C2.02154 15.3112 2.41117 14.8479 2.31376 14.3359C2.11135 13.4578 1.63892 11.4983 0.877288 10.8581C0.814233 10.8051 0.749196 10.7611 0.682166 10.7276V14.4822ZM3.04051 14.491C3.12046 14.8463 3.43569 15.116 3.79925 15.116C4.38283 15.116 4.75045 14.4929 4.47973 13.9895C3.7833 12.6946 2.93116 11.7823 2.01353 11.2853C2.21731 11.6681 2.3915 12.1049 2.53847 12.5463C2.76374 13.2229 2.92986 13.9252 3.04051 14.491ZM1.70282 11.134C2.27546 12.07 2.65173 13.5189 2.84951 14.531C2.94692 14.9698 3.33655 15.3112 3.79925 15.3112C4.52981 15.3112 4.9925 14.531 4.65157 13.8971C3.87762 12.4581 2.90287 11.4613 1.83673 10.9798C1.72877 10.9311 1.61986 10.8876 1.51014 10.8495C1.57668 10.9375 1.6409 11.0327 1.70282 11.134ZM15.2935 10.1181V0.682736H13.0774C13.0786 0.748027 13.08 0.813068 13.0815 0.877858C13.1937 5.73711 14.1299 9.18076 15.0984 9.99093C15.1633 10.0453 15.2285 10.0878 15.2935 10.1181ZM15.0984 9.71918V0.877858H13.2767C13.3358 3.42517 13.6223 5.57593 14.0186 7.15401C14.222 7.96404 14.4528 8.61734 14.6934 9.09421C14.8326 9.37027 14.9696 9.57597 15.0984 9.71918Z" fill="black"/>
</g>
<defs>
<clipPath id="clip0_2013_2">
<rect width="16" height="16" fill="white"/>
</clipPath>
</defs>
</svg>
