<svg width="16" height="16" viewBox="0 0 16 16" fill="none" xmlns="http://www.w3.org/2000/svg">
<rect width="16" height="16" fill="white"/>
<path d="M5.9552 5.3333H7.0608L7.23147 4.7061C7.3984 4.09383 7.2704 3.43837 6.88533 2.93383C6.50027 2.4293 5.90133 2.1333 5.26667 2.1333C4.632 2.1333 4.0336 2.4293 3.648 2.93383C3.2624 3.43837 3.1344 4.09383 3.30133 4.7061L3.47253 5.3333H4.57813L4.33067 4.42557C4.25173 4.13597 4.31307 3.82023 4.496 3.5813C4.67787 3.3429 4.9664 3.19997 5.26667 3.19997C5.56693 3.19997 5.85547 3.3429 6.03733 3.5813C6.22027 3.82023 6.2816 4.13597 6.20267 4.42557L5.9552 5.3333Z" fill="black"/>
<path d="M4.57813 10.6666H3.47253L3.30187 11.2938C3.13493 11.9061 3.26293 12.5616 3.648 13.0661C4.03307 13.5706 4.632 13.8666 5.26667 13.8666C5.90133 13.8666 6.50027 13.5706 6.88533 13.0661C7.2704 12.5616 7.39893 11.9061 7.23147 11.2938L7.0608 10.6666H5.9552L6.20267 11.5744C6.2816 11.864 6.22027 12.1797 6.03733 12.4186C5.85547 12.657 5.56693 12.8 5.26667 12.8C4.9664 12.8 4.67787 12.657 4.496 12.4186C4.31307 12.1797 4.25173 11.864 4.33067 11.5744L4.57813 10.6666Z" fill="black"/>
<path d="M9.25013 10.6666H8.14027L8.2352 10.9978C8.49973 11.9237 8.312 12.936 7.73227 13.705C7.15093 14.4746 6.22987 14.9333 5.26667 14.9333C4.30347 14.9333 3.3824 14.4746 2.80213 13.7056C2.22187 12.936 2.03413 11.9237 2.29867 10.9978L2.39307 10.6666H1.53333C1.45013 10.6666 1.3696 10.6549 1.29227 10.6362L1.27253 10.705C0.9168 11.9509 1.17013 13.3125 1.9504 14.3477C2.7312 15.3824 3.97067 16 5.26667 16C6.56267 16 7.80213 15.3824 8.58347 14.3472C9.36373 13.3125 9.61707 11.9509 9.26133 10.705L9.25013 10.6666Z" fill="black"/>
<path d="M14.1771 14.0229L13.2395 13.0853C12.9131 12.7589 12.7333 12.3243 12.7333 11.8624C12.7333 10.3648 11.5472 9.14878 10.0667 9.07945C10.0229 9.07785 9.98187 9.06665 9.9376 9.06665H2.06667H1.53333C1.2384 9.06665 1 9.30505 1 9.59998C1 9.89492 1.2384 10.1333 1.53333 10.1333H9.9376C9.98187 10.1333 10.0235 10.1435 10.0667 10.1461C10.9595 10.2133 11.6667 10.9531 11.6667 11.8624C11.6667 12.6091 11.9573 13.3115 12.4853 13.8395L13.4229 14.7771C13.5269 14.8811 13.6635 14.9333 13.8 14.9333C13.9365 14.9333 14.0731 14.8811 14.1771 14.7771C14.3856 14.5685 14.3856 14.2315 14.1771 14.0229Z" fill="black"/>
<path d="M1.2832 5.33333H2.39307L2.29867 5.00213C2.0336 4.07627 2.22187 3.064 2.8016 2.29493C3.3824 1.52533 4.30347 1.06667 5.26667 1.06667C6.22987 1.06667 7.15093 1.52533 7.7312 2.2944C8.31147 3.064 8.4992 4.07627 8.23467 5.00213L8.14027 5.33333H9.25013L9.26133 5.29493C9.61707 4.04907 9.36373 2.68747 8.58347 1.65227C7.80213 0.6176 6.56267 0 5.26667 0C3.97067 0 2.7312 0.6176 1.94987 1.6528C1.1696 2.68747 0.916266 4.04907 1.272 5.29493L1.2832 5.33333Z" fill="black"/>
<path d="M1.53333 6.93337H2.06667H8.46667H9C9.29493 6.93337 9.53333 6.69497 9.53333 6.40003C9.53333 6.1051 9.29493 5.8667 9 5.8667H1.53333C1.2384 5.8667 1 6.1051 1 6.40003C1 6.69497 1.2384 6.93337 1.53333 6.93337Z" fill="black"/>
<path d="M2.06667 7.46667C1.77173 7.46667 1.53333 7.70507 1.53333 8.00001C1.53333 8.29494 1.77173 8.53334 2.06667 8.53334H8.46667C8.7616 8.53334 9 8.29494 9 8.00001C9 7.70507 8.7616 7.46667 8.46667 7.46667H2.06667Z" fill="black"/>
</svg>
