<svg width="16" height="16" viewBox="0 0 16 16" fill="none" xmlns="http://www.w3.org/2000/svg">
<rect width="16" height="16" fill="white"/>
<path d="M0.990706 14.4548C0.454554 14.9909 -0.360858 14.1755 0.175294 13.6394L7.53753 6.27689V1.57651C7.53753 1.25828 7.7958 1 8.11403 1H12.4231C12.7413 1 12.9996 1.25828 12.9996 1.57651V4.18901C12.9996 4.50724 12.7413 4.76552 12.4231 4.76552H8.69054V6.39081L15.8247 13.525C16.3609 14.0611 15.5454 14.8765 15.0093 14.3404L12.2123 11.5434L9.96693 12.6561C9.71534 12.7801 9.41625 12.7031 9.25344 12.487L8.36954 11.3195L6.72096 12.8643C6.5095 13.0633 6.18642 13.0709 5.96643 12.8936L3.98209 11.4632L0.990706 14.4548ZM8.69054 2.15301V3.6125H11.8466V2.15301H8.69054ZM11.354 10.6851L8.05707 7.38816L4.80488 10.6406L6.27843 11.7027C6.80329 11.2109 7.55667 10.4118 8.09628 10.0032C8.34994 9.8118 8.71106 9.86207 8.90246 10.1157L9.88414 11.4136L11.354 10.6851Z" fill="black"/>
</svg>
