<svg width="16" height="16" viewBox="0 0 16 16" fill="none" xmlns="http://www.w3.org/2000/svg">
<rect width="16" height="16" fill="white"/>
<path d="M12.8815 7.31327H11.6541C11.7408 7.24602 11.8314 7.18202 11.9101 7.10771C13.291 5.79787 13.2204 3.55189 13.2167 3.45697C13.2129 3.35837 13.1734 3.26451 13.1055 3.19286C13.0377 3.12122 12.9461 3.07668 12.8478 3.06754C11.8256 2.99596 10.8025 3.19422 9.88103 3.64246C9.57224 2.66819 9.01347 1.79187 8.26041 1.10088C8.1863 1.03586 8.09107 1 7.99247 1C7.89388 1 7.79865 1.03586 7.72454 1.10088C6.97397 1.79041 6.41629 2.66384 6.10663 3.63487C5.18848 3.19103 4.17009 2.99543 3.15284 3.06754C3.05449 3.07656 2.96278 3.12104 2.89482 3.1927C2.82686 3.26435 2.78728 3.35828 2.78348 3.45697C2.77968 3.55189 2.70917 5.79787 4.09061 7.10825C4.16925 7.18256 4.25983 7.24602 4.34661 7.31327H4.20342C3.08861 7.31327 2.01945 7.75613 1.23115 8.54443C0.44286 9.33272 0 10.4019 0 11.5167C0 12.6315 0.44286 13.7007 1.23115 14.489C2.01945 15.2773 3.08861 15.7201 4.20342 15.7201H13.9662C14.3677 15.7201 14.7601 15.6013 15.0941 15.3786C15.4282 15.156 15.6889 14.8395 15.8433 14.469C15.9978 14.0984 16.0392 13.6905 15.9623 13.2965C15.8854 12.9025 15.6936 12.5401 15.4111 12.2549C15.7468 11.7892 15.9475 11.2398 15.9909 10.6674C16.0344 10.0949 15.9189 9.52158 15.6573 9.01055C15.3957 8.49952 14.9981 8.07063 14.5083 7.77115C14.0185 7.47166 13.4556 7.31322 12.8815 7.31327ZM12.3933 3.86863C12.3698 4.84668 12.0002 5.7847 11.3503 6.51598C10.8753 6.93328 10.2928 7.20895 9.66896 7.31165H8.91831C9.57543 6.54104 9.95946 5.57487 10.0107 4.56342C10.0107 4.54986 10.0107 4.53684 10.0107 4.52274C10.7288 4.08787 11.5538 3.86139 12.3933 3.86863ZM7.99247 1.98225C8.68617 2.67343 9.1129 3.58779 9.19709 4.56342C9.1129 5.53905 8.68617 6.45342 7.99247 7.14459C7.29952 6.45301 6.87325 5.5388 6.78894 4.56342C6.87325 3.58804 7.29952 2.67383 7.99247 1.98225ZM4.65034 6.51598C4.00156 5.78398 3.632 4.84645 3.60681 3.86863C4.44131 3.86161 5.26159 4.08474 5.97754 4.51352C5.97754 4.53034 5.97483 4.54661 5.97483 4.56342C6.02548 5.57538 6.40934 6.54218 7.06663 7.31327H6.33171C5.70769 7.21008 5.12515 6.93384 4.65034 6.51598ZM13.9662 14.9066H4.20342C3.30438 14.9066 2.44215 14.5494 1.80643 13.9137C1.17071 13.278 0.813566 12.4157 0.813566 11.5167C0.813566 10.6177 1.17071 9.75543 1.80643 9.11971C2.44215 8.48398 3.30438 8.12684 4.20342 8.12684H12.8815C13.4926 8.12741 14.0786 8.37046 14.5108 8.80262C14.9429 9.23479 15.186 9.82077 15.1866 10.4319C15.1844 10.9717 14.9911 11.4932 14.6409 11.904H4.32926C4.1329 11.904 3.94459 11.826 3.80575 11.6871C3.66691 11.5483 3.58891 11.36 3.58891 11.1636C3.58891 10.9673 3.66691 10.7789 3.80575 10.6401C3.94459 10.5013 4.1329 10.4233 4.32926 10.4233H12.8619C12.9698 10.4233 13.0733 10.3804 13.1496 10.3041C13.2259 10.2278 13.2687 10.1244 13.2687 10.0165C13.2687 9.9086 13.2259 9.80513 13.1496 9.72884C13.0733 9.65256 12.9698 9.6097 12.8619 9.6097H4.32926C3.91713 9.6097 3.52189 9.77341 3.23047 10.0648C2.93906 10.3562 2.77534 10.7515 2.77534 11.1636C2.77534 11.5757 2.93906 11.971 3.23047 12.2624C3.52189 12.5538 3.91713 12.7175 4.32926 12.7175H14.6941C14.8999 12.8696 15.0524 13.083 15.1297 13.327C15.2069 13.571 15.2051 13.8332 15.1243 14.0761C15.0435 14.319 14.888 14.5301 14.68 14.6793C14.472 14.8284 14.2222 14.908 13.9662 14.9066Z" fill="black"/>
</svg>
