<svg width="16" height="16" viewBox="0 0 16 16" fill="none" xmlns="http://www.w3.org/2000/svg">
<g clip-path="url(#clip0_2038_59)">
<rect width="16" height="16" fill="white"/>
<path fill-rule="evenodd" clip-rule="evenodd" d="M7.96096 6.39883L7.99637 5.86667C7.96096 6.39883 7.96032 6.39877 7.96032 6.39877L7.95965 6.39875L7.95819 6.39864L7.95477 6.39837L7.94608 6.39768C7.93947 6.39712 7.93123 6.39635 7.92141 6.39531C7.90181 6.39323 7.87597 6.39011 7.84453 6.38544C7.78173 6.37608 7.69627 6.36051 7.59368 6.33475C7.38896 6.28331 7.11262 6.19037 6.81179 6.0228C6.20051 5.68229 5.51376 5.04683 5.11915 3.896C4.90429 3.26941 5.16653 2.73539 5.56624 2.40419C5.94416 2.09106 6.46547 1.92718 6.95461 1.91521C7.02251 1.91354 7.07267 1.90621 7.10728 1.89727C7.11573 1.89509 7.12269 1.89296 7.12835 1.89103C7.12888 1.88452 7.12928 1.87646 7.12928 1.86667C7.12928 1.54709 6.99741 1.25904 6.78344 1.05229C6.64923 0.922619 6.59256 0.73224 6.634 0.550288C6.67544 0.368336 6.80899 0.22128 6.98611 0.162525C7.3044 0.0569413 7.64427 0 7.99637 0C9.76502 0 11.2 1.43201 11.2 3.2C11.2 4.968 9.76502 6.4 7.99637 6.4C7.98456 6.4 7.97275 6.3996 7.96096 6.39883ZM8.19595 1.86667C8.19595 1.58473 8.14269 1.31504 8.04589 1.06723C9.20387 1.09349 10.1333 2.03897 10.1333 3.2C10.1333 4.36904 9.19099 5.31957 8.02184 5.33317C8.01643 5.33251 8.0096 5.33157 8.00149 5.33037C7.96989 5.32568 7.91901 5.31667 7.8536 5.30021C7.72229 5.26723 7.53608 5.20525 7.33085 5.09093C6.92995 4.86763 6.43032 4.43128 6.12813 3.55003C6.10133 3.47184 6.10813 3.42315 6.12021 3.38824C6.13456 3.34677 6.16982 3.28933 6.2468 3.22555C6.40856 3.09152 6.68637 2.98877 6.98072 2.98155C7.22248 2.97563 7.52296 2.92864 7.77443 2.74619C8.05789 2.54051 8.19595 2.22507 8.19595 1.86667Z" fill="black"/>
<path fill-rule="evenodd" clip-rule="evenodd" d="M0.674925 6.93335C0.302173 6.93335 0 7.23554 0 7.60828V8.00002C0 12.4183 3.58173 16 8 16C12.4183 16 16 12.4183 16 8.00002V7.60828C16 7.23551 15.6978 6.93335 15.3251 6.93335H0.674925ZM8 14.9333C4.17083 14.9333 1.06667 11.8292 1.06667 8.00002H14.9333C14.9333 11.8292 11.8292 14.9333 8 14.9333Z" fill="black"/>
</g>
<defs>
<clipPath id="clip0_2038_59">
<rect width="16" height="16" fill="white"/>
</clipPath>
</defs>
</svg>
