<svg width="16" height="16" viewBox="0 0 16 16" fill="none" xmlns="http://www.w3.org/2000/svg">
<rect width="16" height="16" fill="white"/>
<path fill-rule="evenodd" clip-rule="evenodd" d="M15.0284 3.43574L15.0455 3.58094C15.0456 3.58195 15.0457 3.58393 15.046 3.58687C15.0729 3.8815 15.9756 13.7841 8.16973 15.9829L8.1014 16H8.04161H7.98182L7.91349 15.9829C0.11058 13.7765 1.01804 3.88881 1.04572 3.58721C1.046 3.58409 1.04619 3.58199 1.04628 3.58094L1.06336 3.43574C1.07191 3.35887 1.11461 3.29908 1.18294 3.26491L7.94766 0.0192179C8.00745 -0.00640598 8.07578 -0.00640598 8.13557 0.0192179L14.9088 3.26491C14.9772 3.29908 15.0284 3.35887 15.0284 3.43574ZM1.98583 3.94822C1.90895 5.33191 1.73813 13.1301 8.04161 15.0177C14.3622 13.1301 14.1913 5.33191 14.1059 3.94822L8.04161 1.04417L1.98583 3.94822ZM6.18817 7.27933C6.26504 7.20246 6.41024 7.20246 6.48711 7.27933H6.5042L7.69998 8.47511L9.63031 6.54478C9.70719 6.4679 9.85239 6.4679 9.92926 6.54478L10.3051 6.92059C10.3905 6.99747 10.3905 7.13413 10.3051 7.21954L7.84518 9.67943C7.80247 9.7136 7.75123 9.73922 7.69144 9.73922C7.63165 9.73922 7.53769 9.67943 7.53769 9.67943L5.81235 7.95409C5.72694 7.87722 5.72694 7.74056 5.81235 7.65515L6.18817 7.27933Z" fill="#212121"/>
</svg>
