<svg width="16" height="16" viewBox="0 0 16 16" fill="none" xmlns="http://www.w3.org/2000/svg">
<g clip-path="url(#clip0_2038_23)">
<rect width="16" height="16" fill="white"/>
<path d="M4.8 14.1333H2.66667C2.5306 14.1336 2.39957 14.0818 2.30042 13.9886C2.20128 13.8954 2.1415 13.7678 2.13334 13.632L1.696 6.59198C1.69048 6.49735 1.71028 6.40296 1.75336 6.31853C1.79645 6.23409 1.86125 6.16267 1.94111 6.1116C2.02097 6.06053 2.113 6.03167 2.20771 6.02799C2.30243 6.02431 2.39642 6.04594 2.48 6.09065C2.8668 6.29298 3.29682 6.39866 3.73334 6.39866C4.16985 6.39866 4.59988 6.29298 4.98667 6.09065C5.07025 6.04594 5.16424 6.02431 5.25896 6.02799C5.35368 6.03167 5.44571 6.06053 5.52556 6.1116C5.60542 6.16267 5.67023 6.23409 5.71331 6.31853C5.75639 6.40296 5.77619 6.49735 5.77067 6.59198L5.33334 13.632C5.32517 13.7678 5.2654 13.8954 5.16625 13.9886C5.0671 14.0818 4.93608 14.1336 4.8 14.1333ZM3.168 13.0666H4.29867L4.656 7.35465C4.04996 7.504 3.41672 7.504 2.81067 7.35465L3.168 13.0666Z" fill="black"/>
<path d="M3.73333 7.46662C2.74319 7.46662 1.7936 7.07329 1.09347 6.37315C0.393332 5.67301 0 4.72343 0 3.73328V3.19995H7.46667V3.73328C7.46667 4.72343 7.07333 5.67301 6.3732 6.37315C5.67306 7.07329 4.72347 7.46662 3.73333 7.46662ZM1.12 4.26662C1.19813 4.65214 1.36058 5.01559 1.59571 5.33094C1.83084 5.64629 2.13281 5.90571 2.48 6.09062C2.86679 6.29295 3.29682 6.39863 3.73333 6.39863C4.16985 6.39863 4.59987 6.29295 4.98667 6.09062C5.33385 5.90571 5.63583 5.64629 5.87096 5.33094C6.10608 5.01559 6.26854 4.65214 6.34667 4.26662H1.12Z" fill="black"/>
<path d="M7.46667 4.26667H0V3.73333C1.47543e-08 2.74319 0.393332 1.7936 1.09347 1.09347C1.7936 0.393332 2.74319 0 3.73333 0C4.72347 0 5.67306 0.393332 6.3732 1.09347C7.07333 1.7936 7.46667 2.74319 7.46667 3.73333V4.26667ZM1.12 3.2H6.34667C6.22426 2.59718 5.89721 2.05521 5.42094 1.66593C4.94466 1.27665 4.34846 1.06399 3.73333 1.06399C3.11821 1.06399 2.522 1.27665 2.04573 1.66593C1.56946 2.05521 1.24241 2.59718 1.12 3.2Z" fill="black"/>
<path d="M4.8 12.2666H2.66666C2.52522 12.2666 2.38956 12.2104 2.28954 12.1104C2.18952 12.0104 2.13333 11.8747 2.13333 11.7333C2.13333 11.5918 2.18952 11.4562 2.28954 11.3562C2.38956 11.2561 2.52522 11.2 2.66666 11.2H4.8C4.94145 11.2 5.0771 11.2561 5.17712 11.3562C5.27714 11.4562 5.33333 11.5918 5.33333 11.7333C5.33333 11.8747 5.27714 12.0104 5.17712 12.1104C5.0771 12.2104 4.94145 12.2666 4.8 12.2666Z" fill="black"/>
<path d="M13.6 16C13.1049 16 12.6301 15.8033 12.2801 15.4533C11.93 15.1032 11.7333 14.6284 11.7333 14.1333V10.1333C11.7333 9.709 11.5648 9.30203 11.2647 9.00197C10.9647 8.70191 10.5577 8.53334 10.1333 8.53334C9.709 8.53334 9.30203 8.70191 9.00197 9.00197C8.70192 9.30203 8.53335 9.709 8.53335 10.1333V13.6C8.53194 14.2361 8.27863 14.8457 7.82885 15.2955C7.37906 15.7453 6.76943 15.9986 6.13335 16H5.60001C4.96393 15.9986 4.35429 15.7453 3.90451 15.2955C3.45473 14.8457 3.20142 14.2361 3.20001 13.6C3.20001 13.4586 3.2562 13.3229 3.35622 13.2229C3.45624 13.1229 3.5919 13.0667 3.73335 13.0667C3.87479 13.0667 4.01045 13.1229 4.11047 13.2229C4.21049 13.3229 4.26668 13.4586 4.26668 13.6C4.26668 13.9536 4.40715 14.2928 4.6572 14.5428C4.90725 14.7929 5.24639 14.9333 5.60001 14.9333H6.13335C6.48697 14.9333 6.82611 14.7929 7.07615 14.5428C7.3262 14.2928 7.46668 13.9536 7.46668 13.6V10.1333C7.46668 9.4261 7.74763 8.74782 8.24773 8.24772C8.74782 7.74763 9.4261 7.46667 10.1333 7.46667C10.8406 7.46667 11.5189 7.74763 12.019 8.24772C12.5191 8.74782 12.8 9.4261 12.8 10.1333V14.1333C12.8 14.3455 12.8843 14.549 13.0343 14.699C13.1844 14.8491 13.3878 14.9333 13.6 14.9333C13.8122 14.9333 14.0157 14.8491 14.1657 14.699C14.3157 14.549 14.4 14.3455 14.4 14.1333V12.2667C14.4 12.1252 14.4562 11.9896 14.5562 11.8896C14.6562 11.7895 14.7919 11.7333 14.9333 11.7333C15.0748 11.7333 15.2104 11.7895 15.3105 11.8896C15.4105 11.9896 15.4667 12.1252 15.4667 12.2667V14.1333C15.4667 14.6284 15.27 15.1032 14.9199 15.4533C14.5699 15.8033 14.0951 16 13.6 16Z" fill="black"/>
</g>
<defs>
<clipPath id="clip0_2038_23">
<rect width="16" height="16" fill="white"/>
</clipPath>
</defs>
</svg>
