<svg width="16" height="16" viewBox="0 0 16 16" fill="none" xmlns="http://www.w3.org/2000/svg">
<path d="M7.65124 15.3026H16V14.0717L11.7949 14.0719C13.9077 12.718 15.3026 10.3385 15.3026 7.65132C15.3026 3.42566 11.877 0 7.65132 0C3.42566 0 0 3.42566 0 7.65132C0 11.877 3.42566 15.3026 7.65132 15.3026L7.65124 15.3026ZM7.65124 1.23071C11.1999 1.23071 14.0718 4.12306 14.0718 7.65125C14.0718 11.1794 11.2001 14.0718 7.65124 14.0718C4.10255 14.0718 1.2307 11.1999 1.2307 7.65125C1.2307 4.10259 4.10244 1.23071 7.65124 1.23071Z" fill="black"/>
<path d="M7.65124 6.27691C8.65641 6.27691 9.47689 5.45647 9.47689 4.45126C9.47689 3.44605 8.65645 2.62561 7.65124 2.62561C6.64604 2.62561 5.82559 3.44605 5.82559 4.45126C5.82559 5.45632 6.64618 6.27691 7.65124 6.27691ZM7.65124 3.83584C7.97948 3.83584 8.24604 4.10255 8.24604 4.43064C8.24604 4.75888 7.97933 5.02544 7.65124 5.02544C7.323 5.02544 7.05644 4.75873 7.05644 4.43064C7.05644 4.10255 7.32315 3.83584 7.65124 3.83584Z" fill="black"/>
<path d="M7.65124 9.02563C6.64607 9.02563 5.82559 9.84608 5.82559 10.8513C5.82559 11.8565 6.64604 12.6769 7.65124 12.6769C8.65645 12.6769 9.47689 11.8565 9.47689 10.8513C9.47704 9.84622 8.65645 9.02563 7.65124 9.02563ZM7.65124 11.4667C7.323 11.4667 7.05644 11.2 7.05644 10.8719C7.05644 10.5437 7.32315 10.2771 7.65124 10.2771C7.97948 10.2771 8.24604 10.5438 8.24604 10.8719C8.24619 11.2 7.97947 11.4667 7.65124 11.4667Z" fill="black"/>
<path d="M10.8513 9.47686C11.8564 9.47686 12.6769 8.65642 12.6769 7.65121C12.6769 6.646 11.8565 5.82556 10.8513 5.82556C9.84605 5.82556 9.0256 6.646 9.0256 7.65121C9.0256 8.65642 9.84605 9.47686 10.8513 9.47686ZM10.8513 7.05641C11.1795 7.05641 11.4461 7.32312 11.4461 7.65121C11.4461 7.97945 11.1793 8.24601 10.8513 8.24601C10.523 8.24601 10.2565 7.9793 10.2565 7.65121C10.2563 7.32297 10.523 7.05641 10.8513 7.05641Z" fill="black"/>
<path d="M4.43072 9.47686C5.43589 9.47686 6.25637 8.65642 6.25637 7.65121C6.25637 6.646 5.43593 5.82556 4.43072 5.82556C3.42552 5.82556 2.60507 6.646 2.60507 7.65121C2.60507 8.65642 3.42552 9.47686 4.43072 9.47686ZM4.43072 7.05641C4.75896 7.05641 5.02552 7.32312 5.02552 7.65121C5.02552 7.97945 4.75881 8.24601 4.43072 8.24601C4.10248 8.24601 3.83592 7.9793 3.83592 7.65121C3.83592 7.32297 4.10249 7.05641 4.43072 7.05641Z" fill="black"/>
</svg>
