<svg width="16" height="16" viewBox="0 0 16 16" fill="none" xmlns="http://www.w3.org/2000/svg">
<rect width="16" height="16" fill="white"/>
<path d="M14.432 8.64119H13.96C13.6902 7.34551 12.5437 6.36545 11.1612 6.31561V5.80066C11.1612 4.92026 10.4362 4.20598 9.54268 4.20598H8.54794V2.79402C8.8177 2.6113 8.9863 2.31229 8.9863 1.98007C8.9863 1.43189 8.53109 1 7.99157 1C7.45206 1 6.99684 1.4485 6.99684 1.98007C6.99684 2.31229 7.16544 2.6113 7.43519 2.79402V4.20598H6.44046C5.54689 4.20598 4.82192 4.92026 4.82192 5.80066V6.31561C3.43941 6.36545 2.29294 7.34551 2.02318 8.64119H1.55111C0.691253 8.64119 0 9.32226 0 10.1694V12.1462C0 12.9934 0.691253 13.6744 1.55111 13.6744H2.02318C2.29294 15.0033 3.48999 16 4.92308 16H11.0769C12.51 16 13.7071 15.0033 13.9768 13.6744H14.4489C15.3087 13.6744 16 12.9934 16 12.1462V10.1694C15.9831 9.32226 15.275 8.64119 14.432 8.64119ZM1.92202 12.5448H1.50053C1.28135 12.5448 1.09589 12.3621 1.09589 12.1462V10.1694C1.09589 9.95349 1.28135 9.77077 1.50053 9.77077H1.90516L1.92202 12.5448ZM5.91781 5.78406C5.91781 5.51827 6.13699 5.31894 6.40674 5.31894H9.55954C9.82929 5.31894 10.0485 5.53489 10.0485 5.78406V6.299H5.93467V5.78406H5.91781ZM12.8809 13.0764C12.8809 14.0565 12.0548 14.8704 11.0601 14.8704H4.90622C3.89463 14.8704 3.08535 14.0731 3.08535 13.0764V9.22259C3.08535 8.24252 3.91149 7.42857 4.90622 7.42857H11.0601C12.0717 7.42857 12.8809 8.22591 12.8809 9.22259V13.0764ZM14.8367 12.1296C14.8367 12.3455 14.6512 12.5282 14.432 12.5282H14.0274V9.75415H14.432C14.6512 9.75415 14.8367 9.93688 14.8367 10.1528V12.1296Z" fill="black"/>
<path d="M5.8668 11.1495C6.41618 11.1495 6.86153 10.7107 6.86153 10.1694C6.86153 9.62812 6.41618 9.18933 5.8668 9.18933C5.31743 9.18933 4.87207 9.62812 4.87207 10.1694C4.87207 10.7107 5.31743 11.1495 5.8668 11.1495Z" fill="black"/>
<path d="M10.065 11.1495C10.6144 11.1495 11.0598 10.7107 11.0598 10.1694C11.0598 9.62812 10.6144 9.18933 10.065 9.18933C9.51567 9.18933 9.07031 9.62812 9.07031 10.1694C9.07031 10.7107 9.51567 11.1495 10.065 11.1495Z" fill="black"/>
<path d="M7.97462 14.0565C8.76703 14.0565 9.40771 13.4419 9.42457 12.6611H6.50781C6.52467 13.4419 7.18221 14.0565 7.97462 14.0565Z" fill="black"/>
</svg>
