<svg width="16" height="16" viewBox="0 0 16 16" fill="none" xmlns="http://www.w3.org/2000/svg">
<path fill-rule="evenodd" clip-rule="evenodd" d="M13.6918 8.25806C13.4353 8.25806 13.1836 8.15393 13.0022 7.97236L8.01881 2.98342V2.98353C7.78834 2.73392 7.70407 2.38229 7.79627 2.05516C7.88845 1.728 8.14392 1.47226 8.47069 1.37999C8.79749 1.2877 9.14869 1.37205 9.39803 1.60278L14.3814 6.59172C14.5637 6.77507 14.6659 7.02323 14.6657 7.28189C14.6655 7.54043 14.5628 7.78847 14.3803 7.97148C14.1977 8.15449 13.9502 8.25751 13.6918 8.25808L13.6918 8.25806ZM6.93359 10.4397L5.55437 9.05894L9.06692 5.54249L10.4461 6.92324L6.93359 10.4397ZM8.26695 13.6893H8.26684C8.26628 13.948 8.16338 14.1958 7.98056 14.3786C7.79775 14.5612 7.54999 14.664 7.29173 14.6643C7.03336 14.6645 6.78548 14.5621 6.60234 14.3797L1.61894 9.39074C1.38847 9.14114 1.3042 8.78951 1.39639 8.46237C1.48858 8.13521 1.74405 7.87947 2.07082 7.7872C2.39761 7.69491 2.74881 7.77927 2.99815 8.00999L7.98155 12.9989C8.16292 13.1805 8.26693 13.4319 8.26693 13.6893L8.26695 13.6893ZM3.73355 14.7112L1.28771 12.2626C1.14563 12.1214 1.06583 11.9292 1.06583 11.7288C1.06583 11.5283 1.14563 11.3361 1.28771 11.1948L1.60022 10.882L5.11277 14.3984L4.80026 14.7113C4.51488 14.9959 4.01889 14.9959 3.73364 14.7113L3.73355 14.7112ZM12.2666 1.27119L14.7125 3.71976C14.8549 3.86288 14.9332 4.05181 14.9332 4.25372C14.9332 4.4555 14.8549 4.64455 14.7125 4.78768L14.4 5.10043L10.8874 1.58397L11.1999 1.27111C11.4853 0.986528 11.9813 0.986528 12.2666 1.27111L12.2666 1.27119ZM15.4666 5.54249C15.8094 5.20148 16.0014 4.73737 16 4.25357C16.0014 3.7699 15.8094 3.30576 15.4666 2.96475L14.6208 2.11796L15.3104 1.42756L14.5563 0.672587L13.8666 1.36298L13.0208 0.516185C12.3328 -0.172062 11.1328 -0.172062 10.4459 0.516185L10.1313 0.831162C9.75171 0.457635 9.24055 0.248603 8.70829 0.249147C8.16701 0.249929 7.64816 0.465457 7.26544 0.848581C6.88273 1.23172 6.66745 1.75115 6.66668 2.29304C6.66668 2.8393 6.87951 3.35235 7.26399 3.73838L8.3131 4.78754L4.79997 8.304L3.75198 7.25484C3.36995 6.87015 2.8501 6.65463 2.30824 6.65629C1.76696 6.65707 1.24811 6.8726 0.865395 7.25572C0.482683 7.63886 0.267398 8.15829 0.266627 8.70018C0.266069 9.23302 0.474886 9.74476 0.847995 10.1248L0.533369 10.4397C0.189856 10.7835 0 11.2417 0 11.7286C0 12.2155 0.189842 12.6737 0.533369 13.0176L1.37922 13.8643L0.689596 14.5547L1.44373 15.3096L2.13336 14.6192L2.97921 15.466C3.32318 15.8104 3.78032 16 4.26669 16H4.26658C4.74983 16.0014 5.21346 15.8092 5.55406 15.466L5.86868 15.1511C6.24825 15.5246 6.75942 15.7336 7.29167 15.7331C7.83296 15.7323 8.35181 15.5168 8.73452 15.1336C9.11724 14.7505 9.33252 14.2311 9.33329 13.6892C9.33485 13.1467 9.11956 12.6263 8.73541 12.2438L7.68742 11.1947L11.2 7.67822L12.248 8.72738C12.6301 9.11183 13.15 9.32738 13.6917 9.32593C14.233 9.32514 14.7518 9.10962 15.1345 8.72649C15.5173 8.34335 15.7325 7.82392 15.7333 7.28204C15.7339 6.74919 15.5251 6.23745 15.1519 5.85746L15.4666 5.54249Z" fill="#212121"/>
</svg>
