<svg width="16" height="16" viewBox="0 0 16 16" fill="none" xmlns="http://www.w3.org/2000/svg">
<rect width="16" height="16" fill="white"/>
<path d="M8.03976 14.0386C8.03612 13.2425 7.69805 12.4482 7.09823 11.9193C6.55295 11.4358 5.86589 11.1795 5.13702 11.1795C4.72442 11.1795 4.31182 11.1795 3.89922 11.1795C3.26851 11.1795 2.64143 11.3213 2.12522 11.7012C1.7617 11.9684 1.44907 12.2992 1.24004 12.7009C1.02556 13.1153 0.909237 13.5715 0.907419 14.0404C0.905602 14.3258 1.16007 14.5984 1.45271 14.5857C1.74898 14.573 1.99617 14.3458 1.99799 14.0404C1.99799 13.9387 2.00526 13.8387 2.01798 13.7387C2.01071 13.7878 2.00526 13.835 1.99799 13.8841C2.02526 13.6824 2.07797 13.4842 2.15612 13.2952C2.13795 13.3388 2.11977 13.3825 2.1016 13.4261C2.15976 13.2898 2.22883 13.1589 2.31062 13.0371C2.33062 13.008 2.35061 12.9789 2.37242 12.9499C2.4215 12.8808 2.2979 13.0426 2.33789 12.9935C2.34879 12.9808 2.35788 12.968 2.36697 12.9571C2.41423 12.899 2.46512 12.8426 2.51783 12.7899C2.56872 12.739 2.62143 12.6918 2.67596 12.6463C2.68869 12.6354 2.70141 12.6263 2.71232 12.6172C2.7832 12.5573 2.61962 12.6827 2.66869 12.6518C2.69959 12.6336 2.72686 12.61 2.75594 12.59C2.88135 12.5045 3.01586 12.4337 3.15581 12.3755C3.11219 12.3937 3.06857 12.4119 3.02495 12.43C3.21398 12.3519 3.41028 12.2992 3.61386 12.2719C3.56478 12.2792 3.51752 12.2846 3.46845 12.2919C3.71019 12.261 3.95739 12.2719 4.20276 12.2719C4.4954 12.2719 4.78985 12.2719 5.08249 12.2719C5.217 12.2719 5.34968 12.2755 5.48419 12.2919C5.43511 12.2846 5.38785 12.2792 5.33878 12.2719C5.54053 12.2992 5.73865 12.3519 5.92768 12.43C5.88406 12.4119 5.84044 12.3937 5.79682 12.3755C5.93314 12.4337 6.06401 12.5027 6.18579 12.5845C6.21487 12.6045 6.24395 12.6245 6.27303 12.6463C6.3421 12.6954 6.18033 12.5718 6.22941 12.6118C6.24213 12.6227 6.25486 12.6318 6.26576 12.6409C6.32393 12.6881 6.38027 12.739 6.43298 12.7917C6.48388 12.8426 6.53113 12.8953 6.57658 12.9499C6.58748 12.9626 6.59657 12.9753 6.60566 12.9862C6.66564 13.0571 6.54022 12.8935 6.57112 12.9426C6.5893 12.9735 6.61293 13.0008 6.63292 13.0298C6.71835 13.1553 6.78924 13.2898 6.8474 13.4297C6.82922 13.3861 6.81105 13.3425 6.79287 13.2988C6.87103 13.4879 6.92374 13.6842 6.951 13.8878C6.94373 13.8387 6.93828 13.7914 6.93101 13.7423C6.94373 13.8423 6.94919 13.9423 6.951 14.0441C6.95282 14.3294 7.20002 14.6021 7.49629 14.5894C7.78893 14.5712 8.04158 14.344 8.03976 14.0386Z" fill="black"/>
<path d="M6.66381 8.62208C6.66017 8.19131 6.53658 7.74417 6.28211 7.38973C6.0022 6.99895 5.63685 6.71722 5.18427 6.54999C4.3627 6.24827 3.35574 6.52455 2.80319 7.20252C2.49601 7.57877 2.32152 8.00954 2.28516 8.49303C2.25245 8.92562 2.37059 9.38366 2.59598 9.75264C2.81591 10.1107 3.14308 10.4215 3.52842 10.5942C3.97918 10.796 4.45358 10.8559 4.93889 10.7596C5.9404 10.5633 6.65654 9.62541 6.66381 8.62208C6.66563 8.33671 6.41116 8.06407 6.11852 8.0768C5.82043 8.08952 5.57505 8.31672 5.57324 8.62208C5.57324 8.69842 5.56778 8.77294 5.5587 8.84747C5.56597 8.79839 5.57142 8.75113 5.57869 8.70206C5.55688 8.84747 5.51871 8.98742 5.46236 9.12193C5.48054 9.0783 5.49871 9.03468 5.51689 8.99106C5.47509 9.08557 5.42601 9.17646 5.36966 9.26188C5.35694 9.28188 5.3424 9.30005 5.32786 9.32005C5.27333 9.3982 5.41874 9.21281 5.35512 9.28369C5.32059 9.32186 5.28787 9.36003 5.25152 9.39639C5.21517 9.43274 5.177 9.46546 5.13883 9.49999C5.07157 9.55815 5.25152 9.4182 5.17518 9.47273C5.15518 9.48727 5.13701 9.49999 5.11701 9.51453C5.03159 9.5727 4.94071 9.62177 4.84619 9.66176C4.88981 9.64358 4.93344 9.62541 4.97706 9.60723C4.84255 9.66358 4.70078 9.70175 4.55719 9.72356C4.60626 9.71629 4.65352 9.71084 4.7026 9.70356C4.55174 9.72356 4.40269 9.72356 4.25183 9.70356C4.3009 9.71084 4.34816 9.71629 4.39724 9.72356C4.25183 9.70175 4.11187 9.66358 3.97737 9.60723C4.02099 9.62541 4.06461 9.64358 4.10824 9.66176C4.01372 9.61995 3.92284 9.57088 3.83741 9.51453C3.81742 9.50181 3.79924 9.48727 3.77925 9.47273C3.70109 9.4182 3.88649 9.56361 3.8156 9.49999C3.77743 9.46546 3.73926 9.43274 3.70291 9.39639C3.66655 9.36003 3.63384 9.32186 3.5993 9.28369C3.54114 9.21644 3.6811 9.39639 3.62657 9.32005C3.61203 9.30005 3.5993 9.28188 3.58476 9.26188C3.5266 9.17646 3.47752 9.08557 3.43753 8.99106C3.45571 9.03468 3.47389 9.0783 3.49206 9.12193C3.43572 8.98742 3.39755 8.84565 3.37574 8.70206C3.38301 8.75113 3.38846 8.79839 3.39573 8.84747C3.37574 8.6966 3.37574 8.54756 3.39573 8.3967C3.38846 8.44577 3.38301 8.49303 3.37574 8.54211C3.39755 8.3967 3.43572 8.25674 3.49206 8.12224C3.47389 8.16586 3.45571 8.20948 3.43753 8.2531C3.47934 8.15859 3.52842 8.06771 3.58476 7.98228C3.59748 7.96228 3.61203 7.94411 3.62657 7.92411C3.6811 7.84596 3.53569 8.03135 3.5993 7.96047C3.63384 7.9223 3.66655 7.88413 3.70291 7.84777C3.73926 7.81142 3.77743 7.77871 3.8156 7.74417C3.88285 7.68601 3.70291 7.82596 3.77925 7.77143C3.79924 7.75689 3.81742 7.74417 3.83741 7.72963C3.92284 7.67147 4.01372 7.62239 4.10824 7.5824C4.06461 7.60058 4.02099 7.61875 3.97737 7.63693C4.11187 7.58058 4.25365 7.54241 4.39724 7.5206C4.34816 7.52787 4.3009 7.53333 4.25183 7.5406C4.40269 7.5206 4.55174 7.5206 4.7026 7.5406C4.65352 7.53333 4.60626 7.52787 4.55719 7.5206C4.7026 7.54241 4.84255 7.58058 4.97706 7.63693C4.93344 7.61875 4.88981 7.60058 4.84619 7.5824C4.94071 7.62421 5.03159 7.67328 5.11701 7.72963C5.13701 7.74235 5.15518 7.75689 5.17518 7.77143C5.25334 7.82596 5.06794 7.68055 5.13883 7.74417C5.177 7.77871 5.21517 7.81142 5.25152 7.84777C5.28787 7.88413 5.32059 7.9223 5.35512 7.96047C5.41329 8.02772 5.27333 7.84777 5.32786 7.92411C5.3424 7.94411 5.35512 7.96228 5.36966 7.98228C5.42783 8.06771 5.4769 8.15859 5.51689 8.2531C5.49871 8.20948 5.48054 8.16586 5.46236 8.12224C5.51871 8.25674 5.55688 8.39851 5.57869 8.54211C5.57142 8.49303 5.56597 8.44577 5.5587 8.3967C5.56778 8.47122 5.57324 8.54574 5.57324 8.62208C5.57505 8.90745 5.82225 9.18009 6.11852 9.16737C6.41298 9.15464 6.66744 8.92744 6.66381 8.62208Z" fill="black"/>
<path d="M15.0921 14.0386C15.0885 13.2425 14.7504 12.4482 14.1506 11.9193C13.6053 11.4358 12.9183 11.1795 12.1894 11.1795C11.7768 11.1795 11.3642 11.1795 10.9516 11.1795C10.3209 11.1795 9.6938 11.3213 9.17759 11.7012C8.81407 11.9684 8.50144 12.2992 8.29241 12.7009C8.07793 13.1153 7.96161 13.5715 7.95979 14.0404C7.95797 14.3258 8.21244 14.5984 8.50507 14.5857C8.80135 14.573 9.04854 14.3458 9.05036 14.0404C9.05036 13.9387 9.05763 13.8387 9.07035 13.7387C9.06308 13.7878 9.05763 13.835 9.05036 13.8841C9.07762 13.6824 9.13033 13.4842 9.20849 13.2952C9.19032 13.3388 9.17214 13.3825 9.15396 13.4261C9.21213 13.2898 9.2812 13.1589 9.36299 13.0371C9.38298 13.008 9.40298 12.9789 9.42479 12.9499C9.47387 12.8808 9.35027 13.0426 9.39025 12.9935C9.40116 12.9808 9.41025 12.968 9.41934 12.9571C9.46659 12.899 9.51749 12.8426 9.5702 12.7899C9.62109 12.739 9.6738 12.6918 9.72833 12.6463C9.74105 12.6354 9.75378 12.6263 9.76468 12.6172C9.83557 12.5573 9.67199 12.6827 9.72106 12.6518C9.75196 12.6336 9.77922 12.61 9.80831 12.59C9.93372 12.5045 10.0682 12.4337 10.2082 12.3755C10.1646 12.3937 10.1209 12.4119 10.0773 12.43C10.2663 12.3519 10.4627 12.2992 10.6662 12.2719C10.6171 12.2792 10.5699 12.2846 10.5208 12.2919C10.7626 12.261 11.0098 12.2719 11.2551 12.2719C11.5478 12.2719 11.8422 12.2719 12.1349 12.2719C12.2694 12.2719 12.402 12.2755 12.5366 12.2919C12.4875 12.2846 12.4402 12.2792 12.3911 12.2719C12.5929 12.2992 12.791 12.3519 12.9801 12.43C12.9364 12.4119 12.8928 12.3937 12.8492 12.3755C12.9855 12.4337 13.1164 12.5027 13.2382 12.5845C13.2672 12.6045 13.2963 12.6245 13.3254 12.6463C13.3945 12.6954 13.2327 12.5718 13.2818 12.6118C13.2945 12.6227 13.3072 12.6318 13.3181 12.6409C13.3763 12.6881 13.4326 12.739 13.4854 12.7917C13.5362 12.8426 13.5835 12.8953 13.6289 12.9499C13.6398 12.9626 13.6489 12.9753 13.658 12.9862C13.718 13.0571 13.5926 12.8935 13.6235 12.9426C13.6417 12.9735 13.6653 13.0008 13.6853 13.0298C13.7707 13.1553 13.8416 13.2898 13.8998 13.4297C13.8816 13.3861 13.8634 13.3425 13.8452 13.2988C13.9234 13.4879 13.9761 13.6842 14.0034 13.8878C13.9961 13.8387 13.9906 13.7914 13.9834 13.7423C13.9961 13.8423 14.0016 13.9423 14.0034 14.0441C14.0052 14.3294 14.2524 14.6021 14.5487 14.5894C14.8413 14.5712 15.0939 14.344 15.0921 14.0386Z" fill="black"/>
<path d="M13.7162 8.62208C13.7125 8.19131 13.5889 7.74417 13.3345 7.38973C13.0546 6.99895 12.6892 6.71722 12.2366 6.54999C11.4151 6.24827 10.4081 6.52455 9.85555 7.20252C9.55019 7.57877 9.37388 8.00954 9.33753 8.49303C9.30481 8.92562 9.42296 9.38366 9.64835 9.75264C9.86828 10.1107 10.1954 10.4215 10.5808 10.5942C11.0316 10.796 11.506 10.8559 11.9913 10.7596C12.9928 10.5633 13.7089 9.62541 13.7162 8.62208C13.718 8.33671 13.4635 8.06407 13.1709 8.0768C12.8728 8.08952 12.6274 8.31672 12.6256 8.62208C12.6256 8.69842 12.6202 8.77294 12.6111 8.84747C12.6183 8.79839 12.6238 8.75113 12.6311 8.70206C12.6092 8.84747 12.5711 8.98742 12.5147 9.12193C12.5329 9.0783 12.5511 9.03468 12.5693 8.99106C12.5275 9.08557 12.4784 9.17646 12.422 9.26188C12.4093 9.28188 12.3948 9.30005 12.3802 9.32005C12.3257 9.3982 12.4711 9.21281 12.4075 9.28369C12.373 9.32186 12.3402 9.36003 12.3039 9.39639C12.2675 9.43274 12.2294 9.46546 12.1912 9.49999C12.1239 9.55815 12.3039 9.4182 12.2275 9.47273C12.2076 9.48727 12.1894 9.49999 12.1694 9.51453C12.084 9.5727 11.9931 9.62177 11.8986 9.66176C11.9422 9.64358 11.9858 9.62541 12.0294 9.60723C11.8949 9.66358 11.7531 9.70175 11.6096 9.72356C11.6586 9.71629 11.7059 9.71084 11.755 9.70356C11.6041 9.72356 11.4551 9.72356 11.3042 9.70356C11.3533 9.71084 11.4005 9.71629 11.4496 9.72356C11.3042 9.70175 11.1642 9.66358 11.0297 9.60723C11.0734 9.62541 11.117 9.64358 11.1606 9.66176C11.0661 9.61995 10.9752 9.57088 10.8898 9.51453C10.8698 9.50181 10.8516 9.48727 10.8316 9.47273C10.7535 9.4182 10.9389 9.56361 10.868 9.49999C10.8298 9.46546 10.7916 9.43274 10.7553 9.39639C10.7189 9.36003 10.6862 9.32186 10.6517 9.28369C10.5935 9.21644 10.7335 9.39639 10.6789 9.32005C10.6644 9.30005 10.6517 9.28188 10.6371 9.26188C10.579 9.17646 10.5299 9.08557 10.4899 8.99106C10.5081 9.03468 10.5263 9.0783 10.5444 9.12193C10.4881 8.98742 10.4499 8.84565 10.4281 8.70206C10.4354 8.75113 10.4408 8.79839 10.4481 8.84747C10.4281 8.6966 10.4281 8.54756 10.4481 8.3967C10.4408 8.44577 10.4354 8.49303 10.4281 8.54211C10.4499 8.3967 10.4881 8.25674 10.5444 8.12224C10.5263 8.16586 10.5081 8.20948 10.4899 8.2531C10.5317 8.15859 10.5808 8.06771 10.6371 7.98228C10.6499 7.96228 10.6644 7.94411 10.6789 7.92411C10.7335 7.84596 10.5881 8.03135 10.6517 7.96047C10.6862 7.9223 10.7189 7.88413 10.7553 7.84777C10.7916 7.81142 10.8298 7.77871 10.868 7.74417C10.9352 7.68601 10.7553 7.82596 10.8316 7.77143C10.8516 7.75689 10.8698 7.74417 10.8898 7.72963C10.9752 7.67147 11.0661 7.62239 11.1606 7.5824C11.117 7.60058 11.0734 7.61875 11.0297 7.63693C11.1642 7.58058 11.306 7.54241 11.4496 7.5206C11.4005 7.52787 11.3533 7.53333 11.3042 7.5406C11.4551 7.5206 11.6041 7.5206 11.755 7.5406C11.7059 7.53333 11.6586 7.52787 11.6096 7.5206C11.755 7.54241 11.8949 7.58058 12.0294 7.63693C11.9858 7.61875 11.9422 7.60058 11.8986 7.5824C11.9931 7.62421 12.084 7.67328 12.1694 7.72963C12.1894 7.74235 12.2076 7.75689 12.2275 7.77143C12.3057 7.82596 12.1203 7.68055 12.1912 7.74417C12.2294 7.77871 12.2675 7.81142 12.3039 7.84777C12.3402 7.88413 12.373 7.9223 12.4075 7.96047C12.4657 8.02772 12.3257 7.84777 12.3802 7.92411C12.3948 7.94411 12.4075 7.96228 12.422 7.98228C12.4802 8.06771 12.5293 8.15859 12.5693 8.2531C12.5511 8.20948 12.5329 8.16586 12.5147 8.12224C12.5711 8.25674 12.6092 8.39851 12.6311 8.54211C12.6238 8.49303 12.6183 8.44577 12.6111 8.3967C12.6202 8.47122 12.6256 8.54574 12.6256 8.62208C12.6274 8.90745 12.8746 9.18009 13.1709 9.16737C13.4653 9.15464 13.7198 8.92744 13.7162 8.62208Z" fill="black"/>
<path d="M1.30182 10.3052C1.26728 10.3052 1.23457 10.3034 1.20185 10.2979C1.25093 10.3052 1.29818 10.3107 1.34726 10.3179C1.28183 10.3088 1.22003 10.2925 1.16005 10.267C1.20367 10.2852 1.24729 10.3034 1.29091 10.3216C1.24729 10.3016 1.20549 10.2779 1.1655 10.2543C1.09279 10.2125 1.25274 10.3343 1.20912 10.2907C1.19276 10.2743 1.17277 10.2598 1.15641 10.2434C1.14187 10.2289 1.12915 10.2143 1.11642 10.1998C1.05462 10.1343 1.18913 10.3143 1.1455 10.2343C1.12188 10.1925 1.09825 10.1525 1.07825 10.1089C1.09643 10.1525 1.1146 10.1961 1.13278 10.2398C1.10915 10.178 1.09279 10.1162 1.08189 10.0526C1.08916 10.1016 1.09461 10.1489 1.10188 10.198C1.09098 10.1016 1.09461 10.0035 1.09461 9.90714C1.09461 9.71993 1.09461 9.53453 1.09461 9.34732C1.09461 8.72387 1.09461 8.10043 1.09461 7.47517C1.09461 6.71359 1.09461 5.952 1.09461 5.19042C1.09461 4.5379 1.09461 3.88355 1.09461 3.23103C1.09461 2.92203 1.09098 2.61485 1.09461 2.30586C1.09461 2.26951 1.09643 2.23315 1.10188 2.1968C1.09461 2.24588 1.08916 2.29314 1.08189 2.34221C1.09098 2.27678 1.10733 2.21498 1.13278 2.155C1.1146 2.19862 1.09643 2.24224 1.07825 2.28587C1.09825 2.24224 1.12188 2.20044 1.1455 2.16045C1.18731 2.08774 1.06553 2.2477 1.10915 2.20407C1.12551 2.18771 1.14005 2.16772 1.15641 2.15136C1.17095 2.13682 1.18549 2.1241 1.20003 2.11137C1.26547 2.04957 1.08552 2.18408 1.1655 2.14046C1.2073 2.11683 1.24729 2.0932 1.29091 2.0732C1.24729 2.09138 1.20367 2.10956 1.16005 2.12773C1.22184 2.1041 1.28364 2.08774 1.34726 2.07684C1.29818 2.08411 1.25093 2.08956 1.20185 2.09683C1.34544 2.08047 1.4963 2.08956 1.64171 2.08956C1.96343 2.08956 2.28515 2.08956 2.60687 2.08956C3.08672 2.08956 3.56657 2.08956 4.04643 2.08956C4.63715 2.08956 5.22788 2.08956 5.8186 2.08956C6.46386 2.08956 7.10911 2.08956 7.75437 2.08956C8.40871 2.08956 9.06306 2.08956 9.7174 2.08956C10.3245 2.08956 10.9316 2.08956 11.5387 2.08956C12.053 2.08956 12.5656 2.08956 13.08 2.08956C13.4453 2.08956 13.8107 2.08956 14.176 2.08956C14.3451 2.08956 14.5141 2.08956 14.6831 2.08956C14.7213 2.08956 14.7613 2.09138 14.7995 2.09683C14.7504 2.08956 14.7031 2.08411 14.6541 2.07684C14.7195 2.08593 14.7813 2.10229 14.8413 2.12773C14.7976 2.10956 14.754 2.09138 14.7104 2.0732C14.754 2.0932 14.7958 2.11683 14.8358 2.14046C14.9085 2.18226 14.7486 2.06048 14.7922 2.1041C14.8086 2.12046 14.8285 2.135 14.8449 2.15136C14.8594 2.1659 14.8722 2.18044 14.8849 2.19498C14.9467 2.26042 14.8122 2.08047 14.8558 2.16045C14.8794 2.20225 14.9031 2.24224 14.9231 2.28587C14.9049 2.24224 14.8867 2.19862 14.8685 2.155C14.8922 2.2168 14.9085 2.27859 14.9194 2.34221C14.9122 2.29314 14.9067 2.24588 14.8994 2.1968C14.9103 2.29314 14.9067 2.39129 14.9067 2.48762C14.9067 2.67484 14.9067 2.86023 14.9067 3.04745C14.9067 3.67089 14.9067 4.29433 14.9067 4.9196C14.9067 5.68118 14.9067 6.44276 14.9067 7.20434C14.9067 7.85687 14.9067 8.51121 14.9067 9.16374C14.9067 9.47273 14.9103 9.77991 14.9067 10.0889C14.9067 10.1253 14.9049 10.1616 14.8994 10.198C14.9067 10.1489 14.9122 10.1016 14.9194 10.0526C14.9103 10.118 14.894 10.1798 14.8685 10.2398C14.8867 10.1961 14.9049 10.1525 14.9231 10.1089C14.9031 10.1525 14.8794 10.1943 14.8558 10.2343C14.814 10.307 14.9358 10.1471 14.8922 10.1907C14.8758 10.2071 14.8613 10.227 14.8449 10.2434C14.8304 10.2579 14.8158 10.2707 14.8013 10.2834C14.7358 10.3452 14.9158 10.2107 14.8358 10.2543C14.794 10.2779 14.754 10.3016 14.7104 10.3216C14.754 10.3034 14.7976 10.2852 14.8413 10.267C14.7795 10.2907 14.7177 10.307 14.6541 10.3179C14.7031 10.3107 14.7504 10.3052 14.7995 10.2979C14.7667 10.3016 14.7322 10.3034 14.6995 10.3052C14.4141 10.3107 14.1415 10.5524 14.1542 10.8505C14.1669 11.1413 14.3941 11.4012 14.6995 11.3958C15.4156 11.3831 15.99 10.8087 15.9991 10.0925C16.0009 10.0017 15.9991 9.91078 15.9991 9.8199C15.9991 9.31278 15.9991 8.80748 15.9991 8.30037C15.9991 7.56423 15.9991 6.82628 15.9991 6.09014C15.9991 5.36491 15.9991 4.63968 15.9991 3.91263C15.9991 3.44005 15.9991 2.96747 15.9991 2.49671C15.9991 2.40583 16.0027 2.31495 15.9955 2.22407C15.9591 1.79874 15.7464 1.4334 15.3884 1.19893C15.1866 1.06624 14.934 1.00263 14.694 1.00081C14.5014 0.99899 14.3069 1.00081 14.1124 1.00081C13.6525 1.00081 13.1927 1.00081 12.7328 1.00081C12.0894 1.00081 11.4441 1.00081 10.8007 1.00081C10.0555 1.00081 9.30843 1.00081 8.56321 1.00081C7.79436 1.00081 7.0255 1.00081 6.25665 1.00081C5.55323 1.00081 4.84981 1.00081 4.14639 1.00081C3.58657 1.00081 3.02856 1.00081 2.46873 1.00081C2.13611 1.00081 1.80348 1.00081 1.47268 1.00081C1.41633 1.00081 1.3618 1.00081 1.30545 1.00081C0.598401 1.0099 0.0276682 1.56972 0.00403915 2.27496C-0.00504894 2.54578 0.00403915 2.81843 0.00403915 3.09107C0.00403915 3.72542 0.00403915 4.35795 0.00403915 4.9923C0.00403915 5.75388 0.00403915 6.51547 0.00403915 7.27705C0.00403915 7.92412 0.00403915 8.57301 0.00403915 9.22008C0.00403915 9.51272 0.000403915 9.80354 0.00403915 10.0962C0.0131273 10.8123 0.589313 11.3867 1.30364 11.3994C1.589 11.4049 1.86165 11.1449 1.84892 10.8541C1.83438 10.5506 1.60718 10.3107 1.30182 10.3052Z" fill="black"/>
</svg>
