<svg width="16" height="16" viewBox="0 0 16 16" fill="none" xmlns="http://www.w3.org/2000/svg">
<path d="M4.01673 7.52946C3.85657 7.25257 3.76495 6.93115 3.76495 6.5883V1.88235C3.76495 0.842734 4.60768 0 5.6473 0H10.353C11.3926 0 12.2353 0.842734 12.2353 1.88235V6.5883C12.2353 6.93115 12.1437 7.25258 11.9835 7.52946H14.1176C15.1573 7.52946 16 8.3722 16 9.4117V14.1176C16 15.1573 15.1573 16 14.1176 16H9.4117C8.84953 16 8.34485 15.7536 8 15.3627C7.65515 15.7536 7.15047 16 6.5883 16H1.88235C0.842734 16 0 15.1573 0 14.1176V9.4117C0 8.3722 0.842734 7.52946 1.88235 7.52946H4.01673ZM1.88261 8.47054C1.36276 8.47054 0.941447 8.89196 0.941447 9.4117V14.1176C0.941447 14.6375 1.36276 15.0588 1.88261 15.0588H6.58856C7.10829 15.0588 7.52972 14.6375 7.52972 14.1176V9.4117C7.52972 8.89196 7.10829 8.47054 6.58856 8.47054H1.88261ZM5.64742 0.94119C5.12757 0.94119 4.70626 1.3625 4.70626 1.88235V6.5883C4.70626 7.10804 5.12757 7.52946 5.64742 7.52946H10.3531C10.8729 7.52946 11.2942 7.10804 11.2942 6.5883V1.88235C11.2942 1.3625 10.8729 0.94119 10.3531 0.94119H5.64742ZM9.41195 8.47054C8.89222 8.47054 8.47079 8.89196 8.47079 9.4117V14.1176C8.47079 14.6375 8.89222 15.0588 9.41195 15.0588H14.1179C14.6378 15.0588 15.0591 14.6375 15.0591 14.1176V9.4117C15.0591 8.89196 14.6378 8.47054 14.1179 8.47054H9.41195ZM4.63629 9.87098L6.51864 12.9298C6.71161 13.2434 6.48606 13.6471 6.11788 13.6471H2.35306C1.98498 13.6471 1.75944 13.2434 1.95229 12.9298L3.83464 9.87098C4.01846 9.57244 4.45249 9.57244 4.63621 9.87098H4.63629ZM3.19534 12.7059H5.27566L4.2355 11.0155L3.19534 12.7059ZM8.00014 6.35282C6.83061 6.35282 5.88254 5.40471 5.88254 4.23521C5.88254 3.06571 6.83064 2.11761 8.00014 2.11761C9.16964 2.11761 10.1177 3.06571 10.1177 4.23521C10.1177 5.40471 9.16964 6.35282 8.00014 6.35282ZM8.00014 5.41166C8.64991 5.41166 9.17659 4.88498 9.17659 4.23521C9.17659 3.58556 8.64991 3.05877 8.00014 3.05877C7.35038 3.05877 6.8237 3.58556 6.8237 4.23521C6.8237 4.88498 7.35038 5.41166 8.00014 5.41166ZM10.8237 9.88218H12.706C13.2257 9.88218 13.6472 10.3035 13.6472 10.8233V12.7057C13.6472 13.2254 13.2257 13.6469 12.706 13.6469H10.8237C10.3038 13.6469 9.88249 13.2254 9.88249 12.7057V10.8233C9.88249 10.3035 10.3038 9.88218 10.8237 9.88218ZM10.8237 10.8233V12.7057H12.706V10.8233H10.8237Z" fill="#212121"/>
</svg>
