<svg width="16" height="16" viewBox="0 0 16 16" fill="none" xmlns="http://www.w3.org/2000/svg">
<rect width="16" height="16" fill="white"/>
<path d="M12.0345 1.86323C12.0992 1.70072 12.1325 1.52747 12.1329 1.35258C12.1323 1.071 12.0441 0.796596 11.8804 0.567465C11.7168 0.338334 11.4858 0.165851 11.2196 0.0739667C11.046 0.0136572 10.8618 -0.010177 10.6786 0.00395481C10.4953 0.0180866 10.3169 0.0698806 10.1546 0.156097C9.9909 0.242537 9.84653 0.361435 9.73031 0.505532C9.61409 0.649628 9.52845 0.815901 9.47864 0.994197L8.50641 4.53379C8.06539 4.55775 7.64167 4.71333 7.28994 4.98046C6.93821 5.24758 6.67461 5.61399 6.53315 6.0324L6.40622 6.40038H2.79997C2.5878 6.40038 2.38433 6.48466 2.23431 6.63469C2.08428 6.78471 2 6.98818 2 7.20035V8.26697C2.00061 8.43882 2.05666 8.60587 2.1598 8.74332C2.26295 8.88077 2.40769 8.98126 2.57251 9.02988L3.7458 15.1363C3.79297 15.3797 3.92347 15.5991 4.11487 15.7567C4.30627 15.9144 4.54661 16.0004 4.79456 16H11.4716C11.7196 16.0003 11.9599 15.9142 12.1513 15.7564C12.3426 15.5987 12.4731 15.3792 12.5201 15.1358L12.6966 14.2169C12.8121 14.3117 12.9518 14.3723 13.1 14.3915C13.2482 14.4108 13.3988 14.388 13.5346 14.3258C13.6705 14.2635 13.7861 14.1644 13.8683 14.0396C13.9505 13.9148 13.996 13.7695 13.9995 13.6201C14.0026 13.5151 13.9848 13.4105 13.947 13.3124C13.9093 13.2144 13.8525 13.1248 13.7798 13.0489L13.0662 12.2977L13.6939 9.02988C13.8587 8.98122 14.0034 8.8807 14.1065 8.74326C14.2096 8.60581 14.2656 8.43878 14.2662 8.26697V7.20035C14.2662 6.98818 14.1819 6.78471 14.0319 6.63469C13.8818 6.48466 13.6784 6.40038 13.4662 6.40038H11.2706C11.1679 5.97258 10.9423 5.58417 10.6215 5.28309L12.0345 1.86323ZM11.4716 15.4667H4.79456C4.67061 15.4669 4.55046 15.424 4.45474 15.3452C4.35902 15.2665 4.29372 15.1569 4.27004 15.0352L3.12289 9.06694H7.78937L12.2425 13.7537L11.9961 15.0355C11.9724 15.1571 11.9071 15.2667 11.8114 15.3454C11.7156 15.424 11.5955 15.4669 11.4716 15.4667ZM13.4643 13.6065C13.4633 13.6768 13.4346 13.7439 13.3843 13.7932C13.3322 13.8403 13.2639 13.8655 13.1936 13.8638C13.1234 13.862 13.0565 13.8333 13.0068 13.7836L7.9403 8.45043C7.89164 8.39918 7.86532 8.3307 7.86712 8.26005C7.86892 8.1894 7.89869 8.12236 7.9499 8.07365C8.00176 8.02594 8.07013 8.00024 8.14058 8.00198C8.21102 8.00372 8.27804 8.03277 8.32748 8.08298L13.3939 13.4161C13.4416 13.4678 13.4669 13.5362 13.4643 13.6065ZM9.99701 9.06694H13.1436L12.6129 11.822L9.99701 9.06694ZM13.7329 7.20035V8.26697C13.7329 8.3377 13.7048 8.40552 13.6548 8.45553C13.6048 8.50554 13.5369 8.53363 13.4662 8.53363H9.49037L8.7128 7.71526C8.58648 7.58279 8.41854 7.49765 8.23703 7.47404C8.05551 7.45044 7.87139 7.4898 7.71539 7.58555C7.55938 7.68131 7.44094 7.82766 7.37981 8.0002C7.31869 8.17274 7.31859 8.36102 7.37952 8.53363H2.79997C2.72925 8.53363 2.66142 8.50554 2.61141 8.45553C2.56141 8.40552 2.53331 8.3377 2.53331 8.26697V7.20035C2.53331 7.12963 2.56141 7.0618 2.61141 7.0118C2.66142 6.96179 2.72925 6.93369 2.79997 6.93369H13.4662C13.5369 6.93369 13.6048 6.96179 13.6548 7.0118C13.7048 7.0618 13.7329 7.12963 13.7329 7.20035ZM10.7173 6.40038H6.9694L7.03607 6.20466C7.15313 5.86062 7.37831 5.56366 7.678 5.35812C7.97769 5.15257 8.33582 5.04946 8.69893 5.06417C8.75879 5.06571 8.81746 5.04732 8.86572 5.01189C8.91399 4.97647 8.94912 4.92601 8.96559 4.86844L9.99195 1.13526C10.0217 1.02688 10.0735 0.925822 10.1441 0.838408C10.2147 0.750994 10.3026 0.679115 10.4023 0.627278C10.5002 0.575193 10.6078 0.543837 10.7184 0.535167C10.829 0.526496 10.9401 0.540695 11.045 0.57688C11.2066 0.632482 11.3468 0.73707 11.4463 0.876096C11.5457 1.01512 11.5993 1.18167 11.5996 1.35258C11.5994 1.45922 11.5791 1.56487 11.5399 1.66404L10.0546 5.25883C10.0322 5.31302 10.0283 5.37309 10.0435 5.42973C10.0587 5.48637 10.0921 5.53642 10.1386 5.57215C10.4109 5.78323 10.6127 6.07205 10.7173 6.40038Z" fill="black"/>
</svg>
