<svg width="16" height="16" viewBox="0 0 16 16" fill="none" xmlns="http://www.w3.org/2000/svg">
<path d="M16 9.8469C15.961 9.39788 15.8048 8.91959 15.6291 8.43154L14.5944 5.42512C14.4089 4.88826 14.1747 4.5271 13.8721 4.30259C13.5793 4.08785 13.2474 4 12.7593 4H3.25201C2.76396 4 2.42232 4.08785 2.13925 4.30259C1.82689 4.5271 1.60239 4.88826 1.41693 5.42512L0.382251 8.43154C0.216312 8.91959 0.0601349 9.38812 0.0113295 9.8469C-0.037476 10.3838 0.069896 10.823 0.362729 11.2037C0.938633 11.9553 1.64143 11.9553 2.95918 11.9455H13.0717C13.179 11.9455 13.2864 11.9455 13.384 11.9455C14.4675 11.9455 15.102 11.887 15.6291 11.2037C15.9219 10.823 16.039 10.3935 15.9805 9.8469H16ZM14.9751 9.94451C15.0044 10.2178 14.9556 10.413 14.8287 10.579C14.5749 10.9109 14.1259 10.9304 13.0814 10.9206H3.30082H2.9299C1.91474 10.9206 1.45597 10.9206 1.18266 10.579C1.05577 10.413 1.00696 10.2178 1.03624 9.94451C1.06553 9.61263 1.21194 9.18314 1.3486 8.76341L2.38328 5.757C2.50041 5.42512 2.60778 5.22014 2.73467 5.13229C2.83229 5.06396 2.98846 5.02491 3.25201 5.02491H12.7593C13.0229 5.02491 13.1693 5.0542 13.2767 5.13229C13.4036 5.22014 13.5207 5.42512 13.6281 5.757L14.6627 8.76341C14.8091 9.1929 14.9458 9.61263 14.9751 9.94451Z" fill="#212121"/>
<path d="M11.3928 7.81659H10.3483V6.37195H8.51326V7.80683H7.46882V6.37195H5.6435V7.80683H4.59906V6.37195H2.76398V8.20703H4.19886V9.64191H6.03394V8.20703H7.07838V9.64191H8.90371V8.20703H9.9579V9.64191H11.793V8.20703H13.2279V6.37195H11.3928V7.81659Z" fill="#212121"/>
</svg>
