<svg width="16" height="16" viewBox="0 0 16 16" fill="none" xmlns="http://www.w3.org/2000/svg">
<rect width="16" height="16" fill="white"/>
<path d="M7.99995 4.92212C5.8419 4.92212 3.80403 5.8743 2.40829 7.53457C2.14873 7.84337 2.18855 8.30418 2.49789 8.56373C2.63478 8.67858 2.80136 8.73511 2.9674 8.73511C3.17594 8.73511 3.38287 8.6464 3.52705 8.47449C4.64367 7.14559 6.27444 6.38328 7.99995 6.38328C9.72565 6.38328 11.3562 7.14559 12.4734 8.47466C12.6181 8.64711 12.825 8.73529 13.033 8.73529C13.1991 8.73529 13.3657 8.67929 13.5026 8.56391C13.8119 8.30435 13.8517 7.84302 13.5922 7.53475C12.1959 5.8743 10.158 4.92212 7.99995 4.92212Z" fill="black"/>
<path d="M15.8286 5.65815C13.8746 3.33298 11.0211 2 7.99994 2C4.97877 2 2.12561 3.33298 0.171289 5.65815C-0.0882677 5.96695 -0.0484453 6.42757 0.260889 6.68731C0.397778 6.80233 0.563824 6.85868 0.729869 6.85868C0.938225 6.85868 1.14534 6.76997 1.28987 6.59806C2.96543 4.60463 5.41131 3.46116 7.99994 3.46116C10.5886 3.46116 13.0344 4.60481 14.7098 6.59771C14.8545 6.76962 15.0615 6.85833 15.27 6.85833C15.4361 6.85833 15.6026 6.80233 15.7395 6.68695C16.0483 6.42757 16.0883 5.96641 15.8286 5.65815Z" fill="black"/>
<path d="M7.99992 13.6891C8.8069 13.6891 9.46108 13.0349 9.46108 12.2279C9.46108 11.421 8.8069 10.7668 7.99992 10.7668C7.19294 10.7668 6.53876 11.421 6.53876 12.2279C6.53876 13.0349 7.19294 13.6891 7.99992 13.6891Z" fill="black"/>
<path d="M7.99995 7.84448C6.70448 7.84448 5.48136 8.41586 4.64474 9.41178C4.38518 9.72058 4.425 10.1814 4.73434 10.4409C4.87123 10.556 5.03781 10.6123 5.20385 10.6123C5.41221 10.6123 5.61932 10.5236 5.7635 10.3517C6.32208 9.6868 7.13737 9.30547 7.99995 9.30547C8.86253 9.30547 9.67782 9.6868 10.2364 10.3517C10.3811 10.5241 10.588 10.6123 10.796 10.6123C10.9621 10.6123 11.1287 10.5563 11.2656 10.4409C11.5749 10.1814 11.6147 9.72058 11.3552 9.41178C10.5185 8.41586 9.29542 7.84448 7.99995 7.84448Z" fill="black"/>
</svg>
