<svg width="16" height="16" viewBox="0 0 16 16" fill="none" xmlns="http://www.w3.org/2000/svg">
<path d="M7.98869 0.000182829C7.96967 0.00107059 7.95064 0.00284615 7.93188 0.00576333C7.81355 0.0212361 7.70346 0.075137 7.61874 0.159225L0.173902 7.43198C0.0662262 7.53218 0.00357326 7.67169 0.000147925 7.81881C-0.00327742 7.96592 0.0529081 8.10823 0.155892 8.21335C0.25875 8.31837 0.39978 8.37734 0.546901 8.37683C0.693891 8.3762 0.834418 8.31621 0.936642 8.21031L2.00668 7.16488V15.4545C2.00668 15.5995 2.06426 15.7385 2.16674 15.8408C2.26921 15.9432 2.40821 16.0004 2.55304 16H13.4469C13.5918 16.0004 13.7308 15.9432 13.8332 15.8408C13.9357 15.7385 13.9934 15.5995 13.9933 15.4545V7.16488L15.0633 8.21031C15.1655 8.31621 15.3061 8.3762 15.4531 8.37683C15.6002 8.37734 15.7412 8.31837 15.8441 8.21335C15.947 8.10821 16.0032 7.96591 15.9998 7.81881C15.9964 7.6717 15.9337 7.53218 15.826 7.43198L8.38121 0.159225C8.27709 0.0552279 8.13542 -0.00210025 7.98842 5.88506e-05L7.98869 0.000182829ZM8.00011 1.30701L12.9008 6.09664V14.9093H3.09944V6.09664L8.00011 1.30701ZM4.48256 6.21612C4.34762 6.2302 4.22294 6.29386 4.1324 6.39469C4.04197 6.49539 3.99225 6.62628 3.99301 6.76161V9.30701C3.99301 9.45159 4.05059 9.59034 4.15307 9.69269C4.25554 9.79492 4.39455 9.8525 4.53937 9.8525H7.08935C7.23418 9.8525 7.37319 9.79492 7.47565 9.69269C7.57812 9.59035 7.6357 9.4516 7.6357 9.30701V6.76161C7.6357 6.6169 7.57813 6.47815 7.47565 6.37593C7.37317 6.27358 7.23417 6.21612 7.08935 6.21612H4.53937C4.52047 6.21511 4.50146 6.21511 4.48256 6.21612ZM8.85368 6.21612C8.71887 6.2302 8.59407 6.29386 8.50365 6.39469C8.41309 6.49539 8.36351 6.62628 8.36414 6.76161V9.30701C8.36414 9.45159 8.42172 9.59034 8.5242 9.69269C8.62667 9.79492 8.76567 9.8525 8.91049 9.8525H11.4605C11.6053 9.8525 11.7443 9.79492 11.8468 9.69269C11.9492 9.59035 12.0068 9.4516 12.0068 9.30701V6.76161C12.0068 6.6169 11.9493 6.47815 11.8468 6.37593C11.7443 6.27358 11.6053 6.21612 11.4605 6.21612H8.91049C8.8916 6.21511 8.87258 6.21511 8.85368 6.21612ZM5.08581 7.3071H6.54293V8.76168H5.08581V7.3071ZM9.45693 7.3071H10.914V8.76168H9.45693V7.3071ZM4.48256 10.5798C4.34762 10.5939 4.22294 10.6576 4.1324 10.7583C4.04197 10.8591 3.99225 10.9899 3.99301 11.1252V13.6707C3.99301 13.8153 4.05059 13.9541 4.15307 14.0564C4.25554 14.1586 4.39455 14.2162 4.53937 14.2162H7.08935C7.23418 14.2162 7.37319 14.1586 7.47565 14.0564C7.57812 13.9541 7.6357 13.8153 7.6357 13.6707V11.1252C7.6357 10.9806 7.57813 10.8419 7.47565 10.7395C7.37317 10.6373 7.23417 10.5798 7.08935 10.5798H4.53937C4.52047 10.5788 4.50146 10.5788 4.48256 10.5798ZM8.85368 10.5798C8.71887 10.5939 8.59407 10.6576 8.50365 10.7583C8.41309 10.8591 8.36351 10.9899 8.36414 11.1252V13.6707C8.36414 13.8153 8.42172 13.9541 8.5242 14.0564C8.62667 14.1586 8.76567 14.2162 8.91049 14.2162H11.4605C11.6053 14.2162 11.7443 14.1586 11.8468 14.0564C11.9492 13.9541 12.0068 13.8153 12.0068 13.6707V11.1252C12.0068 10.9806 11.9493 10.8419 11.8468 10.7395C11.7443 10.6373 11.6053 10.5798 11.4605 10.5798H8.91049C8.8916 10.5788 8.87258 10.5788 8.85368 10.5798ZM5.08581 11.6708H6.54293V13.1254H5.08581V11.6708ZM9.45693 11.6708H10.914V13.1254H9.45693V11.6708Z" fill="#212121"/>
</svg>
