<svg width="16" height="16" viewBox="0 0 16 16" fill="none" xmlns="http://www.w3.org/2000/svg">
<path d="M8.12207 5.75137C4.48644 5.75137 0.62207 6.72141 0.62207 8.51581V11.4793C0.62207 13.2737 4.48654 14.2438 8.12207 14.2438C11.7576 14.2438 15.6221 13.2737 15.6221 11.4793V8.51581C15.6221 7.21758 13.6055 6.35412 11.1169 5.97276V3.71019C11.1169 3.36539 11.403 3.08495 11.7548 3.08495C12.1066 3.08495 12.3927 3.3654 12.3927 3.71019V4.75593C12.3927 4.98867 12.5844 5.17642 12.8217 5.17642C13.0591 5.17642 13.2506 4.98847 13.2506 4.75593V3.71019C13.2506 2.90266 12.5812 2.24377 11.7546 2.24377C11.337 2.24377 10.9595 2.41197 10.6877 2.68401C10.4159 2.41197 10.0384 2.24377 9.62078 2.24377C8.79692 2.24377 8.12472 2.8999 8.12472 3.71019V5.75142H8.12192L8.12207 5.75137ZM10.685 8.52422C10.9225 8.52422 11.114 8.33628 11.114 8.10374V6.81687C13.4224 7.18416 14.761 7.93281 14.761 8.51604C14.761 8.86377 14.2634 9.27311 13.4309 9.60951C12.1322 10.1366 10.1958 10.4366 8.11918 10.4366C6.04259 10.4366 4.10607 10.1339 2.80742 9.60951C1.97498 9.27019 1.47737 8.86086 1.47737 8.51329C1.47737 7.71142 4.0032 6.59002 8.11923 6.59002H8.12202V8.10124C8.12202 8.33397 8.31377 8.52172 8.55101 8.52172C8.78845 8.52172 8.98 8.33377 8.98 8.10124V6.60959C9.42615 6.62641 9.85233 6.65731 10.253 6.69936V8.10124C10.253 8.33397 10.4447 8.52172 10.682 8.52172L10.685 8.52422ZM14.7612 9.85881V11.4793C14.7612 12.2812 12.2354 13.4026 8.11936 13.4026C4.00307 13.4026 1.4775 12.2839 1.4775 11.4793V9.85881C1.73489 10.0383 2.06113 10.2177 2.47876 10.3859C3.87747 10.9522 5.93418 11.2775 8.11947 11.2775C10.3049 11.2775 12.3587 10.9523 13.7602 10.3859C14.1778 10.2149 14.5038 10.0381 14.7614 9.85881H14.7612ZM9.61804 3.08475C9.9698 3.08475 10.2559 3.3652 10.2559 3.70999V4.19775H8.98291V3.70999C8.98291 3.36519 9.26904 3.08475 9.62079 3.08475H9.61804ZM8.98016 5.03621H10.2532V5.86056C9.83554 5.81578 9.40657 5.78488 8.98016 5.76805V5.03621Z" fill="#212121"/>
</svg>
