<svg width="16" height="16" viewBox="0 0 16 16" fill="none" xmlns="http://www.w3.org/2000/svg">
<path fill-rule="evenodd" clip-rule="evenodd" d="M1.04651 8.32984C1.04651 4.85965 3.85965 2.04651 7.32984 2.04651C8.3139 2.04651 9.24374 2.27236 10.0717 2.67457C10.3316 2.80085 10.6447 2.6925 10.771 2.43256C10.8972 2.17262 10.7889 1.85953 10.529 1.73326C9.56163 1.26333 8.47575 1 7.32984 1C3.28168 1 0 4.28168 0 8.32984C0 12.378 3.28168 15.6597 7.32984 15.6597C8.81837 15.6597 10.2047 15.2154 11.3616 14.4521C11.6028 14.293 11.6694 13.9684 11.5102 13.7272C11.3511 13.486 11.0265 13.4194 10.7853 13.5786C9.79417 14.2325 8.60725 14.6132 7.32984 14.6132C3.85965 14.6132 1.04651 11.8 1.04651 8.32984ZM5.81054 8.32985C5.81054 7.49108 6.49049 6.81113 7.32926 6.81113C8.16802 6.81113 8.84798 7.49108 8.84798 8.32985C8.84798 9.16861 8.16802 9.84857 7.32926 9.84857C6.49049 9.84857 5.81054 9.16861 5.81054 8.32985ZM7.32926 5.76462C5.91252 5.76462 4.76403 6.91311 4.76403 8.32985C4.76403 9.74659 5.91252 10.8951 7.32926 10.8951C8.746 10.8951 9.89449 9.74659 9.89449 8.32985C9.89449 6.91311 8.746 5.76462 7.32926 5.76462ZM14.1722 1.04686C14.6034 0.968456 15.0004 1.29974 15.0004 1.73803V4.24589V9.67352C15.0006 9.67937 15.0007 9.68526 15.0007 9.69116V11.5062V14.7876C15.0007 15.2692 14.6102 15.6597 14.1286 15.6597H12.8067C12.3037 15.6597 11.905 15.2352 11.9363 14.7332L12.2284 10.0604L10.7923 9.58166C10.4447 9.46579 10.2102 9.14049 10.2102 8.77407V5.79414C10.2102 3.46223 11.8779 1.464 14.1722 1.04686ZM12.9273 9.19022C13.1546 9.25879 13.3134 9.47661 13.298 9.7238L12.9924 14.6132H13.9541V11.5062V9.70882C13.9539 9.70296 13.9538 9.69707 13.9538 9.69115V4.24589V2.17341C12.3695 2.64546 11.2567 4.10847 11.2567 5.79414V8.63335L12.9273 9.19022Z" fill="#212121"/>
</svg>
