<svg width="16" height="16" viewBox="0 0 16 16" fill="none" xmlns="http://www.w3.org/2000/svg">
<rect width="16" height="16" fill="white"/>
<path fill-rule="evenodd" clip-rule="evenodd" d="M12.4088 5.7181C12.1094 5.7181 11.8125 5.66161 11.5366 5.55157L12.8241 3.63122C12.927 3.47808 12.9365 3.27628 12.8496 3.11285C12.7629 2.94942 12.5933 2.84411 12.4088 2.84411H10.1039C10.3377 1.78075 11.2927 0.995112 12.4088 0.995112C13.7099 0.995112 14.7682 2.05553 14.7682 3.35644C14.7682 4.65752 13.7099 5.7181 12.4088 5.7181ZM6.95485 10.5866L9.77855 6.3746H4.13147L6.95485 10.5866ZM11.4716 3.84379H2.43856L3.46077 5.37508H10.4493L11.4716 3.84379ZM12.4088 0C11.5555 0 10.7426 0.315105 10.1186 0.897315C9.56043 1.41716 9.2001 2.09423 9.08761 2.84427H1.50141C1.31691 2.84427 1.14744 2.94974 1.06059 3.11301C0.973728 3.27628 0.979605 3.47546 1.08246 3.62845L6.44725 11.6395V15.0003H4.79466C4.51842 15.0003 4.29458 15.2232 4.29458 15.4994C4.29458 15.7757 4.51825 16 4.79466 16H9.11569C9.39177 16 9.61578 15.7757 9.61578 15.4994C9.61578 15.2233 9.39194 15.0003 9.11569 15.0003H7.4471V11.6396L10.967 6.39549C11.4138 6.6079 11.9093 6.71909 12.4065 6.71909C14.2593 6.71909 15.7669 5.21165 15.7669 3.35971C15.7669 1.50614 14.2609 0 12.4088 0Z" fill="black"/>
</svg>
