<svg width="16" height="16" viewBox="0 0 16 16" fill="none" xmlns="http://www.w3.org/2000/svg">
<path d="M8.0049 9.74273C8.28095 9.74273 8.50454 9.95734 8.50454 10.2219C8.50454 10.4867 8.28094 10.7013 8.0049 10.7013C7.53016 10.7013 7.07496 10.5206 6.73915 10.1989C6.40333 9.87727 6.21422 9.44086 6.21355 8.9856C6.21355 8.72102 6.43732 8.50642 6.71319 8.50642C6.98924 8.50642 7.21282 8.72102 7.21282 8.9856C7.21352 9.18667 7.29734 9.37921 7.44583 9.52113C7.59414 9.66303 7.79526 9.74273 8.0049 9.74273ZM8.0049 14.0438C3.67019 14.0438 1.00939 12.75 1.00939 11.8227C1.00939 11.4728 1.3691 11.0894 2.00866 10.7396H2.00884C2.12909 10.6801 2.21901 10.5763 2.25805 10.452C2.29708 10.3276 2.28175 10.1934 2.2157 10.0801C2.14965 9.96675 2.03863 9.88385 1.90776 9.85058C1.77688 9.81732 1.63746 9.83638 1.52157 9.9034C0.27237 10.5766 0 11.3196 0 11.8203C0 13.8858 4.11986 15 7.99487 15L7.99504 14.9998C8.27092 14.9998 8.49468 14.7854 8.49468 14.5207C8.49468 14.2561 8.27091 14.0415 7.99504 14.0415L8.0049 14.0438ZM15.9998 11.8347C15.9998 13.2724 13.921 14.4274 10.576 14.8562L10.5035 14.8561C10.2275 14.8733 9.98926 14.6727 9.97128 14.4079C9.9535 14.1434 10.1626 13.9149 10.4385 13.8977C13.4042 13.5119 15.0008 12.5533 15.0008 11.8346C15.0008 11.262 13.9739 10.4616 11.733 9.98239H11.7328C11.3999 11.1477 10.4961 12.0847 9.31036 12.4932C8.12479 12.9017 6.80586 12.7309 5.77571 12.0351C4.74575 11.3392 4.13351 10.2059 4.13525 8.99763C4.13525 4.85956 7.50554 1.29152 7.638 1.14775C7.73472 1.05315 7.867 1 8.0052 1C8.1434 1 8.27567 1.05315 8.37239 1.14775C8.51722 1.29868 11.8701 4.85926 11.8701 8.98565V9.01924C14.4661 9.56076 16 10.5959 16 11.8347L15.9998 11.8347ZM10.8754 8.9856C10.8754 6.00966 8.85414 3.24945 8.00473 2.21911C7.15531 3.24936 5.13407 6.00987 5.13407 8.9856C5.13407 9.97006 5.68162 10.8798 6.5706 11.372C7.45958 11.8642 8.55491 11.8642 9.44385 11.372C10.3327 10.8798 10.8804 9.97002 10.8804 8.9856H10.8754Z" fill="#212121"/>
</svg>
