<svg width="16" height="16" viewBox="0 0 16 16" fill="none" xmlns="http://www.w3.org/2000/svg">
<path fill-rule="evenodd" clip-rule="evenodd" d="M6.11413 0.7808C7.15575 -0.260267 8.84431 -0.260267 9.88587 0.7808L15.2192 6.11413C16.2603 7.15575 16.2603 8.84431 15.2192 9.88587L9.88587 15.2192C8.84425 16.2603 7.15569 16.2603 6.11413 15.2192L0.7808 9.88587C-0.260267 8.84425 -0.260267 7.15569 0.7808 6.11413L6.11413 0.7808ZM14.4645 6.86878L9.13122 1.53545C8.5067 0.910324 7.49336 0.910324 6.86885 1.53545L1.53551 6.86878C0.910385 7.4933 0.910385 8.50664 1.53551 9.13115L6.86885 14.4645C7.49336 15.0896 8.5067 15.0896 9.13122 14.4645L14.4645 9.13115C15.0897 8.50664 15.0897 7.4933 14.4645 6.86878ZM5.86621 11.2V4.79997C5.86621 4.50556 6.10514 4.26663 6.39954 4.26663H9.07371C10.2475 4.26663 11.1995 5.21865 11.1995 6.39247V6.39354C11.1995 7.56794 10.2475 8.5195 9.07371 8.5195H6.93288V11.2C6.93288 11.4944 6.69395 11.7333 6.39954 11.7333C6.10514 11.7333 5.86621 11.4944 5.86621 11.2ZM10.1329 6.39354V6.39247C10.1329 5.80748 9.6587 5.33331 9.07371 5.33331H6.93288V7.45284H9.07371C9.6587 7.45284 10.1329 6.97866 10.1329 6.39354Z" fill="#212121"/>
</svg>
