<svg width="16" height="16" viewBox="0 0 16 16" fill="none" xmlns="http://www.w3.org/2000/svg">
<rect width="16" height="16" fill="white"/>
<path fill-rule="evenodd" clip-rule="evenodd" d="M7.73333 3.13333C7.73333 1.95513 6.77821 1 5.6 1C4.42179 1 3.46667 1.95513 3.46667 3.13333C3.46667 3.67939 3.67184 4.17755 4.00928 4.55488C2.89656 5.07971 2.08498 6.13805 1.90447 7.4H1.6C0.716344 7.4 0 8.11635 0 9V15.4C0 15.6946 0.238781 15.9333 0.533333 15.9333C0.827885 15.9333 1.06667 15.6946 1.06667 15.4V9C1.06667 8.70544 1.30545 8.46667 1.6 8.46667H2.4H14.4C14.6946 8.46667 14.9333 8.70544 14.9333 9V15.4C14.9333 15.6946 15.1721 15.9333 15.4667 15.9333C15.7612 15.9333 16 15.6946 16 15.4V9C16 8.11635 15.2837 7.4 14.4 7.4H13.0667V6.86667H13.8667C14.4558 6.86667 14.9333 6.38909 14.9333 5.8V4.2C14.9333 3.61091 14.4558 3.13333 13.8667 3.13333H11.2C10.6109 3.13333 10.1333 3.61091 10.1333 4.2V5.8C10.1333 6.38909 10.6109 6.86667 11.2 6.86667H12V7.4H9.29552C9.11501 6.13805 8.30344 5.07971 7.19072 4.55488C7.52816 4.17755 7.73333 3.67939 7.73333 3.13333ZM5.6 2.06667C6.18909 2.06667 6.66667 2.54423 6.66667 3.13333C6.66667 3.72243 6.18909 4.2 5.6 4.2C5.01091 4.2 4.53333 3.72243 4.53333 3.13333C4.53333 2.54423 5.01091 2.06667 5.6 2.06667ZM13.8667 5.8V4.2H11.2V5.8H13.8667ZM8.21333 7.4C7.96624 6.1828 6.89011 5.26667 5.6 5.26667C4.30989 5.26667 3.23376 6.1828 2.98667 7.4H8.21333Z" fill="black"/>
</svg>
