<svg width="16" height="16" viewBox="0 0 16 16" fill="none" xmlns="http://www.w3.org/2000/svg">
<path d="M14.6333 4.92699C14.4142 3.52813 13.7233 2.28089 12.6277 1.35399C11.448 0.359644 9.94797 -0.112263 8.39739 0.0225978C6.86378 0.174255 5.46489 0.898905 4.47045 2.09558C3.24015 3.57875 2.54912 4.92696 2.36373 6.22477C2.19514 7.4888 2.53231 8.66854 3.34125 9.74721L0.459307 12.6461C0.139055 12.9663 -0.0293933 13.4045 0.00422404 13.8427C0.0210354 14.2809 0.240171 14.7023 0.577223 14.9887L1.33561 15.6292C1.62211 15.8652 1.99291 16 2.3637 16C2.43106 16 2.49854 16 2.56591 15.9832C3.00407 15.9326 3.4086 15.6799 3.66134 15.3259L6.00402 11.9888C6.74562 12.3596 7.48718 12.545 8.22878 12.545C8.70069 12.545 9.17256 12.4776 9.64447 12.3259C10.8917 11.9214 12.1052 11.0113 13.3355 9.52812C13.3523 9.51131 13.3692 9.49438 13.386 9.46075C13.4534 9.46075 13.5377 9.47756 13.6051 9.47756C14.9197 9.47756 15.9984 8.39892 15.9984 7.08433C16.0153 6.14042 15.4423 5.31453 14.6333 4.92692L14.6333 4.92699ZM2.88622 14.7865C2.785 14.9381 2.61654 15.0392 2.44796 15.056C2.26257 15.0728 2.09397 15.0223 1.94232 14.9044L1.18393 14.2639C1.04908 14.1459 0.964794 13.9774 0.947983 13.792C0.931171 13.6066 0.998535 13.438 1.13338 13.3033L3.96488 10.4719C4.15028 10.6573 4.35249 10.8427 4.55482 11.0113C4.77396 11.1967 4.97617 11.3483 5.1953 11.5L2.88622 14.7865ZM5.16143 10.2865C3.77935 9.12356 3.17274 7.89326 3.30745 6.4944L9.22313 11.4494C7.87492 11.837 6.54353 11.4493 5.16137 10.2865L5.16143 10.2865ZM10.2007 11.0617L3.52661 5.46625C3.81311 4.60674 4.3693 3.69658 5.19516 2.70223C6.03785 1.70777 7.2008 1.10103 8.48166 0.983114C8.63331 0.966303 8.76816 0.966303 8.91982 0.966303C10.049 0.966303 11.1446 1.35391 12.0209 2.09551C12.8299 2.7696 13.3861 3.67979 13.622 4.70788C12.3074 4.70788 11.2288 5.78652 11.2288 7.10112C11.2288 7.97754 11.7175 8.75276 12.4254 9.15728C11.6671 10.0168 10.9424 10.6573 10.2008 11.0617L10.2007 11.0617ZM13.622 8.55056C12.8299 8.55056 12.1726 7.89326 12.1726 7.10113C12.1726 6.309 12.8299 5.65171 13.622 5.65171C14.4142 5.65171 15.0715 6.309 15.0715 7.10113C15.0715 7.89314 14.4142 8.55056 13.622 8.55056Z" fill="#212121"/>
</svg>
