<svg width="16" height="16" viewBox="0 0 16 16" fill="none" xmlns="http://www.w3.org/2000/svg">
<path d="M10.7247 2.57295C10.4485 2.09471 10.0513 1.69758 9.57305 1.42147C9.09478 1.14536 8.55226 1 8.00001 1C7.44776 1 6.90523 1.14536 6.42696 1.42147C5.94869 1.69758 5.55151 2.09471 5.27535 2.57295L0.421531 10.9801C0.145379 11.4584 -1.98332e-06 12.001 0 12.5533C1.98337e-06 13.1055 0.145387 13.6481 0.421542 14.1264C0.697697 14.6047 1.09489 15.0018 1.5732 15.278C2.0515 15.5541 2.59407 15.6994 3.14636 15.6994H12.8537C13.4059 15.6994 13.9485 15.5541 14.4268 15.2779C14.9051 15.0018 15.3023 14.6046 15.5785 14.1263C15.8546 13.648 16 13.1055 16 12.5532C16 12.0009 15.8546 11.4583 15.5785 10.98L10.7247 2.57295ZM15.024 13.8061C14.806 14.1889 14.4901 14.5066 14.1087 14.7268C13.7273 14.9471 13.2941 15.0617 12.8537 15.0591H3.14636C2.70646 15.0591 2.27431 14.9434 1.89334 14.7235C1.51236 14.5035 1.19599 14.1872 0.976035 13.8062C0.756074 13.4253 0.640272 12.9932 0.640269 12.5533C0.640265 12.1134 0.756061 11.6812 0.976016 11.3003L5.82984 2.8931C6.04981 2.51219 6.36616 2.19589 6.7471 1.97598C7.12804 1.75607 7.56015 1.6403 8.00001 1.6403C8.43987 1.6403 8.87198 1.75607 9.25292 1.97598C9.63386 2.19589 9.95021 2.51219 10.1702 2.8931L15.024 11.3002C15.2464 11.6803 15.3636 12.1127 15.3636 12.5532C15.3636 12.9936 15.2464 13.426 15.024 13.8061Z" fill="black"/>
<path d="M12.3216 8.43164C12.3216 8.02885 12.2021 7.6351 11.9783 7.3002C11.7545 6.96529 11.4364 6.70427 11.0643 6.55014C10.6922 6.39601 10.2827 6.35569 9.88763 6.43429C9.49257 6.51288 9.1297 6.70685 8.84488 6.99168C8.56007 7.27651 8.36611 7.63939 8.28754 8.03445C8.20897 8.42951 8.2493 8.83899 8.40345 9.21113C8.5576 9.58326 8.81863 9.90133 9.15355 10.1251C9.48846 10.3489 9.88221 10.4683 10.285 10.4683C10.825 10.4677 11.3426 10.2529 11.7244 9.87108C12.1062 9.48927 12.321 8.9716 12.3216 8.43164ZM10.285 9.80806C10.0128 9.80807 9.74664 9.72735 9.52027 9.57611C9.29391 9.42486 9.11748 9.20989 9.01329 8.95838C8.9091 8.70686 8.88184 8.4301 8.93495 8.16309C8.98806 7.89607 9.11915 7.65081 9.31165 7.4583C9.50416 7.2658 9.74942 7.1347 10.0164 7.08159C10.2834 7.02848 10.5602 7.05574 10.8117 7.15993C11.0632 7.26411 11.2782 7.44054 11.4295 7.66691C11.5807 7.89327 11.6614 8.1594 11.6614 8.43164C11.661 8.79656 11.5158 9.1464 11.2578 9.40444C10.9998 9.66247 10.6499 9.80763 10.285 9.80806Z" fill="black"/>
<path d="M12.57 10.3527C12.1672 10.3527 11.7735 10.4722 11.4385 10.696C11.1036 10.9198 10.8426 11.2379 10.6885 11.61C10.5343 11.9822 10.494 12.3917 10.5726 12.7868C10.6512 13.1818 10.8452 13.5447 11.13 13.8296C11.4148 14.1144 11.7777 14.3084 12.1728 14.3869C12.5679 14.4655 12.9774 14.4252 13.3496 14.271C13.7217 14.1169 14.0398 13.8558 14.2636 13.5209C14.4874 13.186 14.6068 12.7922 14.6068 12.3894C14.6062 11.8494 14.3914 11.3317 14.0096 10.9499C13.6277 10.5681 13.11 10.3533 12.57 10.3527ZM12.57 13.7658C12.2978 13.7658 12.0317 13.685 11.8054 13.5338C11.5791 13.3825 11.4027 13.1675 11.2985 12.916C11.1944 12.6645 11.1671 12.3877 11.2203 12.1208C11.2734 11.8538 11.4045 11.6085 11.597 11.4161C11.7895 11.2236 12.0348 11.0925 12.3018 11.0394C12.5688 10.9863 12.8455 11.0136 13.097 11.1178C13.3485 11.222 13.5634 11.3984 13.7147 11.6247C13.8659 11.8511 13.9466 12.1172 13.9466 12.3894C13.9462 12.7543 13.801 13.1042 13.543 13.3622C13.2849 13.6203 12.935 13.7654 12.57 13.7658Z" fill="black"/>
<path d="M8.00003 10.3527C7.59721 10.3527 7.20343 10.4721 6.86848 10.6959C6.53354 10.9197 6.27248 11.2378 6.11832 11.6099C5.96415 11.9821 5.92381 12.3916 6.00238 12.7867C6.08096 13.1818 6.27492 13.5447 6.55976 13.8295C6.84459 14.1144 7.20749 14.3083 7.60257 14.3869C7.99765 14.4655 8.40716 14.4252 8.77932 14.271C9.15148 14.1169 9.46957 13.8559 9.69337 13.5209C9.91717 13.186 10.0366 12.7922 10.0366 12.3894C10.036 11.8494 9.82126 11.3318 9.43946 10.9499C9.05765 10.5681 8.53999 10.3533 8.00003 10.3527ZM8.00003 13.7658C7.7278 13.7658 7.46168 13.6851 7.23533 13.5338C7.00899 13.3826 6.83257 13.1676 6.72839 12.9161C6.62421 12.6646 6.59696 12.3879 6.65007 12.1209C6.70318 11.8539 6.83427 11.6086 7.02676 11.4161C7.21926 11.2236 7.46451 11.0925 7.73151 11.0394C7.9985 10.9863 8.27525 11.0136 8.52676 11.1178C8.77827 11.2219 8.99323 11.3983 9.14448 11.6247C9.29572 11.851 9.37645 12.1172 9.37645 12.3894C9.37602 12.7543 9.23086 13.1042 8.97283 13.3622C8.71479 13.6202 8.36494 13.7654 8.00003 13.7658Z" fill="black"/>
<path d="M3.43002 10.3527C3.0272 10.3527 2.63342 10.4721 2.29848 10.6959C1.96353 10.9197 1.70247 11.2378 1.54831 11.6099C1.39414 11.9821 1.3538 12.3916 1.43237 12.7867C1.51095 13.1818 1.70492 13.5447 1.98975 13.8295C2.27458 14.1144 2.63748 14.3083 3.03256 14.3869C3.42764 14.4655 3.83715 14.4252 4.20931 14.271C4.58147 14.1169 4.89957 13.8559 5.12336 13.5209C5.34716 13.186 5.46661 12.7922 5.46662 12.3894C5.466 11.8494 5.25123 11.3318 4.86943 10.95C4.48764 10.5681 3.96998 10.3533 3.43002 10.3527ZM3.43002 13.7658C3.15779 13.7658 2.89168 13.6851 2.66533 13.5338C2.43898 13.3826 2.26256 13.1676 2.15838 12.9161C2.05421 12.6646 2.02695 12.3879 2.08006 12.1209C2.13317 11.8539 2.26426 11.6086 2.45675 11.4161C2.64925 11.2236 2.8945 11.0925 3.1615 11.0394C3.4285 10.9863 3.70525 11.0136 3.95675 11.1178C4.20826 11.2219 4.42323 11.3983 4.57447 11.6247C4.72571 11.851 4.80644 12.1172 4.80644 12.3894C4.806 12.7543 4.66084 13.1041 4.40281 13.3622C4.14478 13.6202 3.79493 13.7654 3.43002 13.7658Z" fill="black"/>
<path d="M7.75159 8.43164C7.75157 8.02885 7.63211 7.6351 7.40832 7.3002C7.18452 6.96529 6.86644 6.70427 6.4943 6.55014C6.12216 6.39601 5.71267 6.35569 5.31762 6.43429C4.92257 6.51288 4.55969 6.70685 4.27488 6.99168C3.99006 7.27651 3.79611 7.63939 3.71753 8.03445C3.63896 8.42951 3.6793 8.83899 3.83344 9.21113C3.98759 9.58326 4.24863 9.90133 4.58354 10.1251C4.91846 10.3489 5.31221 10.4683 5.715 10.4683C6.25496 10.4677 6.77262 10.2529 7.15442 9.87108C7.53622 9.48927 7.75098 8.9716 7.75159 8.43164ZM5.715 9.80806C5.44276 9.80807 5.17663 9.72735 4.95027 9.57611C4.7239 9.42486 4.54747 9.20989 4.44328 8.95837C4.3391 8.70686 4.31183 8.4301 4.36494 8.16308C4.41805 7.89607 4.54915 7.65081 4.74165 7.4583C4.93415 7.2658 5.17942 7.1347 5.44643 7.08159C5.71344 7.02848 5.9902 7.05574 6.24172 7.15993C6.49323 7.26411 6.70821 7.44054 6.85945 7.66691C7.0107 7.89327 7.09142 8.1594 7.09141 8.43164C7.09098 8.79656 6.94583 9.1464 6.6878 9.40444C6.42976 9.66247 6.07992 9.80763 5.715 9.80806Z" fill="black"/>
<path d="M8.00002 6.51048C8.40285 6.5105 8.79663 6.39107 9.13157 6.16729C9.46652 5.94351 9.72758 5.62543 9.88174 5.25327C10.0359 4.88112 10.0763 4.47161 9.99768 4.07652C9.91911 3.68144 9.72514 3.31853 9.44031 3.03368C9.15548 2.74884 8.79258 2.55485 8.3975 2.47626C8.00242 2.39767 7.5929 2.43799 7.22074 2.59214C6.84858 2.74629 6.53049 3.00734 6.30669 3.34227C6.08289 3.6772 5.96344 4.07098 5.96344 4.4738C5.96404 5.01376 6.1788 5.53143 6.5606 5.91325C6.9424 6.29507 7.46007 6.50985 8.00002 6.51048ZM8.00002 3.0974C8.27225 3.09739 8.53837 3.17812 8.76472 3.32936C8.99107 3.4806 9.16749 3.69557 9.27167 3.94708C9.37585 4.19858 9.40311 4.47533 9.35 4.74233C9.29689 5.00933 9.1658 5.25459 8.9733 5.44708C8.78081 5.63958 8.53555 5.77067 8.26856 5.82378C8.00156 5.87689 7.7248 5.84963 7.4733 5.74545C7.22179 5.64127 7.00682 5.46485 6.85558 5.2385C6.70434 5.01215 6.62362 4.74603 6.62362 4.4738C6.62405 4.10889 6.7692 3.75904 7.02723 3.50101C7.28527 3.24298 7.63511 3.09783 8.00002 3.0974Z" fill="black"/>
</svg>
