<svg width="16" height="16" viewBox="0 0 16 16" fill="none" xmlns="http://www.w3.org/2000/svg">
<path fill-rule="evenodd" clip-rule="evenodd" d="M10.3292 4.03664V1.33852C10.3292 0.356492 9.60123 0 9.11226 0H6.33054C5.43745 0 5.11356 0.800758 5.11356 1.33864V4.02734L4.94975 4.02722L4.93411 4.02785C4.8057 4.03244 4.13995 4.05624 3.61531 4.57127C3.20714 4.97131 3 5.53899 3 6.25895V13.5897C3 14.0674 3.34099 15.227 4.7658 15.4314V15.4784C4.7658 15.7663 4.99946 16 5.28738 16C5.5753 16 5.80896 15.7663 5.80896 15.4784L5.80884 15.4735H9.63366V15.4783C9.63366 15.7662 9.86732 15.9999 10.1552 15.9999C10.4432 15.9999 10.6768 15.7662 10.6768 15.4783V15.431C11.4501 15.304 12.4426 14.8284 12.4426 13.5897V6.25896C12.4426 5.37949 11.8732 4.08764 10.3292 4.03668L10.3292 4.03664ZM6.1566 1.33852C6.1566 1.3263 6.1587 1.04315 6.33042 1.04315H9.09792C9.23169 1.0513 9.28606 1.13757 9.28606 1.33852V4.02722H6.15659L6.1566 1.33852ZM11.3995 13.5897C11.3995 14.3965 10.3578 14.4291 10.2409 14.4305L5.20181 14.4304C4.1498 14.4304 4.04865 13.7811 4.04316 13.5896L4.04328 6.25913C4.04328 5.1623 4.72646 5.07196 4.93974 5.07068H10.2411C11.3283 5.07068 11.3969 6.06352 11.3997 6.25913L11.3995 13.5897ZM6.15634 6.25797C5.86843 6.25797 5.63477 6.49163 5.63477 6.77954V12.705C5.63477 12.9929 5.86843 13.2266 6.15634 13.2266C6.44426 13.2266 6.67792 12.9929 6.67792 12.705V6.77954C6.67792 6.49151 6.44426 6.25797 6.15634 6.25797ZM8.76465 6.77954C8.76465 6.49163 8.99831 6.25797 9.28623 6.25797C9.57415 6.25797 9.80781 6.49151 9.80781 6.77954V12.705C9.80781 12.9929 9.57415 13.2266 9.28623 13.2266C8.99831 13.2266 8.76465 12.9929 8.76465 12.705V6.77954Z" fill="#212121"/>
</svg>
