<svg width="16" height="16" viewBox="0 0 16 16" fill="none" xmlns="http://www.w3.org/2000/svg">
<path fill-rule="evenodd" clip-rule="evenodd" d="M12.2857 4V5.71429C13.5429 5.71429 14.5714 6.74286 14.5714 8V13.7143C14.5714 14.9714 13.5429 16 12.2857 16H4.28571C3.02857 16 2 14.9714 2 13.7143V8C2 6.74286 3.02857 5.71429 4.28571 5.71429V4C4.28571 1.77143 6.05714 0 8.28571 0C10.5143 0 12.2857 1.77143 12.2857 4ZM8.28571 1.14286C6.68571 1.14286 5.42857 2.4 5.42857 4V5.71429H11.1429V4C11.1429 2.4 9.88572 1.14286 8.28571 1.14286ZM12.2857 14.8571C12.9143 14.8571 13.4286 14.3429 13.4286 13.7143V8C13.4286 7.37143 12.9143 6.85714 12.2857 6.85714H4.28571C3.65714 6.85714 3.14286 7.37143 3.14286 8V13.7143C3.14286 14.3429 3.65714 14.8571 4.28571 14.8571H12.2857ZM8.28557 8C9.257 8 9.99986 8.74286 9.99986 9.71429C9.99986 10.4571 9.54272 11.0857 8.857 11.3143V13.1429C8.857 13.4857 8.62843 13.7143 8.28557 13.7143C7.94272 13.7143 7.71415 13.4857 7.71415 13.1429V11.3143C7.02843 11.0857 6.57129 10.4571 6.57129 9.71429C6.57129 8.74286 7.31415 8 8.28557 8ZM7.71415 9.71429C7.71415 10.0571 7.94272 10.2857 8.28557 10.2857C8.62843 10.2857 8.857 10.0571 8.857 9.71429C8.857 9.37143 8.62843 9.14286 8.28557 9.14286C7.94272 9.14286 7.71415 9.37143 7.71415 9.71429Z" fill="#212121"/>
</svg>
