<svg width="16" height="16" viewBox="0 0 16 16" fill="none" xmlns="http://www.w3.org/2000/svg">
<g clip-path="url(#clip0_108_871)">
<rect width="16" height="16" fill="white"/>
<path d="M15.4551 0H14.0305H9.63203H6.36849H1.96921H0.544912C0.243702 0 0 0.24396 0 0.544913V1.97025V6.36797V9.63203V14.0308V15.4551C0 15.756 0.243702 16 0.544912 16H1.96921H6.36849H9.63203H14.0298H15.4551C15.756 16 16 15.756 16 15.4551V14.0308V9.63229V6.36823V1.96947V0.544913C16.0003 0.24396 15.756 0 15.4551 0ZM14.9102 5.82306H12.3723L14.9102 3.28521V5.82306ZM12.7148 1.08982L10.1769 3.62768V1.08982H12.7148ZM5.82357 1.08982V3.62794L3.2852 1.08982H5.82357ZM1.08982 3.28598L3.6269 5.82306H1.08982V3.28598ZM1.08982 10.1772H3.62768L1.08982 12.7151V10.1772ZM3.2852 14.9104L5.82357 12.3726V14.9104H3.2852ZM10.1772 14.9104V12.3736L12.7143 14.9104H10.1772ZM14.2554 14.9104L10.0173 10.6723C9.86155 10.5166 9.62661 10.4699 9.42314 10.5542C9.21967 10.6386 9.08686 10.8371 9.08686 11.0576V14.9102H6.91314V11.0568C6.91314 10.8364 6.78033 10.6378 6.57634 10.5535C6.37287 10.4691 6.13845 10.5155 5.98269 10.6716L1.74356 14.9104H1.08982V14.2567L5.32895 10.0176C5.48471 9.8618 5.53139 9.62739 5.4468 9.42366C5.36273 9.21993 5.1639 9.08712 4.94367 9.08712H1.08982V6.91288H4.94264C5.16287 6.91288 5.36144 6.78007 5.44577 6.57634C5.5301 6.37261 5.48342 6.13819 5.32792 5.98243L1.08982 1.7446V1.08982H1.74356L5.98295 5.32895C6.08687 5.43314 6.22665 5.48858 6.36823 5.48858C6.43837 5.48858 6.50929 5.47517 6.5766 5.44706C6.78059 5.36273 6.9134 5.16416 6.9134 4.94367V1.08982H9.08712V4.94341C9.08712 5.1639 9.21993 5.36247 9.4234 5.4468C9.49096 5.47491 9.56188 5.48832 9.63229 5.48832C9.77412 5.48832 9.91338 5.43314 10.0176 5.32869L14.2564 1.08957H14.9104V1.74356L10.6716 5.98269C10.5158 6.13845 10.4689 6.37287 10.5532 6.5766C10.6375 6.78033 10.8364 6.91314 11.0568 6.91314H14.9102V9.08737H11.0568C10.8364 9.08737 10.6375 9.22019 10.5532 9.42391C10.4689 9.62764 10.5155 9.8618 10.6716 10.0178L14.9104 14.2569V14.9107L14.2554 14.9104ZM14.9102 12.7151L12.3723 10.1772H14.9102V12.7151Z" fill="black"/>
</g>
<defs>
<clipPath id="clip0_108_871">
<rect width="16" height="16" fill="white"/>
</clipPath>
</defs>
</svg>
