<svg width="16" height="16" viewBox="0 0 16 16" fill="none" xmlns="http://www.w3.org/2000/svg">
<rect width="16" height="16" fill="white"/>
<path d="M0.223379 8.76254C0.0983044 9.00641 0.0239848 9.27312 0.00491349 9.54654C-0.0141578 9.81996 0.0224153 10.0944 0.112422 10.3533C0.333754 10.8606 0.747558 11.2593 1.2628 11.4615C2.22785 11.8846 3.23428 12.2063 4.26586 12.4212V12.669C4.26649 13.164 4.46341 13.6385 4.81341 13.9885C5.16342 14.3385 5.63795 14.5354 6.13293 14.5361H6.9331C7.14018 14.5363 7.34446 14.4882 7.52967 14.3956C7.71489 14.303 7.87594 14.1684 8 14.0026C8.12448 14.168 8.28561 14.3022 8.47074 14.3948C8.65586 14.4873 8.85993 14.5357 9.0669 14.5361H9.86707C10.3621 14.5354 10.8366 14.3385 11.1866 13.9885C11.5366 13.6385 11.7335 13.164 11.7341 12.669V12.4215C12.7652 12.2062 13.7711 11.8844 14.7356 11.4613C14.991 11.3611 15.2242 11.2116 15.4219 11.0213C15.6196 10.831 15.7778 10.6037 15.8876 10.3522C15.9776 10.0934 16.0141 9.81909 15.9951 9.54577C15.9761 9.27245 15.9018 9.00583 15.7769 8.762C15.6328 8.41168 15.4015 8.10401 15.105 7.86821C15.1558 7.71888 15.187 7.56359 15.1978 7.40624C15.2065 7.11426 15.1561 6.82354 15.0496 6.55154C14.9431 6.27955 14.7826 6.0319 14.578 5.8235C14.2594 5.42839 13.8165 5.1526 13.3214 5.04093C13.3055 4.88613 13.2708 4.73386 13.2179 4.5875C13.1015 4.30372 12.929 4.04638 12.7107 3.83092C12.4924 3.61546 12.2328 3.44631 11.9475 3.33362C11.6745 3.18715 11.3741 3.099 11.0652 3.07476C10.7563 3.05051 10.4458 3.09071 10.1533 3.19279C9.78972 2.43023 9.04023 2 8 2C6.95978 2 6.21001 2.43049 5.84673 3.19333C5.55423 3.09129 5.24373 3.05107 4.93489 3.07522C4.62604 3.09937 4.32557 3.18736 4.05248 3.33362C3.7671 3.44645 3.50748 3.6158 3.28921 3.8315C3.07094 4.04721 2.89853 4.30481 2.78233 4.58883C2.7295 4.73519 2.69474 4.88747 2.67885 5.04226C2.18349 5.15404 1.74048 5.43002 1.42177 5.82536C1.21724 6.03374 1.05694 6.28132 0.950513 6.55322C0.844083 6.82511 0.793716 7.11572 0.802438 7.40757C0.813285 7.56493 0.844485 7.72021 0.895258 7.86954C0.598857 8.10508 0.367578 8.41248 0.223379 8.76254ZM6.9331 14.0026H6.13293C5.77936 14.0022 5.44039 13.8615 5.19038 13.6115C4.94037 13.3615 4.79973 13.0226 4.79931 12.669V12.5298C5.45251 12.6546 6.15773 12.7599 6.92883 12.8498C7.06172 13.1881 7.25636 13.4987 7.50283 13.7658L7.50069 13.7684C7.34987 13.9184 7.14581 14.0026 6.9331 14.0026ZM11.2007 12.669C11.2003 13.0226 11.0596 13.3615 10.8096 13.6115C10.5596 13.8615 10.2206 14.0022 9.86707 14.0026H9.0669C8.961 14.0021 8.85625 13.9806 8.75869 13.9394C8.66113 13.8982 8.5727 13.8381 8.49851 13.7626C8.74419 13.4955 8.93834 13.1854 9.07117 12.8477C9.84227 12.7589 10.5475 12.6535 11.2007 12.5276V12.669ZM15.2891 8.97885C15.3841 9.15902 15.442 9.35642 15.4594 9.55938C15.4768 9.76233 15.4534 9.96671 15.3904 10.1604C15.2183 10.5355 14.9056 10.8277 14.5198 10.9742C13.0943 11.5857 11.5896 11.9929 10.0503 12.1838C11.5709 11.1993 13.0172 10.1045 14.3774 8.90817C14.5628 8.74679 14.726 8.56158 14.8628 8.35738C15.0469 8.53237 15.1921 8.74411 15.2891 8.97885ZM14.1773 6.17664C14.3346 6.33317 14.4588 6.51964 14.5427 6.72503C14.6266 6.93041 14.6684 7.15053 14.6657 7.37237C14.6092 7.82012 14.3794 8.22787 14.0256 8.50808C12.8265 9.56462 11.5582 10.5398 10.229 11.4271C11.3408 9.84383 12.2925 8.15401 13.0702 6.38255C13.1887 6.13046 13.2703 5.86257 13.3124 5.58718C13.6523 5.69439 13.9532 5.89941 14.1773 6.17664ZM11.7235 3.81826C11.9446 3.90304 12.1465 4.0313 12.3173 4.19544C12.488 4.35959 12.6241 4.55629 12.7176 4.77394C12.8566 5.23509 12.8093 5.73237 12.5858 6.15904C11.5282 8.45287 10.5432 10.1682 9.54514 11.4495C10.1063 9.14164 10.3934 6.77564 10.4005 4.40052C10.4014 4.16467 10.3758 3.92946 10.3242 3.6993C10.5528 3.61994 10.7955 3.58952 11.0366 3.61001C11.2777 3.6305 11.5116 3.70146 11.7235 3.81826ZM8 2.53345C9.62462 2.53345 9.86707 3.7033 9.86707 4.40052C9.86707 8.98818 8.68575 13.4692 8 13.4692C7.31425 13.4692 6.13293 8.98818 6.13293 4.40052C6.13293 3.7033 6.37538 2.53345 8 2.53345ZM3.28244 4.77394C3.37584 4.55646 3.51189 4.35991 3.68254 4.1959C3.85319 4.0319 4.05498 3.90376 4.27599 3.81906C4.48782 3.7019 4.72197 3.63073 4.96316 3.61019C5.20436 3.58964 5.44717 3.62019 5.67576 3.69984C5.62427 3.92982 5.59868 4.16484 5.59948 4.40052C5.60704 6.77552 5.8946 9.14133 6.4562 11.449C5.45678 10.1687 4.47177 8.45233 3.41394 6.15797C3.19064 5.73162 3.14343 5.23471 3.28244 4.77394ZM1.82213 6.17717C2.04645 5.89979 2.34747 5.6946 2.68765 5.58718C2.7296 5.86239 2.81108 6.1301 2.92957 6.38202C3.70726 8.15368 4.65907 9.84369 5.77098 11.4271C4.44149 10.5399 3.17287 9.56473 1.97363 8.50808C1.61992 8.22815 1.39009 7.82068 1.33349 7.37317C1.33079 7.15126 1.37265 6.93108 1.45658 6.72564C1.54051 6.52021 1.66482 6.3337 1.82213 6.17717ZM1.13718 8.35818C1.27372 8.56211 1.43669 8.74705 1.62182 8.90817C2.9823 10.1045 4.42881 11.1994 5.94969 12.1838C4.40981 11.9928 2.9046 11.5854 1.47859 10.9737C1.09374 10.8274 0.781697 10.5358 0.609596 10.1618C0.546639 9.96795 0.523195 9.76346 0.54065 9.56042C0.558105 9.35737 0.616105 9.15989 0.711219 8.97965C0.808138 8.74496 0.953255 8.53324 1.13718 8.35818Z" fill="black"/>
</svg>
