<svg width="16" height="16" viewBox="0 0 16 16" fill="none" xmlns="http://www.w3.org/2000/svg">
<rect width="16" height="16" fill="white"/>
<path d="M15.0133 8.95467L15.4133 8.288C15.7973 7.648 16 6.91733 16 6.17067C16 5.97867 15.8453 5.824 15.6533 5.824C14.4427 5.824 13.312 6.36533 12.5573 7.312L12.4827 7.40533L11.808 6.8C12.04 6.34933 12.1013 5.82933 11.976 5.33867L11.9547 5.256C11.848 4.82933 11.6267 4.43733 11.3147 4.12267L10.7867 3.59467C10.7307 3.53867 10.6747 3.47733 10.624 3.41067L10.208 2.856C9.808 2.32 9.168 2 8.49867 2C8.10933 2 7.728 2.104 7.39733 2.304C6.49333 2.84533 5.69067 3.53333 5.01333 4.344L4.74667 4.664C4.38133 4.76 4.024 4.88267 3.68 5.03733C3.672 5.04 3.66133 5.04 3.65333 5.04533C3.648 5.04533 3.64533 5.05333 3.64267 5.056C2.552 5.54933 1.58667 6.31733 0.866667 7.30667L0.272 8.12533C0.0933333 8.368 0 8.65867 0 8.96C0 9.26133 0.0933333 9.54933 0.272 9.79467L0.866667 10.6133C1.58667 11.6027 2.54933 12.3733 3.64267 12.864C3.648 12.8667 3.65067 12.872 3.65333 12.8747C3.66933 12.8853 3.688 12.888 3.70667 12.896C4.57867 13.28 5.53067 13.4853 6.504 13.4853C7.23467 13.4853 7.952 13.3653 8.63467 13.144L9.19733 13.4267C9.72533 13.6933 10.3173 13.832 10.9093 13.832H11.264C11.5307 13.832 11.7707 13.6853 11.888 13.448L11.9173 13.392C12.1173 12.9893 12.0373 12.5067 11.72 12.1893L11.672 12.1413C11.5147 11.984 11.3733 11.8107 11.2453 11.6267L12.4827 10.512L12.5573 10.6053C13.3147 11.552 14.4427 12.0933 15.6533 12.0933C15.8453 12.0933 16 11.9387 16 11.7467C16 11 15.7973 10.2693 15.4133 9.62933L15.0133 8.96267V8.95467ZM7.75467 2.89867C7.97867 2.76533 8.23467 2.69333 8.49867 2.69333C8.94933 2.69333 9.37867 2.90933 9.65067 3.272L10.0667 3.82667C10.1307 3.912 10.2053 3.99733 10.296 4.088L10.824 4.616C11.048 4.84 11.2053 5.12 11.2827 5.424L11.304 5.50933C11.3707 5.77333 11.352 6.05067 11.264 6.30667L11.168 6.22133C9.88533 5.06667 8.22933 4.432 6.50667 4.432C6.28267 4.432 6.06133 4.44533 5.84267 4.46667C6.40533 3.856 7.04533 3.32533 7.76 2.896L7.75467 2.89867ZM1.42933 10.1973L0.834667 9.37867C0.744 9.25333 0.696 9.10667 0.696 8.95467C0.696 8.80267 0.744 8.65333 0.834667 8.53067L1.42933 7.712C2.01867 6.90133 2.78933 6.25333 3.664 5.81067C4.63733 7.80267 4.63733 10.1067 3.664 12.0987C2.78933 11.656 2.01867 11.008 1.42933 10.1973ZM11.2933 13.0747L11.264 13.1307H10.9093C10.424 13.1307 9.94133 13.016 9.512 12.8H9.50667C9.928 12.5947 10.3333 12.352 10.7093 12.0667C10.8507 12.264 11.0053 12.456 11.1787 12.6267L11.2267 12.6747C11.3333 12.7813 11.36 12.944 11.2933 13.0773V13.0747ZM13.0987 10.1627L12.7947 9.78133C12.736 9.70667 12.648 9.65867 12.552 9.65067C12.456 9.64267 12.3627 9.67467 12.2907 9.73867L10.7013 11.168C9.54667 12.2053 8.056 12.7787 6.504 12.7787C5.744 12.7787 5 12.6373 4.304 12.376C5.35467 10.2053 5.35467 7.69867 4.304 5.528C5 5.26667 5.744 5.12533 6.504 5.12533C8.056 5.12533 9.54667 5.69867 10.7013 6.736L12.2907 8.16533C12.3627 8.22933 12.4533 8.26133 12.552 8.25333C12.648 8.24533 12.736 8.2 12.7947 8.12267L13.0987 7.74133C13.6453 7.05867 14.4267 6.62933 15.2853 6.53333C15.232 7.024 15.072 7.49867 14.8187 7.92533L14.312 8.77067C14.2453 8.88 14.2453 9.01867 14.312 9.128L14.8187 9.97333C15.0747 10.4 15.232 10.8747 15.2853 11.3653C14.4267 11.2693 13.6453 10.8427 13.0987 10.1573V10.1627Z" fill="black"/>
<path d="M6.06397 6.23469C5.90663 6.34402 5.86397 6.56002 5.9733 6.71735C6.38397 7.31469 6.60797 8.10935 6.60797 8.95469C6.60797 9.80002 6.3813 10.5947 5.9733 11.192C5.86397 11.3494 5.90397 11.568 6.06397 11.6747C6.1253 11.7147 6.19197 11.736 6.2613 11.736C6.3733 11.736 6.47997 11.6827 6.5493 11.584C7.0373 10.872 7.30664 9.93869 7.30664 8.95202C7.30664 7.96535 7.0373 7.03202 6.5493 6.32002C6.43997 6.16269 6.22397 6.12269 6.06664 6.22935L6.06397 6.23469Z" fill="black"/>
<path d="M8.73868 7.23198C8.55468 7.28798 8.45068 7.48264 8.50668 7.66664C8.63201 8.07198 8.69334 8.50664 8.69334 8.95731C8.69334 9.40798 8.62934 9.83998 8.50668 10.248C8.45068 10.432 8.55468 10.6266 8.73868 10.6826C8.77334 10.6933 8.80801 10.6986 8.84001 10.6986C8.98934 10.6986 9.12801 10.6026 9.17334 10.4533C9.31734 9.98131 9.39201 9.47731 9.39201 8.95998C9.39201 8.44264 9.31734 7.93864 9.17334 7.46664C9.11734 7.28264 8.92268 7.17864 8.73868 7.23464V7.23198Z" fill="black"/>
</svg>
