<svg width="16" height="16" viewBox="0 0 16 16" fill="none" xmlns="http://www.w3.org/2000/svg">
<g clip-path="url(#clip0_118_548)">
<path fill-rule="evenodd" clip-rule="evenodd" d="M7.67864 1.05579L14.8709 5.27608H14.8707C14.9527 5.33234 15 5.42494 15 5.52147L14.9998 14.6984C14.9998 14.8652 14.8624 15 14.692 15H0.307821C0.137589 15 0 14.8653 0 14.6984V5.52147C0 5.42494 0.0492497 5.33234 0.129284 5.27608L7.32157 1.05579C7.42824 0.981425 7.57198 0.981425 7.67864 1.05579ZM0.615997 14.3966H14.3844L14.3841 5.6762L7.50004 1.67105L0.615997 5.6762V14.3966ZM1.62207 9.05025C1.62207 7.65652 4.6248 6.90307 7.44979 6.90307L7.44968 6.90311H7.45185V5.31766C7.45185 4.6883 7.97417 4.17867 8.61433 4.17867C8.93884 4.17867 9.23218 4.30931 9.44335 4.52061C9.65454 4.30931 9.94786 4.17867 10.2724 4.17867C10.9147 4.17867 11.4348 4.69044 11.4348 5.31766V6.1299C11.4348 6.31052 11.286 6.4565 11.1015 6.4565C10.9172 6.4565 10.7682 6.31067 10.7682 6.1299V5.31766C10.7682 5.04986 10.5459 4.83203 10.2725 4.83203C9.9992 4.83203 9.77687 5.04985 9.77687 5.31766V7.07503C11.7105 7.37124 13.2775 8.0419 13.2775 9.05025V11.3521C13.2775 12.7458 10.2747 13.4992 7.44979 13.4992C4.62488 13.4992 1.62207 12.7458 1.62207 11.3521V9.05025ZM9.77462 8.73019C9.77462 8.91081 9.62578 9.05679 9.44129 9.05679L9.43892 9.05484C9.25458 9.05484 9.10559 8.90901 9.10559 8.72825V7.63939C8.79425 7.60673 8.46309 7.58273 8.11642 7.56967V8.72825C8.11642 8.90886 7.96759 9.05484 7.78309 9.05484C7.59875 9.05484 7.44975 8.90901 7.44975 8.72825V7.55446H7.44758C4.2493 7.55446 2.28666 8.42547 2.28666 9.04829C2.28666 9.31825 2.67332 9.63619 3.32015 9.89974C4.32924 10.307 5.83398 10.5422 7.44754 10.5422C9.06111 10.5422 10.5658 10.3091 11.5749 9.89974C12.2218 9.63845 12.6084 9.32052 12.6084 9.05043C12.6084 8.59743 11.5683 8.01594 9.77462 7.73066V8.73019ZM12.6086 10.0935V11.3521C12.6086 11.9749 10.646 12.8459 7.44769 12.8459C4.24921 12.8459 2.28676 11.977 2.28676 11.3521V10.0934C2.48677 10.2328 2.74026 10.3721 3.06477 10.5027C4.15161 10.9426 5.74974 11.1953 7.44777 11.1953C9.14591 11.1953 10.7417 10.9427 11.8308 10.5027C12.1552 10.37 12.4085 10.2327 12.6086 10.0935ZM9.10785 5.3175C9.10785 5.0497 8.88553 4.83187 8.6122 4.83187H8.61434C8.34102 4.83187 8.11869 5.04969 8.11869 5.3175V5.69635H9.10785V5.3175ZM9.10571 6.3476H8.11655V6.91603C8.44788 6.9291 8.78121 6.9531 9.10571 6.98788V6.3476Z" fill="#212121"/>
<path d="M14.8709 5.27608V5.37608H15.2389L14.9215 5.18983L14.8709 5.27608ZM7.67864 1.05579L7.62128 1.13807L7.62804 1.14203L7.67864 1.05579ZM14.8707 5.27608V5.17608H14.5481L14.8141 5.35855L14.8707 5.27608ZM15 5.52147L15.1 5.52147V5.52147H15ZM14.9998 14.6984L14.8998 14.6984V14.6984H14.9998ZM0.129284 5.27608L0.078504 5.18954L0.0717748 5.19427L0.129284 5.27608ZM7.32157 1.05579L7.37233 1.1423L7.37876 1.13782L7.32157 1.05579ZM14.3844 14.3966V14.4966H14.4844L14.4844 14.3966L14.3844 14.3966ZM0.615997 14.3966H0.515997V14.4966H0.615997V14.3966ZM14.3841 5.6762L14.4841 5.6762L14.4841 5.61869L14.4344 5.58977L14.3841 5.6762ZM7.50004 1.67105L7.55033 1.58462L7.50004 1.55536L7.44975 1.58462L7.50004 1.67105ZM0.615997 5.6762L0.565709 5.58977L0.515997 5.61869V5.6762H0.615997ZM7.44979 6.90307L7.48235 6.99762L7.44979 6.80307V6.90307ZM7.44968 6.90311L7.41711 6.80856L7.44968 7.00311V6.90311ZM7.45185 6.90311V7.00311H7.55185V6.90311H7.45185ZM9.44335 4.52061L9.37261 4.5913L9.44334 4.66208L9.51408 4.59131L9.44335 4.52061ZM9.77687 7.07503H9.67687V7.16088L9.76173 7.17388L9.77687 7.07503ZM9.44129 9.05679L9.37788 9.13411L9.40553 9.15679H9.44129V9.05679ZM9.43892 9.05484L9.50233 8.97752L9.47468 8.95484H9.43892V9.05484ZM9.10559 7.63939H9.20559V7.54933L9.11602 7.53994L9.10559 7.63939ZM8.11642 7.56967L8.12019 7.46974L8.01642 7.46583V7.56967H8.11642ZM7.44975 7.55446H7.54975V7.45446H7.44975V7.55446ZM3.32015 9.89974L3.28242 9.99235L3.28273 9.99247L3.32015 9.89974ZM11.5749 9.89974L11.5375 9.80702L11.5373 9.80707L11.5749 9.89974ZM9.77462 7.73066L9.79033 7.6319L9.67462 7.6135V7.73066H9.77462ZM12.6086 10.0935H12.7086V9.90209L12.5515 10.0114L12.6086 10.0935ZM2.28676 10.0934L2.34396 10.0113L2.18676 9.90175V10.0934H2.28676ZM3.06477 10.5027L3.10229 10.4101L3.10211 10.41L3.06477 10.5027ZM11.8308 10.5027L11.8682 10.5955L11.8686 10.5953L11.8308 10.5027ZM8.11869 5.69635H8.01869V5.79635H8.11869V5.69635ZM9.10785 5.69635V5.79635H9.20785V5.69635H9.10785ZM8.11655 6.3476V6.2476H8.01655V6.3476H8.11655ZM9.10571 6.3476H9.20571V6.2476H9.10571V6.3476ZM8.11655 6.91603H8.01655V7.01217L8.11261 7.01595L8.11655 6.91603ZM9.10571 6.98788L9.09505 7.08731L9.20571 7.09918V6.98788H9.10571ZM14.9215 5.18983L7.72925 0.969537L7.62804 1.14203L14.8203 5.36233L14.9215 5.18983ZM14.8707 5.37608H14.8709V5.17608H14.8707V5.37608ZM15.1 5.52147C15.1 5.3925 15.0369 5.26882 14.9273 5.19361L14.8141 5.35855C14.8686 5.39587 14.9 5.45738 14.9 5.52147H15.1ZM15.0998 14.6984L15.1 5.52147L14.9 5.52147L14.8998 14.6984L15.0998 14.6984ZM14.692 15.1C14.9157 15.1 15.0998 14.9223 15.0998 14.6984H14.8998C14.8998 14.8081 14.8091 14.9 14.692 14.9V15.1ZM0.307821 15.1H14.692V14.9H0.307821V15.1ZM-0.1 14.6984C-0.1 14.9225 0.0843115 15.1 0.307821 15.1V14.9C0.190867 14.9 0.1 14.8082 0.1 14.6984H-0.1ZM-0.1 5.52147V14.6984H0.1V5.52147H-0.1ZM0.0717748 5.19427C-0.0340396 5.26866 -0.1 5.39135 -0.1 5.52147H0.1C0.1 5.45854 0.132539 5.39603 0.186793 5.35789L0.0717748 5.19427ZM7.27096 0.969537L0.0786749 5.18983L0.179892 5.36233L7.37218 1.14203L7.27096 0.969537ZM7.73583 0.973751C7.5948 0.875437 7.40541 0.875437 7.26438 0.973751L7.37876 1.13782C7.45106 1.08741 7.54915 1.08741 7.62146 1.13782L7.73583 0.973751ZM14.3844 14.2966H0.615997V14.4966H14.3844V14.2966ZM14.2841 5.67621L14.2844 14.3966L14.4844 14.3966L14.4841 5.6762L14.2841 5.67621ZM7.44975 1.75749L14.3338 5.76264L14.4344 5.58977L7.55033 1.58462L7.44975 1.75749ZM0.666286 5.76264L7.55033 1.75749L7.44975 1.58462L0.565709 5.58977L0.666286 5.76264ZM0.715997 14.3966V5.6762H0.515997V14.3966H0.715997ZM7.44979 6.80307C6.03008 6.80307 4.56201 6.9922 3.44535 7.359C2.88748 7.54226 2.41098 7.77188 2.07204 8.0494C1.73242 8.32747 1.52207 8.66166 1.52207 9.05025H1.72207C1.72207 8.74198 1.88706 8.45934 2.19874 8.20415C2.51108 7.94841 2.96183 7.72834 3.50777 7.54902C4.59872 7.19066 6.04451 7.00307 7.44979 7.00307V6.80307ZM7.48224 6.99766L7.48235 6.99762L7.41723 6.80852L7.41711 6.80856L7.48224 6.99766ZM7.45185 6.80311H7.44968V7.00311H7.45185V6.80311ZM7.35185 5.31766V6.90311H7.55185V5.31766H7.35185ZM8.61433 4.07867C7.921 4.07867 7.35185 4.63103 7.35185 5.31766H7.55185C7.55185 4.74556 8.02734 4.27867 8.61433 4.27867V4.07867ZM9.51408 4.44993C9.28474 4.22044 8.96619 4.07867 8.61433 4.07867V4.27867C8.9115 4.27867 9.17962 4.39819 9.37261 4.5913L9.51408 4.44993ZM10.2724 4.07867C9.92051 4.07867 9.60198 4.22044 9.37262 4.44992L9.51408 4.59131C9.7071 4.39818 9.9752 4.27867 10.2724 4.27867V4.07867ZM11.5348 5.31766C11.5348 4.63341 10.9681 4.07867 10.2724 4.07867V4.27867C10.8613 4.27867 11.3348 4.74746 11.3348 5.31766H11.5348ZM11.5348 6.1299V5.31766H11.3348V6.1299H11.5348ZM11.1015 6.5565C11.3393 6.5565 11.5348 6.36763 11.5348 6.1299H11.3348C11.3348 6.2534 11.2327 6.3565 11.1015 6.3565V6.5565ZM10.6682 6.1299C10.6682 6.36784 10.8639 6.5565 11.1015 6.5565V6.3565C10.9704 6.3565 10.8682 6.2535 10.8682 6.1299H10.6682ZM10.6682 5.31766V6.1299H10.8682V5.31766H10.6682ZM10.2725 4.93203C10.4926 4.93203 10.6682 5.107 10.6682 5.31766H10.8682C10.8682 4.99272 10.5992 4.73203 10.2725 4.73203V4.93203ZM9.87687 5.31766C9.87687 5.10699 10.0525 4.93203 10.2725 4.93203V4.73203C9.94591 4.73203 9.67687 4.9927 9.67687 5.31766H9.87687ZM9.87687 7.07503V5.31766H9.67687V7.07503H9.87687ZM13.3775 9.05025C13.3775 8.48756 12.9406 8.04212 12.2986 7.70694C11.6515 7.36906 10.7642 7.12511 9.79201 6.97618L9.76173 7.17388C10.7232 7.32116 11.5863 7.56064 12.206 7.88423C12.831 8.21052 13.1775 8.60459 13.1775 9.05025H13.3775ZM13.3775 11.3521V9.05025H13.1775V11.3521H13.3775ZM7.44979 13.5992C8.86946 13.5992 10.3375 13.4101 11.4542 13.0433C12.0121 12.8601 12.4886 12.6304 12.8275 12.3529C13.1672 12.0748 13.3775 11.7406 13.3775 11.3521H13.1775C13.1775 11.6603 13.0125 11.943 12.7008 12.1982C12.3885 12.4539 11.9377 12.674 11.3918 12.8533C10.3008 13.2117 8.85503 13.3992 7.44979 13.3992V13.5992ZM1.52207 11.3521C1.52207 11.7406 1.73243 12.0748 2.07205 12.3529C2.411 12.6304 2.8875 12.8601 3.44538 13.0433C4.56205 13.4101 6.03012 13.5992 7.44979 13.5992V13.3992C6.04455 13.3992 4.59876 13.2117 3.50779 12.8533C2.96186 12.674 2.5111 12.4539 2.19875 12.1982C1.88706 11.943 1.72207 11.6603 1.72207 11.3521H1.52207ZM1.52207 9.05025V11.3521H1.72207V9.05025H1.52207ZM9.44129 9.15679C9.67911 9.15679 9.87462 8.96792 9.87462 8.73019H9.67462C9.67462 8.85369 9.57246 8.95679 9.44129 8.95679V9.15679ZM9.37551 9.13217L9.37788 9.13411L9.5047 8.97947L9.50233 8.97752L9.37551 9.13217ZM9.00558 8.72825C9.00558 8.96619 9.20131 9.15484 9.43892 9.15484V8.95484C9.30784 8.95484 9.20559 8.85184 9.20559 8.72825H9.00558ZM9.00558 7.63939V8.72825H9.20559V7.63939H9.00558ZM8.11266 7.6696C8.45713 7.68258 8.78607 7.70642 9.09515 7.73885L9.11602 7.53994C8.80244 7.50704 8.46906 7.48288 8.12019 7.46974L8.11266 7.6696ZM8.21642 8.72825V7.56967H8.01642V8.72825H8.21642ZM7.78309 9.15484C8.02091 9.15484 8.21642 8.96598 8.21642 8.72825H8.01642C8.01642 8.85175 7.91426 8.95484 7.78309 8.95484V9.15484ZM7.34975 8.72825C7.34975 8.96619 7.54549 9.15484 7.78309 9.15484V8.95484C7.65201 8.95484 7.54975 8.85184 7.54975 8.72825H7.34975ZM7.34975 7.55446V8.72825H7.54975V7.55446H7.34975ZM7.44758 7.65446H7.44975V7.45446H7.44758V7.65446ZM2.38666 9.04829C2.38666 8.94381 2.47305 8.79869 2.7019 8.63315C2.9247 8.472 3.25962 8.30868 3.69927 8.16273C4.57749 7.87118 5.85673 7.65446 7.44758 7.65446V7.45446C5.84016 7.45446 4.53894 7.67325 3.63626 7.97291C3.18546 8.12256 2.82983 8.29378 2.58469 8.4711C2.3456 8.64405 2.18666 8.84136 2.18666 9.04829H2.38666ZM3.35789 9.80713C3.03995 9.67759 2.79147 9.53678 2.62441 9.39922C2.45291 9.25801 2.38666 9.13673 2.38666 9.04829H2.18666C2.18666 9.22982 2.31374 9.40248 2.49728 9.55362C2.68526 9.7084 2.95353 9.85834 3.28242 9.99235L3.35789 9.80713ZM7.44754 10.4422C5.84126 10.4422 4.35053 10.2078 3.35758 9.80701L3.28273 9.99247C4.30795 10.4063 5.82669 10.6422 7.44754 10.6422V10.4422ZM11.5373 9.80707C10.5445 10.2098 9.05397 10.4422 7.44754 10.4422V10.6422C9.06826 10.6422 10.5871 10.4084 11.6125 9.99241L11.5373 9.80707ZM12.5084 9.05043C12.5084 9.13893 12.4422 9.26024 12.2707 9.40113C12.1037 9.53839 11.8553 9.67862 11.5375 9.80702L11.6124 9.99246C11.9414 9.85957 12.2097 9.71019 12.3977 9.55564C12.5814 9.40472 12.7084 9.23203 12.7084 9.05043H12.5084ZM9.75892 7.82942C10.6493 7.97104 11.3475 8.18547 11.8201 8.41742C12.0567 8.53356 12.2327 8.65208 12.348 8.76475C12.4648 8.87892 12.5084 8.97595 12.5084 9.05043H12.7084C12.7084 8.89841 12.622 8.75288 12.4878 8.6217C12.352 8.48902 12.1558 8.3594 11.9082 8.23788C11.4123 7.99452 10.6936 7.77556 9.79033 7.6319L9.75892 7.82942ZM9.87462 8.73019V7.73066H9.67462V8.73019H9.87462ZM12.5086 10.0935V11.3521H12.7086V10.0935H12.5086ZM12.5086 11.3521C12.5086 11.4565 12.4222 11.6017 12.1934 11.7672C11.9706 11.9284 11.6356 12.0917 11.196 12.2376C10.3178 12.5292 9.03854 12.7459 7.44769 12.7459V12.9459C9.05511 12.9459 10.3563 12.7271 11.259 12.4274C11.7098 12.2778 12.0654 12.1066 12.3106 11.9292C12.5497 11.7563 12.7086 11.559 12.7086 11.3521H12.5086ZM7.44769 12.7459C5.8567 12.7459 4.57746 12.5297 3.69928 12.2384C3.25964 12.0926 2.92476 11.9293 2.70201 11.7681C2.47327 11.6025 2.38676 11.4572 2.38676 11.3521H2.18676C2.18676 11.5594 2.34557 11.757 2.58474 11.9301C2.82989 12.1076 3.18553 12.2787 3.63631 12.4282C4.53897 12.7276 5.84019 12.9459 7.44769 12.9459V12.7459ZM2.38676 11.3521V10.0934H2.18676V11.3521H2.38676ZM2.22957 10.1754C2.4365 10.3197 2.69681 10.4624 3.02743 10.5955L3.10211 10.41C2.78372 10.2818 2.53703 10.146 2.34396 10.0113L2.22957 10.1754ZM3.02725 10.5954C4.13008 11.0418 5.74215 11.2953 7.44777 11.2953V11.0953C5.75733 11.0953 4.17314 10.8435 3.10229 10.4101L3.02725 10.5954ZM7.44777 11.2953C9.15354 11.2953 10.7633 11.0418 11.8682 10.5955L11.7933 10.41C10.7202 10.8435 9.13829 11.0953 7.44777 11.0953V11.2953ZM11.8686 10.5953C12.1984 10.4604 12.4585 10.3198 12.6657 10.1756L12.5515 10.0114C12.3585 10.1457 12.1119 10.2797 11.7929 10.4102L11.8686 10.5953ZM8.6122 4.93187C8.83224 4.93187 9.00785 5.10685 9.00785 5.3175H9.20785C9.20785 4.99256 8.93883 4.73187 8.6122 4.73187V4.93187ZM8.61434 4.73187H8.6122V4.93187H8.61434V4.73187ZM8.21869 5.3175C8.21869 5.10684 8.39431 4.93187 8.61434 4.93187V4.73187C8.28773 4.73187 8.01869 4.99255 8.01869 5.3175H8.21869ZM8.21869 5.69635V5.3175H8.01869V5.69635H8.21869ZM9.10785 5.59635H8.11869V5.79635H9.10785V5.59635ZM9.00785 5.3175V5.69635H9.20785V5.3175H9.00785ZM8.11655 6.4476H9.10571V6.2476H8.11655V6.4476ZM8.21655 6.91603V6.3476H8.01655V6.91603H8.21655ZM9.11637 6.88845C8.78954 6.85342 8.45397 6.82926 8.12049 6.81611L8.11261 7.01595C8.4418 7.02893 8.77288 7.05278 9.09505 7.08731L9.11637 6.88845ZM9.00571 6.3476V6.98788H9.20571V6.3476H9.00571Z" fill="#212121"/>
</g>
<defs>
<clipPath id="clip0_118_548">
<rect width="16" height="16" fill="white"/>
</clipPath>
</defs>
</svg>
