<svg width="16" height="16" viewBox="0 0 16 16" fill="none" xmlns="http://www.w3.org/2000/svg">
<rect width="16" height="16" fill="white"/>
<path d="M12.5768 8.85247L15.0588 11.3345V11.0588C15.0588 10.7989 15.2695 10.5882 15.5294 10.5882C15.7893 10.5882 16 10.7989 16 11.0588V12.4706C16 12.8898 15.4931 13.0998 15.1967 12.8033L12.7059 10.3126V12.4706C12.7059 12.7305 12.4952 12.9412 12.2353 12.9412H9.88235C9.69638 12.9412 9.52785 12.8317 9.45232 12.6617L8 9.39399L6.54768 12.6617C6.47215 12.8317 6.30362 12.9412 6.11765 12.9412H3.76471C3.50481 12.9412 3.29412 12.7305 3.29412 12.4706V10.3126L0.803338 12.8033C0.506883 13.0998 0 12.8898 0 12.4706V11.0588C0 10.7989 0.21069 10.5882 0.470588 10.5882C0.730487 10.5882 0.941176 10.7989 0.941176 11.0588V11.3345L3.4232 8.85247L7.65022 4.15578C7.83716 3.94807 8.16284 3.94807 8.34978 4.15578L12.5768 8.85247ZM4.23529 9.35705V12H5.81183L7.56997 8.04418C7.73558 7.67156 8.26442 7.67156 8.43003 8.04418L10.1882 12H11.7647V9.35705L8 5.17405L4.23529 9.35705Z" fill="black"/>
</svg>
