<svg width="16" height="16" viewBox="0 0 16 16" fill="none" xmlns="http://www.w3.org/2000/svg">
<rect width="16" height="16" fill="white"/>
<path d="M15.6488 1.16927L15.1489 0.669391C14.9621 0.482408 14.7132 0.37955 14.4478 0.37955C14.1826 0.37955 13.9337 0.482408 13.7469 0.669391L12.4214 1.99466C12.0293 2.38664 11.7558 2.78817 11.5341 3.2967L11.3975 3.60978C11.2758 3.88863 11.3204 4.20315 11.5063 4.43679L10.9951 4.94784C10.5559 3.04162 9.71307 1.36418 8.55947 0.194909L8.36727 0L8.17506 0.194909C6.43457 1.95936 5.39536 4.87722 5.39536 7.99991C5.39536 8.80152 5.46489 9.5889 5.59603 10.3475L5.01401 10.9293C4.78631 10.7728 4.49017 10.7393 4.23041 10.8526L3.91715 10.9891C3.40916 11.2105 3.00745 11.4841 2.61511 11.8765L1.28966 13.2021C1.10286 13.3889 1 13.6377 1 13.903C1 14.168 1.10286 14.4171 1.28966 14.6039L1.78954 15.1038C1.97635 15.2906 2.22548 15.3937 2.49064 15.3937C2.7558 15.3937 3.00475 15.2906 3.19155 15.1038L4.49719 13.7982C4.898 13.3974 5.17595 12.9861 5.39824 12.4644L5.53352 12.147C5.65746 11.8561 5.6054 11.5398 5.40328 11.3044L5.72357 10.9839C6.15824 12.9186 7.00795 14.6218 8.17524 15.8051L8.36745 16L8.55965 15.8051C10.3005 14.0405 11.3399 11.1228 11.3399 7.99991C11.3399 7.17326 11.2651 6.3621 11.1257 5.58174L11.8918 4.81562C12.0309 4.92028 12.1961 4.97936 12.3703 4.97936C12.4803 4.97936 12.5886 4.95703 12.692 4.91289L13.0096 4.77761C13.5313 4.55532 13.9427 4.27737 14.3433 3.87656L15.649 2.57092C15.8358 2.38412 15.9386 2.13517 15.9386 1.87001C15.9386 1.60485 15.8358 1.35608 15.6488 1.16927ZM5.03616 11.9352L4.90088 12.2526C4.70687 12.7078 4.46441 13.0665 4.11494 13.4161L2.8093 14.7217C2.63961 14.8913 2.34112 14.8909 2.17161 14.7217L1.67173 14.2219C1.58689 14.137 1.54041 14.0237 1.54041 13.903C1.54041 13.782 1.58707 13.669 1.67173 13.5842L2.99719 12.2585C3.33945 11.9163 3.68981 11.6776 4.13295 11.4845L4.44639 11.3479C4.48296 11.3317 4.52043 11.3236 4.5579 11.3236C4.57663 11.3236 4.59501 11.3261 4.6132 11.3299L3.24938 12.6939L3.63145 13.076L5.01797 11.6895C5.06372 11.7632 5.07219 11.8507 5.03616 11.9352ZM8.36763 0.777834C8.68971 1.13289 8.98244 1.53423 9.24652 1.96998H7.48874C7.75264 1.53423 8.04536 1.13271 8.36763 0.777834ZM5.93577 7.99991C5.93577 5.98129 6.38647 4.0594 7.18574 2.5104H9.54933C9.99499 3.37362 10.3331 4.35158 10.5439 5.39926L9.83377 6.10937C9.58139 5.16743 9.14312 4.34096 8.55983 3.74974L8.36763 3.55483L8.17542 3.74974C7.22429 4.71366 6.65632 6.30229 6.65632 7.99973C6.65632 8.4054 6.68983 8.80476 6.75197 9.19116L6.06943 9.8737C5.98279 9.26412 5.93577 8.63742 5.93577 7.99991ZM9.53852 7.99991C9.53852 9.43759 9.10493 10.7802 8.36763 11.6587C7.87279 11.0691 7.51576 10.27 7.33382 9.37382L9.49457 7.21289C9.52339 7.47031 9.53852 7.73349 9.53852 7.99991ZM7.23348 8.70983C7.20988 8.47655 7.19673 8.23985 7.19673 7.99973C7.19673 6.56223 7.63032 5.21949 8.36763 4.34078C8.84968 4.91505 9.20058 5.68838 9.38667 6.55629L7.23348 8.70983ZM8.36763 15.222C8.0477 14.8695 7.75696 14.4715 7.49414 14.0392H9.24093C8.97811 14.4715 8.68755 14.8695 8.36763 15.222ZM10.7995 7.99991C10.7995 10.0227 10.3468 11.9482 9.54447 13.4988H7.19061C6.73252 12.614 6.38864 11.6073 6.17824 10.5294L6.88311 9.82434C7.1326 10.794 7.57826 11.645 8.17524 12.2499L8.36745 12.4448L8.55965 12.2499C9.51078 11.2862 10.0788 9.69735 10.0788 8.00009C10.0788 7.56866 10.0416 7.1448 9.97139 6.73588L10.6554 6.05208C10.7489 6.68473 10.7995 7.33664 10.7995 7.99991ZM15.2667 2.18885L13.9611 3.49449C13.6114 3.84396 13.2526 4.08642 12.7976 4.28043L12.4798 4.41571C12.4438 4.4312 12.4069 4.43913 12.3701 4.43913C12.3402 4.43913 12.3117 4.43301 12.2842 4.42292L13.5837 3.12341L13.2016 2.74133L11.8956 4.04733C11.8628 3.97888 11.8601 3.90106 11.8929 3.82576L12.0295 3.5125C12.2228 3.069 12.4614 2.71882 12.8035 2.37674L14.129 1.05146C14.2138 0.966618 14.3271 0.919962 14.4478 0.919962C14.5687 0.919962 14.682 0.966798 14.7668 1.05146L15.2667 1.55134C15.3516 1.63619 15.398 1.74932 15.398 1.87019C15.398 1.99106 15.3516 2.10401 15.2667 2.18885Z" fill="black"/>
</svg>
