<svg width="16" height="16" viewBox="0 0 16 16" fill="none" xmlns="http://www.w3.org/2000/svg">
<rect width="16" height="16" fill="white"/>
<path d="M14.2149 5.73217H9.95859V2.79034C9.95789 2.31572 9.76905 1.86075 9.43344 1.52515C9.09784 1.18954 8.64287 1.0007 8.16825 1H1.79034C1.31573 1.0007 0.86075 1.18954 0.525147 1.52515C0.189544 1.86075 0.000696499 2.31572 1.09373e-06 2.79034V6.77851C-0.000391478 7.13165 0.104903 7.47683 0.302334 7.76963C0.93329 8.98422 3.84358 10.7798 3.87512 10.7982C3.93719 10.8352 4.00793 10.8552 4.08018 10.8561C4.14489 10.8566 4.20874 10.8412 4.26602 10.8111C4.32329 10.7809 4.37221 10.7371 4.40841 10.6835C4.4446 10.6298 4.46695 10.568 4.47344 10.5037C4.47993 10.4393 4.47037 10.3743 4.44561 10.3145C4.23424 9.74366 4.07068 9.15625 3.95662 8.55833H6.05981V11.5028C6.06049 11.9749 6.24761 12.4276 6.58046 12.7624C6.9133 13.0972 7.36491 13.287 7.837 13.2905H12.0434C11.929 13.8866 11.7655 14.4723 11.5544 15.0414C11.5296 15.1012 11.5201 15.1662 11.5266 15.2306C11.533 15.295 11.5554 15.3567 11.5916 15.4104C11.6278 15.464 11.6767 15.5079 11.734 15.538C11.7913 15.5681 11.8551 15.5836 11.9198 15.583C11.9921 15.5821 12.0628 15.5621 12.1249 15.5251C12.1564 15.5067 15.0667 13.7111 15.6977 12.4965C15.8956 12.203 16.0009 11.8568 16 11.5028V7.52251C15.9993 7.0488 15.8112 6.59462 15.4767 6.25917C15.1422 5.92371 14.6886 5.73425 14.2149 5.73217ZM5.23957 7.76963H3.4834C3.42646 7.77047 3.37033 7.78332 3.31869 7.80733C3.26704 7.83134 3.22105 7.86597 3.1837 7.90897C3.14689 7.95197 3.11984 8.00244 3.10441 8.0569C3.08898 8.11137 3.08553 8.16853 3.09431 8.22445C3.09431 8.26125 3.18896 8.83174 3.35721 9.51002C2.47387 8.89484 1.31186 8.00098 0.991128 7.40683C0.980608 7.38098 0.967389 7.3563 0.951693 7.33322C0.833407 7.16767 0.770803 6.96881 0.772922 6.76536V2.79034C0.773258 2.65756 0.79992 2.52617 0.851365 2.40377C0.90281 2.28136 0.978016 2.17038 1.07263 2.07723C1.16725 1.98408 1.2794 1.91061 1.40259 1.86109C1.52578 1.81156 1.65758 1.78696 1.79034 1.7887H8.16825C8.43369 1.78939 8.68806 1.89514 8.87575 2.08284C9.06345 2.27053 9.1692 2.5249 9.1699 2.79034V5.73217H7.837C7.58195 5.7325 7.32992 5.78733 7.09778 5.89297C6.86564 5.99861 6.65875 6.15264 6.49096 6.34472C6.21171 6.33594 5.93641 6.27625 5.67861 6.16858C6.09325 5.64698 6.34637 5.01554 6.40683 4.35195H6.61978C6.72437 4.35195 6.82467 4.31041 6.89863 4.23645C6.97258 4.1625 7.01413 4.06219 7.01413 3.95761C7.01413 3.85302 6.97258 3.75272 6.89863 3.67876C6.82467 3.60481 6.72437 3.56326 6.61978 3.56326H5.37364V2.86132C5.37364 2.75673 5.3321 2.65643 5.25814 2.58247C5.18419 2.50852 5.08388 2.46697 4.9793 2.46697C4.87471 2.46697 4.77441 2.50852 4.70045 2.58247C4.6265 2.65643 4.58495 2.75673 4.58495 2.86132V3.56326H3.35721C3.25263 3.56326 3.15232 3.60481 3.07837 3.67876C3.00441 3.75272 2.96287 3.85302 2.96287 3.95761C2.96287 4.06219 3.00441 4.1625 3.07837 4.23645C3.15232 4.31041 3.25263 4.35195 3.35721 4.35195H5.61288C5.55718 4.8542 5.35617 5.3293 5.0345 5.71903C4.80412 5.46308 4.62555 5.16488 4.50871 4.84095C4.47106 4.74333 4.39617 4.66467 4.30052 4.62227C4.20487 4.57987 4.0963 4.5772 3.99869 4.61485C3.90107 4.6525 3.82241 4.72739 3.78001 4.82304C3.73761 4.91869 3.73494 5.02726 3.77259 5.12488C3.91541 5.50829 4.12355 5.86408 4.38777 6.17647C4.06468 6.30662 3.71861 6.37011 3.37036 6.36313C3.26577 6.36313 3.16547 6.40467 3.09151 6.47863C3.01756 6.55258 2.97601 6.65289 2.97601 6.75747C2.97601 6.86206 3.01756 6.96237 3.09151 7.03632C3.16547 7.11027 3.26577 7.15182 3.37036 7.15182C3.95443 7.16317 4.53029 7.01306 5.0345 6.71804C5.35966 6.91648 5.72202 7.04621 6.09924 7.09924C6.06446 7.23675 6.0468 7.37804 6.04666 7.51988V7.78278L5.23957 7.76963ZM15.2297 11.5028C15.2318 11.7062 15.1692 11.9051 15.0509 12.0707C15.0353 12.0928 15.022 12.1166 15.0115 12.1416C14.7013 12.7305 13.5366 13.627 12.6454 14.2448C12.8216 13.5665 12.9083 12.9961 12.9083 12.9592C12.9171 12.9033 12.9136 12.8462 12.8982 12.7917C12.8828 12.7372 12.8557 12.6868 12.8189 12.6438C12.7823 12.6004 12.7369 12.5652 12.6857 12.5408C12.6345 12.5163 12.5786 12.503 12.5218 12.5018H7.837C7.5718 12.5018 7.31743 12.3966 7.12966 12.2094C6.94189 12.0221 6.83605 11.768 6.83536 11.5028V7.52251C6.83605 7.25707 6.9418 7.0027 7.1295 6.81501C7.31719 6.62731 7.57156 6.52156 7.837 6.52087H14.2149C14.4804 6.52156 14.7347 6.62731 14.9224 6.81501C15.1101 7.0027 15.2159 7.25707 15.2166 7.52251L15.2297 11.5028ZM12.4509 10.0411L11.3993 7.41209C11.3939 7.39733 11.3868 7.38322 11.3782 7.37003L11.3625 7.34374C11.3552 7.33126 11.3464 7.31978 11.3362 7.30956L11.3151 7.28327L11.2862 7.25961L11.2547 7.24384C11.246 7.23705 11.2362 7.23173 11.2258 7.22806L11.1863 7.20703C11.1767 7.20551 11.167 7.20551 11.1574 7.20703L11.118 7.19389H11.0785H11.0417H10.9997H10.9655L10.9208 7.20703C10.9121 7.20587 10.9032 7.20587 10.8945 7.20703L10.8551 7.22806L10.8156 7.24384C10.8054 7.25092 10.7957 7.25883 10.7867 7.2675L10.7578 7.29116L10.7341 7.31745C10.7247 7.32834 10.716 7.33975 10.7079 7.35162V7.37791L10.6842 7.41998L9.6326 10.049L9.1068 11.3635C9.08552 11.4123 9.07437 11.465 9.07403 11.5183C9.07368 11.5716 9.08414 11.6244 9.10478 11.6736C9.12543 11.7227 9.15582 11.7672 9.19412 11.8042C9.23242 11.8413 9.27784 11.8702 9.32763 11.8892C9.37411 11.9092 9.42429 11.9191 9.47486 11.9182C9.55338 11.9177 9.63001 11.894 9.69506 11.85C9.76011 11.8061 9.81065 11.7438 9.84029 11.671L10.2662 10.6037H11.8436L12.2695 11.671C12.2996 11.744 12.3506 11.8063 12.4161 11.8503C12.4816 11.8943 12.5586 11.9179 12.6375 11.9182C12.6872 11.9188 12.7365 11.9089 12.7821 11.8892C12.8319 11.8702 12.8773 11.8413 12.9156 11.8042C12.9539 11.7672 12.9843 11.7227 13.005 11.6736C13.0256 11.6244 13.0361 11.5716 13.0357 11.5183C13.0354 11.465 13.0242 11.4123 13.003 11.3635L12.4509 10.0411ZM10.5659 9.79921L11.0365 8.62668L11.5044 9.79921H10.5659Z" fill="black"/>
</svg>
