<svg width="16" height="16" viewBox="0 0 16 16" fill="none" xmlns="http://www.w3.org/2000/svg">
<g clip-path="url(#clip0_95_370)">
<path fill-rule="evenodd" clip-rule="evenodd" d="M8.26075 3.20632V0H7.72778V3.20632C6.055 3.27604 4.47608 3.9984 3.33005 5.21862C2.18369 6.43884 1.56127 8.05975 1.59611 9.7336C1.63097 11.4074 2.32037 13.0011 3.51647 14.1724C4.71253 15.3439 6.32014 16 7.99429 16C9.66845 16 11.2761 15.3439 12.4721 14.1724C13.6682 13.0011 14.3576 11.4076 14.3925 9.7336C14.4273 8.05975 13.8049 6.43896 12.6585 5.21862C11.5123 3.9984 9.9335 3.27603 8.26081 3.20632H8.26075ZM12.7212 6.12908H11.5802C11.2858 5.40659 10.8497 4.75049 10.2973 4.19947C11.2647 4.61192 12.1025 5.27874 12.7212 6.12908ZM11.2185 12.5247H9.42907C9.52948 11.6398 9.58289 10.7503 9.58896 9.85984H11.719C11.6973 10.7693 11.5282 11.6693 11.2185 12.5247ZM8.76155 15.3313C9.07183 14.6068 9.27429 13.8408 9.3628 13.0576H10.9991C10.4477 14.2373 9.65322 15.0378 8.76179 15.3313H8.76155ZM4.98937 13.0576H6.62552C6.71391 13.8408 6.91639 14.6068 7.22652 15.3313C6.3351 15.0378 5.54067 14.2373 4.98937 13.0576ZM4.76976 12.5247C4.46021 11.6692 4.29128 10.7693 4.26963 9.85984H6.3996C6.40567 10.7503 6.45908 11.6398 6.55949 12.5247H4.76976ZM7.09246 6.66204H8.89656C8.99887 7.54667 9.05312 8.4363 9.05907 9.32687H6.92982C6.93577 8.4363 6.9899 7.54667 7.09221 6.66204H7.09246ZM9.36317 6.12908C9.27478 5.34592 9.0723 4.57991 8.76229 3.85541C9.65371 4.14855 10.448 4.9493 11.0007 6.12908H9.36317ZM8.82332 6.12908H7.16515C7.43616 4.34364 7.84208 3.73073 7.99424 3.73073C8.14639 3.73073 8.5523 4.34364 8.82332 6.12908ZM7.22676 3.85541C6.91649 4.57991 6.71402 5.34592 6.62552 6.12908H4.98925C5.54064 4.94943 6.3351 4.14888 7.22652 3.85541H7.22676ZM4.76979 6.66204H6.55949C6.45908 7.54692 6.40567 8.43642 6.3996 9.32687H4.26929C4.29106 8.41739 4.46011 7.51741 4.76979 6.66204ZM7.09246 12.5247C6.99015 11.64 6.93578 10.7504 6.92983 9.85984H9.05908C9.05313 10.7504 8.99888 11.64 8.89657 12.5247H7.09246ZM9.58942 9.32687C9.58323 8.43642 9.52994 7.54692 9.42953 6.66204H11.2186C11.5282 7.51753 11.6971 8.41739 11.7188 9.32687H9.58942ZM5.69115 4.19944C5.13879 4.75049 4.70267 5.40659 4.40823 6.12905H3.26722C3.88595 5.27868 4.72371 4.61189 5.69115 4.19944ZM2.91653 6.66201H4.20125C3.91288 7.52188 3.75548 8.42019 3.73432 9.32684H2.13755C2.17978 8.38891 2.44685 7.47489 2.91653 6.66201ZM2.13755 9.85981H3.73432C3.75549 10.7665 3.91288 11.6648 4.20125 12.5246H2.91653C2.44685 11.7118 2.17979 10.7977 2.13755 9.85981ZM3.26725 13.0576H4.40826C4.7027 13.7801 5.13882 14.4362 5.69118 14.9872C4.72374 14.5748 3.88601 13.9079 3.26725 13.0576ZM7.1654 13.0576H8.82341C8.55241 14.843 8.14648 15.4559 7.99433 15.4559C7.84229 15.4559 7.43642 14.843 7.1654 13.0576ZM10.2977 14.9872C10.8501 14.4362 11.2862 13.7801 11.5806 13.0576H12.7216C12.1029 13.908 11.2652 14.5748 10.2977 14.9872ZM13.0723 12.5246H11.7876C12.076 11.6648 12.2334 10.7665 12.2546 9.85981H13.8513C13.8091 10.7977 13.542 11.7118 13.0723 12.5246ZM13.8513 9.32684H12.2546C12.2334 8.42019 12.076 7.52188 11.7876 6.66201H13.0723C13.542 7.47489 13.8091 8.38891 13.8513 9.32684ZM15.7223 3.99724C15.4397 3.99724 15.1685 3.88494 14.9686 3.68507C14.7687 3.48509 14.6564 3.21396 14.6564 2.93131C14.6564 2.78415 14.5371 2.66483 14.3899 2.66483C14.2428 2.66483 14.1234 2.78415 14.1234 2.93131C14.1234 3.21397 14.0111 3.48511 13.8113 3.68507C13.6113 3.88494 13.3402 3.99724 13.0575 3.99724C12.9103 3.99724 12.791 4.11656 12.791 4.26372C12.791 4.41088 12.9103 4.53021 13.0575 4.53021C13.3402 4.53021 13.6113 4.64251 13.8113 4.84237C14.0111 5.04235 14.1234 5.31348 14.1234 5.59614C14.1234 5.7433 14.2428 5.86262 14.3899 5.86262C14.5371 5.86262 14.6564 5.7433 14.6564 5.59614C14.6564 5.31348 14.7687 5.04234 14.9686 4.84237C15.1685 4.64251 15.4397 4.53021 15.7223 4.53021C15.8695 4.53021 15.9888 4.41088 15.9888 4.26372C15.9888 4.11656 15.8695 3.99724 15.7223 3.99724ZM14.3899 4.71413C14.2713 4.53544 14.1182 4.38232 13.9395 4.26372C14.1182 4.14512 14.2713 3.992 14.3899 3.81332C14.5085 3.99201 14.6616 4.14513 14.8403 4.26372C14.6616 4.38233 14.5085 4.53544 14.3899 4.71413ZM2.05382 5.51811C2.00386 5.56807 1.93605 5.59615 1.86538 5.59615C1.79472 5.59615 1.7269 5.56807 1.67694 5.51811C1.62697 5.46814 1.5989 5.40033 1.5989 5.32967C1.59841 4.97645 1.45793 4.63776 1.20822 4.38793C0.958394 4.13822 0.619702 3.99773 0.266483 3.99725C0.119323 3.99725 0 3.87793 0 3.73077C0 3.58361 0.119323 3.46428 0.266483 3.46428C0.619702 3.4638 0.958391 3.32331 1.20822 3.07361C1.45792 2.82378 1.59842 2.48509 1.5989 2.13187C1.5989 1.98471 1.71822 1.86539 1.86538 1.86539C2.01254 1.86539 2.13186 1.98471 2.13186 2.13187C2.13235 2.48509 2.27283 2.82378 2.52254 3.07361C2.77237 3.32331 3.11106 3.46381 3.46428 3.46428C3.61144 3.46428 3.73076 3.58361 3.73076 3.73077C3.73076 3.87793 3.61144 3.99725 3.46428 3.99725C3.11106 3.99774 2.77237 4.13822 2.52254 4.38793C2.27284 4.63775 2.13234 4.97645 2.13186 5.32967C2.13186 5.40033 2.10379 5.46814 2.05382 5.51811ZM1.86538 3.08777C1.70692 3.35151 1.48613 3.57231 1.22238 3.73077C1.48612 3.88923 1.70692 4.11002 1.86538 4.37377C2.02384 4.11003 2.24463 3.88923 2.50838 3.73077C2.24464 3.57231 2.02384 3.35152 1.86538 3.08777Z" fill="#212121"/>
</g>
<defs>
<clipPath id="clip0_95_370">
<rect width="16" height="16" fill="white"/>
</clipPath>
</defs>
</svg>
