<svg width="16" height="16" viewBox="0 0 16 16" fill="none" xmlns="http://www.w3.org/2000/svg">
<g clip-path="url(#clip0_107_814)">
<rect width="16" height="16" fill="white"/>
<path d="M7.79934 0.601303C6.99941 -0.131968 5.5662 -0.165299 4.13298 0.467981C3.1664 0.901278 0 2.70113 0 8.00068C0 12.4003 2.79976 16 6.19948 16C9.86583 16 12.399 11.967 12.399 8.33398C12.399 7.16742 12.1323 6.20083 11.6324 5.46756C11.0657 4.66763 10.1658 4.23433 9.09923 4.23433C8.79926 4.23433 8.53261 4.10101 8.36596 3.86769C8.19931 3.60105 8.13265 3.26774 8.23264 3.0011C8.56594 2.00118 8.39929 1.13459 7.79934 0.601303ZM9.09923 4.90094C9.96582 4.90094 10.6324 5.23425 11.0991 5.86753C11.5324 6.46747 11.7657 7.33407 11.7657 8.33398C11.7657 11.2004 9.79917 15.3334 6.23281 15.3334C3.1664 15.3334 0.66661 12.0337 0.66661 8.00068C0.66661 3.13442 3.53303 1.4679 4.43296 1.06793C4.99958 0.801286 5.5662 0.701295 6.06615 0.701295C6.59944 0.701295 7.06607 0.834617 7.36604 1.10126C7.76601 1.4679 7.866 2.03452 7.63269 2.76779C7.46604 3.26774 7.5327 3.80103 7.866 4.23433C8.13265 4.6343 8.59927 4.90094 9.09923 4.90094Z" fill="black"/>
<path d="M3.73304 10.0672C3.09976 10.0672 2.56647 10.6005 2.56647 11.2337C2.56647 11.867 3.09976 12.4003 3.73304 12.4003C4.36632 12.4003 4.8996 11.867 4.8996 11.2337C4.8996 10.6005 4.39965 10.0672 3.73304 10.0672ZM3.73304 11.7337C3.46639 11.7337 3.23308 11.5004 3.23308 11.2337C3.23308 10.9671 3.46639 10.7338 3.73304 10.7338C3.99968 10.7338 4.23299 10.9671 4.23299 11.2337C4.23299 11.5004 4.03301 11.7337 3.73304 11.7337Z" fill="black"/>
<path d="M6.39948 11.8337C5.7662 11.8337 5.23291 12.367 5.23291 13.0002C5.23291 13.6335 5.7662 14.1668 6.39948 14.1668C7.03276 14.1668 7.56605 13.6335 7.56605 13.0002C7.56605 12.367 7.06609 11.8337 6.39948 11.8337ZM6.39948 13.5002C6.13283 13.5002 5.89952 13.2669 5.89952 13.0002C5.89952 12.7336 6.13283 12.5003 6.39948 12.5003C6.66612 12.5003 6.89944 12.7336 6.89944 13.0002C6.89944 13.2669 6.69945 13.5002 6.39948 13.5002Z" fill="black"/>
<path d="M3.39972 6.33414C4.033 6.33414 4.56629 5.80086 4.56629 5.16758C4.56629 4.5343 4.06633 4.00101 3.39972 4.00101C2.73311 4.00101 2.23315 4.5343 2.23315 5.16758C2.23315 5.80086 2.76644 6.33414 3.39972 6.33414ZM3.39972 4.66762C3.66637 4.66762 3.89968 4.90093 3.89968 5.16758C3.89968 5.43422 3.6997 5.66753 3.39972 5.66753C3.09975 5.66753 2.89976 5.43422 2.89976 5.16758C2.89976 4.90093 3.13308 4.66762 3.39972 4.66762Z" fill="black"/>
<path d="M3.93299 8.10067C3.93299 7.46739 3.3997 6.9341 2.76642 6.9341C2.13314 6.9341 1.59985 7.46739 1.59985 8.10067C1.59985 8.73395 2.13314 9.26723 2.76642 9.26723C3.3997 9.26723 3.93299 8.76728 3.93299 8.10067ZM2.26646 8.10067C2.26646 7.83402 2.49978 7.60071 2.76642 7.60071C3.03307 7.60071 3.26638 7.83402 3.26638 8.10067C3.26638 8.36731 3.03307 8.60062 2.76642 8.60062C2.49978 8.60062 2.26646 8.40064 2.26646 8.10067Z" fill="black"/>
<path d="M7.766 6.70078C7.53268 7.13408 7.46602 7.66737 7.63267 8.20066C7.86599 9.03392 8.56593 9.60054 9.26587 9.60054C9.36586 9.60054 9.46585 9.60054 9.56584 9.56721C9.89915 9.46722 10.1658 9.26723 10.3658 8.93393C10.5991 8.50063 10.6324 7.96734 10.4991 7.43405C10.1991 6.46747 9.36586 5.86752 8.56593 6.0675C8.23262 6.13416 7.96598 6.36748 7.766 6.70078ZM8.36595 7.00076C8.43261 6.90077 8.5326 6.73411 8.73258 6.70078C8.76591 6.70078 8.83257 6.66745 8.8659 6.66745C9.26587 6.66745 9.66584 7.06742 9.83249 7.60071C9.93248 7.96734 9.89915 8.30065 9.76583 8.56729C9.69917 8.66728 9.59917 8.83394 9.39919 8.86727C8.99923 9.00059 8.46594 8.60062 8.29928 8.00067C8.19929 7.63404 8.19929 7.2674 8.36595 7.00076Z" fill="black"/>
<path d="M13.8655 0.034681C13.7322 0.0680116 13.6655 0.201334 13.6322 0.334656C13.5656 1.86786 13.2656 2.1345 12.9656 2.43448C12.8989 2.50114 12.8323 2.5678 12.7656 2.63446C12.3323 3.10109 12.199 3.80103 12.4656 4.36765C12.599 4.63429 12.7656 4.83428 12.9989 5.00093C12.8989 6.5008 12.8323 7.40073 12.8323 9.00059C12.8323 10.8004 12.8989 12.5003 13.0656 13.7669C13.3322 15.6334 13.5989 16 13.9989 16C14.3988 16 14.6655 15.6334 14.8654 13.7335C14.9988 12.467 15.0988 10.7671 15.0988 8.96726C15.0988 7.33407 15.0321 6.36748 14.9321 4.93427C15.5654 4.56763 15.9987 3.90102 15.9987 3.10109C15.9987 2.03451 14.3988 0.301325 14.2322 0.101342C14.1322 0.00135045 13.9989 -0.03198 13.8655 0.034681ZM13.9989 15.0001C13.7655 14.1335 13.5322 12.0003 13.5322 8.96726C13.5322 7.43406 13.5989 6.56746 13.6989 5.16758C13.7655 5.16758 13.8322 5.16758 13.8989 5.16758C14.0322 5.16758 14.1322 5.16758 14.2655 5.13425C14.3655 6.5008 14.4321 7.40073 14.4321 8.93393C14.4321 12.0003 14.1988 14.1668 13.9989 15.0001ZM15.3321 3.10109C15.3321 3.90102 14.6988 4.5343 13.8989 4.5343C13.4989 4.5343 13.2322 4.36765 13.0989 4.06767C12.9656 3.73437 13.0323 3.3344 13.2989 3.03443C13.3656 2.96777 13.3989 2.93444 13.4656 2.86778C13.8322 2.53447 14.1322 2.16783 14.2655 1.13459C14.7655 1.8012 15.3321 2.63446 15.3321 3.10109Z" fill="black"/>
</g>
<defs>
<clipPath id="clip0_107_814">
<rect width="16" height="16" fill="white"/>
</clipPath>
</defs>
</svg>
