<svg width="16" height="16" viewBox="0 0 16 16" fill="none" xmlns="http://www.w3.org/2000/svg">
<g clip-path="url(#clip0_107_788)">
<rect width="16" height="16" fill="white"/>
<path d="M16 4.08783V0.31372C16 0.140484 15.8595 0 15.6863 0H11.9122C11.7616 0 11.6776 0.108327 11.67 0.114225L5.00958 8.06385L4.97435 8.02859C4.63776 7.69203 4.09016 7.69209 3.75364 8.02859L3.25413 8.5281C2.64219 9.1401 2.64219 10.1358 3.25413 10.7478L3.25429 10.748L1.89384 12.1084C1.4125 11.8246 0.781017 11.8893 0.368068 12.3022C-0.122621 12.7928 -0.122747 13.5871 0.368036 14.0779L1.92208 15.6319C2.4127 16.1226 3.20698 16.1227 3.69779 15.632C4.11078 15.219 4.17534 14.5875 3.89158 14.1062L5.25203 12.7457L5.25218 12.7459C5.86416 13.3578 6.85984 13.3579 7.47191 12.7459L7.97141 12.2464C8.30797 11.9098 8.30797 11.3622 7.97141 11.0256L7.93615 10.9904C8.43769 10.5702 15.4572 4.68901 15.8859 4.32983C15.8885 4.32638 16 4.23795 16 4.08783ZM15.3726 3.77411H12.2259V0.627439H15.3726V3.77411ZM11.5984 1.17667V3.95786L6.25103 9.3053L5.45497 8.50924L11.5984 1.17667ZM3.2541 15.1883C3.00855 15.4338 2.61129 15.4338 2.36577 15.1883V15.1883L0.811699 13.6342C0.566213 13.3887 0.566182 12.9914 0.81173 12.7459C1.05668 12.5009 1.45517 12.501 1.70006 12.7459L3.2541 14.2999C3.49905 14.5448 3.49905 14.9434 3.2541 15.1883ZM3.47596 13.6344L2.36558 12.524L3.69795 11.1917L4.80833 12.302L3.47596 13.6344ZM7.52772 11.8027L7.02821 12.3022C6.66088 12.6695 6.06318 12.6695 5.69584 12.3022L3.69779 10.3042C3.33046 9.93685 3.33046 9.33912 3.69779 8.97179L4.1973 8.47228C4.28922 8.38036 4.43874 8.38036 4.53066 8.47228C4.90828 8.84991 7.07872 11.0203 7.52772 11.4693C7.61964 11.5613 7.61964 11.7108 7.52772 11.8027ZM6.6947 9.74897L12.0421 4.40155H14.8233L7.49076 10.545L6.6947 9.74897Z" fill="black"/>
</g>
<defs>
<clipPath id="clip0_107_788">
<rect width="16" height="16" fill="white"/>
</clipPath>
</defs>
</svg>
