<svg width="16" height="16" viewBox="0 0 16 16" fill="none" xmlns="http://www.w3.org/2000/svg">
<g clip-path="url(#clip0_107_827)">
<rect width="16" height="16" fill="white"/>
<path d="M4.80557 7.69972C4.762 7.4689 4.53926 7.3163 4.30887 7.36114L2.07657 7.78388C1.84597 7.82745 1.69443 8.04998 1.738 8.28059C1.77668 8.48462 1.955 8.6266 2.155 8.6266C2.18135 8.6266 2.20792 8.62426 2.2347 8.61916L4.467 8.19642C4.6976 8.15285 4.84914 7.93032 4.80557 7.69972Z" fill="black"/>
<path d="M6.2432 7.85231C6.26955 7.85231 6.29612 7.84997 6.3229 7.84487L8.5552 7.42213C8.7858 7.37856 8.93734 7.15603 8.89377 6.92543C8.8502 6.69461 8.62682 6.54222 8.39707 6.58685L6.16477 7.00959C5.93416 7.05316 5.78262 7.27569 5.82619 7.5063C5.86488 7.71033 6.0432 7.85231 6.2432 7.85231Z" fill="black"/>
<path d="M8.49228 9.44488C8.45891 9.42447 8.42299 9.40875 8.38538 9.39812C8.34244 9.38601 8.25318 9.36581 8.13713 9.36581C7.90036 9.36581 7.45318 9.45019 7.11779 10.0155C7.1044 10.0381 7.09314 10.0619 7.08421 10.0865C6.98368 10.3618 6.7739 10.6496 6.47614 10.9218C6.45106 10.9388 6.42747 10.9588 6.406 10.9813C6.3907 10.9977 6.37433 11.0113 6.35988 11.024L6.31121 11.0642C6.128 11.2013 5.87784 11.2342 5.59601 11.1688C5.28103 11.0632 4.85489 10.8731 4.57859 10.5611C4.56116 10.5414 4.54203 10.5233 4.5212 10.5071C4.26212 10.3059 3.99134 10.2036 3.71674 10.2036C3.40133 10.2036 3.19007 10.3395 3.11419 10.3977C3.0838 10.4209 3.05659 10.4481 3.03364 10.4789C2.73779 10.8706 2.74459 11.413 3.05383 12.091C3.05723 12.0982 3.06063 12.1052 3.06425 12.1125C3.10357 12.1871 4.04788 13.9411 6.00898 13.9411C6.09612 13.9411 6.18475 13.9373 6.27359 13.9303C6.32375 13.9384 6.37539 13.9373 6.42598 13.9271C6.45169 13.9218 6.47592 13.9152 6.50993 13.9054C6.53841 13.9029 6.56668 13.8999 6.59643 13.8946C6.64298 13.8863 6.68698 13.8693 6.72736 13.8457C8.78984 13.2308 9.05084 11.0693 9.06082 10.9764C9.06167 10.9686 9.06231 10.9607 9.06274 10.9528C9.10269 10.209 8.91077 9.70162 8.49228 9.44488ZM8.21449 10.8931C8.19303 11.0546 7.94457 12.6425 6.40961 13.0521C6.39495 13.0561 6.38071 13.0608 6.36689 13.0661C6.3569 13.0676 6.34691 13.0695 6.33692 13.0716C6.32162 13.0716 6.30589 13.0727 6.29038 13.0744C6.19558 13.0852 6.10079 13.0908 6.00855 13.0908C4.61238 13.0908 3.89081 11.8517 3.8211 11.7254C3.69017 11.4345 3.64044 11.1943 3.67997 11.0568C3.7499 11.0453 3.85999 11.0772 3.972 11.1579C4.2974 11.511 4.75946 11.7881 5.34585 11.9815C5.35648 11.9851 5.36711 11.9879 5.37795 11.9907C5.91525 12.1227 6.42938 12.0374 6.82002 11.745C6.82449 11.7416 6.84298 11.7267 6.84723 11.7233L6.91822 11.6646C6.93543 11.6495 6.95265 11.6342 6.96965 11.6185C6.979 11.6115 6.98814 11.6041 6.99707 11.5962C7.4145 11.227 7.70674 10.8315 7.86657 10.4204C7.94032 10.3057 8.02193 10.2359 8.10121 10.2198C8.18856 10.3331 8.23001 10.5747 8.21449 10.8931Z" fill="black"/>
<path d="M16.0185 2.58729C16.0198 2.49654 15.9919 2.40791 15.9394 2.33416C15.3156 1.4602 13.8232 0.89272 12.6514 0.566047C12.6179 0.549682 12.5821 0.53778 12.545 0.530766L12.4699 0.516738C11.9915 0.389853 11.6602 0.326303 11.6459 0.323753L11.0582 0.212595C11.0442 0.209832 10.7127 0.147558 10.221 0.0910225L10.1794 0.0831584C10.1488 0.0772074 10.1173 0.0744445 10.0867 0.0761449C8.86271 -0.0541416 7.23891 -0.0787963 6.32712 0.513975C6.25124 0.563284 6.19301 0.63576 6.16091 0.720776C6.13775 0.782625 5.6132 2.19495 5.39046 4.04935C5.1318 4.08633 4.96963 4.11651 4.95986 4.11843L4.37218 4.22958C4.35816 4.23235 4.02681 4.2959 3.54838 4.42257L3.47336 4.4366C3.43786 4.4434 3.40343 4.45488 3.37155 4.47039C2.19897 4.79706 0.703547 5.36476 0.0791067 6.23999C0.026397 6.31395 -0.001233 6.40258 4.22365e-05 6.49313C0.00131747 6.58005 0.196003 15.2066 6.25549 15.9728C6.26591 15.9741 6.27654 15.9751 6.28695 15.9756L6.74965 15.9994C6.75687 15.9998 6.76431 16 6.77154 16C6.79811 16 6.82467 15.9974 6.85103 15.9926L6.95581 15.9726C6.98897 15.9664 7.02127 15.956 7.05188 15.942L7.47398 15.7507C7.48355 15.7462 7.49311 15.7418 7.50225 15.7367C9.15134 14.8353 10.0108 13.4444 10.4104 11.9482C15.8368 10.6744 16.0136 2.91864 16.0185 2.58729ZM7.10799 14.9826L6.74688 15.1464L6.74242 15.1473L6.34689 15.1269C1.43957 14.4925 0.909072 7.71778 0.855937 6.62745C1.29207 6.13308 2.30184 5.64382 3.6657 5.2706C3.67952 5.26678 3.69291 5.26252 3.70609 5.25721L3.72139 5.25445C3.7318 5.25232 3.74201 5.24998 3.75221 5.24743C4.20683 5.12629 4.52819 5.06465 4.53095 5.06401L5.11798 4.95307C5.12117 4.95243 5.44274 4.89228 5.91012 4.83893C5.91968 4.83766 5.92946 4.83638 5.93902 4.83447C5.94816 4.83405 5.9573 4.83341 5.96665 4.83235C6.43211 4.78112 6.87292 4.75498 7.27675 4.75498C8.08822 4.75498 8.71755 4.86146 9.11053 5.06359C9.46037 6.09674 11.4504 12.5934 7.10799 14.9826ZM10.6995 9.07484C10.6876 8.7369 10.6625 8.4064 10.6281 8.08759C10.6323 8.08653 10.6364 8.08632 10.6406 8.08526C10.6512 8.08249 10.6619 8.07973 10.6723 8.07612C11.2589 7.88313 11.7209 7.60619 12.0465 7.25274C12.1875 7.15093 12.2848 7.14243 12.3379 7.15051C12.3781 7.2876 12.3288 7.52777 12.1979 7.81895C12.1433 7.9148 11.6346 8.76899 10.6995 9.07484ZM10.6017 11.014C10.6536 10.661 10.6846 10.3065 10.6984 9.95539C12.1953 9.61405 12.9231 8.26676 12.9545 8.20704C12.9581 8.20003 12.9617 8.19301 12.9649 8.18558C13.2742 7.50758 13.281 6.96518 12.9851 6.57347C12.962 6.54265 12.935 6.51565 12.9046 6.49228C12.6104 6.26677 12.0659 6.16008 11.4976 6.60173C11.4767 6.61789 11.4576 6.63595 11.4402 6.65572C11.1885 6.93988 10.814 7.12182 10.5114 7.2317C10.2638 5.73096 9.86866 4.65466 9.85761 4.62533C9.82573 4.54053 9.76749 4.46805 9.69162 4.41853C9.16728 4.07762 8.35474 3.90461 7.27675 3.90461C6.95645 3.90461 6.61575 3.91991 6.26017 3.94967C6.44083 2.61301 6.78132 1.53055 6.90799 1.15818C7.49949 0.854675 8.63041 0.770085 10.0521 0.926727C10.0612 0.927789 10.0704 0.928427 10.0797 0.928852C10.0893 0.930552 10.0991 0.93204 10.1086 0.933315C10.576 0.986662 10.8976 1.04681 10.9005 1.04724L11.4876 1.15839C11.4908 1.15903 11.8121 1.22067 12.2667 1.34182C12.2769 1.34458 12.2871 1.3467 12.2976 1.34883L12.3124 1.35159C12.3256 1.35669 12.3392 1.36116 12.3532 1.36498C13.7171 1.73799 14.7269 2.22747 15.163 2.72183C15.1131 3.74011 14.648 9.71118 10.6017 11.014Z" fill="black"/>
<path d="M13.9419 3.87867L11.7094 3.45572C11.4793 3.4113 11.2565 3.56348 11.2127 3.79429C11.1689 4.0249 11.3205 4.24743 11.5513 4.291L13.7836 4.71374C13.8102 4.71884 13.837 4.72118 13.8633 4.72118C14.0635 4.72118 14.2418 4.5792 14.2803 4.37516C14.3241 4.14477 14.1726 3.92224 13.9419 3.87867Z" fill="black"/>
<path d="M9.8536 3.10419L7.6213 2.68145C7.39176 2.63724 7.16817 2.7892 7.1246 3.02002C7.08082 3.25063 7.23236 3.47315 7.46317 3.51673L9.69547 3.93947C9.72204 3.94457 9.74882 3.9469 9.77517 3.9469C9.97538 3.9469 10.1537 3.80493 10.1922 3.60089C10.236 3.37029 10.0844 3.14776 9.8536 3.10419Z" fill="black"/>
</g>
<defs>
<clipPath id="clip0_107_827">
<rect width="16" height="16" fill="white"/>
</clipPath>
</defs>
</svg>
