<svg width="16" height="16" viewBox="0 0 16 16" fill="none" xmlns="http://www.w3.org/2000/svg">
<rect width="16" height="16" fill="white"/>
<path d="M7.95457 3.0004C7.92536 3.00449 7.89675 3.01212 7.86938 3.02312L0.236908 5.93073C0.167367 5.95656 0.107396 6.00305 0.0650471 6.06396C0.0226984 6.12487 0 6.19728 0 6.27146C0 6.34565 0.0226984 6.41805 0.0650471 6.47896C0.107396 6.53987 0.167367 6.58636 0.236908 6.6122L2.91168 7.62872V10.8146C2.91168 11.1855 3.12201 11.5054 3.41143 11.7459C3.70084 11.9865 4.08166 12.1761 4.53585 12.3309C5.44424 12.6404 6.65512 12.8136 8 12.8136C9.34488 12.8136 10.5558 12.6404 11.4641 12.3309C11.9183 12.1761 12.2992 11.9865 12.5886 11.7459C12.878 11.5054 13.0883 11.1855 13.0883 10.8146V7.62872L15.7631 6.6122C15.8326 6.58636 15.8926 6.53987 15.935 6.47896C15.9773 6.41805 16 6.34565 16 6.27146C16 6.19728 15.9773 6.12487 15.935 6.06396C15.8926 6.00305 15.8326 5.95656 15.7631 5.93073L8.13062 3.02312C8.08528 3.00617 8.03701 2.99844 7.98864 3.0004C7.97729 2.99987 7.96592 2.99987 7.95457 3.0004ZM8 3.7557L14.6103 6.27146L8 8.78723L1.38973 6.27146L8 3.7557ZM3.63858 7.90699L7.86938 9.51981C7.95345 9.55218 8.04655 9.55218 8.13062 9.51981L12.3614 7.90699V10.8146C12.3614 10.9167 12.3091 11.0347 12.1229 11.1894C11.9367 11.3442 11.6301 11.5078 11.2313 11.6437C10.4338 11.9155 9.28125 12.0867 8 12.0867C6.71875 12.0867 5.56621 11.9155 4.76869 11.6437C4.36993 11.5078 4.06326 11.3442 3.8771 11.1894C3.69094 11.0347 3.63858 10.9167 3.63858 10.8146V7.90699Z" fill="black"/>
</svg>
