<svg width="16" height="16" viewBox="0 0 16 16" fill="none" xmlns="http://www.w3.org/2000/svg">
<g clip-path="url(#clip0_95_417)">
<path fill-rule="evenodd" clip-rule="evenodd" d="M8.32838 0.0895105C8.45145 -0.0335583 8.66932 -0.0335583 8.79238 0.0895105L13.2013 4.49864C14.4405 5.73777 15.1231 7.38632 15.1231 9.13979C15.1231 10.8935 14.4408 12.5417 13.2013 13.7809C11.9619 15.0201 10.314 15.7027 8.56018 15.7027C6.80634 15.7027 5.15823 15.0204 3.91903 13.7808C2.67983 12.5414 1.99723 10.8936 1.99723 9.13964C1.99723 7.38625 2.67983 5.73769 3.91903 4.49849L8.32838 0.0895105ZM8.56021 15.0467C10.1387 15.0467 11.6219 14.4324 12.7374 13.3168C13.8525 12.2015 14.467 10.7185 14.4673 9.14001C14.4673 7.56182 13.8526 6.07837 12.7374 4.96283L8.56021 0.785645L4.38303 4.96245C3.26749 6.07796 2.65316 7.56141 2.65316 9.13964C2.65316 10.7183 3.26749 12.2013 4.38303 13.3168C5.49853 14.4324 6.98172 15.0467 8.56021 15.0467ZM10.0706 7.62889H11.514C11.6956 7.62889 11.8422 7.77585 11.8422 7.95723V10.3212C11.8422 10.5027 11.6956 10.6494 11.514 10.6494H10.0704V12.0928C10.0704 12.2743 9.92379 12.421 9.74226 12.421H7.37829C7.19676 12.421 7.0501 12.2743 7.0501 12.0928V10.6492H5.60667C5.42514 10.6492 5.27848 10.5026 5.27848 10.321V7.95708C5.27848 7.77599 5.42514 7.62889 5.60667 7.62889H7.05025V6.18546C7.05025 6.00437 7.19691 5.85727 7.37844 5.85727H9.74241C9.92394 5.85727 10.0706 6.00437 10.0706 6.18546V7.62889ZM9.74241 9.99301H11.1858V8.28527H9.74226C9.56073 8.28527 9.41407 8.13817 9.41407 7.95708V6.51365H7.70648V7.95723C7.70648 8.13832 7.55982 8.28542 7.37829 8.28542H5.93486V9.99301H7.37844C7.55997 9.99301 7.70663 10.1397 7.70663 10.3212V11.7646H9.41422V10.3212C9.41422 10.1397 9.56088 9.99301 9.74241 9.99301Z" fill="#212121"/>
<path fill-rule="evenodd" clip-rule="evenodd" d="M8.22388 -0.0145974C8.40445 -0.195167 8.71555 -0.195167 8.89611 -0.0145976L13.3051 4.39453C13.3051 4.39453 13.3051 4.39453 13.3051 4.39453C14.5719 5.66129 15.27 7.34731 15.27 9.13979C15.27 10.9325 14.5722 12.6182 13.305 13.8851C12.038 15.1519 10.3527 15.85 8.55979 15.85C6.76694 15.85 5.08136 15.1522 3.81451 13.8849C2.5477 12.6178 1.84961 10.9326 1.84961 9.13964C1.84961 7.34723 2.5477 5.66121 3.81453 4.39438L8.22388 -0.0145974ZM8.68789 0.193631C8.62232 0.128062 8.49768 0.128062 8.43211 0.19363L4.02276 4.60261C2.81119 5.81418 2.14409 7.42528 2.14409 9.13964C2.14409 10.8545 2.81118 12.4649 4.02277 13.6767C5.23433 14.8887 6.84497 15.5555 8.55979 15.5555C10.2746 15.5555 11.885 14.8884 13.0968 13.6768C14.3087 12.4653 14.9755 10.8545 14.9755 9.13979C14.9755 7.42535 14.3084 5.81426 13.0968 4.60276L8.68789 0.193631ZM8.55984 0.577428L12.8411 4.85872C13.984 6.00187 14.6141 7.52277 14.6141 9.14002C14.6138 10.7576 13.9838 12.278 12.8411 13.4209C11.698 14.5641 10.1774 15.1939 8.55983 15.1939C6.9423 15.1939 5.42166 14.5641 4.27853 13.4209C3.13537 12.2778 2.50554 10.7573 2.50554 9.13964C2.50554 7.52238 3.13537 6.00147 4.27854 4.85834L8.55984 0.577428ZM8.55983 0.993874L4.48676 5.06658C4.48676 5.06658 4.48676 5.06657 4.48676 5.06658C3.39885 6.15445 2.80002 7.60045 2.80002 9.13964C2.80002 10.6792 3.39884 12.1248 4.48676 13.2127C5.57464 14.3006 7.02038 14.8995 8.55983 14.8995C10.0993 14.8995 11.545 14.3006 12.6329 13.2127C13.7204 12.1251 14.3194 10.6795 14.3196 9.14002M8.55983 0.993874L12.6329 5.06693C12.6329 5.06693 12.6329 5.06694 12.6329 5.06693C13.7205 6.15486 14.3196 7.60089 14.3196 9.14002M6.90263 6.18547C6.90263 5.92319 7.11508 5.71004 7.37806 5.71004H9.74202C10.005 5.71004 10.2175 5.92319 10.2175 6.18547V7.48166H11.5136C11.7766 7.48166 11.9891 7.69467 11.9891 7.95724V10.3212C11.9891 10.5841 11.7765 10.7966 11.5136 10.7966H10.2173V12.0928C10.2173 12.3557 10.0047 12.5682 9.74187 12.5682H7.3779C7.11506 12.5682 6.90248 12.3557 6.90248 12.0928V10.7965H5.60629C5.34344 10.7965 5.13086 10.5839 5.13086 10.3211V7.95708C5.13086 7.69481 5.34331 7.48166 5.60629 7.48166H6.90263V6.18547ZM7.37806 6.00452C7.27797 6.00452 7.19711 6.08557 7.19711 6.18547V7.77614H5.60629C5.50621 7.77614 5.42534 7.85719 5.42534 7.95708V10.3211C5.42534 10.4213 5.50608 10.502 5.60629 10.502H7.19696V12.0928C7.19696 12.193 7.2777 12.2738 7.3779 12.2738H9.74187C9.84208 12.2738 9.92282 12.193 9.92282 12.0928V10.5022H11.5136C11.6139 10.5022 11.6946 10.4214 11.6946 10.3212V7.95724C11.6946 7.85704 11.6137 7.77614 11.5136 7.77614H9.92297V6.18547C9.92297 6.08557 9.84211 6.00452 9.74202 6.00452H7.37806ZM7.55885 6.36642H9.56093V7.95708C9.56093 8.05698 9.64179 8.13804 9.74187 8.13804H11.3327V10.1403H9.74202C9.64181 10.1403 9.56108 10.221 9.56108 10.3212V11.9119H7.559V10.3212C7.559 10.221 7.47827 10.1403 7.37806 10.1403H5.78724V8.13819H7.3779C7.47799 8.13819 7.55885 8.05713 7.55885 7.95724V6.36642ZM7.85333 6.6609V7.95724C7.85333 8.21951 7.64088 8.43266 7.3779 8.43266H6.08172V9.84578H7.37806C7.6409 9.84578 7.85348 10.0584 7.85348 10.3212V11.6174H9.2666V10.3212C9.2666 10.0584 9.47918 9.84578 9.74202 9.84578H11.0382V8.43251H9.74187C9.4789 8.43251 9.26645 8.21936 9.26645 7.95708V6.6609H7.85333Z" fill="#212121"/>
</g>
<defs>
<clipPath id="clip0_95_417">
<rect width="16" height="16" fill="white"/>
</clipPath>
</defs>
</svg>
