<svg width="16" height="16" viewBox="0 0 16 16" fill="none" xmlns="http://www.w3.org/2000/svg">
<path d="M8.10197 16C7.30235 16 6.412 15.6002 6.03031 15.055C5.86679 14.8187 5.93942 14.5098 6.19383 14.3644C6.44824 14.219 6.79353 14.2918 6.95708 14.5098C7.1206 14.7278 7.68391 15.0367 8.21101 14.9822C8.66532 14.9641 8.97425 14.6733 9.3559 14.3461C9.90111 13.8737 10.5553 13.274 11.7001 13.4557C12.3179 13.5283 12.7905 13.7827 12.845 13.8191C13.0994 13.9645 13.1903 14.2734 13.0268 14.5097C12.8632 14.7459 12.5361 14.8186 12.2817 14.6732C12.2817 14.6732 11.9546 14.4914 11.5548 14.4552C10.9732 14.3643 10.6643 14.6187 10.1374 15.073C9.66492 15.4909 9.15613 15.9452 8.32013 15.9997C8.22924 16 8.17473 16 8.10197 16ZM3.37714 14.637C4.21313 14.5825 4.74007 14.1282 5.19438 13.7103C5.70321 13.256 6.03038 13.0016 6.61183 13.0925C7.02976 13.147 7.33866 13.3105 7.33866 13.3105C7.59307 13.4559 7.93835 13.3831 8.08377 13.147C8.24729 12.9107 8.1564 12.6018 7.90199 12.4564C7.84748 12.42 7.37505 12.1656 6.75709 12.093C5.63043 11.9112 4.95799 12.5109 4.41291 12.9834C4.03123 13.3105 3.72233 13.6013 3.26802 13.6195C2.74108 13.6559 2.17761 13.3651 2.01409 13.1471C1.85056 12.9108 1.50526 12.8382 1.25084 13.0017C0.996436 13.1471 0.923805 13.456 1.08732 13.6923C1.46901 14.2375 2.35936 14.6373 3.15898 14.6373C3.24987 14.6553 3.30437 14.6553 3.37714 14.637ZM13.5719 6.04148C13.5719 5.38727 12.9903 4.86034 12.2816 4.86034C11.5728 4.86034 10.9913 5.38727 10.9913 6.04148C10.9913 6.69569 11.5728 7.22263 12.2816 7.22263C12.9903 7.22275 13.5719 6.69569 13.5719 6.04148ZM12.4815 6.04148C12.4815 6.1505 12.3906 6.22326 12.2816 6.22326C12.1725 6.22326 12.0817 6.13237 12.0817 6.04148C12.0817 5.95059 12.1725 5.85971 12.2816 5.85971C12.3906 5.85983 12.4815 5.93247 12.4815 6.04148ZM11.8636 8.2949C11.8636 7.42265 11.0823 6.71393 10.1373 6.71393C9.19228 6.71393 8.41093 7.42265 8.41093 8.2949C8.41093 9.16714 9.19228 9.87587 10.1373 9.87587C11.0822 9.87587 11.8636 9.14903 11.8636 8.2949ZM10.7551 8.2949C10.7551 8.60381 10.4643 8.87648 10.119 8.87648C9.77371 8.87648 9.48291 8.62207 9.48291 8.2949C9.48291 7.98598 9.7737 7.71331 10.119 7.71331C10.4826 7.71331 10.7551 7.96772 10.7551 8.2949ZM9.48308 0.0264378C8.08377 -0.118958 7.1389 0.335353 6.59369 1.38937C6.43017 1.73468 6.33928 2.91582 6.3029 3.93345C5.92122 3.69717 5.48517 3.58814 4.99449 3.60641C4.24938 3.66092 3.64969 4.0062 3.26814 4.62403C3.05011 4.96934 2.88645 5.80518 2.90472 5.85969C2.88659 6.0596 2.99561 6.25949 3.21364 6.35038C3.48617 6.4594 3.81333 6.36851 3.94047 6.1141C4.0131 5.96871 4.10399 5.29637 4.213 5.11458C4.41291 4.78755 4.70369 4.6239 5.08525 4.58765C5.39416 4.56952 5.66683 4.67854 5.90298 4.93296C6.13926 5.18737 6.26639 5.47816 6.24828 5.85972C6.24828 6.67745 6.2119 10.1121 6.2119 10.7663C6.2119 11.0388 6.44818 11.2751 6.75711 11.2751C7.06603 11.2751 7.30232 11.0571 7.30232 10.7844C7.30232 10.1121 7.30232 2.18885 7.55672 1.78906C8.04741 1.06223 8.41083 0.898579 9.33759 0.989441C10.1008 1.06208 10.8823 1.77079 10.8278 2.69768C10.8097 2.97022 11.0458 3.20651 11.3547 3.22462C11.6636 3.24275 11.918 3.02472 11.918 2.75217C12.0454 1.24395 10.737 0.15358 9.48308 0.0264378Z" fill="#212121"/>
</svg>
