<svg width="16" height="16" viewBox="0 0 16 16" fill="none" xmlns="http://www.w3.org/2000/svg">
<path fill-rule="evenodd" clip-rule="evenodd" d="M9.36884 0H2.46282C2.07481 0 1.70278 0.153993 1.4284 0.428398C1.15413 0.702668 1 1.07468 1 1.46269V9.12818C1.0005 9.5158 1.15475 9.88745 1.42901 10.1613C1.70327 10.4352 2.07517 10.5891 2.46282 10.5891H6.41087V14.5391C6.41137 14.9267 6.56562 15.2984 6.83988 15.5722C7.11414 15.8461 7.48603 16 7.87369 16H15.3208V14.9178L7.87369 14.9179C7.76838 14.925 7.66484 14.8883 7.58772 14.8163C7.51072 14.7444 7.46694 14.6436 7.46694 14.5382C7.46694 14.4326 7.51072 14.332 7.58772 14.26C7.66484 14.1879 7.76838 14.1512 7.87369 14.1585H15.3208V5.95189C15.3208 5.80847 15.2638 5.67083 15.1623 5.5693C15.0609 5.46789 14.9232 5.4109 14.7797 5.4109H9.90985V0.541058C9.90985 0.397633 9.85285 0.259992 9.75132 0.15846C9.64992 0.0570565 9.51228 6.14318e-05 9.36872 6.14318e-05L9.36884 0ZM2.4625 1.08225L8.82743 1.08213V5.41087L7.8734 5.411C7.48539 5.411 7.11336 5.56499 6.83898 5.8394C6.56471 6.11367 6.41058 6.48568 6.41058 6.87369V7.66733H2.46253C2.33382 7.66783 2.20587 7.68544 2.08196 7.71966V1.46263C2.08196 1.2524 2.25231 1.08206 2.46253 1.08206L2.4625 1.08225ZM2.46262 9.50688C2.35732 9.51405 2.25377 9.47732 2.17665 9.40535C2.09966 9.33339 2.05587 9.23261 2.05587 9.12718C2.05587 9.02163 2.09966 8.92098 2.17665 8.84901C2.25377 8.77692 2.35732 8.74018 2.46262 8.74748H6.41067V9.50675L2.46262 9.50688ZM14.2384 13.0781H7.87343C7.74472 13.0786 7.61677 13.0962 7.49286 13.1304V6.8734C7.49286 6.66317 7.66321 6.49283 7.87343 6.49283H14.2384V13.0781ZM8.03809 9.75043H13.6944V6.94219H8.03809V9.75043ZM9.12034 8.02428H12.612V8.66818H9.12034V8.02428ZM2.62695 1.53127H8.28331V4.33951H2.62695V1.53127ZM3.7094 3.25729L7.20106 3.25742V2.61339H3.7094V3.25729Z" fill="#212121"/>
</svg>
