<svg width="16" height="16" viewBox="0 0 16 16" fill="none" xmlns="http://www.w3.org/2000/svg">
<g clip-path="url(#clip0_109_887)">
<rect width="16" height="16" fill="white"/>
<path d="M7.99554 3.74495C6.8657 3.74495 5.78199 4.19386 4.98364 4.99295C4.18454 5.79132 3.73564 6.87502 3.73564 8.00485C3.73564 9.13468 4.18454 10.2184 4.98364 11.0168C5.78201 11.8158 6.8657 12.2648 7.99554 12.2648C9.12537 12.2648 10.2091 11.8158 11.0074 11.0168C11.8065 10.2184 12.2554 9.13468 12.2554 8.00485C12.254 6.87574 11.8044 5.79278 11.006 4.99443C10.2076 4.19606 9.12463 3.74639 7.99554 3.74495ZM7.99554 11.3042C7.12078 11.3042 6.28133 10.9562 5.66246 10.338C5.04421 9.71899 4.69619 8.87955 4.69619 8.00487C4.69619 7.13019 5.04421 6.29066 5.66246 5.67179C6.28142 5.05355 7.12085 4.70552 7.99554 4.70552C8.87022 4.70552 9.70974 5.05355 10.3286 5.67179C10.9469 6.29075 11.2949 7.13019 11.2949 8.00487C11.2934 8.87963 10.9454 9.71836 10.3272 10.3367C9.70893 10.955 8.87022 11.3029 7.99539 11.3044L7.99554 11.3042ZM3.42216 2.75126L4.38338 3.71247C4.47345 3.80182 4.52389 3.92431 4.52389 4.05112C4.52389 4.17866 4.47345 4.30044 4.38338 4.3905C4.29403 4.48129 4.17226 4.53245 4.04472 4.53245C3.91718 4.53245 3.79468 4.48129 3.70461 4.3905L2.74412 3.43C2.55606 3.24194 2.55606 2.93714 2.74412 2.7498C2.93217 2.56174 3.23626 2.56174 3.42432 2.7498L3.42216 2.75126ZM13.249 12.5781C13.4364 12.7655 13.4364 13.0703 13.249 13.2583C13.061 13.4457 12.7562 13.4457 12.5688 13.2583L11.6076 12.2971C11.4383 12.1076 11.4462 11.8179 11.6263 11.6378C11.8065 11.4577 12.0961 11.449 12.2864 11.6191L13.249 12.5781ZM13.249 2.75109C13.3391 2.84116 13.3903 2.96364 13.3903 3.0912C13.3903 3.21874 13.3391 3.34124 13.249 3.43131L12.2878 4.39253C12.1985 4.48332 12.076 4.53448 11.9477 4.53448C11.8209 4.53448 11.6984 4.48332 11.6098 4.39253C11.5197 4.30246 11.4685 4.18069 11.4685 4.05315C11.4685 3.92562 11.5197 3.80383 11.6098 3.71378L12.5703 2.75328C12.7576 2.56594 13.061 2.56519 13.249 2.75109ZM4.37897 11.6211C4.46976 11.7105 4.5202 11.833 4.5202 11.9598C4.5202 12.0873 4.46976 12.2091 4.37897 12.2992L3.41847 13.2597C3.23041 13.4477 2.92633 13.4477 2.73827 13.2597C2.55021 13.0723 2.55021 12.7675 2.73827 12.5794L3.69876 11.6189C3.78883 11.5282 3.91204 11.4777 4.03959 11.4777C4.16713 11.4784 4.28963 11.5296 4.37897 11.6211ZM7.99535 0C8.12289 0 8.24467 0.0504393 8.33473 0.140509C8.42479 0.230578 8.47595 0.353064 8.47595 0.479882V2.41102C8.47595 2.6769 8.2605 2.89163 7.99534 2.89163C7.73017 2.89163 7.51472 2.6769 7.51472 2.41102V0.48929V0.490011C7.51256 0.361031 7.56156 0.236375 7.65235 0.144144C7.74241 0.0519127 7.86638 0 7.99535 0ZM8.47597 13.5984V15.5201V15.5194C8.47597 15.7853 8.26052 16 7.99535 16C7.73019 16 7.51474 15.7853 7.51474 15.5194V13.5977V13.5984C7.51474 13.3325 7.73019 13.1178 7.99535 13.1178C8.26052 13.1178 8.47597 13.3325 8.47597 13.5984ZM16 8.00474C16 8.13228 15.9496 8.25406 15.8595 8.34412C15.7694 8.43419 15.6469 8.48534 15.5201 8.48534H13.5984C13.3332 8.48534 13.1178 8.26989 13.1178 8.00473C13.1178 7.73956 13.3332 7.52411 13.5984 7.52411H15.5201C15.6469 7.52411 15.7694 7.57527 15.8595 7.66534C15.9496 7.75541 16 7.8772 16 8.00474ZM2.40162 8.48536H0.479896H0.480617C0.214733 8.48536 0 8.26991 0 8.00474C0 7.73958 0.214733 7.52413 0.480617 7.52413H2.40161C2.66749 7.52413 2.88222 7.73958 2.88222 8.00474C2.88222 8.26991 2.66751 8.48536 2.40162 8.48536Z" fill="black"/>
</g>
<defs>
<clipPath id="clip0_109_887">
<rect width="16" height="16" fill="white"/>
</clipPath>
</defs>
</svg>
