<svg width="16" height="16" viewBox="0 0 16 16" fill="none" xmlns="http://www.w3.org/2000/svg">
<path fill-rule="evenodd" clip-rule="evenodd" d="M2.80024 4.39278L2.78818 9.60042H1.60028C1.41234 9.60042 1.24829 9.73244 1.20832 9.91637L0.0083529 15.516C-0.0156418 15.636 0.0123704 15.7559 0.0883733 15.852C0.164377 15.948 0.280333 16 0.400421 16H8.80017C9.02014 16 9.20016 15.82 9.20016 15.6V11.1843C10.2562 12.5683 12.1721 15.0601 12.7401 15.708C12.8761 15.864 12.984 15.9441 13.0201 15.96C13.0921 15.992 13.1521 16 13.2001 16H15.6C15.82 16 16 15.82 16 15.6V13.6001C16 13.3802 15.82 13.2002 15.6 13.2002H14.2001L10.3482 8.10051C10.1242 7.78847 9.76024 7.60054 9.3762 7.60054H9.2002V4.39277H9.60019C9.76023 4.39277 9.90821 4.29679 9.96815 4.14479C10.0282 3.99279 9.99616 3.82484 9.8802 3.70876L6.28431 0.117011C6.12829 -0.0390037 5.8763 -0.0390037 5.72039 0.117011L2.11649 3.71276C2.00054 3.82872 1.96851 4.00069 2.02855 4.14879C2.08859 4.29677 2.23658 4.39676 2.39651 4.39676H2.7965L2.80024 4.39278ZM8.40007 10.4004V15.2H3.60021V10.4004H8.40007ZM9.20005 8.40051V9.86435C9.72403 10.5522 12.6199 14.356 13.3399 15.176L15.1999 15.196V13.996H14C13.876 13.996 13.756 13.936 13.68 13.836L9.70412 8.57237L9.69608 8.56433C9.62008 8.46032 9.5001 8.39638 9.37209 8.39638H9.19609L9.20005 8.40051ZM1.15229 13.9961L0.892249 15.2001H2.80022V14.0001H1.20027H1.1563L1.15229 13.9961ZM7.60009 12.8002C7.60009 11.9163 6.88414 11.2003 6.00014 11.2003C5.11614 11.2003 4.40019 11.9163 4.40019 12.8002C4.40019 13.6842 5.11614 14.4001 6.00014 14.4001C6.88414 14.4001 7.60009 13.6842 7.60009 12.8002ZM6.80012 12.8002C6.80012 13.2401 6.44007 13.6002 6.00014 13.6002C5.56021 13.6002 5.20017 13.2401 5.20017 12.8002C5.20017 12.3603 5.56021 12.0003 6.00014 12.0003C6.44007 12.0003 6.80012 12.3603 6.80012 12.8002ZM1.58027 12.0003L1.32426 13.2002H2.80021V12.0003H1.58027ZM1.75225 11.2003H2.80022V10.4004H1.92425L1.75225 11.2003ZM3.6002 6.80064V9.60045H8.40006V6.80064H3.6002ZM5.60014 7.60059V8.80051C5.60014 9.02047 5.78016 9.20048 6.00013 9.20048C6.2201 9.20048 6.40012 9.02047 6.40012 8.80051V7.60059C6.40012 7.38063 6.2201 7.20062 6.00013 7.20062C5.78016 7.20062 5.60014 7.38063 5.60014 7.60059ZM6.8001 7.60059V8.80051C6.8001 9.02047 6.98012 9.20048 7.20009 9.20048C7.42006 9.20048 7.60008 9.02047 7.60008 8.80051V7.60059C7.60008 7.38063 7.42006 7.20062 7.20009 7.20062C6.98012 7.20062 6.8001 7.38063 6.8001 7.60059ZM4.40018 7.60059V8.80051C4.40018 9.02047 4.58019 9.20048 4.80016 9.20048C5.02013 9.20048 5.20015 9.02047 5.20015 8.80051V7.60059C5.20015 7.38063 5.02013 7.20062 4.80016 7.20062C4.58019 7.20062 4.40018 7.38063 4.40018 7.60059ZM3.6002 6.0007V4.40081H8.40006V6.0007H3.6002ZM11.608 1.25703C10.916 1.36907 10.4 1.94101 10.4 2.61699C10.4 3.37297 11.0439 3.99692 11.856 3.99692H14.4119C15.2959 3.99692 15.9998 3.31294 15.9998 2.493C15.9998 1.67308 15.3039 0.993102 14.4238 0.989074C14.2519 0.425056 13.7039 0.00108492 13.0399 0.00108492C12.2759 0.00108492 11.6679 0.561103 11.608 1.25703ZM8.63205 3.59292L3.36821 3.59281L6.00016 0.964993L8.63211 3.59281L8.63205 3.59292ZM11.852 3.20098C11.5 3.20098 11.1959 2.94899 11.1959 2.62099C11.1959 2.29299 11.4959 2.041 11.852 2.041C11.8959 2.041 11.936 2.04502 11.9759 2.05305C12.1159 2.07705 12.26 2.02906 12.3519 1.92103C12.4439 1.813 12.4719 1.66502 12.4279 1.52909C12.412 1.47708 12.4039 1.42508 12.4039 1.36905C12.4039 1.0491 12.6959 0.801121 13.04 0.801121C13.3839 0.801121 13.6799 1.04508 13.6799 1.36905V1.38501C13.6599 1.52105 13.7119 1.65698 13.8159 1.74504C13.92 1.83298 14.0599 1.86501 14.1919 1.82506C14.2639 1.80508 14.3359 1.79303 14.4119 1.79303C14.8399 1.79303 15.1998 2.10104 15.1998 2.49701C15.1998 2.89298 14.8398 3.20099 14.4119 3.20099L11.852 3.20098Z" fill="#212121"/>
</svg>
