<svg width="16" height="16" viewBox="0 0 16 16" fill="none" xmlns="http://www.w3.org/2000/svg">
<path d="M5.30757 0.168971C4.48834 1.06051 4.023 2.2206 3.9993 3.43119V14.2861C3.9993 14.8985 4.32602 15.4643 4.85626 15.7704C5.38651 16.0765 6.03996 16.0765 6.5702 15.7704C7.10044 15.4643 7.42716 14.8985 7.42716 14.2861V3.43119C7.40344 2.2206 6.93812 1.06051 6.11889 0.168971C6.01164 0.0608299 5.86563 0 5.71323 0C5.56083 0 5.41482 0.0608299 5.30757 0.168971ZM6.28454 9.3612L5.14192 8.78989V6.64186L6.28454 7.21317V9.3612ZM5.71323 14.8572C5.56173 14.8572 5.41635 14.797 5.30923 14.6899C5.20211 14.5828 5.14192 14.4374 5.14192 14.2859V10.0696L6.28454 10.6409V14.2859C6.28454 14.4374 6.22435 14.5828 6.11723 14.6899C6.01011 14.797 5.86473 14.8572 5.71323 14.8572ZM6.28454 5.93333L5.14192 5.36202V3.43106C5.1525 2.75263 5.3503 2.0904 5.71323 1.51717C6.07515 2.09089 6.27282 2.7529 6.28454 3.43106V5.93333ZM9.87792 0.168971C9.0587 1.06051 8.59336 2.2206 8.56965 3.43119V14.2861C8.56965 14.8985 8.89638 15.4643 9.42662 15.7704C9.95686 16.0765 10.6103 16.0765 11.1406 15.7704C11.6708 15.4643 11.9975 14.8985 11.9975 14.2861V3.43119C11.9738 2.2206 11.5085 1.06051 10.6892 0.168971C10.582 0.0608299 10.436 0 10.2836 0C10.1312 0 9.98518 0.0608299 9.87792 0.168971ZM10.8549 9.3612L9.71228 8.78989V6.64186L10.8549 7.21317V9.3612ZM10.2836 14.8572C10.1321 14.8572 9.98671 14.797 9.87959 14.6899C9.77247 14.5828 9.71228 14.4374 9.71228 14.2859V10.0696L10.8549 10.6409V14.2859C10.8549 14.4374 10.7947 14.5828 10.6876 14.6899C10.5805 14.797 10.4351 14.8572 10.2836 14.8572ZM10.8549 5.93333L9.71228 5.36202V3.43106C9.72286 2.75263 9.92065 2.0904 10.2836 1.51717C10.6455 2.09089 10.8432 2.7529 10.8549 3.43106V5.93333ZM3.42786 13.7146C3.42786 13.8661 3.36766 14.0115 3.26054 14.1186C3.15343 14.2257 3.00804 14.2859 2.85655 14.2859H2.28524V15.4285C2.28524 15.6327 2.17633 15.8213 1.99958 15.9233C1.82283 16.0253 1.60502 16.0253 1.42827 15.9233C1.25152 15.8213 1.14261 15.6327 1.14261 15.4285V14.2859H0.571303C0.367136 14.2859 0.178535 14.177 0.0765148 14.0002C-0.0255049 13.8235 -0.0255049 13.6057 0.0765148 13.4289C0.178535 13.2522 0.367142 13.1433 0.571303 13.1433H1.14261V0.574438C1.14261 0.370271 1.25152 0.18167 1.42827 0.0796505C1.60502 -0.0223693 1.82283 -0.0223693 1.99958 0.0796505C2.17633 0.18167 2.28524 0.370278 2.28524 0.574438V13.1433H2.85655C3.00804 13.1433 3.15343 13.2035 3.26054 13.3106C3.36766 13.4177 3.42786 13.5631 3.42786 13.7146ZM15.9967 13.7146C15.9967 13.8661 15.9365 14.0115 15.8294 14.1186C15.7223 14.2257 15.5769 14.2859 15.4254 14.2859H14.8541V15.4285C14.8541 15.6327 14.7452 15.8213 14.5684 15.9233C14.3917 16.0253 14.1739 16.0253 13.9971 15.9233C13.8204 15.8213 13.7115 15.6327 13.7115 15.4285V14.2859H13.1401C12.936 14.2859 12.7474 14.177 12.6454 14.0002C12.5433 13.8235 12.5433 13.6057 12.6454 13.4289C12.7474 13.2522 12.936 13.1433 13.1401 13.1433H13.7115V0.574438C13.7115 0.370271 13.8204 0.18167 13.9971 0.0796505C14.1739 -0.0223693 14.3917 -0.0223693 14.5684 0.0796505C14.7452 0.18167 14.8541 0.370278 14.8541 0.574438V13.1433H15.4254C15.5769 13.1433 15.7223 13.2035 15.8294 13.3106C15.9365 13.4177 15.9967 13.5631 15.9967 13.7146Z" fill="#212121"/>
</svg>
