<svg width="16" height="16" viewBox="0 0 16 16" fill="none" xmlns="http://www.w3.org/2000/svg">
<rect width="16" height="16" fill="white"/>
<path d="M12.8695 9.29688H4.07791C3.96002 9.29688 3.84212 9.3474 3.75791 9.44845C3.6737 9.54951 3.64002 9.6674 3.65686 9.7853L4.56633 15.6463C4.60002 15.8485 4.76844 16 4.98739 16H11.96C12.1621 16 12.3474 15.8485 12.3811 15.6463L13.2905 9.7853C13.3074 9.6674 13.2737 9.53266 13.1895 9.44845C13.1053 9.3474 12.9874 9.29688 12.8695 9.29688ZM12.3642 10.139L12.2295 11.0316H4.71791L4.58318 10.139H12.3642ZM8.89475 11.8906H10.1074L9.82107 15.1579H8.89475V11.8906ZM8.05265 15.1579H7.12633L6.84002 11.8906H8.05265V15.1579ZM4.85265 11.8906H5.99791L6.28423 15.1579H5.35791L4.85265 11.8906ZM11.5895 15.1579H10.6632L10.9495 11.8906H12.0948L11.5895 15.1579Z" fill="black"/>
<path d="M7.02528 6.01264C7.09265 5.84421 7.16002 5.62527 7.16002 5.42316C7.17686 5.22106 7.14318 5.01895 7.07581 4.81685C7.04212 4.71579 6.9916 4.63158 6.95791 4.54737C6.90739 4.46316 6.85686 4.39579 6.77265 4.29474C6.70528 4.22737 6.60423 4.19369 6.50318 4.21053C6.3516 4.24421 6.25054 4.39579 6.28423 4.54737L6.30107 4.66527C6.30107 4.69895 6.33476 4.76632 6.3516 4.83369C6.36844 4.90106 6.38528 4.95158 6.38528 5.01895C6.40212 5.13685 6.40212 5.25474 6.36844 5.35579C6.3516 5.47369 6.31791 5.57474 6.25054 5.69263L6.04844 6.13053C5.98107 6.28211 5.9137 6.45053 5.88002 6.63579C5.84633 6.82106 5.81265 7.02316 5.82949 7.22527C5.86318 7.62948 6.04844 8 6.26739 8.25264C6.3516 8.33685 6.46949 8.38737 6.58739 8.33685C6.73897 8.28632 6.82318 8.1179 6.77265 7.96632V7.94948C6.6716 7.68 6.60423 7.42737 6.62107 7.19158C6.63791 6.97264 6.70528 6.73685 6.84002 6.45053C6.90739 6.31579 6.97476 6.16421 7.02528 6.01264Z" fill="black"/>
<path d="M9.01265 6.01264C9.08002 5.84421 9.14738 5.62527 9.14738 5.42316C9.16423 5.22106 9.13054 5.01895 9.06317 4.81685C9.02949 4.71579 8.97896 4.63158 8.94528 4.54737C8.89475 4.46316 8.84423 4.39579 8.76002 4.29474C8.69265 4.22737 8.59159 4.19369 8.49054 4.21053C8.33896 4.24421 8.23791 4.39579 8.27159 4.54737L8.28844 4.66527C8.28844 4.69895 8.32212 4.76632 8.33896 4.83369C8.35581 4.90106 8.37265 4.95158 8.37265 5.01895C8.38949 5.13685 8.38949 5.25474 8.35581 5.35579C8.33896 5.47369 8.30528 5.57474 8.23791 5.69263L8.03581 6.13053C7.96844 6.28211 7.90107 6.45053 7.86738 6.63579C7.8337 6.82106 7.80002 7.02316 7.81686 7.22527C7.85054 7.64632 8.03581 8 8.25475 8.25264C8.33896 8.33685 8.45686 8.38737 8.57475 8.33685C8.72633 8.28632 8.81054 8.1179 8.76002 7.96632V7.94948C8.65896 7.68 8.59159 7.42737 8.60844 7.19158C8.62528 6.95579 8.69265 6.73685 8.82738 6.45053C8.87791 6.31579 8.94528 6.16421 9.01265 6.01264Z" fill="black"/>
<path d="M10.9832 6.01264C11.0505 5.84421 11.1179 5.62527 11.1179 5.42316C11.1347 5.22106 11.1011 5.01895 11.0337 4.81685C11 4.71579 10.9495 4.63158 10.9158 4.54737C10.8653 4.46316 10.8147 4.39579 10.7305 4.29474C10.6632 4.22737 10.5621 4.19369 10.4611 4.21053C10.3095 4.24421 10.2084 4.39579 10.2421 4.54737L10.259 4.66527C10.259 4.69895 10.2926 4.76632 10.3095 4.83369C10.3263 4.90106 10.3432 4.95158 10.3432 5.01895C10.36 5.13685 10.36 5.25474 10.3263 5.35579C10.3095 5.47369 10.2758 5.57474 10.2084 5.69263L10.0063 6.13053C9.93896 6.28211 9.87159 6.45053 9.8379 6.63579C9.80422 6.82106 9.77054 7.02316 9.78738 7.22527C9.82106 7.62948 10.0063 8 10.2253 8.25264C10.3095 8.33685 10.4274 8.38737 10.5453 8.33685C10.6969 8.28632 10.7811 8.1179 10.7305 7.96632V7.94948C10.6295 7.68 10.5621 7.42737 10.579 7.19158C10.5958 6.97264 10.6632 6.73685 10.7979 6.45053C10.8484 6.31579 10.9158 6.16421 10.9832 6.01264Z" fill="black"/>
<path d="M4.78526 6.65263C5.00421 6.72 5.24 6.58526 5.30737 6.36632C5.37474 6.14737 5.24 5.91158 5.02105 5.84421C4.33053 5.64211 3.85895 5.01895 3.85895 4.29474C3.85895 3.40211 4.58316 2.67789 5.47579 2.67789C5.57684 2.67789 5.6779 2.69474 5.76211 2.71158C5.96421 2.76211 6.18316 2.64421 6.25053 2.44211C6.58737 1.49895 7.48 0.858947 8.49053 0.858947C9.50105 0.858947 10.3937 1.49895 10.7305 2.44211C10.7979 2.64421 11.0168 2.76211 11.2189 2.71158C11.3032 2.69474 11.4042 2.67789 11.5053 2.67789C12.3979 2.67789 13.1221 3.40211 13.1221 4.29474C13.1221 5.01895 12.6505 5.64211 11.96 5.84421C11.7411 5.91158 11.6063 6.14737 11.6737 6.36632C11.7242 6.55158 11.8926 6.66947 12.0779 6.66947C12.1116 6.66947 12.1621 6.66947 12.1958 6.65263C13.24 6.34947 13.9811 5.38947 13.9811 4.29474C13.9811 2.93053 12.8695 1.83579 11.5221 1.83579C11.4884 1.83579 11.4547 1.83579 11.4211 1.83579C10.8484 0.724211 9.72 0 8.47368 0C7.22737 0 6.09895 0.724211 5.56 1.83579C5.52632 1.83579 5.49263 1.83579 5.45895 1.83579C4.09474 1.83579 3 2.94737 3 4.29474C3 5.38947 3.74105 6.34947 4.78526 6.65263Z" fill="black"/>
</svg>
