<svg width="16" height="16" viewBox="0 0 16 16" fill="none" xmlns="http://www.w3.org/2000/svg">
<path fill-rule="evenodd" clip-rule="evenodd" d="M11.9711 3.8288C11.7889 3.64602 11.598 3.47733 11.3997 3.32272C11.3494 3.35911 11.2911 3.38609 11.2268 3.40052C9.67866 3.74771 7.94949 4.79901 6.44266 6.20211L9.58436 9.35416C10.9829 7.84233 12.0309 6.10738 12.3769 4.5541C12.3916 4.48832 12.4192 4.42883 12.4566 4.37773C12.3076 4.18749 12.1458 4.00412 11.9711 3.8288ZM12.1881 11.9668L12.177 11.9553L10.2518 10.0237C11.5499 8.62635 12.6073 7.0023 13.1157 5.42519C14.1556 7.52913 13.905 10.1121 12.3639 11.9848C12.3471 12.0052 12.3255 12.016 12.2959 12.0164C12.2637 12.0169 12.2252 12.0041 12.1934 11.9721L12.1881 11.9668ZM5.77526 5.53251L3.87159 3.62257L3.86014 3.61147L3.85444 3.60574C3.82263 3.57383 3.80983 3.53524 3.81031 3.50292C3.81075 3.47324 3.82145 3.45153 3.84183 3.43465C5.69824 1.89688 8.25492 1.63987 10.3457 2.66346C8.77785 3.17515 7.16423 4.23376 5.77526 5.53251ZM3.18747 4.27491L5.41174 6.50651C5.4181 6.51381 5.42472 6.52097 5.4316 6.52797C5.44002 6.53653 5.44868 6.5447 5.45756 6.55248L7.02346 8.12353L2.74282 12.4183C2.55864 12.603 2.55864 12.9026 2.74282 13.0874C2.927 13.2722 3.22561 13.2722 3.40979 13.0874L7.69043 8.7927L9.23787 10.3452C9.24485 10.3531 9.25214 10.3608 9.25974 10.3684C9.26578 10.3743 9.27195 10.3801 9.27822 10.3857L11.5264 12.6413C11.9468 13.0631 12.6739 13.0945 13.0913 12.5873C15.361 9.8292 15.2101 5.74013 12.638 3.15963C10.066 0.579135 5.99036 0.427682 3.24129 2.7049C2.73577 3.12364 2.7671 3.85316 3.18747 4.27491ZM14.8273 14.8566C14.9922 15.0588 15.2898 15.0891 15.492 14.9242C15.6942 14.7593 15.7245 14.4618 15.5596 14.2596C15.0422 13.6249 14.233 13.5433 13.5621 13.5433C13.2116 13.5433 12.8957 13.6916 12.6421 13.8656C12.2384 14.1426 11.6232 14.1426 11.2195 13.8656C10.9659 13.6916 10.65 13.5433 10.2995 13.5433C9.94896 13.5433 9.63301 13.6916 9.37939 13.8656C8.97573 14.1426 8.3605 14.1426 7.95684 13.8656C7.70323 13.6916 7.38728 13.5433 7.03678 13.5433C6.68628 13.5433 6.37033 13.6916 6.11671 13.8656C5.71306 14.1426 5.09783 14.1426 4.69417 13.8656C4.44055 13.6916 4.1246 13.5433 3.7741 13.5433C3.1032 13.5433 2.29404 13.6249 1.77663 14.2596C1.61177 14.4618 1.64204 14.7593 1.84425 14.9242C2.04646 15.0891 2.34403 15.0588 2.50889 14.8566C2.72651 14.5897 3.1155 14.4881 3.7741 14.4881C3.85927 14.4881 3.98805 14.5269 4.15959 14.6446C4.88536 15.1427 5.92552 15.1427 6.65129 14.6446C6.82283 14.5269 6.95161 14.4881 7.03678 14.4881C7.12195 14.4881 7.25073 14.5269 7.42227 14.6446C8.14804 15.1427 9.1882 15.1427 9.91396 14.6446C10.0855 14.5269 10.2143 14.4881 10.2995 14.4881C10.3846 14.4881 10.5134 14.5269 10.6849 14.6446C11.4107 15.1427 12.4509 15.1427 13.1766 14.6446C13.3482 14.5269 13.477 14.4881 13.5621 14.4881C14.2207 14.4881 14.6097 14.5897 14.8273 14.8566Z" fill="#212121"/>
</svg>
