<svg width="16" height="16" viewBox="0 0 16 16" fill="none" xmlns="http://www.w3.org/2000/svg">
<rect width="16" height="16" fill="white"/>
<path d="M14.3529 5C14.0687 5 13.8014 5.078 13.5661 5.212C13.3515 4.51 12.7304 4 12 4C11.0908 4 10.3529 4.784 10.3529 5.75V7H5.64706V5.75C5.64706 4.784 4.90918 4 4 4C3.26776 4 2.64659 4.51 2.43388 5.212C2.20047 5.076 1.93318 5 1.64706 5C0.737882 5 0 5.784 0 6.75V10.25C0 11.216 0.737882 12 1.64706 12C1.93129 12 2.19859 11.922 2.43388 11.788C2.64847 12.49 3.26965 13 4 13C4.90918 13 5.64706 12.216 5.64706 11.25V10H10.3529V11.25C10.3529 12.216 11.0908 13 12 13C12.7322 13 13.3534 12.49 13.5661 11.788C13.7995 11.924 14.0668 12 14.3529 12C15.2621 12 16 11.216 16 10.25V6.75C16 5.784 15.2621 5 14.3529 5ZM15.0588 10.25C15.0588 10.664 14.7426 11 14.3529 11C13.9633 11 13.6471 10.664 13.6471 10.25V6.75C13.6471 6.336 13.9633 6 14.3529 6C14.7426 6 15.0588 6.336 15.0588 6.75V10.25ZM12.7059 11.25C12.7059 11.664 12.3896 12 12 12C11.6104 12 11.2941 11.664 11.2941 11.25V5.75C11.2941 5.336 11.6104 5 12 5C12.3896 5 12.7059 5.336 12.7059 5.75V11.25ZM4.70588 11.25C4.70588 11.664 4.38965 12 4 12C3.61035 12 3.29412 11.664 3.29412 11.25V5.75C3.29412 5.336 3.61035 5 4 5C4.38965 5 4.70588 5.336 4.70588 5.75V11.25ZM0.941176 10.25V6.75C0.941176 6.336 1.25741 6 1.64706 6C2.03671 6 2.35294 6.336 2.35294 6.75V10.25C2.35294 10.664 2.03671 11 1.64706 11C1.25741 11 0.941176 10.664 0.941176 10.25ZM5.64706 8H10.3529V9H5.64706V8Z" fill="black"/>
</svg>
