<svg width="16" height="16" viewBox="0 0 16 16" fill="none" xmlns="http://www.w3.org/2000/svg">
<g clip-path="url(#clip0_95_353)">
<path fill-rule="evenodd" clip-rule="evenodd" d="M7.99954 1.14299C7.31809 1.14299 6.67795 1.40872 6.19626 1.89041C5.97302 2.11365 5.61137 2.11365 5.38813 1.89028C5.16489 1.66704 5.16489 1.30539 5.38813 1.08215C6.08529 0.38447 7.01281 0 7.99954 0C8.98627 0 9.91379 0.384633 10.6108 1.08215C10.8341 1.30539 10.8341 1.66704 10.6108 1.89028C10.4993 2.00203 10.353 2.05777 10.2068 2.05777C10.0606 2.05777 9.91445 2.0019 9.80282 1.89028C9.32114 1.40871 8.68099 1.14299 7.99954 1.14299ZM15.7536 12.2025C15.6046 11.9832 15.3807 11.8575 15.1396 11.8575H14.8751L14.8752 4.50582C14.8752 3.74629 14.2574 3.12848 13.4978 3.12848H11.0918C10.776 3.12848 10.5203 3.38413 10.5203 3.69998V3.70024C10.5205 4.01609 10.776 4.27147 11.0918 4.27147H13.4978C13.6273 4.27147 13.7322 4.37646 13.7322 4.50581V11.8552H2.26765V4.50581C2.26765 4.37633 2.37264 4.27147 2.50199 4.27147H4.90802C5.22388 4.27147 5.47939 4.01596 5.47952 3.70024V3.69998C5.47952 3.38413 5.22388 3.12848 4.90802 3.12848L2.50212 3.12836C1.74259 3.12836 1.12478 3.74616 1.12478 4.50569V11.8574L0.86021 11.8575C0.619111 11.8575 0.395372 11.9831 0.246227 12.2025C-0.0277837 12.6059 -0.082497 13.4286 0.129633 13.9627C0.160886 14.042 0.209998 14.1134 0.272507 14.1714C1.4752 15.2865 1.53274 15.2865 1.77384 15.2865H14.2263C14.4674 15.2865 14.5249 15.2865 15.7276 14.1714C15.7901 14.1134 15.8392 14.042 15.8705 13.9627C16.0825 13.4285 16.0278 12.6059 15.7537 12.2023L15.7536 12.2025ZM1.95509 14.1436C1.78492 14.0018 1.45949 13.7111 1.16264 13.4376C1.1347 13.2997 1.13865 13.129 1.15588 13.0005H14.8437C14.861 13.1288 14.8649 13.2997 14.8369 13.4376C14.5401 13.7111 14.2147 14.0018 14.0444 14.1435L1.95509 14.1436ZM5.05863 6.2145V7.54452C5.05863 9.16639 6.37803 10.4857 7.99977 10.4857C9.42597 10.4857 10.6163 9.46488 10.8832 8.11602H11.4293C11.7451 8.11602 12.0008 7.86037 12.0008 7.54452C12.0008 7.22866 11.7451 6.97302 11.4293 6.97302H10.941V6.2145C10.941 5.89865 10.6853 5.64301 10.3695 5.64301H5.62996C5.31411 5.64301 5.05859 5.89865 5.05859 6.2145H5.05863ZM6.20162 6.786H9.79813V7.54452C9.79813 8.53621 8.99166 9.34268 7.99997 9.34268C7.00828 9.34268 6.20182 8.53621 6.20182 7.54452L6.20162 6.786ZM6.6336 3.69992C6.74254 3.67926 6.8483 3.63729 6.93262 3.55297C7.52083 2.96475 8.47961 2.96475 9.06795 3.55297C9.2047 3.67594 9.40141 3.74776 9.57708 3.69992C9.68602 3.67926 9.79177 3.63729 9.87609 3.55297C10.0993 3.32973 10.0993 2.96808 9.87609 2.74484C8.84139 1.71014 7.15933 1.71014 6.12446 2.74484C5.90122 2.96808 5.90122 3.32972 6.12446 3.55297C6.20878 3.63729 6.31453 3.67938 6.42347 3.69992C6.49402 3.71319 6.56318 3.71319 6.6336 3.69992ZM8.58232 4.50784C8.58232 4.82369 8.32668 5.07933 8.01082 5.07933C7.69561 5.07933 7.43665 4.82382 7.43652 4.50784C7.43652 4.19198 7.68987 3.93634 8.00521 3.93634H8.01082C8.32668 3.93634 8.58232 4.19198 8.58232 4.50784Z" fill="#212121"/>
</g>
<defs>
<clipPath id="clip0_95_353">
<rect width="16" height="16" fill="white"/>
</clipPath>
</defs>
</svg>
