<svg width="16" height="16" viewBox="0 0 16 16" fill="none" xmlns="http://www.w3.org/2000/svg">
<path fill-rule="evenodd" clip-rule="evenodd" d="M12.4755 0.600889L11.5247 0L10.3818 1.6241L11.3327 2.22499L12.4755 0.600889ZM14.0315 5.08167L15.7458 3.99898L15.1115 3.09812L13.3972 4.18082L14.0315 5.08167ZM12.9755 3.38994L14.6898 1.76584L13.8818 1.00033L12.1675 2.62444L12.9755 3.38994ZM14.8572 7.87942C14.8572 7.58114 14.6012 7.33802 14.2857 7.33802H13.224H13.2241C11.9352 7.34164 10.6983 6.85621 9.78971 5.99001L7.42228 3.74771C6.8135 3.1679 6.08934 2.70828 5.29186 2.39526C4.49426 2.08236 3.63917 1.92227 2.77591 1.92445H1.71428C1.39943 1.92445 1.14281 2.16756 1.14281 2.46585V3.00726C1.14281 3.30612 1.39943 3.54867 1.71428 3.54867H2.77603C4.07371 3.54867 5.29376 4.02778 6.21102 4.89667L8.57783 7.13898L8.57771 7.13886C9.1865 7.71879 9.91066 8.17864 10.7084 8.49154C11.506 8.80456 12.3612 8.96453 13.2245 8.96215H14.2857C14.4373 8.96215 14.5826 8.90517 14.6897 8.80366C14.797 8.70216 14.8571 8.5644 14.8571 8.42087L14.8572 7.87942ZM16 7.87942V8.42083C16 9.31684 15.2309 10.0449 14.2857 10.0449H13.2246C12.2112 10.0477 11.2072 9.85982 10.2709 9.49242C9.33444 9.12502 8.48438 8.58521 7.76976 7.90434L6.28578 6.49888V10.0449H5.14297V5.43944C4.65029 5.05177 4.05936 4.79279 3.42869 4.688V10.0449H2.28575V4.63116H1.7144C0.769253 4.63116 0.000122381 3.90307 0.000122381 3.00706V2.46565C0.000122381 1.57022 0.769253 0.841547 1.7144 0.841547H2.77616C4.83672 0.841547 6.7738 1.60218 8.23033 2.98214L10.5977 5.22503C11.2926 5.8872 12.2384 6.25822 13.2241 6.25526H14.2857C15.2308 6.25526 16 6.98393 16 7.87937L16 7.87942ZM12.7998 14.9173C12.4101 14.9173 11.9535 14.6862 11.4695 14.4398C10.8833 14.1421 10.2764 13.8345 9.59988 13.8345C8.92271 13.8345 8.31644 14.1425 7.73015 14.4398C7.2467 14.6861 6.78953 14.9173 6.39984 14.9173C6.09814 14.9173 5.85121 14.7809 5.44095 14.5394C4.90738 14.2255 4.24395 13.8345 3.19992 13.8345C2.15589 13.8345 1.49198 14.2253 0.958773 14.5394C0.548509 14.7808 0.301683 14.9173 0 14.9173V16C0.642243 16 1.10969 15.7249 1.56171 15.4586C2.03488 15.1809 2.48222 14.9172 3.19995 14.9172C3.91765 14.9172 4.36453 15.1808 4.83819 15.4586C5.29021 15.7249 5.75763 16 6.3999 16C7.07707 16 7.68335 15.6925 8.26963 15.3947C8.75309 15.1489 9.20964 14.9172 9.59994 14.9172C9.98964 14.9172 10.4462 15.1489 10.9303 15.3947C11.5165 15.6925 12.1234 16 12.8 16C13.4772 16 14.0828 15.6925 14.6703 15.3947C15.1537 15.149 15.6098 14.9173 15.9999 14.9173V13.8346C15.3228 13.8346 14.7171 14.1426 14.1302 14.4399C13.6467 14.6862 13.1902 14.9174 12.7999 14.9174L12.7998 14.9173ZM14.1301 11.7329C14.717 11.4351 15.3228 11.1276 15.9998 11.1276V12.2103C15.6095 12.2103 15.1536 12.442 14.6701 12.6878C14.0827 12.9855 13.4771 13.2931 12.7999 13.2931C12.1233 13.2931 11.5164 12.9856 10.9302 12.6878C10.4461 12.442 9.98954 12.2103 9.59985 12.2103C9.20955 12.2103 8.753 12.442 8.26954 12.6878C7.68338 12.9855 7.07698 13.2931 6.39993 13.2931C5.75769 13.2931 5.29024 13.018 4.83822 12.7517C4.36444 12.474 3.91771 12.2103 3.19998 12.2103C2.48225 12.2103 2.03482 12.4739 1.56174 12.7517C1.10972 13.018 0.642304 13.2931 3.05954e-05 13.2931V12.2104C0.301729 12.2104 0.548662 12.074 0.958926 11.8325C1.49188 11.5185 2.15592 11.1276 3.19983 11.1276C4.24386 11.1276 4.90728 11.5185 5.44098 11.8325C5.85124 12.0739 6.09807 12.2104 6.39987 12.2104C6.78956 12.2104 7.24673 11.9793 7.73018 11.7329C8.31635 11.4351 8.92274 11.1276 9.59979 11.1276C10.2764 11.1276 10.8832 11.4356 11.4695 11.7329C11.9536 11.9792 12.4101 12.2104 12.7998 12.2104C13.1901 12.2104 13.6467 11.9793 14.1301 11.7329Z" fill="#212121"/>
</svg>
