<svg width="30" height="31" viewBox="0 0 30 31" fill="none" xmlns="http://www.w3.org/2000/svg">
<g clip-path="url(#clip0_7798_73541)">
<path d="M0 15.5C0 23.7843 6.71573 30.5 15 30.5C23.2843 30.5 30 23.7843 30 15.5C30 7.21573 23.2843 0.5 15 0.5C6.71573 0.5 0 7.21573 0 15.5Z" fill="#004993"/>
<path d="M16.932 18.3243C17.014 18.2813 17.093 18.2383 17.172 18.1913L17.21 18.1703C17.227 18.1593 17.243 18.1493 17.26 18.1393L17.307 18.1093L17.625 18.6243C17.488 18.7143 17.344 18.7963 17.193 18.8723L17.784 20.1013L17.027 20.3883L16.439 19.1693C15.967 19.3123 15.456 19.3903 14.919 19.3903C14.379 19.3903 13.863 19.3123 13.389 19.1663L12.767 20.3883L12.066 20.1313L12.631 18.8623C12.474 18.7823 12.323 18.6943 12.182 18.5993L12.512 18.0943C13.194 18.5353 14.024 18.7943 14.918 18.7943C15.258 18.7943 15.589 18.7563 15.905 18.6863C15.96 18.6763 16.022 18.6633 16.096 18.6403C16.479 18.5333 16.691 18.4473 16.932 18.3243ZM18.127 14.1633V14.1033C18.127 12.3463 16.943 10.8943 15.405 10.6623L15.441 10.6113C17.274 10.7183 18.733 12.2103 18.844 14.1633H18.127ZM18.773 15.2063C18.562 16.2733 17.939 17.1843 17.086 17.7543C16.703 18.0013 16.271 18.1903 15.833 18.2973C15.563 18.3583 15.285 18.3913 14.999 18.3913C13.148 18.3913 11.604 17.0373 11.234 15.2353L1.505 15.6123L0 14.4823H11.149L11.832 14.4763C12.001 16.2203 13.341 17.5803 14.971 17.5803C15.2 17.5803 15.423 17.5533 15.638 17.5023L14.24 14.6003L13.233 15.0623L12.684 13.7573L15.289 12.5693L16.331 13.6403L14.975 14.2613L16.392 17.2063C17.332 16.6843 18.002 15.6563 18.111 14.4493H18.851L30 14.4823L28.494 15.6113L18.773 15.2063ZM18.402 17.1243L21.703 18.3963L20.053 18.7733L17.968 17.6153L18.402 17.1243ZM11.554 17.1243L8.253 18.3963L9.903 18.7733L11.987 17.6153L11.554 17.1243ZM18.893 16.2403L24.571 17.3693L22.602 18.1233L18.604 16.7323L18.893 16.2403ZM11.091 16.2403L5.415 17.3693L7.384 18.1233L11.381 16.7323L11.091 16.2403ZM19.098 15.4943L27.44 16.1323L25.557 17.0883L18.983 15.9583L19.098 15.4943ZM10.917 15.4943L2.577 16.1323L4.46 17.0883L11.033 15.9583L10.917 15.4943Z" fill="white"/>
</g>
<defs>
<clipPath id="clip0_7798_73541">
<rect width="30" height="30" fill="white" transform="translate(0 0.5)"/>
</clipPath>
</defs>
</svg>
