<svg width="30" height="30" viewBox="0 0 30 30" fill="none" xmlns="http://www.w3.org/2000/svg">
<g id="AzurAir">
<circle id="Ellipse 54" cx="15" cy="15" r="15" fill="white"/>
<g id="Group 827">
<g id="Group">
<path id="Vector" d="M9.15877 17.2147C7.98885 15.4742 6.30083 14.4736 4.5376 14.4736H0L3.21727 19.2494C4.38718 20.9899 6.07521 21.9904 7.83844 21.9904H12.376L9.15877 17.2147Z" fill="#003E69"/>
<path id="Vector_2" d="M21.9774 7C20.0304 7 17.8744 8.53868 16.0944 11.2124L11.0889 18.7124L13.295 22H13.9134C15.8605 22 18.0164 20.4613 19.7964 17.7876L26.9997 7H21.9774Z" fill="#CF003D"/>
</g>
<g id="Group_2">
<g id="Clip path group">
<mask id="mask0_4945_49927" style="mask-type:luminance" maskUnits="userSpaceOnUse" x="11" y="7" width="17" height="15">
<g id="SVGID_2_">
<path id="Vector_3" d="M21.9794 7C20.0323 7 17.8763 8.53868 16.0964 11.2124L11.0908 18.7124L13.3053 22H13.9237C15.8708 22 18.0267 20.4613 19.8067 17.7876L27.0017 7H21.9794Z" fill="white"/>
</g>
</mask>
<g mask="url(#mask0_4945_49927)">
<path id="Vector_4" d="M27.0017 7H11.0908V21.9916H27.0017V7Z" fill="url(#paint0_linear_4945_49927)"/>
</g>
</g>
</g>
</g>
</g>
<defs>
<linearGradient id="paint0_linear_4945_49927" x1="19.0426" y1="21.9912" x2="19.0426" y2="-25.0454" gradientUnits="userSpaceOnUse">
<stop stop-color="#7B1215"/>
<stop offset="0.0055" stop-color="#7B1215"/>
<stop offset="0.1279" stop-color="#880F16"/>
<stop offset="0.3559" stop-color="#AC0919"/>
<stop offset="0.5769" stop-color="#D4011C"/>
<stop offset="1" stop-color="#D4011C"/>
</linearGradient>
</defs>
</svg>
