<svg width="30" height="31" viewBox="0 0 30 31" fill="none" xmlns="http://www.w3.org/2000/svg">
<g clip-path="url(#clip0_7798_73517)">
<path d="M0 15.5C0 23.7843 6.71573 30.5 15 30.5C23.2843 30.5 30 23.7843 30 15.5C30 7.21573 23.2843 0.5 15 0.5C6.71573 0.5 0 7.21573 0 15.5Z" fill="#CF0A2C"/>
<path fill-rule="evenodd" clip-rule="evenodd" d="M17.9016 16.6002C21.6016 16.5002 23.9016 14.9002 23.9016 13.0002C23.9016 11.0002 21.4016 9.4002 17.2016 9.4002H16.6016L17.8016 8.2002H16.0016L13.0016 9.4002H8.10156C6.40156 9.4002 5.50156 9.8002 5.10156 10.6002H15.0016C17.7016 10.6002 19.6016 11.0002 19.6016 12.9002C19.6016 15.0002 17.4016 15.4002 15.0016 15.4002H10.5016L14.5016 19.7002C17.8016 23.3002 21.0016 23.9002 24.9016 23.9002L17.9016 16.6002Z" fill="white"/>
</g>
<defs>
<clipPath id="clip0_7798_73517">
<rect width="30" height="30" fill="white" transform="translate(0 0.5)"/>
</clipPath>
</defs>
</svg>
