<svg width="30" height="30" viewBox="0 0 30 30" fill="none" xmlns="http://www.w3.org/2000/svg">
<g clip-path="url(#clip0_4945_49906)">
<path d="M0 15C0 23.2843 6.71573 30 15 30C23.2843 30 30 23.2843 30 15C30 6.71573 23.2843 0 15 0C6.71573 0 0 6.71573 0 15Z" fill="#B8CF53"/>
<path d="M27 15.0019C27 21.6307 21.6317 27 15.0038 27C8.37408 27 3 21.6307 3 15.0019C3 8.37312 8.37408 3 15.0038 3C21.6317 3 27 8.37312 27 15.0019Z" fill="white"/>
<path d="M14.151 8.001C12.181 8.001 10.905 8.109 9.979 8.452C8.426 9.057 7.353 10.327 7.353 11.994C7.353 13.382 8 14.387 9.87 15.545C11.867 16.753 12.266 17.153 12.266 17.885C12.266 18.681 11.483 19.59 9.471 19.59C8.769 19.59 7.711 19.491 7.035 19.326L6.713 19.245C6.533 19.727 6.125 20.868 6 21.282L6.319 21.377C6.927 21.572 8.37 21.723 9.404 21.723C12.843 21.723 14.895 19.645 14.895 17.47C14.895 16.132 14.289 15.116 12.236 13.835C11.208 13.203 10.683 12.792 10.365 12.475C10.105 12.143 10.078 11.896 10.078 11.635C10.078 11.386 10.132 11.099 10.297 10.889C10.474 10.63 10.799 10.464 11.24 10.327C11.694 10.177 12.532 10.173 13.84 10.173H15.057L15.927 8H14.151V8.001ZM23.349 8.001H17.233L16.364 10.174H18.391C19.754 10.174 20.018 10.144 20.36 10.144C19.866 11.275 16.884 18.869 16.884 18.869H19.407C19.407 18.869 23.18 9.416 23.58 8.425C23.691 8.203 23.638 8.001 23.349 8.001Z" fill="#B8CF53"/>
</g>
<defs>
<clipPath id="clip0_4945_49906">
<rect width="30" height="30" fill="white"/>
</clipPath>
</defs>
</svg>
